<?xml version="1.0" encoding="UTF-8" standalone="no"?>
<!-- Created with Inkscape (http://www.inkscape.org/) -->

<svg
   width="210mm"
   height="297mm"
   viewBox="0 0 210 297"
   version="1.1"
   id="svg1"
   inkscape:version="1.3.2 (091e20ef0f, 2023-11-25)"
   sodipodi:docname="cat-law-office.svg"
   xmlns:inkscape="http://www.inkscape.org/namespaces/inkscape"
   xmlns:sodipodi="http://sodipodi.sourceforge.net/DTD/sodipodi-0.dtd"
   xmlns="http://www.w3.org/2000/svg"
   xmlns:svg="http://www.w3.org/2000/svg">
  <sodipodi:namedview
     id="namedview1"
     pagecolor="#505050"
     bordercolor="#eeeeee"
     borderopacity="1"
     inkscape:showpageshadow="0"
     inkscape:pageopacity="0"
     inkscape:pagecheckerboard="0"
     inkscape:deskcolor="#d1d1d1"
     inkscape:document-units="mm"
     inkscape:zoom="0.48931789"
     inkscape:cx="489.45686"
     inkscape:cy="432.23435"
     inkscape:window-width="1366"
     inkscape:window-height="743"
     inkscape:window-x="0"
     inkscape:window-y="25"
     inkscape:window-maximized="1"
     inkscape:current-layer="layer1" />
  <defs
     id="defs1" />
  <g
     inkscape:label="Layer 1"
     inkscape:groupmode="layer"
     id="layer1">
    <path
       id="rect12"
       style="fill:#333333;stroke:none;stroke-width:5.33919;stroke-linecap:round;stroke-linejoin:round;stroke-dasharray:none"
       d="M 18.604055,32.628512 H 188.23533 V 265.92987 H 18.604055 Z"
       sodipodi:insensitive="true" />
    <path
       id="path1"
       style="fill:#ffffff;stroke:none;stroke-width:0.169477;stroke-linecap:round;stroke-linejoin:round"
       d="m 85.286784,71.043726 c -0.02917,9.29e-4 -0.06047,0.01367 -0.09405,0.03824 -1.576746,1.153354 -3.165776,6.970207 -3.47214,9.732223 -0.180437,-0.02347 -0.360949,-0.03035 -0.541569,-0.04858 -0.04806,0.347297 -0.09893,0.673143 -0.153996,0.967383 -0.626417,0.0345 -1.212506,0.163178 -1.790071,0.352433 l 0.153479,2.670638 -0.901237,-2.382284 c -0.474441,0.19741 -0.950913,0.417683 -1.449007,0.671277 l 0.398425,1.451591 -1.156519,-1.068152 c -0.626943,0.326115 -0.699587,0.882753 -1.453949,1.235242 -0.554334,0.25902 -1.603855,0.208646 -2.027492,0.37758 l 1.130082,1.639417 -1.800842,-1.33711 c -0.307837,0.161487 -0.608011,0.357398 -0.922424,0.644922 l 1.60817,1.504818 -2.074808,-1.01906 c -0.24837,0.28557 -0.506274,0.61129 -0.79375,1.042831 -0.131166,0.196891 -1.132122,-0.231715 -2.381767,-0.871782 -0.102228,0.142255 -0.213501,0.277895 -0.310575,0.423747 -3.047575,-2.036321 -7.71407,-3.183075 -9.75031,-1.461926 -1.085909,0.917878 4.194599,8.41761 6.011003,10.932666 -4.08355,-6.137544 -4.735855,-14.987408 3.516581,-6.250782 0.054,0.813425 -2.03624,7.556347 -1.842781,8.37675 0.614931,2.607778 1.048827,5.695498 2.076875,8.165908 l -4.027144,2.81533 4.473629,-1.85156 c 0.367276,0.69649 0.801983,1.31873 1.322916,1.8402 l -2.186946,3.00911 2.763139,-2.50527 c 0.233024,0.1777 0.477223,0.3432 0.742073,0.48266 0.486507,0.25617 1.056204,0.5047 1.656747,0.74517 l -1.403016,2.63757 1.624191,-2.55282 c 3.043973,1.18109 7.180126,2.02769 10.032979,1.35496 0.682092,-0.16085 3.305305,-0.4069 6.818189,-2.76159 3.831779,-2.56843 6.978202,-6.3947 7.590751,-7.96386 0.569809,-1.45965 0.804515,-4.708346 -0.07855,-9.929105 l 3.83749,-2.624646 -3.977533,1.803507 c -0.02294,-0.124163 -0.03835,-0.233915 -0.06253,-0.360185 -0.112831,-0.589122 -0.347652,-1.111424 -0.68833,-1.600419 l 3.465421,-2.9993 -4.349088,1.984375 0.0021,0.02636 c -0.386046,-0.35401 -0.83307,-0.70205 -1.349789,-1.053682 l 1.275375,-2.23914 -1.762167,1.922363 c -2.085141,-1.339157 -5.064373,-2.8213 -8.857857,-5.204333 -0.476441,-11.423898 6.735447,-4.137063 7.583517,3.33778 0.239056,-4.718212 -3.699915,-11.062372 -3.482475,-13.416752 -0.413687,0.761224 -1.195429,1.887267 -1.87017,1.833997 -0.652612,-0.05153 -0.632591,-2.53265 -1.070219,-2.518709 z m -2.76779,26.319323 c 0.284159,-0.0039 1.180118,-0.04282 1.261939,0.927076 0.06506,0.771156 -0.405501,1.090879 -0.161748,2.588475 0.281249,1.72792 -1.200489,1.1404 -1.637109,0.97616 -0.959308,-0.36081 -1.724395,0.28912 -2.554883,0.26717 -0.309611,-0.008 -0.86189,-0.63993 -0.863513,-1.47846 -0.0016,-0.838525 2.420853,-3.258679 3.955314,-3.280421 z"
       sodipodi:nodetypes="sccccccccccsccccccsccsccsccccccscccssscccsccccccccccsscssccsc" />
    <path
       id="path7"
       style="fill:#ffffff;stroke:none;stroke-width:0.296592;stroke-linecap:round;stroke-linejoin:round"
       d="m 104.4861,101.88668 c -1.53192,6.8e-4 -3.06268,0.0804 -4.588031,0.2435 -1.082787,0.0301 1.644721,1.43372 -9.11943,10.82394 0,0 3.71903,-0.36964 4.640127,3.18931 0.940855,3.63529 -1.103064,4.72537 -2.048812,5.04672 -1.303809,0.44302 -3.69656,1.22228 -5.102217,-1.94349 -1.405657,-3.16574 0.796196,-5.2234 0.796196,-5.2234 -2.667182,1.27089 -5.63303,1.41662 -8.556545,1.37947 -2.934628,2.57135 -3.437812,4.45758 -8.966154,8.27493 l -0.322431,-1.66237 -3.060927,4.46282 c -2.829761,2.02615 -5.968981,5.1288 -7.753327,9.28636 l 6.205108,3.51957 c 6.950483,-7.7059 19.035899,-9.51882 22.626426,-8.02083 -0.09328,0.94568 0.583094,0.95608 0.711284,1.94444 l -2.934517,-0.29203 2.650206,3.13835 c 0.146797,0.62687 0.316577,1.25888 0.515318,1.89705 l -2.198842,1.37896 4.556714,3.488 c 1.160309,2.4809 4.735591,10.72823 2.61976,17.01196 -0.01447,1.08491 0.525786,1.73171 1.766804,2.2391 2.854271,0.66076 3.871,1.05182 5.86783,-1.31946 l 2.15075,-8.67432 3.32068,6.56435 c 11.28839,2.61508 21.22883,0.83392 31.5839,-1.22884 0.11791,1.00251 -0.43577,2.7663 -0.74786,3.67528 l 16.73972,-1.69854 c 2.80317,-5.04259 3.44531,-8.19824 1.39079,-15.33082 -3.3874,-12.46777 -9.7386,-21.99254 -19.58005,-29.53023 l 2.16229,-2.16694 -6.08075,-0.90265 c -5.20021,-3.56818 -10.89532,-6.25446 -16.79031,-7.85775 l 1.12011,-1.01591 -3.4917,0.43264 c -3.32963,-0.73381 -6.70729,-1.13067 -10.08211,-1.12917 z"
       sodipodi:nodetypes="sccssscccccccccccccccccccccccccccccs" />
    <path
       id="path9"
       style="fill:#ffffff;stroke:none;stroke-width:0.412313;stroke-linecap:round;stroke-linejoin:round"
       d="m 75.812897,161.71 0.107595,6.5032 c 0.543891,-0.007 1.116081,0.0198 1.726033,0.12346 2.903223,0.49323 7.418184,2.37529 10.375093,3.66435 6.705241,2.92321 14.198312,6.17169 22.832902,6.37133 l -1.79852,-2.20059 6.96287,1.82456 c 3.94619,-0.0271 4.13328,-0.1174 7.48869,-1.22315 5.06511,-1.66927 15.66328,-6.67292 14.83323,-13.72105 -14.92591,2.66555 -21.7184,2.46887 -34.75621,0.52777 -3.599717,4.77534 -10.05862,1.24433 -10.018693,-1.75889 z m 80.065703,0.20273 c -3.02581,10.06444 -9.08698,16.09793 -21.73215,19.12373 l -7.82106,2.87639 1.81097,-1.84041 c -16.10146,4.3104 -38.55133,0.64479 -52.14565,-9.60077 l -0.391867,4.16898 1.908376,7.73203 6.780679,1.17786 v 25.3242 l 4.334334,-1.29452 1.970667,-4.90967 -0.129754,6.23234 -2.380255,0.74984 -0.368977,2.24936 -1.773353,-1.4932 -1.618867,0.62855 -0.03379,10.30914 h 9.024295 v -37.07119 l 6.171358,0.0623 v 37.0089 h 8.952944 l 0.017,-35.39385 h 12.87389 l 0.22651,35.39385 h 9.75479 l 0.11438,-36.95453 h 8.47275 l -0.2435,36.95453 h 11.78323 v -20.04984 l -2.06128,1.50632 -3.68875,-3.80203 -2.33311,1.70905 3.1995,-2.96507 1.9367,2.89485 2.94694,-1.28208 v -16.69744 l 5.90066,-0.89132 2.72723,-9.71404 -0.72371,-12.13317 z"
       sodipodi:nodetypes="cccccccccccccccccccccccccccccccccccccccccccccccccccccc" />
    <path
       id="path10"
       style="fill:#ffffff;stroke:none;stroke-width:1.05418;stroke-linecap:round;stroke-linejoin:round;stroke-dasharray:none"
       d="m 46.90185,121.74851 c -0.351304,-0.006 -0.719403,0.002 -1.105386,0.0226 0,0 -8.54192,13.83793 -8.128435,14.07667 2.375025,6.04348 6.10575,5.47102 9.3618,5.40461 0.984367,-1.70274 2.021952,-3.33368 3.064728,-4.9663 l 20.84603,11.20676 c 2.054513,-0.45031 2.229755,-1.71582 2.095249,-3.11571 L 52.329112,132.74346 c 0.962707,-1.5612 1.906189,-3.16794 2.794042,-4.88476 -1.459149,-3.02472 -2.951727,-6.02313 -8.221304,-6.1102 z"
       sodipodi:nodetypes="sccccccccs" />
    <path
       style="fill:#ffffff;stroke:none;stroke-width:1.05418;stroke-linecap:round;stroke-linejoin:round;stroke-dasharray:none"
       d="m 58.027313,142.00627 c 0,0 -0.326532,2.18749 1.396525,3.14222 1.723056,0.9547 3.277495,-0.33526 3.277495,-0.33526 z"
       id="path12"
       sodipodi:nodetypes="czcc" />
    <path
       id="path4"
       style="fill:#ffffff;stroke:none;stroke-width:0.277461;stroke-linecap:round;stroke-linejoin:round;stroke-dasharray:none"
       d="m 93.983466,75.121615 c -0.383991,0.0024 -0.802244,0.129237 -1.235067,0.420646 -0.633836,0.426747 -0.694144,1.019549 -0.723986,1.699638 l -1.834514,-0.08165 -1.711006,-1.194242 1.342037,2.858223 1.83813,4.946468 c 0,0 1.375615,0.984666 1.961638,1.141016 3.33921,0.890897 5.394284,-0.966795 5.914884,-3.095935 0.586718,-1.398967 0.927828,-2.477431 0.377239,-4.291211 l -0.667659,1.404565 c -0.54473,-1.054844 -1.626915,-1.823119 -3.292307,-1.847949 -0.126488,-1.040484 -0.918721,-1.966228 -1.969389,-1.95957 z" />
    <path
       id="path4-7"
       style="fill:#ffffff;stroke:none;stroke-width:0.277461;stroke-linecap:round;stroke-linejoin:round;stroke-dasharray:none"
       d="m 59.422101,90.109748 0.02222,1.16272 -1.241268,2.044837 c -0.581621,-0.353701 -1.107036,-0.633739 -1.814359,-0.344682 -2.015336,0.823616 -1.512164,3.031194 -0.09198,3.805452 -3.529598,5.053915 5.397133,9.304305 7.696171,2.582277 0.196276,-0.57388 0.143143,-2.264467 0.143143,-2.264467 l -3.086116,-4.280359 z" />
    <path
       id="path3"
       style="fill:#ffffff;stroke:none;stroke-width:0.339758;stroke-linecap:round;stroke-linejoin:round;stroke-dasharray:none"
       d="m 64.282564,79.012829 -0.01878,0.01252 c -3.221934,0.933021 -3.935726,0.506404 -6.978746,-0.529682 2.146378,1.877423 2.982016,2.597101 4.884027,2.77313 -0.29532,0.341374 -1.374376,2.390932 -1.674609,2.760155 0,0 3.96465,-0.08385 6.309197,2.072159 0.245042,0.225338 0.384592,-0.539141 0.685267,-0.399407 1.835523,0.853035 1.686357,1.007674 1.869541,0.732692 1.624321,-2.438315 2.644046,-2.267842 3.667958,-2.647904 0.180532,-0.06701 1.136784,-0.240667 1.516129,-0.413876 0.412602,-0.188394 0.861747,-0.808608 1.033952,-0.895439 2.218399,-1.118596 2.870559,-1.717098 4.861725,-1.826747 0.106035,-1.145374 0.554979,-0.772846 0.554979,-0.772846 0,0 0.955062,-5.873484 1.980675,-7.266423 -5.031268,-0.580148 -12.253751,0.104936 -18.691315,6.401668 z"
       sodipodi:nodetypes="cccccsssssscccc" />
  </g>
</svg>
