<?xml version="1.0" encoding="UTF-8" standalone="no"?>
<!-- Created with Inkscape (http://www.inkscape.org/) -->

<svg
   width="210mm"
   height="297mm"
   viewBox="0 0 210 297"
   version="1.1"
   id="svg1"
   inkscape:version="1.3.2 (091e20ef0f, 2023-11-25)"
   sodipodi:docname="cat-law-office.svg"
   xmlns:inkscape="http://www.inkscape.org/namespaces/inkscape"
   xmlns:sodipodi="http://sodipodi.sourceforge.net/DTD/sodipodi-0.dtd"
   xmlns="http://www.w3.org/2000/svg"
   xmlns:svg="http://www.w3.org/2000/svg">
  <sodipodi:namedview
     id="namedview1"
     pagecolor="#505050"
     bordercolor="#eeeeee"
     borderopacity="1"
     inkscape:showpageshadow="0"
     inkscape:pageopacity="0"
     inkscape:pagecheckerboard="0"
     inkscape:deskcolor="#d1d1d1"
     inkscape:document-units="mm"
     inkscape:zoom="0.48931789"
     inkscape:cx="444.49631"
     inkscape:cy="483.32588"
     inkscape:window-width="1366"
     inkscape:window-height="743"
     inkscape:window-x="0"
     inkscape:window-y="25"
     inkscape:window-maximized="1"
     inkscape:current-layer="layer1" />
  <defs
     id="defs1" />
  <g
     inkscape:label="Layer 1"
     inkscape:groupmode="layer"
     id="layer1">
    <path
       id="rect12"
       style="fill:#333333;stroke:none;stroke-width:5.33919;stroke-linecap:round;stroke-linejoin:round;stroke-dasharray:none"
       d="M 18.604055,32.628512 H 188.23533 V 265.92987 H 18.604055 Z" />
    <path
       id="path1"
       style="fill:#ffffff;stroke:none;stroke-width:0.169477;stroke-linecap:round;stroke-linejoin:round"
       d="m 85.286822,71.043477 c -0.02917,9.29e-4 -0.06042,0.01394 -0.094,0.03851 -1.576751,1.153359 -3.166086,6.970123 -3.47245,9.732149 -1.992421,-0.259175 -4.005459,-0.201318 -5.829323,0.228778 -3.676438,0.866936 -6.683771,3.090198 -8.63809,6.02639 -3.04759,-2.036331 -7.714021,-3.183299 -9.750271,-1.462145 -1.085914,0.917883 4.194122,8.417604 6.010536,10.93267 -4.08357,-6.137574 -4.735856,-14.987308 3.51662,-6.250637 0.054,0.813425 -2.036147,7.556059 -1.842688,8.376467 0.614936,2.607781 1.049076,5.695401 2.077129,8.165811 l -4.027409,2.81556 4.47364,-1.85175 c 0.367281,0.69649 0.801901,1.31895 1.322839,1.84042 l -2.186987,3.00923 2.763464,-2.50524 c 0.233029,0.1777 0.476982,0.34302 0.741832,0.48248 0.486507,0.25617 1.056402,0.50476 1.656945,0.74523 l -1.403251,2.63775 1.624102,-2.55281 c 3.043988,1.18109 7.180543,2.02728 10.033411,1.35455 0.682097,-0.16085 3.305155,-0.40651 6.818054,-2.7612 3.831799,-2.56843 6.977917,-6.39505 7.590466,-7.96421 0.569814,-1.4597 0.804914,-4.708427 -0.07815,-9.929216 l 3.837139,-2.624156 -3.977578,1.803045 c -0.02294,-0.124163 -0.03811,-0.233886 -0.06229,-0.360156 -0.112831,-0.589127 -0.347918,-1.111322 -0.688601,-1.600317 l 3.465655,-2.999038 -4.349057,1.984257 0.0023,0.02605 c -0.386046,-0.354015 -0.833301,-0.70165 -1.35002,-1.053287 l 1.275269,-2.239085 -1.762274,1.921966 c -2.085156,-1.339167 -5.064303,-2.821098 -8.857807,-5.204146 -0.476446,-11.423953 6.735599,-4.137206 7.583669,3.337677 0.239061,-4.718237 -3.700083,-11.062002 -3.482643,-13.416392 -0.413687,0.761224 -1.195123,1.886897 -1.869869,1.833627 -0.652612,-0.05153 -0.632642,-2.53277 -1.070275,-2.518829 z m 2.940144,0.685202 c 0.278447,-0.512364 0.394569,-0.86266 0.182343,-0.564017 -0.104783,0.147448 -0.161483,0.33815 -0.182343,0.564017 z m -5.708138,25.634524 c 0.284159,-0.0039 1.180525,-0.04312 1.262346,0.926775 0.06506,0.771161 -0.405802,1.090951 -0.162044,2.588542 0.281249,1.72792 -1.200478,1.14057 -1.637098,0.97633 -0.959313,-0.36086 -1.724306,0.2888 -2.554799,0.26685 -0.309616,-0.008 -0.861769,-0.63947 -0.863392,-1.478 -0.0016,-0.838525 2.420518,-3.258765 3.954989,-3.280507 z"
       sodipodi:nodetypes="sccccsccsccccccscccssscccsccccccccccssscscssssszss" />
    <path
       id="path7"
       style="fill:#ffffff;stroke:none;stroke-width:0.296592;stroke-linecap:round;stroke-linejoin:round"
       d="m 104.4861,101.88668 c -1.53192,6.8e-4 -3.06268,0.0804 -4.588031,0.2435 -1.082787,0.0301 1.644721,1.43372 -9.11943,10.82394 0,0 3.339301,-0.24906 4.640127,3.18931 1.30083,3.43838 -0.767667,4.5419 -2.048812,5.04672 -1.281148,0.50482 -3.69656,1.22228 -5.102217,-1.94349 -1.405657,-3.16574 0.796196,-5.2234 0.796196,-5.2234 -2.667182,1.27089 -5.63303,1.41662 -8.556545,1.37947 -2.934628,2.57135 -4.4609,5.7721 -9.989242,9.58945 l -0.918512,-2.54374 -1.441758,4.02967 c -2.829761,2.02615 -5.968981,5.1288 -7.753327,9.28636 l 6.205108,3.51957 c 6.143215,-6.81089 8.857459,-9.20982 13.825809,-9.43586 2.266095,-0.10309 3.91501,-0.62327 8.800617,1.41503 -0.09328,0.94568 -0.04212,1.91894 0.08607,2.9073 l -2.309303,-1.25489 2.650206,3.13835 c 0.146797,0.62687 0.316577,1.25888 0.515318,1.89705 l -1.338695,-0.76675 1.977463,2.65586 c 2.419844,6.64279 6.454695,13.70608 4.338864,19.98981 -0.01447,1.08491 0.525786,1.73171 1.766804,2.2391 2.854271,0.66076 3.871,1.05182 5.86783,-1.31946 l 2.15075,-8.67432 3.32068,6.56435 c 11.28839,2.61508 21.22883,0.83392 31.5839,-1.22884 0.11791,1.00251 0.54088,4.01656 0.22879,4.92554 l 13.49226,-0.67161 c 2.80317,-5.04259 5.71612,-10.47543 3.6616,-17.60801 -3.3874,-12.46777 -11.1371,-23.23417 -20.97855,-30.77186 l 3.56079,-0.92531 -6.08075,-0.90265 c -5.20021,-3.56818 -10.89532,-6.25446 -16.79031,-7.85775 l 1.12011,-1.01591 -3.4917,0.43264 c -3.32963,-0.73381 -6.70729,-1.13067 -10.08211,-1.12917 z"
       sodipodi:nodetypes="sccssscccccccsccccccccccccccccccccccs" />
    <path
       id="path9"
       style="fill:#ffffff;stroke:none;stroke-width:0.412313;stroke-linecap:round;stroke-linejoin:round"
       d="m 75.812897,161.71 0.107595,6.5032 c 0.543891,-0.007 1.116081,0.0198 1.726033,0.12346 2.903223,0.49323 5.755929,3.33293 8.712838,4.62199 6.705241,2.92321 15.860567,5.21405 24.495157,5.41369 l -1.79852,-2.20059 3.35014,2.21983 c 3.94619,-0.0271 7.74601,-0.51267 11.10142,-1.61842 5.06511,-1.66927 15.66328,-6.67292 14.83323,-13.72105 -14.92591,2.66555 -21.7184,2.46887 -34.75621,0.52777 -3.599717,4.77534 -10.05862,1.24433 -10.018693,-1.75889 z m 80.065703,0.20273 c -3.02581,10.06444 -13.27025,16.71033 -25.91542,19.73613 l -3.63779,2.26399 1.81097,-1.84041 c -17.34041,3.60785 -38.639922,0.59455 -52.14565,-9.60077 l -0.391867,4.16898 1.908376,7.73203 6.780679,1.17786 v 25.3242 l 4.334334,-1.29452 1.970667,-4.90967 -1.308115,5.34344 -2.296846,0.64558 0.725975,3.24252 -2.296846,-2.72608 -1.129169,-0.13251 v 12.30308 h 9.024295 v -37.07119 l 6.171358,0.0623 v 37.0089 h 8.952939 l 0.017,-35.39385 h 12.87389 l 0.22651,35.39385 h 9.7548 l 0.11438,-36.95453 h 8.47275 l -0.24351,36.95453 h 11.78323 v -20.04984 l -2.06127,1.50632 -3.68876,-3.80203 -2.3331,1.70905 3.1995,-2.96507 1.9367,2.89485 2.94693,-1.28208 v -16.69744 l 5.90067,-0.89132 2.72723,-9.71404 -0.72371,-12.13317 z" />
    <path
       id="path10"
       style="fill:#ffffff;stroke:none;stroke-width:1.05418;stroke-linecap:round;stroke-linejoin:round;stroke-dasharray:none"
       d="m 46.90185,121.74851 c -0.351304,-0.006 -0.719403,0.002 -1.105386,0.0226 0,0 -8.54192,13.83793 -8.128435,14.07667 2.375025,6.04348 6.10575,5.47102 9.3618,5.40461 0.984367,-1.70274 2.021952,-3.33368 3.064728,-4.9663 l 20.84603,11.20676 c 2.054513,-0.45031 2.229755,-1.71582 2.095249,-3.11571 L 52.329112,132.74346 c 0.962707,-1.5612 1.906189,-3.16794 2.794042,-4.88476 -1.459149,-3.02472 -2.951727,-6.02313 -8.221304,-6.1102 z"
       sodipodi:nodetypes="sccccccccs" />
    <path
       style="fill:#ffffff;stroke:none;stroke-width:1.05418;stroke-linecap:round;stroke-linejoin:round;stroke-dasharray:none"
       d="m 58.027313,142.00627 c 0,0 -0.326532,2.18749 1.396525,3.14222 1.723056,0.9547 3.277495,-0.33526 3.277495,-0.33526 z"
       id="path12"
       sodipodi:nodetypes="czcc" />
  </g>
</svg>
