<?xml version="1.0" encoding="UTF-8" standalone="no"?>
<!-- Created with Inkscape (http://www.inkscape.org/) -->

<svg
   width="210mm"
   height="297mm"
   viewBox="0 0 210 297"
   version="1.1"
   id="svg1"
   inkscape:version="1.3.2 (091e20ef0f, 2023-11-25)"
   sodipodi:docname="cat-law-office.svg"
   xmlns:inkscape="http://www.inkscape.org/namespaces/inkscape"
   xmlns:sodipodi="http://sodipodi.sourceforge.net/DTD/sodipodi-0.dtd"
   xmlns="http://www.w3.org/2000/svg"
   xmlns:svg="http://www.w3.org/2000/svg">
  <sodipodi:namedview
     id="namedview1"
     pagecolor="#505050"
     bordercolor="#eeeeee"
     borderopacity="1"
     inkscape:showpageshadow="0"
     inkscape:pageopacity="0"
     inkscape:pagecheckerboard="0"
     inkscape:deskcolor="#d1d1d1"
     inkscape:document-units="mm"
     inkscape:zoom="0.4893179"
     inkscape:cx="233.99921"
     inkscape:cy="865.49051"
     inkscape:window-width="1366"
     inkscape:window-height="743"
     inkscape:window-x="0"
     inkscape:window-y="25"
     inkscape:window-maximized="1"
     inkscape:current-layer="layer1" />
  <defs
     id="defs1">
    <inkscape:path-effect
       effect="bspline"
       id="path-effect15"
       is_visible="true"
       lpeversion="1.3"
       weight="33.333333"
       steps="2"
       helper_size="0"
       apply_no_weight="true"
       apply_with_weight="true"
       only_selected="false"
       uniform="false" />
    <inkscape:path-effect
       effect="bspline"
       id="path-effect14"
       is_visible="true"
       lpeversion="1.3"
       weight="33.333333"
       steps="2"
       helper_size="0"
       apply_no_weight="true"
       apply_with_weight="true"
       only_selected="false"
       uniform="false" />
    <inkscape:path-effect
       effect="bspline"
       id="path-effect13"
       is_visible="true"
       lpeversion="1.3"
       weight="33.333333"
       steps="2"
       helper_size="0"
       apply_no_weight="true"
       apply_with_weight="true"
       only_selected="false"
       uniform="false" />
  </defs>
  <g
     inkscape:label="Layer 1"
     inkscape:groupmode="layer"
     id="layer1">
    <path
       id="rect12"
       style="fill:#333333;stroke:none;stroke-width:5.33919;stroke-linecap:round;stroke-linejoin:round;stroke-dasharray:none"
       d="M 18.604055,32.628512 H 188.23533 V 265.92987 H 18.604055 Z"
       sodipodi:insensitive="true" />
    <path
       id="path1"
       style="fill:#ffffff;stroke:none;stroke-width:0.169477;stroke-linecap:round;stroke-linejoin:round"
       d="m 85.286784,71.043726 c -0.02917,9.29e-4 -0.06047,0.01367 -0.09405,0.03824 -1.576738,1.153346 -3.165776,6.970223 -3.47214,9.732223 -0.180437,-0.02347 -0.360949,-0.03035 -0.541569,-0.04858 3.15584,1.833691 5.896053,5.222736 5.840987,5.516976 1.410866,2.565229 1.760759,4.264132 1.472262,5.360396 l 4.073653,-4.883423 c -2.060381,-1.277068 -4.875548,-2.713128 -8.439795,-4.952152 -0.476433,-11.42381 6.735447,-4.136999 7.583517,3.33778 0.239048,-4.718172 -3.699915,-11.062388 -3.482475,-13.416752 -0.413687,0.761224 -1.195437,1.887267 -1.87017,1.833997 -0.652612,-0.05153 -0.632599,-2.53265 -1.070219,-2.518709 z M 60.052148,84.773637 c -1.02037,0.0381 -1.913393,0.295684 -2.549715,0.833541 -1.085901,0.91787 4.194615,8.417626 6.011003,10.932666 -4.083518,-6.137496 -4.735791,-14.987336 3.516581,-6.250782 0.054,0.813425 -2.03624,7.556355 -1.842781,8.37675 0.526391,2.232338 1.070639,5.222398 1.817976,7.469828 l 9.978719,-4.89738 0.575159,0.078 -10.315132,5.38985 -4.006991,2.9409 4.473629,-1.85156 c 0.286096,0.54255 0.61485,1.03804 0.99167,1.47794 l 9.339999,-6.93291 0.445451,0.0987 -9.452137,7.1856 -2.189013,3.01997 2.763139,-2.50527 c 0.233016,0.1777 0.477223,0.3432 0.742073,0.48266 0.343124,0.18067 0.91178,0.43789 1.319299,0.61081 l 7.240902,-8.26357 h 0.362769 l -7.272941,8.39483 c 0.0046,0.002 -1.396298,2.64067 -1.396298,2.64067 l 1.624191,-2.55282 c 3.043949,1.18109 7.18015,2.02769 10.032979,1.35496 0.682084,-0.16085 3.305329,-0.4069 6.818189,-2.76159 3.831747,-2.56843 6.978202,-6.3947 7.590751,-7.96386 0.569801,-1.45957 0.804521,-4.708394 -0.07855,-9.929105 l 3.837491,-2.624646 -3.880382,1.759582 -11.234973,7.062618 0.0084,-0.254042 11.069944,-7.108299 c -0.0011,-0.0057 -0.002,-0.01073 -0.0031,-0.01654 -0.112831,-0.589114 -0.34766,-1.111424 -0.68833,-1.600419 l 3.465421,-2.9993 -4.100008,2.233456 -10.268805,9.082919 -0.176552,-0.110857 10.165271,-9.411829 C 94.474965,87.901837 93.85785,87.591918 93.47078,87.32852 l 1.275375,-2.23914 -1.778186,1.929598 c -0.01466,-0.0094 -4.532023,5.271513 -4.532023,5.271513 -0.151368,0.817277 -0.593237,1.277659 -1.25057,1.457792 l -3.134176,3.653524 -0.141076,-0.2651 2.752803,-3.300574 c -2.263082,0.151064 -5.927272,-1.110315 -8.125382,-4.584975 -3.245005,0.367943 -4.650877,-1.188961 -5.723902,-1.75779 l -2.074808,-1.01906 c -0.24837,0.28557 -0.506282,0.61129 -0.79375,1.042831 -0.131166,0.196883 -1.13213,-0.231715 -2.381767,-0.871782 -0.102228,0.142255 -0.213509,0.277895 -0.310575,0.423747 -2.095192,-1.39996 -4.955779,-2.379275 -7.200595,-2.295467 z m 22.466846,12.589412 c 0.284159,-0.0039 1.180118,-0.04282 1.261939,0.927076 0.06506,0.771148 -0.405493,1.090871 -0.161748,2.588475 0.281249,1.72792 -1.200489,1.1404 -1.637109,0.97616 -0.9593,-0.36073 -1.724403,0.28912 -2.554883,0.26717 -0.309603,-0.008 -0.86189,-0.63993 -0.863513,-1.47846 -0.0016,-0.838525 2.420869,-3.258679 3.955314,-3.280421 z m 6.216675,2.148706 c 0,0 -0.488861,2.285065 -1.333769,2.914035 -0.81922,0.60985 -2.932998,0.44232 -3.061828,0.4315 -0.02837,0.12959 -0.509051,2.27965 -1.328601,2.88974 -0.844918,0.62897 -3.0856,0.42995 -3.0856,0.42995 l 2.506823,-1.15032 1.892908,-2.17041 c -6.27e-4,-5e-5 -0.0093,-5.1e-4 -0.0093,-5.1e-4 l 0.01705,-0.008 0.0124,-0.0155 -0.0021,0.01 2.478918,-1.13843 z"
       sodipodi:nodetypes="scccccccccssscccsccccccccccccsccccccsscccccccscccccccccccccccccsccsccsccsccscscccccccccs" />
    <path
       id="path7"
       style="fill:#ffffff;stroke:none;stroke-width:0.296592;stroke-linecap:round;stroke-linejoin:round"
       d="m 104.48613,101.8868 c -1.53192,6.8e-4 -3.06249,0.0803 -4.587835,0.2434 -1.069972,0.0297 1.556845,1.41511 -8.766907,10.5084 -0.260038,-0.0871 -0.532438,-0.13158 -0.806669,-0.13177 -1.196403,0.003 -2.229275,0.83873 -2.482019,2.00814 -2.336701,0.81138 -4.850552,0.91938 -7.335469,0.88781 -2.93461,2.57129 -3.437555,4.45765 -8.965861,8.27494 l -0.322461,-1.66243 -3.060795,4.46278 c -2.829749,2.02615 -5.969198,5.12875 -7.753532,9.28625 l 6.205306,3.51968 c 6.950441,-7.70584 19.0355,-9.51868 22.626009,-8.02069 -0.09328,0.94562 0.583394,0.95622 0.711584,1.94458 l -2.934704,-0.29249 2.650484,3.13883 c 0.146797,0.62687 0.316473,1.25887 0.515214,1.89704 l -2.198832,1.37873 4.556828,3.48816 c 1.071504,2.29099 4.089116,9.31684 2.879927,15.32774 -1.417026,0.21592 -2.45689,0.55302 -2.578137,3.70882 1.340737,0 2.119641,-0.0104 3.653524,-0.0191 0.142754,0.0785 0.268012,0.16695 0.430981,0.23358 2.854253,0.66076 3.871084,1.05146 5.867854,-1.31982 l 2.15078,-8.67389 2.0407,-12.87828 c 0.5829,1.37145 3.1889,2.71586 3.35358,3.93315 1.11513,8.24277 8.08639,8.33757 9.04308,14.45539 -2.41107,0.99031 -4.54866,-0.41623 -4.72581,4.19458 2.31336,0 14.83853,-0.0305 20.59202,-0.0305 -0.52103,-0.7929 23.35595,-40.82333 20.59306,-2.36213 2.80317,-5.04259 3.44508,-8.19833 1.39062,-15.33085 -3.3874,-12.46771 -9.73881,-21.99281 -19.5802,-29.5305 l 2.16265,-2.16679 -6.08076,-0.90279 c -5.20021,-3.56812 -10.89572,-6.25411 -16.79071,-7.8574 l 1.12035,-1.01596 -3.49178,0.43253 c -3.32963,-0.73381 -6.70725,-1.13063 -10.08207,-1.12913 z m -12.6044,11.15281 c 1.115664,0.20874 2.778892,0.89397 3.537252,3.10369 1.626339,4.73885 -5.174694,7.06178 -7.151502,3.10317 -0.65878,-1.31923 -0.598756,-2.44546 -0.328145,-3.3228 0.365141,1.00341 1.317608,1.67236 2.385384,1.67535 1.406191,6e-5 2.54615,-1.1399 2.546098,-2.54609 -3.59e-4,-0.78801 -0.365586,-1.53144 -0.989087,-2.01332 z"
       sodipodi:nodetypes="cccccccccccccccccccccccccscccccccccccscssccccs" />
    <path
       id="path9"
       style="fill:#ffffff;stroke:none;stroke-width:0.412313;stroke-linecap:round;stroke-linejoin:round"
       d="m 159.72255,161.36948 -3.84369,0.0925 c -0.50329,1.87828 -1.16361,3.65152 -1.98541,5.3175 h 5.97431 z m -17.37775,0.12454 -66.531856,0.21601 0.08371,5.06945 h 63.904631 c 1.46069,-1.67662 2.43486,-3.46141 2.54351,-5.28546 z m -65.000167,6.80733 c 0.101533,0.0134 0.19812,0.0175 0.30179,0.0351 2.903214,0.49323 7.418178,2.37532 10.375078,3.66438 2.128509,0.92795 4.346937,1.8801 6.645589,2.76572 h 33.66254 c 3.29292,-1.58715 7.13907,-3.84619 9.97356,-6.46524 z m 75.734397,0 c -1.41348,2.43234 -3.23519,4.59533 -5.50716,6.46524 l 12.28851,0.006 0.0487,-6.47151 z m -77.08832,4.17029 -0.21549,2.29495 h 3.622518 c -1.180449,-0.72832 -2.330159,-1.48335 -3.407028,-2.29495 z m -0.378271,4.02611 -0.01344,0.14315 1.908411,7.73183 5.946407,0.82113 c -0.01896,12.32877 0.831864,42.98279 0.829923,55.32583 h 5.2002 l -0.38499,-54.07681 11.115596,-0.10542 0.68058,54.18223 h 7.54166 l 0.0165,-53.64583 15.03112,0.21084 0.0424,53.43499 h 7.17403 l 0.11419,-54.12745 15.72949,-0.64957 -0.62115,54.77702 h 5.51233 v -55.85913 l 5.90041,-0.89142 2.04174,-7.27139 h -14.17536 c -3.00696,1.95073 -6.65554,3.48574 -11.05618,4.53874 l -7.82071,2.87632 1.81074,-1.8402 c -13.76289,3.68435 -32.14729,1.52382 -45.69178,-5.57486 z m 24.109123,0 c 3.499138,1.04068 7.192138,1.78371 11.133168,1.87482 l -1.5322,-1.87482 z m 10.578678,0 5.71852,1.49862 c 3.94616,-0.0271 4.13354,-0.11743 7.48895,-1.22318 0.22547,-0.0743 0.50489,-0.18221 0.76119,-0.27544 z"
       sodipodi:nodetypes="ccccccccccccsccccccccccccccccccccccccccccccccccccccccccccccscc" />
    <path
       id="path10"
       style="fill:#ffffff;stroke:none;stroke-width:1.05418;stroke-linecap:round;stroke-linejoin:round;stroke-dasharray:none"
       d="m 47.618282,122.19202 c -2.263262,2.52888 -10.363782,13.41676 -9.950297,13.6555 3.608928,4.77043 7.753702,5.43441 9.361702,5.40484 2.694273,-4.46469 5.09136,-8.57541 8.270813,-13.28033 -0.558585,-2.1169 -4.494756,-5.74758 -7.682218,-5.78001 z m 6.256573,11.27972 -2.420576,3.67972 19.486094,10.34135 c 2.054509,-0.45031 2.229985,-1.71569 2.095479,-3.11558 z"
       sodipodi:nodetypes="cccccccccc" />
    <path
       style="fill:#ffffff;stroke:none;stroke-width:1.05418;stroke-linecap:round;stroke-linejoin:round;stroke-dasharray:none"
       d="m 58.027313,142.00627 c -0.01078,0.007 -1.621272,2.13172 1.192151,3.58292 2.813423,1.4512 4.524363,0.44923 4.449442,-0.69474 z"
       id="path12"
       sodipodi:nodetypes="czcc" />
    <path
       style="fill:#ffffff;stroke:none;stroke-width:0.4;stroke-linecap:round;stroke-linejoin:round;stroke-dasharray:none"
       d="m 75.964228,168.24399 c 1.131283,1.86718 3.229503,5.27766 5.370121,7.46236 0,0 -8.245298,-3.77073 -10.333189,-5.43985 -2.08789,-1.66912 -2.845022,-3.07216 -2.033942,-3.53201 0.811078,-0.45984 6.997023,1.5095 6.997023,1.5095 z"
       id="path11"
       sodipodi:nodetypes="ccsscc" />
    <path
       id="path5"
       style="fill:#ffffff;stroke-width:0.893;stroke-linecap:round;stroke-linejoin:round"
       d="M 79.6401 234.30198 L 76.819084 240.56051 L 159.75097 240.56051 L 158.3061 234.38466 L 79.6401 234.30198 z M 75.879089 242.64565 L 75.406767 243.69314 L 75.406767 246.70587 L 160.4052 246.70587 L 160.4052 243.35827 L 160.23828 242.64565 L 75.879089 242.64565 z M 75.406767 249.33207 L 75.406767 255.3193 L 160.4052 255.3193 L 160.4052 249.33207 L 75.406767 249.33207 z " />
    <path
       id="path16"
       style="fill:#ffffff;stroke:none;stroke-width:0.893;stroke-linecap:round;stroke-linejoin:round"
       d="m 57.94468,189.02959 c 0,0 -3.786264,3.75115 -6.137082,5.39551 -2.350818,1.64436 -8.298301,4.54199 -8.298301,4.54199 l -0.07252,1.94584 c 9.073779,-2.9544 10.923453,-5.28284 16.713283,-11.20369 l 0.02326,0.004 z m -1.222313,-0.30842 c -5.618022,2.07889 -9.991189,5.24975 -13.337687,9.33018 0,0 5.184961,-2.78199 7.40885,-4.35219 2.223889,-1.5702 5.928837,-4.97799 5.928837,-4.97799 z m 6.838342,0.26613 -2.127151,1.03189 c -6.221967,6.86625 -8.72821,8.80145 -18.13734,12.09219 l -1.404987,1.79026 0.573608,3.10368 c 9.777015,-2.68531 19.069631,-7.78439 23.302454,-15.75821 z"
       sodipodi:nodetypes="czccccccczcccccccc" />
  </g>
</svg>
