<?xml version="1.0" encoding="UTF-8" standalone="no"?>
<!-- Created with Inkscape (http://www.inkscape.org/) -->

<svg
   width="210mm"
   height="297mm"
   viewBox="0 0 210 297"
   version="1.1"
   id="svg5"
   inkscape:version="1.3.2 (091e20ef0f, 2023-11-25)"
   sodipodi:docname="cathulu-inc.svg"
   xmlns:inkscape="http://www.inkscape.org/namespaces/inkscape"
   xmlns:sodipodi="http://sodipodi.sourceforge.net/DTD/sodipodi-0.dtd"
   xmlns="http://www.w3.org/2000/svg"
   xmlns:svg="http://www.w3.org/2000/svg">
  <sodipodi:namedview
     id="namedview7"
     pagecolor="#ffffff"
     bordercolor="#666666"
     borderopacity="1.0"
     inkscape:pageshadow="2"
     inkscape:pageopacity="0.0"
     inkscape:pagecheckerboard="0"
     inkscape:document-units="mm"
     showgrid="false"
     inkscape:zoom="0.44598916"
     inkscape:cx="566.15726"
     inkscape:cy="613.2436"
     inkscape:window-width="1366"
     inkscape:window-height="743"
     inkscape:window-x="0"
     inkscape:window-y="25"
     inkscape:window-maximized="1"
     inkscape:current-layer="layer1"
     inkscape:showpageshadow="0"
     inkscape:deskcolor="#d1d1d1" />
  <defs
     id="defs2">
    <inkscape:path-effect
       effect="spiro"
       id="path-effect2457"
       is_visible="true"
       lpeversion="1" />
    <inkscape:path-effect
       effect="spiro"
       id="path-effect2428"
       is_visible="true"
       lpeversion="1" />
    <inkscape:path-effect
       effect="spiro"
       id="path-effect2284"
       is_visible="true"
       lpeversion="1" />
    <inkscape:path-effect
       effect="spiro"
       id="path-effect988"
       is_visible="true"
       lpeversion="1" />
    <inkscape:path-effect
       effect="spiro"
       id="path-effect984"
       is_visible="true"
       lpeversion="1" />
    <inkscape:path-effect
       effect="spiro"
       id="path-effect980"
       is_visible="true"
       lpeversion="1" />
    <inkscape:path-effect
       effect="spiro"
       id="path-effect976"
       is_visible="true"
       lpeversion="1" />
    <inkscape:path-effect
       effect="spiro"
       id="path-effect859"
       is_visible="true"
       lpeversion="1" />
  </defs>
  <g
     inkscape:label="Layer 1"
     inkscape:groupmode="layer"
     id="layer1">
    <g
       id="path1">
      <path
         style="color:#000000;fill:#ffffff;stroke-linecap:round;stroke-linejoin:round;-inkscape-stroke:none"
         d="M 188.15695,136.79292 A 82.34375,82.34375 0 0 1 105.8132,219.13667 82.34375,82.34375 0 0 1 23.469452,136.79292 82.34375,82.34375 0 0 1 105.8132,54.449173 82.34375,82.34375 0 0 1 188.15695,136.79292 Z"
         id="path12" />
      <path
         style="color:#000000;fill:#1a1a1a;stroke-linecap:round;stroke-linejoin:round;-inkscape-stroke:none"
         d="m 105.8125,52.802734 c -46.366986,0 -83.990234,37.623249 -83.990234,83.990236 0,46.36698 37.623248,83.99023 83.990234,83.99023 46.36699,0 83.99023,-37.62325 83.99023,-83.99023 0,-46.366987 -37.62324,-83.990236 -83.99023,-83.990236 z m 0,3.292969 c 44.58732,0 80.69727,36.109948 80.69727,80.697267 0,44.58732 -36.10995,80.69726 -80.69727,80.69726 -44.587318,0 -80.697266,-36.10994 -80.697266,-80.69726 0,-44.587319 36.109948,-80.697267 80.697266,-80.697267 z"
         id="path13" />
    </g>
    <path
       id="path2"
       style="fill:#1a1a1a;fill-opacity:1;stroke-width:1.18959;stroke-linecap:round;stroke-linejoin:round"
       d="m 105.35618,57.932802 c -43.443033,1.78e-4 -78.660767,35.217917 -78.660945,78.660948 -9.3e-5,20.3971 7.764684,38.9796 20.497775,52.95659 h 78.97459 c 0.002,-0.11453 -0.0105,-0.23841 -0.043,-0.3752 -0.38003,-1.6013 -5.79047,-1.74742 -4.71734,-3.04231 1.07314,-1.2949 4.1934,1.35859 5.56369,2.32631 0.23347,0.16489 0.45995,0.35694 0.67616,0.56031 0.17764,-0.39568 0.23243,-0.88948 0.0851,-1.51029 -0.72596,-3.0588 -11.061,-3.33772 -9.01106,-5.81125 2.04994,-2.47352 8.01062,2.59543 10.62815,4.44398 0.53898,0.38064 1.05883,0.83519 1.54695,1.31523 0.55348,-0.56543 1.15385,-1.10582 1.77914,-1.54741 2.12674,-1.50195 6.46026,-5.13013 9.11016,-5.11109 0.61152,0.004 1.13363,0.20287 1.51799,0.66666 2.04994,2.47352 -8.2851,2.75291 -9.01106,5.8117 -0.12773,0.53819 -0.10319,0.98044 0.0208,1.3469 0.0632,-0.049 0.12673,-0.0981 0.19099,-0.14346 1.37029,-0.96773 4.49053,-3.62121 5.56368,-2.32631 1.07315,1.29488 -4.33731,1.44101 -4.71734,3.0423 -0.0307,0.12924 -0.0402,0.24494 -0.0398,0.35393 h 28.209 c 12.73296,-13.97696 20.49786,-32.55959 20.49777,-52.95659 -1.7e-4,-43.443293 -35.21811,-78.66114 -78.6614,-78.660948 z m 5.38445,25.536001 c 7.4642,-0.03094 14.96508,2.728618 20.35159,7.889539 2.49596,2.391395 4.53559,5.27192 5.86874,8.461157 1.33312,3.189281 1.95071,6.687121 1.68996,10.133931 -0.26076,3.44687 -1.40939,6.83597 -3.38265,9.67411 -0.99253,1.42754 -2.19567,2.71025 -3.55554,3.79359 0.22942,-0.009 0.45834,-0.0282 0.68431,-0.0652 0.76,-0.12386 1.49102,-0.38394 2.20819,-0.6644 0.71716,-0.28049 1.42762,-0.5834 2.16654,-0.80018 0.73893,-0.21675 1.51354,-0.34632 2.27969,-0.26884 0.83942,0.085 1.64923,0.42154 2.3141,0.94094 0.66488,0.5194 1.18439,1.21858 1.50802,1.99773 0.6472,1.55833 0.47938,3.40011 -0.3132,4.88978 -0.0726,0.13639 -0.15233,0.27279 -0.27109,0.37157 -0.0593,0.0494 -0.12864,0.0885 -0.20321,0.10862 -0.0747,0.0201 -0.15541,0.0203 -0.22856,-0.005 -0.0953,-0.0322 -0.17335,-0.10564 -0.22177,-0.19372 -0.0484,-0.088 -0.0685,-0.1892 -0.0701,-0.28965 -0.004,-0.2009 0.0655,-0.39516 0.10364,-0.59244 0.11231,-0.58126 -0.0474,-1.1997 -0.3838,-1.6868 -0.33643,-0.48712 -0.83988,-0.84655 -1.39261,-1.05861 -0.55272,-0.21202 -1.15271,-0.28264 -1.74428,-0.25979 -0.59155,0.0229 -1.1759,0.13692 -1.74971,0.28243 -1.77391,0.44981 -3.49139,1.20967 -5.26905,1.57772 0.22821,0.11244 0.464,0.20902 0.70468,0.2892 0.73061,0.24336 1.49892,0.35284 2.26431,0.43766 0.76537,0.0848 1.53506,0.1469 2.2901,0.29826 0.75505,0.15135 1.50146,0.39644 2.14392,0.82099 0.7039,0.46515 1.26466,1.13884 1.61212,1.90767 0.34745,0.76885 0.48228,1.62992 0.40687,2.47023 -0.15082,1.68065 -1.15505,3.23279 -2.54897,4.18374 -0.12759,0.0871 -0.26217,0.17181 -0.41322,0.20411 -0.0756,0.0161 -0.15455,0.0185 -0.22991,0.002 -0.0754,-0.0168 -0.14634,-0.0541 -0.1996,-0.10997 -0.0693,-0.0727 -0.10487,-0.17428 -0.10681,-0.27473 -0.003,-0.10048 0.0273,-0.19994 0.0724,-0.28966 0.0904,-0.17944 0.24162,-0.31957 0.36704,-0.47657 0.36945,-0.46257 0.51562,-1.08374 0.44399,-1.67141 -0.0716,-0.58763 -0.35037,-1.13996 -0.74134,-1.58452 -0.39093,-0.44453 -0.88986,-0.78546 -1.4243,-1.04005 -0.53445,-0.25461 -1.10562,-0.42575 -1.68137,-0.56347 -2.36209,-0.56509 -4.88966,-0.59916 -7.0622,-1.68499 -1.25791,-0.6287 -2.32413,-1.61273 -3.09164,-2.79021 -0.0198,0.17734 -0.0321,0.35584 -0.0263,0.53586 0.0251,0.76965 0.30525,1.51478 0.70287,2.17424 0.39762,0.65946 0.91041,1.24165 1.43742,1.80312 0.52702,0.56146 1.07236,1.10723 1.54831,1.7126 0.47596,0.60535 0.88415,1.27715 1.09708,2.01719 0.23333,0.81078 0.22268,1.68707 -0.0127,2.49738 -0.23494,0.81033 -0.69098,1.55289 -1.29396,2.14301 -1.20597,1.18023 -2.97824,1.70937 -4.65578,1.52749 -0.15358,-0.0167 -0.31039,-0.0401 -0.44625,-0.1136 -0.068,-0.0367 -0.12969,-0.0863 -0.17606,-0.14799 -0.0464,-0.0617 -0.0764,-0.13606 -0.0806,-0.21318 -0.005,-0.10036 0.0331,-0.20066 0.0969,-0.27834 0.0638,-0.0778 0.15041,-0.13445 0.24304,-0.17334 0.18528,-0.0777 0.39151,-0.0864 0.58882,-0.12446 0.58133,-0.11192 1.09584,-0.48914 1.42294,-0.98257 0.3271,-0.49343 0.47395,-1.09441 0.46526,-1.68635 -0.009,-0.59192 -0.16707,-1.17556 -0.40823,-1.71622 -0.24115,-0.54066 -0.56353,-1.04074 -0.91197,-1.51934 -1.42955,-1.96348 -3.32973,-3.6314 -4.27697,-5.86782 -0.34454,-0.81346 -0.53867,-1.68492 -0.59289,-2.56573 -0.35823,-0.0579 -0.72175,-0.0826 -1.07536,-0.16474 -3.20181,-0.74361 -6.16707,-2.48518 -8.36113,-4.93278 -1.44748,-1.61475 -2.53599,-3.52444 -3.27177,-5.56594 -1.4e-4,-4e-4 1.6e-4,-9.1e-4 0,-9.1e-4 l -9e-4,9.1e-4 v 4.5e-4 c -0.9673,0.91904 -2.14894,1.61306 -3.43108,1.98416 -0.80831,0.23387 -1.65216,0.34094 -2.49332,0.32269 0.0523,0.0498 0.10497,0.0998 0.1575,0.14935 2.37841,2.24968 4.81115,4.45623 6.92326,6.95766 2.1121,2.50136 3.90995,5.33033 4.81826,8.47565 1.21359,4.20239 0.75425,8.80048 -0.91513,12.84357 -1.66939,4.04309 -4.49803,7.54785 -7.85695,10.34982 -2.69522,2.24835 -5.829169,4.10349 -9.289395,4.692 -1.730112,0.29426 -3.524905,0.26253 -5.222882,-0.18104 -1.697972,-0.44357 -3.29548,-1.30655 -4.534946,-2.54899 -0.677048,-0.67865 -1.249801,-1.47511 -1.589494,-2.37156 -0.339692,-0.89644 -0.437163,-1.89811 -0.186014,-2.82326 0.251164,-0.92514 0.868296,-1.76234 1.72165,-2.19913 0.426679,-0.21841 0.90661,-0.33518 1.385829,-0.32586 0.479217,0.0102 0.956538,0.14761 1.361389,0.40416 0.591434,0.37485 1.00548,0.98623 1.250957,1.642 0.245477,0.65577 0.335605,1.3582 0.392395,2.05611 0.05682,0.69792 0.08264,1.40051 0.20457,2.09005 0.121943,0.68951 0.346873,1.37398 0.764876,1.93573 0.468234,0.6293 1.165263,1.07515 1.923053,1.27766 0.757783,0.20237 1.571612,0.16685 2.322689,-0.0593 0.898671,-0.27056 1.7093,-0.81045 2.333098,-1.51165 0.623805,-0.70121 1.06302,-1.55973 1.303006,-2.46706 0.479937,-1.81465 0.156912,-3.77824 -0.625479,-5.48448 -0.803689,-1.75262 -2.072115,-3.26763 -3.547396,-4.50914 -1.475287,-1.24151 -3.156202,-2.22009 -4.892492,-3.05861 -3.472595,-1.67696 -7.202437,-2.8201 -10.538545,-4.75445 -2.915701,-1.69058 -5.498682,-3.98679 -7.385807,-6.77934 -1.887127,-2.79251 -3.06239,-6.08739 -3.207502,-9.45459 -0.145078,-3.36723 0.763577,-6.79611 2.68974,-9.56186 1.92616,-2.76572 4.881701,-4.83051 8.177386,-5.53607 2.104448,-0.4505 4.308613,-0.35278 6.40233,0.14528 2.093718,0.49806 4.081016,1.38922 5.92349,2.50146 0.572207,0.3454 1.128575,0.71346 1.674128,1.09617 -0.192243,-1.19931 -0.129059,-2.44055 0.202308,-3.6094 0.567416,-2.00153 1.913064,-3.77114 3.689962,-4.85311 2.024387,-1.23271 4.586266,-1.54483 6.847216,-0.83367 0.71678,0.22545 1.39955,0.55284 2.02805,0.96356 0.0333,0.34894 0.06,0.6976 0.0765,1.04503 0.11563,2.48676 -0.12068,4.98702 0.11767,7.46501 0.14836,1.54202 0.50057,3.06559 1.02602,4.52408 0.7501,-0.71281 1.37104,-1.56016 1.80946,-2.49784 1.00394,-2.14706 1.03341,-4.72786 0.0792,-6.89746 -0.65172,-1.48181 -1.7546,-2.75447 -3.10885,-3.63927 -0.20648,-2.14845 -0.77027,-4.289281 -2.08824,-5.977352 -0.73565,-0.942285 -1.69068,-1.713902 -2.770295,-2.227193 -1.418247,-0.674396 -3.043818,-0.893222 -4.59514,-0.649465 -1.551322,0.243728 -3.023228,0.945477 -4.210892,1.972836 -0.408449,0.353313 -0.783497,0.74374 -1.193479,1.095267 -0.409996,0.351513 -0.862141,0.66712 -1.373609,0.840458 -0.435404,0.147732 -0.911998,0.1866 -1.358673,0.07785 -0.446679,-0.108836 -0.859878,-0.370845 -1.12197,-0.748582 -0.216981,-0.312774 -0.32506,-0.69475 -0.332653,-1.075353 -0.0074,-0.380644 0.08259,-0.759994 0.233989,-1.109297 0.302767,-0.698618 0.837591,-1.267774 1.377682,-1.804474 5.739957,-5.703846 13.47666,-9.464264 21.55004,-10.013994 0.63069,-0.04288 1.26243,-0.06501 1.895,-0.06834 z m 18.90421,26.608637 c -0.63474,-0.0102 -1.27177,0.10016 -1.8624,0.33311 -1.18139,0.46592 -2.16346,1.41543 -2.66937,2.58021 -0.50587,1.16483 -0.52928,2.5303 -0.0634,3.71169 0.46592,1.18134 1.41542,2.16434 2.58022,2.67028 1.16481,0.50599 2.53122,0.52925 3.71258,0.0634 1.18139,-0.4659 2.16345,-1.4154 2.66938,-2.58022 0.50586,-1.16481 0.52926,-2.53121 0.0634,-3.71259 -0.46591,-1.18139 -1.41546,-2.16344 -2.58021,-2.66937 -0.58243,-0.253 -1.21543,-0.38402 -1.85019,-0.39601 z m -37.683493,1.41163 c 0.136951,0.85443 0.403534,1.68779 0.796557,2.45892 0.872669,1.71227 2.355613,3.10558 4.119017,3.86964 0.991288,0.4295 2.066922,0.65853 3.146849,0.68159 -2.587955,-2.45186 -5.153564,-4.96949 -8.062423,-7.01015 z m 39.069783,42.1664 c 0,0 7.05474,9.38545 6.83092,16.73721 -0.2403,7.89348 -14.03569,7.79627 -14.03569,-0.21905 0,-8.5376 8.06924,-12.73888 7.20477,-16.51816 z m -29.82882,9.02418 c 1.41931,1.79372 2.37713,3.94905 2.75718,6.20455 0.38006,2.25555 0.18151,4.60645 -0.57162,6.76621 -1.17384,3.36621 -3.655555,6.179 -6.610519,8.17331 -2.343922,1.58196 -5.050044,2.70304 -7.871888,2.88662 -0.30293,0.0197 -0.616868,0.0266 -0.89839,-0.0869 -0.140763,-0.0568 -0.270702,-0.14402 -0.366144,-0.26206 -0.09544,-0.11797 -0.154508,-0.26779 -0.152071,-0.41955 0.0028,-0.17858 0.08888,-0.34781 0.207739,-0.4811 0.118859,-0.1333 0.268376,-0.23505 0.419098,-0.33085 1.528592,-0.97153 3.344353,-1.48962 4.718245,-2.66982 1.386604,-1.19111 2.194908,-3.01029 2.210447,-4.83818 0.01554,-1.82788 -0.745532,-3.6386 -2.019455,-4.94951 -1.23013,-1.26589 -2.863736,-2.04585 -4.465699,-2.78705 -1.601966,-0.74122 -3.243805,-1.49262 -4.511865,-2.72052 -0.331307,-0.32082 -0.635451,-0.67397 -0.868066,-1.07218 -0.23261,-0.39822 -0.392605,-0.84428 -0.424529,-1.30437 -0.03192,-0.46006 0.06942,-0.93452 0.320886,-1.3211 0.251464,-0.38659 0.658649,-0.67759 1.113822,-0.75176 0.296613,-0.0483 0.604661,-0.005 0.886624,0.0987 0.281958,0.10396 0.539223,0.26734 0.770759,0.45893 0.463073,0.38319 0.821908,0.87454 1.224707,1.32066 1.873528,2.075 4.800102,3.14598 7.570463,2.77075 2.770364,-0.37523 5.306241,-2.18615 6.560276,-4.68475 z m -51.476157,29.52739 c 2.649647,2.65045 5.488509,5.1113 8.492842,7.36363 h 94.274825 c 3.00438,-2.25236 5.84361,-4.71312 8.4933,-7.36363 z m 14.25521,11.28396 c 12.021306,7.45109 26.191809,11.76409 41.374817,11.76415 15.1833,7e-5 29.35421,-4.31297 41.37572,-11.76415 z" />
  </g>
</svg>
