<?xml version="1.0" encoding="UTF-8" standalone="no"?>
<!-- Created with Inkscape (http://www.inkscape.org/) -->

<svg
   width="210mm"
   height="297mm"
   viewBox="0 0 210 297"
   version="1.1"
   id="svg5"
   inkscape:version="1.3.2 (091e20ef0f, 2023-11-25)"
   sodipodi:docname="cathulu-inc.svg"
   xmlns:inkscape="http://www.inkscape.org/namespaces/inkscape"
   xmlns:sodipodi="http://sodipodi.sourceforge.net/DTD/sodipodi-0.dtd"
   xmlns="http://www.w3.org/2000/svg"
   xmlns:svg="http://www.w3.org/2000/svg">
  <sodipodi:namedview
     id="namedview7"
     pagecolor="#ffffff"
     bordercolor="#666666"
     borderopacity="1.0"
     inkscape:pageshadow="2"
     inkscape:pageopacity="0.0"
     inkscape:pagecheckerboard="0"
     inkscape:document-units="mm"
     showgrid="false"
     inkscape:zoom="0.22299458"
     inkscape:cx="168.16552"
     inkscape:cy="307.18235"
     inkscape:window-width="1366"
     inkscape:window-height="743"
     inkscape:window-x="0"
     inkscape:window-y="25"
     inkscape:window-maximized="1"
     inkscape:current-layer="layer1"
     inkscape:showpageshadow="0"
     inkscape:deskcolor="#d1d1d1" />
  <defs
     id="defs2">
    <inkscape:path-effect
       effect="spiro"
       id="path-effect2457"
       is_visible="true"
       lpeversion="1" />
    <inkscape:path-effect
       effect="spiro"
       id="path-effect2428"
       is_visible="true"
       lpeversion="1" />
    <inkscape:path-effect
       effect="spiro"
       id="path-effect2284"
       is_visible="true"
       lpeversion="1" />
    <inkscape:path-effect
       effect="spiro"
       id="path-effect988"
       is_visible="true"
       lpeversion="1" />
    <inkscape:path-effect
       effect="spiro"
       id="path-effect984"
       is_visible="true"
       lpeversion="1" />
    <inkscape:path-effect
       effect="spiro"
       id="path-effect980"
       is_visible="true"
       lpeversion="1" />
    <inkscape:path-effect
       effect="spiro"
       id="path-effect976"
       is_visible="true"
       lpeversion="1" />
    <inkscape:path-effect
       effect="spiro"
       id="path-effect859"
       is_visible="true"
       lpeversion="1" />
  </defs>
  <g
     inkscape:label="Layer 1"
     inkscape:groupmode="layer"
     id="layer1">
    <circle
       style="fill:#ffffff;stroke-width:0.893;stroke-linecap:round;stroke-linejoin:round"
       id="path1"
       cx="105.8132"
       cy="136.79292"
       r="82.34375" />
    <path
       id="path2"
       style="fill:#1a1a1a;fill-opacity:1;stroke-width:1.35827;stroke-linecap:round;stroke-linejoin:round"
       d="M 105.95891 47.965548 C 56.35582 47.965751 16.144438 88.177136 16.144234 137.78022 C 16.144128 161.06954 25.009896 182.28691 39.54849 198.24578 L 172.36984 198.24578 C 186.90829 182.28694 195.7742 161.06943 195.7741 137.78022 C 195.7739 88.176837 155.56229 47.965328 105.95891 47.965548 z M 112.10685 77.122424 C 120.62944 77.087094 129.19389 80.23794 135.34419 86.13066 C 138.19406 88.861145 140.5229 92.150107 142.04508 95.791569 C 143.56725 99.43307 144.2724 103.42688 143.97467 107.36244 C 143.67694 111.29805 142.36544 115.16771 140.11238 118.40828 C 138.97911 120.03825 137.60538 121.50283 136.05268 122.73979 C 136.31463 122.72969 136.57601 122.70758 136.83403 122.66538 C 137.7018 122.52395 138.53646 122.227 139.35532 121.90677 C 140.17417 121.58651 140.98537 121.24064 141.82907 120.99313 C 142.67278 120.74564 143.55722 120.5977 144.43201 120.68617 C 145.39045 120.78317 146.31509 121.16748 147.07423 121.76053 C 147.83339 122.35357 148.42657 123.15188 148.79609 124.04152 C 149.53507 125.82082 149.34344 127.92375 148.43848 129.62465 C 148.35558 129.78038 148.26455 129.93612 148.12894 130.04891 C 148.06124 130.10531 147.98207 130.14992 147.89692 130.17293 C 147.81162 130.19583 147.71948 130.19605 147.63595 130.16725 C 147.5272 130.13045 147.43802 130.04663 147.38274 129.94607 C 147.32744 129.84559 147.30454 129.73004 147.30264 129.61534 C 147.29864 129.38596 147.37742 129.16415 147.42098 128.9389 C 147.54921 128.27522 147.36686 127.56909 146.98276 127.01292 C 146.59862 126.45673 146.02378 126.04633 145.39268 125.80421 C 144.76159 125.56212 144.07652 125.48149 143.40107 125.50758 C 142.72564 125.53368 142.05844 125.66391 141.40326 125.83005 C 139.37782 126.34365 137.41681 127.21125 135.38708 127.63149 C 135.64765 127.75987 135.91688 127.87015 136.19169 127.9617 C 137.02589 128.23956 137.90314 128.36456 138.77706 128.46141 C 139.65096 128.55821 140.52979 128.62914 141.39189 128.80196 C 142.254 128.97477 143.10625 129.25462 143.8398 129.73937 C 144.64351 130.27047 145.28379 131.03969 145.68051 131.91753 C 146.07723 132.7954 146.23118 133.77857 146.14508 134.73803 C 145.97287 136.65699 144.82625 138.42921 143.23467 139.515 C 143.08899 139.6144 142.93533 139.71117 142.76286 139.74806 C 142.67656 139.76646 142.5864 139.76924 142.50035 139.75064 C 142.41425 139.73144 142.33326 139.68891 142.27245 139.62507 C 142.19335 139.54207 142.15271 139.42608 142.1505 139.31139 C 142.1475 139.19666 142.18168 139.0831 142.23318 138.98066 C 142.33646 138.77577 142.50907 138.61577 142.65227 138.43651 C 143.0741 137.90835 143.241 137.1991 143.15922 136.5281 C 143.07752 135.85715 142.75916 135.2265 142.31276 134.71891 C 141.86639 134.21134 141.29672 133.82207 140.6865 133.53138 C 140.07626 133.24067 139.42411 133.04526 138.76672 132.88801 C 136.06969 132.2428 133.18373 132.2039 130.70313 130.9641 C 129.26686 130.24626 128.04945 129.12269 127.17312 127.77825 C 127.15052 127.98074 127.13644 128.18455 127.14314 128.3901 C 127.17184 129.26888 127.49168 130.11966 127.94568 130.87263 C 128.39968 131.6256 128.98518 132.29034 129.58692 132.93142 C 130.18866 133.5725 130.81133 134.19566 131.35477 134.88686 C 131.89822 135.57805 132.36428 136.34511 132.60741 137.19008 C 132.87382 138.11584 132.86166 139.11637 132.59294 140.04158 C 132.32469 140.96681 131.80398 141.81466 131.11551 142.48846 C 129.73853 143.83604 127.71498 144.4402 125.79956 144.23254 C 125.6242 144.21344 125.44516 144.18673 125.29003 144.10283 C 125.21243 144.06093 125.14195 144.00432 125.08901 143.93385 C 125.03601 143.86335 125.00182 143.7785 124.99702 143.69045 C 124.99102 143.57586 125.03484 143.46133 125.10761 143.37264 C 125.18041 143.28384 125.27935 143.21912 125.38511 143.17472 C 125.59666 143.08602 125.83213 143.07603 126.05742 143.03261 C 126.72118 142.90482 127.30865 142.47411 127.68213 141.91072 C 128.05561 141.34732 128.22328 140.66113 128.21336 139.98525 C 128.20326 139.3094 128.0226 138.643 127.74724 138.02568 C 127.4719 137.40836 127.10381 136.83737 126.70596 136.29091 C 125.07371 134.04901 122.90409 132.1446 121.82254 129.59106 C 121.42914 128.66225 121.20749 127.66723 121.14558 126.66152 C 120.73655 126.59542 120.32149 126.56726 119.91774 126.47342 C 116.26192 125.62437 112.87621 123.63586 110.37104 120.8412 C 108.71832 118.99748 107.47546 116.81702 106.63535 114.48604 C 106.63519 114.48558 106.63553 114.485 106.63535 114.485 L 106.63432 114.48604 L 106.63432 114.48655 C 105.52987 115.53591 104.18068 116.32834 102.71673 116.75205 C 101.79381 117.01909 100.83031 117.14134 99.869873 117.1205 C 99.929563 117.1773 99.989732 117.23446 100.04971 117.29103 C 102.76538 119.8597 105.54306 122.37913 107.95465 125.23525 C 110.36624 128.09129 112.41901 131.32139 113.45612 134.9127 C 114.84179 139.71098 114.31733 144.96104 112.41123 149.57743 C 110.50512 154.1938 107.27541 158.19552 103.4402 161.3948 C 100.36281 163.96195 96.784482 166.08014 92.83361 166.7521 C 90.858175 167.08808 88.808893 167.05185 86.87015 166.54539 C 84.931412 166.03892 83.107388 165.05358 81.692171 163.63497 C 80.91912 162.86009 80.265155 161.95069 79.877295 160.92713 C 79.489437 159.90358 79.378145 158.75988 79.664905 157.70355 C 79.951684 156.64722 80.65632 155.69131 81.630676 155.19259 C 82.117856 154.94321 82.665839 154.80988 83.213009 154.82052 C 83.760178 154.83222 84.305179 154.98906 84.767436 155.28199 C 85.442733 155.70999 85.915487 156.40806 86.195772 157.15682 C 86.476057 157.90559 86.578965 158.70761 86.643807 159.50448 C 86.708687 160.30136 86.738162 161.10357 86.877384 161.89089 C 87.016618 162.67816 87.273441 163.45968 87.750716 164.10109 C 88.285343 164.81962 89.081206 165.32869 89.946448 165.55992 C 90.811682 165.79098 91.740905 165.75043 92.598482 165.49222 C 93.624581 165.18329 94.550151 164.56685 95.262402 163.76623 C 95.974659 162.96559 96.476153 161.98533 96.750167 160.94935 C 97.298158 158.87739 96.92933 156.63537 96.035999 154.6872 C 95.11835 152.68607 93.67007 150.95624 91.9856 149.53868 C 90.301124 148.12113 88.381866 147.0038 86.399377 146.04638 C 82.434382 144.13164 78.175675 142.8264 74.36652 140.61777 C 71.037384 138.68747 68.088155 136.06568 65.933443 132.87716 C 63.778729 129.68868 62.436822 125.92661 62.271134 122.08195 C 62.105483 118.23726 63.14298 114.32219 65.342265 111.16427 C 67.541547 108.00637 70.916164 105.64882 74.679163 104.84321 C 77.082014 104.32883 79.598713 104.44041 81.989311 105.00909 C 84.37991 105.57778 86.648992 106.5953 88.752722 107.86525 C 89.406065 108.25962 90.041322 108.67987 90.664233 109.11685 C 90.44473 107.74747 90.516874 106.33024 90.895227 104.99566 C 91.5431 102.71032 93.079551 100.68979 95.108407 99.454395 C 97.419844 98.046893 100.34498 97.690523 102.92653 98.502515 C 103.74495 98.759931 104.52452 99.13375 105.24215 99.602706 C 105.28015 100.00112 105.31069 100.39921 105.32949 100.79591 C 105.46152 103.63528 105.1917 106.49007 105.46385 109.31943 C 105.63325 111.08011 106.0354 112.8197 106.63535 114.485 C 107.49181 113.67111 108.2008 112.70362 108.70138 111.63298 C 109.84769 109.18147 109.88133 106.23473 108.79181 103.75749 C 108.04768 102.06557 106.78842 100.61245 105.24215 99.602189 C 105.00638 97.149099 104.36266 94.704718 102.8578 92.777283 C 102.01783 91.701386 100.9274 90.820358 99.69469 90.234285 C 98.07534 89.464262 96.219276 89.214409 94.447982 89.492729 C 92.676689 89.771018 90.996078 90.572268 89.640007 91.745304 C 89.173642 92.148715 88.745414 92.594502 88.277299 92.995874 C 87.809167 93.39723 87.292911 93.757587 86.708919 93.955505 C 86.211776 94.124184 85.667605 94.168563 85.157593 94.044389 C 84.647577 93.92012 84.175789 93.620961 83.876534 93.189661 C 83.628786 92.832538 83.505382 92.396401 83.496712 91.961829 C 83.488312 91.527212 83.591007 91.094072 83.763879 90.695239 C 84.109577 89.89756 84.720235 89.247702 85.33691 88.6349 C 91.89077 82.122272 100.72449 77.828651 109.94264 77.200972 C 110.66276 77.152014 111.38408 77.126741 112.10634 77.122941 L 112.10685 77.122424 z M 133.69158 107.50403 C 132.96683 107.49233 132.23948 107.61839 131.5651 107.88437 C 130.21619 108.41636 129.09487 109.50049 128.51722 110.83044 C 127.93963 112.16044 127.91289 113.71953 128.44487 115.06843 C 128.97685 116.41728 130.06099 117.53967 131.39095 118.11734 C 132.72093 118.69508 134.28108 118.72165 135.62996 118.18969 C 136.97886 117.65773 138.10017 116.57359 138.67784 115.24361 C 139.25543 113.91363 139.28215 112.35348 138.75019 111.00459 C 138.21821 109.65568 137.13402 108.53439 135.80411 107.95672 C 135.1391 107.66784 134.41634 107.51824 133.69158 107.50455 L 133.69158 107.50403 z M 90.66475 109.11582 C 90.82112 110.09141 91.125502 111.04293 91.574255 111.9234 C 92.570664 113.87846 94.26388 115.46934 96.277327 116.34174 C 97.409176 116.83214 98.637327 117.09365 99.87039 117.11998 C 96.915466 114.32044 93.986073 111.44584 90.66475 109.11582 z M 135.27443 157.2612 C 135.27443 157.2612 143.3295 167.97745 143.07395 176.37166 C 142.79957 185.38441 127.04806 185.27342 127.04806 176.12155 C 127.04806 166.37336 136.26148 161.57636 135.27443 157.2612 z M 101.21604 167.56497 C 102.8366 169.61304 103.93023 172.07397 104.36417 174.64929 C 104.79813 177.22466 104.57142 179.9089 103.7115 182.37491 C 102.37122 186.21843 99.537604 189.43007 96.163639 191.70716 C 93.487357 193.51343 90.397527 194.79347 87.175557 195.00308 C 86.829672 195.02558 86.47122 195.03347 86.14978 194.90387 C 85.989057 194.83907 85.840694 194.73943 85.731718 194.60466 C 85.622741 194.46996 85.555302 194.2989 85.558085 194.12562 C 85.561285 193.92172 85.659561 193.72849 85.79528 193.5763 C 85.930992 193.4241 86.10171 193.30792 86.273804 193.19854 C 88.019145 192.08925 90.092368 191.4977 91.661072 190.15015 C 93.244292 188.79014 94.167207 186.71302 94.184949 184.62594 C 94.202689 182.53888 93.333705 180.47142 91.879146 178.97461 C 90.474588 177.52923 88.609348 176.63867 86.780233 175.79237 C 84.951115 174.94605 83.076474 174.08811 81.628609 172.6861 C 81.250323 172.31979 80.903054 171.91656 80.637455 171.46189 C 80.371861 171.0072 80.189181 170.49789 80.15273 169.97257 C 80.11628 169.44727 80.231997 168.90554 80.519116 168.46414 C 80.806237 168.02273 81.271157 167.69047 81.790873 167.60579 C 82.129544 167.55059 82.481271 167.60007 82.803215 167.71844 C 83.125155 167.83714 83.418897 168.02368 83.683264 168.24244 C 84.211998 168.67996 84.621713 169.24098 85.081628 169.75036 C 87.220815 172.11958 90.562357 173.34243 93.725545 172.91399 C 96.888735 172.48555 99.784176 170.41786 101.21604 167.56497 z M 42.44082 201.27919 C 45.466176 204.30547 48.707568 207.11524 52.137903 209.68694 L 159.78043 209.68694 C 163.21082 207.1152 166.45263 204.30554 169.47803 201.27919 L 42.44082 201.27919 z M 58.717346 214.16316 C 72.443226 222.67078 88.623007 227.59534 105.95891 227.59541 C 123.29514 227.59549 139.47538 222.67089 153.2015 214.16316 L 58.717346 214.16316 z " />
    <path
       style="fill:#ffffff;stroke:none;stroke-width:5.56714;stroke-linecap:round;stroke-linejoin:round"
       d="m 142.88528,199.16493 c 0,0 -4.71606,-0.0227 -3.88717,-3.51508 0.82889,-3.49253 12.62933,-3.81107 10.28872,-6.63532 -2.34061,-2.82426 -9.14647,2.9636 -12.13517,5.07427 -2.98869,2.11066 -5.50258,6.18031 -5.50258,6.18031 z"
       id="path12-7"
       sodipodi:nodetypes="czzzcc" />
    <path
       style="fill:#ffffff;stroke:none;stroke-width:5.56714;stroke-linecap:round;stroke-linejoin:round"
       d="m 127.62069,199.43008 c 0,0 4.71606,-0.0227 3.88717,-3.51508 -0.82889,-3.49254 -12.62933,-3.81107 -10.28872,-6.63533 2.34061,-2.82425 9.14647,2.96361 12.13517,5.07427 2.98869,2.11066 5.50258,6.18031 5.50258,6.18031 z"
       id="path12-7-1"
       sodipodi:nodetypes="czzzcc" />
    <path
       style="fill:#ffffff;stroke:none;stroke-width:2.91441;stroke-linecap:round;stroke-linejoin:round"
       d="m 142.24141,199.68157 c 0,0 -2.46887,-0.0119 -2.03494,-1.84015 0.43392,-1.82835 6.61148,-1.99511 5.38616,-3.4736 -1.22531,-1.47851 -4.78819,1.55145 -6.35278,2.65639 -1.56459,1.10493 -2.88062,3.2354 -2.88062,3.2354 z"
       id="path12-7-2"
       sodipodi:nodetypes="czzzcc" />
    <path
       style="fill:#ffffff;stroke:none;stroke-width:2.91441;stroke-linecap:round;stroke-linejoin:round"
       d="m 127.6371,199.65743 c 0,0 2.46887,-0.0119 2.03494,-1.84015 -0.43392,-1.82835 -6.61148,-1.9951 -5.38616,-3.4736 1.22531,-1.47851 4.78819,1.55145 6.35278,2.65639 1.56459,1.10493 2.88062,3.2354 2.88062,3.2354 z"
       id="path12-7-2-9"
       sodipodi:nodetypes="czzzcc" />
  </g>
</svg>
