<?xml version="1.0" encoding="UTF-8" standalone="no"?>
<!-- Created with Inkscape (http://www.inkscape.org/) -->

<svg
   width="210mm"
   height="297mm"
   viewBox="0 0 210 297"
   version="1.1"
   id="svg5"
   inkscape:version="1.3.2 (091e20ef0f, 2023-11-25)"
   sodipodi:docname="cathulu-inc.svg"
   xmlns:inkscape="http://www.inkscape.org/namespaces/inkscape"
   xmlns:sodipodi="http://sodipodi.sourceforge.net/DTD/sodipodi-0.dtd"
   xmlns="http://www.w3.org/2000/svg"
   xmlns:svg="http://www.w3.org/2000/svg">
  <sodipodi:namedview
     id="namedview7"
     pagecolor="#ffffff"
     bordercolor="#666666"
     borderopacity="1.0"
     inkscape:pageshadow="2"
     inkscape:pageopacity="0.0"
     inkscape:pagecheckerboard="0"
     inkscape:document-units="mm"
     showgrid="false"
     inkscape:zoom="0.15768098"
     inkscape:cx="275.87348"
     inkscape:cy="592.96944"
     inkscape:window-width="1366"
     inkscape:window-height="743"
     inkscape:window-x="0"
     inkscape:window-y="25"
     inkscape:window-maximized="1"
     inkscape:current-layer="layer1"
     inkscape:showpageshadow="0"
     inkscape:deskcolor="#d1d1d1" />
  <defs
     id="defs2">
    <inkscape:path-effect
       effect="spiro"
       id="path-effect2457"
       is_visible="true"
       lpeversion="1" />
    <inkscape:path-effect
       effect="spiro"
       id="path-effect2428"
       is_visible="true"
       lpeversion="1" />
    <inkscape:path-effect
       effect="spiro"
       id="path-effect2284"
       is_visible="true"
       lpeversion="1" />
    <inkscape:path-effect
       effect="spiro"
       id="path-effect988"
       is_visible="true"
       lpeversion="1" />
    <inkscape:path-effect
       effect="spiro"
       id="path-effect984"
       is_visible="true"
       lpeversion="1" />
    <inkscape:path-effect
       effect="spiro"
       id="path-effect980"
       is_visible="true"
       lpeversion="1" />
    <inkscape:path-effect
       effect="spiro"
       id="path-effect976"
       is_visible="true"
       lpeversion="1" />
    <inkscape:path-effect
       effect="spiro"
       id="path-effect859"
       is_visible="true"
       lpeversion="1" />
  </defs>
  <g
     inkscape:label="Layer 1"
     inkscape:groupmode="layer"
     id="layer1">
    <circle
       style="fill:#ffffff;stroke-width:0.893;stroke-linecap:round;stroke-linejoin:round"
       id="path1"
       cx="105.8132"
       cy="136.79292"
       r="82.34375" />
    <path
       id="path2"
       style="fill:#1a1a1a;fill-opacity:1;stroke-width:1.35827;stroke-linecap:round;stroke-linejoin:round"
       d="m 105.95878,47.965429 a 89.815031,89.815031 0 0 0 -89.814664,89.814661 89.815031,89.815031 0 0 0 89.814664,89.81544 89.815031,89.815031 0 0 0 89.81543,-89.81544 89.815031,89.815031 0 0 0 -89.81543,-89.814661 z m 6.14814,29.156927 c 8.52261,-0.03533 17.0872,3.115699 23.23752,9.008431 2.84987,2.730491 5.1785,6.019339 6.70068,9.660809 1.52219,3.641509 2.22739,7.635244 1.92966,11.570804 -0.29773,3.93561 -1.60938,7.80519 -3.86244,11.04576 -1.13327,1.62999 -2.50702,3.09471 -4.05972,4.33169 0.26195,-0.0101 0.52327,-0.0325 0.78129,-0.0747 0.86779,-0.14143 1.70265,-0.43824 2.52151,-0.75847 0.81885,-0.32026 1.62986,-0.66585 2.47356,-0.91336 0.84371,-0.24749 1.72847,-0.39579 2.60326,-0.30732 0.95844,0.097 1.88263,0.48142 2.64177,1.07447 0.75916,0.59304 1.35263,1.39134 1.72215,2.281 0.739,1.7793 0.54731,3.88209 -0.35765,5.58299 -0.0829,0.15573 -0.17407,0.31166 -0.30968,0.42445 -0.0677,0.0564 -0.14672,0.10126 -0.23187,0.12427 -0.0853,0.0229 -0.17742,0.0228 -0.26095,-0.006 -0.10875,-0.0368 -0.19782,-0.1203 -0.2531,-0.22086 -0.0553,-0.10048 -0.0782,-0.21622 -0.0801,-0.33092 -0.004,-0.22938 0.0744,-0.4515 0.11796,-0.67675 0.12823,-0.66368 -0.0537,-1.36955 -0.4378,-1.92572 -0.38414,-0.55619 -0.95901,-0.96677 -1.59011,-1.20889 -0.63109,-0.24209 -1.3163,-0.3224 -1.99175,-0.29631 -0.67543,0.0261 -1.34281,0.15612 -1.99801,0.32226 -2.02544,0.5136 -3.98638,1.3813 -6.01611,1.80154 0.26057,0.12838 0.53006,0.23856 0.80487,0.33011 0.8342,0.27786 1.71127,0.40306 2.58519,0.49991 0.8739,0.0968 1.75294,0.16752 2.61504,0.34034 0.86211,0.17281 1.71408,0.45295 2.44763,0.9377 0.80371,0.5311 1.4441,1.30017 1.84082,2.17801 0.39672,0.87787 0.55063,1.86074 0.46453,2.8202 -0.17221,1.91896 -1.31901,3.69157 -2.91059,4.77736 -0.14568,0.0994 -0.29912,0.19577 -0.47159,0.23266 -0.0863,0.0184 -0.17648,0.0216 -0.26253,0.003 -0.0861,-0.0192 -0.16712,-0.0619 -0.22793,-0.12574 -0.0791,-0.083 -0.11957,-0.19893 -0.12178,-0.31362 -0.003,-0.11473 0.031,-0.22847 0.0825,-0.33091 0.10328,-0.20489 0.27575,-0.36466 0.41895,-0.54392 0.42183,-0.52816 0.58874,-1.23744 0.50696,-1.90844 -0.0817,-0.67095 -0.40014,-1.30178 -0.84654,-1.80937 -0.44637,-0.50757 -1.01601,-0.89696 -1.62623,-1.18765 -0.61024,-0.29071 -1.26204,-0.4857 -1.91943,-0.64295 -2.69705,-0.64521 -5.58306,-0.68436 -8.06366,-1.92416 -1.43627,-0.71784 -2.6536,-1.84125 -3.52993,-3.18569 -0.0226,0.20249 -0.0367,0.40598 -0.03,0.61153 0.0287,0.87878 0.34851,1.73002 0.80251,2.48299 0.454,0.75297 1.03944,1.41747 1.64118,2.05855 0.60174,0.64108 1.22429,1.26439 1.76773,1.95559 0.54345,0.69119 1.00976,1.45802 1.25289,2.30299 0.26641,0.92578 0.25412,1.92642 -0.0146,2.85163 -0.26825,0.92523 -0.7892,1.77305 -1.47767,2.44685 -1.37698,1.34758 -3.40033,1.9518 -5.31577,1.74414 -0.17536,-0.0191 -0.3542,-0.0458 -0.50933,-0.1297 -0.0776,-0.0419 -0.14829,-0.0985 -0.20123,-0.16897 -0.053,-0.0705 -0.0872,-0.15561 -0.092,-0.24366 -0.006,-0.11459 0.0381,-0.22886 0.11087,-0.31755 0.0728,-0.0888 0.17169,-0.15368 0.27745,-0.19808 0.21155,-0.0887 0.44675,-0.0989 0.67204,-0.14232 0.66376,-0.12779 1.2512,-0.55824 1.62468,-1.12163 0.37348,-0.5634 0.54125,-1.24985 0.53133,-1.92573 -0.0101,-0.67585 -0.19074,-1.34218 -0.4661,-1.9595 -0.27534,-0.61732 -0.6436,-1.18827 -1.04145,-1.73473 -1.63225,-2.2419 -3.80192,-4.14636 -4.88347,-6.69992 -0.3934,-0.92881 -0.61484,-1.92374 -0.67675,-2.92945 -0.40903,-0.0661 -0.82399,-0.094 -1.22774,-0.18784 -3.65584,-0.84905 -7.04167,-2.83788 -9.54684,-5.63254 -1.65272,-1.84372 -2.89579,-4.02387 -3.7359,-6.35487 -1.6e-4,-4.6e-4 1.8e-4,-10e-4 0,-10e-4 l -7.9e-4,7.7e-4 v 7.8e-4 c -1.10445,1.04936 -2.4535,1.84157 -3.91745,2.26528 -0.92292,0.26704 -1.88647,0.38948 -2.846911,0.36864 0.05969,0.0568 0.120009,0.114 0.179981,0.17057 2.71569,2.56867 5.49329,5.08805 7.90488,7.94417 2.41159,2.85604 4.46415,6.086 5.50126,9.67731 1.38567,4.7983 0.86151,10.04813 -1.04461,14.66454 -1.90611,4.61637 -5.13625,8.61834 -8.97148,11.81762 -3.07739,2.56715 -6.655489,4.68546 -10.606369,5.35742 -1.975439,0.33598 -4.024688,0.29974 -5.963435,-0.20672 -1.938742,-0.50647 -3.762995,-1.49198 -5.178214,-2.91059 -0.773053,-0.77488 -1.42703,-1.68423 -1.81489,-2.70779 -0.387858,-1.02355 -0.49898,-2.16708 -0.21222,-3.22341 0.286781,-1.05633 0.991444,-2.01258 1.965802,-2.5113 0.48718,-0.24938 1.035061,-0.38243 1.582231,-0.37179 0.547171,0.0117 1.092467,0.16846 1.554724,0.46139 0.675299,0.428 1.147887,1.12587 1.428174,1.87463 0.280285,0.74879 0.383181,1.55093 0.448023,2.3478 0.06488,0.79688 0.09422,1.59901 0.233444,2.38633 0.139234,0.78727 0.395978,1.56882 0.873255,2.21025 0.534627,0.71853 1.330859,1.2276 2.196103,1.45883 0.865236,0.23106 1.794408,0.19061 2.651987,-0.0676 1.026101,-0.30893 1.951524,-0.92543 2.663777,-1.72605 0.712257,-0.80064 1.213897,-1.78108 1.487911,-2.81706 0.547993,-2.07196 0.178852,-4.31396 -0.714481,-6.26213 -0.917649,-2.00113 -2.365819,-3.73076 -4.050293,-5.14834 -1.684478,-1.41755 -3.603657,-2.53481 -5.58615,-3.49223 -3.965003,-1.91474 -8.223818,-3.22031 -12.032981,-5.42894 -3.329144,-1.93032 -6.278353,-4.55209 -8.433069,-7.74061 -2.154718,-3.18848 -3.496318,-6.95034 -3.662006,-10.795 -0.165653,-3.84471 0.871639,-7.75973 3.070928,-10.91765 2.199286,-3.15792 5.573973,-5.51545 9.336978,-6.32106 2.402857,-0.51438 4.919262,-0.40283 7.309864,0.16585 2.390605,0.56869 4.659856,1.58639 6.76359,2.85634 0.653343,0.39437 1.288656,0.81435 1.911569,1.25133 -0.219505,-1.3694 -0.147266,-2.78646 0.231087,-4.12104 0.647875,-2.28534 2.184135,-4.30594 4.212995,-5.54134 2.311443,-1.407504 5.236846,-1.763863 7.818416,-0.951871 0.81842,0.257418 1.59791,0.631459 2.31556,1.100415 0.038,0.398416 0.0685,0.796446 0.0873,1.193166 0.13203,2.83937 -0.13777,5.69408 0.13438,8.52344 0.1694,1.7607 0.5712,3.50036 1.17115,5.16566 0.85646,-0.81389 1.56583,-1.78179 2.06641,-2.85243 1.14633,-2.45151 1.17992,-5.39776 0.0904,-7.875 -0.74413,-1.69192 -2.00333,-3.14536 -3.5496,-4.155619 -0.23579,-2.453096 -0.87989,-4.897458 -2.38475,-6.824897 -0.83999,-1.075899 -1.93017,-1.956665 -3.162884,-2.542738 -1.619354,-0.770025 -3.475302,-1.020308 -5.2466,-0.741988 -1.771297,0.278291 -3.451928,1.079655 -4.808003,2.252695 -0.466365,0.403411 -0.89482,0.849164 -1.362935,1.250536 -0.468132,0.401356 -0.984093,0.761794 -1.568085,0.959714 -0.497145,0.168679 -1.041564,0.212944 -1.551578,0.08877 -0.510016,-0.124269 -0.981937,-0.423085 -1.281192,-0.854387 -0.247748,-0.357123 -0.370971,-0.793162 -0.379641,-1.227736 -0.0084,-0.434617 0.09437,-0.868222 0.267244,-1.267055 0.345698,-0.797681 0.956122,-1.447326 1.572799,-2.06013 6.553874,-6.51264 15.387775,-10.806355 24.605945,-11.434034 0.72012,-0.04896 1.44162,-0.07402 2.16388,-0.07782 z M 90.664649,109.11598 c 0.15637,0.97559 0.460656,1.92715 0.909411,2.80762 0.996411,1.95506 2.690015,3.54574 4.703466,4.41814 1.131851,0.4904 2.359776,0.75183 3.592841,0.77816 -2.95493,-2.79956 -5.884389,-5.6739 -9.205718,-8.00392 z m 43.026801,-1.6121 c -0.72475,-0.0117 -1.45176,0.11444 -2.12614,0.38042 -1.34891,0.53199 -2.4705,1.61599 -3.04815,2.94596 -0.57759,1.33 -0.60428,2.88927 -0.0723,4.23817 0.53198,1.34885 1.61598,2.47123 2.94594,3.0489 1.32998,0.57774 2.89005,0.60428 4.23895,0.0723 1.3489,-0.53196 2.47047,-1.61598 3.04814,-2.94596 0.57759,-1.32998 0.60426,-2.89004 0.0723,-4.23893 -0.53198,-1.34893 -1.61605,-2.47047 -2.94596,-3.04814 -0.66501,-0.28888 -1.38804,-0.43827 -2.1128,-0.45196 z m 1.67656,52.29147 c 0,0 7.98039,7.56334 7.70601,16.57612 -0.27439,9.01277 -16.02589,8.90192 -16.02589,-0.24997 0,-9.15187 7.46085,-14.22468 8.31988,-16.32615 z m -34.15201,7.76968 c 1.62056,2.04809 2.71402,4.50896 3.14796,7.08428 0.43396,2.57537 0.20755,5.25963 -0.65237,7.72566 -1.34028,3.84352 -4.174065,7.05517 -7.548036,9.33226 -2.676288,1.80627 -5.766013,3.08613 -8.987989,3.29574 -0.345887,0.0225 -0.704298,0.0306 -1.025738,-0.099 -0.160723,-0.0648 -0.309181,-0.16468 -0.418157,-0.29945 -0.108977,-0.1347 -0.176491,-0.3054 -0.173708,-0.47868 0.0032,-0.2039 0.101656,-0.39723 0.237375,-0.54942 0.135712,-0.1522 0.306584,-0.26869 0.478678,-0.37807 1.745345,-1.10929 3.818585,-1.70059 5.387291,-3.04814 1.583224,-1.36001 2.506126,-3.43698 2.523868,-5.52406 0.01774,-2.08706 -0.851582,-4.15456 -2.306143,-5.65139 -1.404562,-1.44538 -3.269708,-2.33623 -5.098827,-3.18253 -1.829122,-0.84632 -3.703624,-1.7043 -5.151491,-3.10631 -0.378288,-0.36631 -0.725555,-0.76913 -0.991154,-1.2238 -0.265596,-0.45469 -0.448515,-0.96418 -0.484966,-1.4895 -0.03645,-0.5253 0.07916,-1.06694 0.366279,-1.50834 0.287121,-0.44141 0.752041,-0.77363 1.271759,-0.85831 0.338671,-0.0552 0.690433,-0.006 1.012377,0.11237 0.321942,0.1187 0.615961,0.30551 0.880328,0.52427 0.528734,0.43752 0.938389,0.99818 1.398306,1.50756 2.139191,2.36922 5.480524,3.59211 8.643718,3.16367 3.163196,-0.42844 6.058764,-2.49586 7.49064,-5.34877 z" />
  </g>
</svg>
