<?xml version="1.0" encoding="UTF-8" standalone="no"?>
<svg
   width="210mm"
   height="297mm"
   viewBox="0 0 210 297"
   version="1.1"
   id="svg962"
   inkscape:version="1.3.2 (091e20ef0f, 2023-11-25)"
   sodipodi:docname="crow-logo.svg"
   xmlns:inkscape="http://www.inkscape.org/namespaces/inkscape"
   xmlns:sodipodi="http://sodipodi.sourceforge.net/DTD/sodipodi-0.dtd"
   xmlns="http://www.w3.org/2000/svg"
   xmlns:svg="http://www.w3.org/2000/svg"
   xmlns:rdf="http://www.w3.org/1999/02/22-rdf-syntax-ns#"
   xmlns:cc="http://creativecommons.org/ns#"
   xmlns:dc="http://purl.org/dc/elements/1.1/">
  <defs
     id="defs956" />
  <sodipodi:namedview
     id="base"
     pagecolor="#ffffff"
     bordercolor="#666666"
     borderopacity="1.0"
     inkscape:pageopacity="0.0"
     inkscape:pageshadow="2"
     inkscape:zoom="0.7"
     inkscape:cx="384.28571"
     inkscape:cy="495"
     inkscape:document-units="mm"
     inkscape:current-layer="layer2"
     inkscape:document-rotation="0"
     showgrid="false"
     inkscape:window-width="1366"
     inkscape:window-height="743"
     inkscape:window-x="0"
     inkscape:window-y="25"
     inkscape:window-maximized="1"
     inkscape:snap-global="false"
     inkscape:showpageshadow="0"
     inkscape:pagecheckerboard="0"
     inkscape:deskcolor="#d1d1d1" />
  <metadata
     id="metadata959">
    <rdf:RDF>
      <cc:Work
         rdf:about="">
        <dc:format>image/svg+xml</dc:format>
        <dc:type
           rdf:resource="http://purl.org/dc/dcmitype/StillImage" />
      </cc:Work>
    </rdf:RDF>
  </metadata>
  <g
     inkscape:groupmode="layer"
     id="layer2"
     inkscape:label="Layer 2"
     style="display:inline">
    <circle
       style="display:inline;fill:#1a1a1a;fill-rule:evenodd;stroke:none;stroke-width:2.19132;stroke-linecap:round;stroke-linejoin:round;stroke-miterlimit:4;stroke-dasharray:none"
       id="path7132-3"
       cx="104.80189"
       cy="114.01897"
       r="57.732655" />
    <path
       id="path948"
       style="display:inline;fill:#ffffff;fill-rule:evenodd;stroke:none;stroke-width:0.206729px;stroke-linecap:butt;stroke-linejoin:miter;stroke-opacity:1"
       d="m 131.96368,114.07841 1.51157,2.55998 1.33753,-0.78975 1.4081,5.38101 0.20319,1.0049 0.82427,1.1371 4.08876,-2.44038 -0.0111,-1.85403 -1.23948,-0.62137 -0.6932,-2.8941 3.10881,-1.91302 0.008,-2.28884 3.64198,-2.15042 -0.76863,-1.30175 0.65366,-0.38595 -0.42967,-0.72768 -0.61575,0.36359 -0.33847,-0.5715 z m 9.73015,-2.28145 0.13091,1.46773 -1.80373,1.05875 -0.42316,-0.14728 0.76082,-0.46173 0.009,-0.7891 0.16236,-0.36267 z" />
    <path
       id="path954"
       style="display:inline;fill:#ffffff;fill-rule:evenodd;stroke:none;stroke-width:0.145452px;stroke-linecap:butt;stroke-linejoin:miter;stroke-opacity:1"
       d="m 81.793331,103.49102 -0.548193,1.75375 6.658388,2.08128 -0.897067,3.62156 -1.683968,-0.5264 -1.92027,-2.26674 0.02505,-0.61029 -2.336914,-0.73041 -0.02285,0.55241 -0.44603,2.34494 -0.267727,1.81093 -0.190708,0.61006 -2.019428,-0.64656 0.143467,-0.47637 0.288125,-0.043 0.08916,-2.16435 -3.144649,-0.98292 -0.280523,-0.12723 -1.530258,2.60648 -0.931845,0.99983 -2.335739,-1.49195 0.886794,-0.87231 1.281456,-2.43439 -0.182246,-0.0825 0.476468,-1.54404 -0.445108,-0.22612 -0.05392,0.17225 -7.233988,-2.26118 0.264278,-0.8296 -3.883267,-1.21383 -0.04429,0.14195 -2.126305,-0.664588 0.427684,-1.368289 2.126313,0.664593 -0.03297,0.104779 0.857911,0.268196 0.525364,-1.680755 1.550025,0.484515 0.419995,1.976239 0.53597,0.1676 0.199631,-0.626443 7.219975,2.256833 -0.03891,0.12423 0.642494,0.0976 -0.126259,0.40398 0.395796,0.12376 1.546707,-1.42345 z m -0.867979,0.26009 -4.907867,-1.5341 -1.02997,0.81766 5.607468,1.77334 z m -16.558396,-4.925956 -0.722269,-0.225725 -0.316987,1.016392 1.308198,0.408929 z m 12.15729,8.231106 0.182476,0.71774 1.448185,0.45262 0.05843,-0.26325 -0.514663,-0.15864 -0.105499,-0.4074 z" />
    <path
       style="fill:#ffffff;fill-rule:evenodd;stroke:none;stroke-width:0.264583px;stroke-linecap:butt;stroke-linejoin:miter;stroke-opacity:1"
       d="m 73.462804,150.63738 16.091471,-4.33675 -0.117848,-7.49118 4.299304,5.23672 4.266906,-2.70303 3.527903,1.97174 4.78049,-5.80891 h 8.4069 l 7.31986,7.31986 7.50366,-1.6373 7.74639,7.47134 z"
       id="path1184"
       sodipodi:nodetypes="cccccccccccc" />
  </g>
  <g
     inkscape:groupmode="layer"
     id="layer6"
     inkscape:label="Layer 5" />
  <g
     inkscape:groupmode="layer"
     id="layer5"
     inkscape:label="Layer 6"
     sodipodi:insensitive="true"
     style="display:none">
    <path
       style="fill:#ffffff;fill-rule:evenodd;stroke:none;stroke-width:0.264583px;stroke-linecap:butt;stroke-linejoin:miter;stroke-opacity:1"
       d="m 131.56408,134.01723 -22.6612,13.57985 h 26.00379 l 0.15417,-3.23529 h -13.55687 l 11.89947,-6.97526 z"
       id="path917"
       sodipodi:nodetypes="ccccccc" />
    <path
       style="fill:#ffffff;fill-rule:evenodd;stroke:none;stroke-width:0.264583px;stroke-linecap:butt;stroke-linejoin:miter;stroke-opacity:1"
       d="m 102.36441,147.35679 -6.149589,-5.06078 -3.16765,1.29193 -0.0181,-4.42447 -9.67846,4.14727 0.36593,-8.0162 -4.87316,0.0121 0.0426,12.05156 4.35034,0.0149 5.58261,-2.95242 -0.34687,2.96586 z"
       id="path919"
       sodipodi:nodetypes="cccccccccccc" />
  </g>
  <g
     inkscape:groupmode="layer"
     id="layer3"
     inkscape:label="Layer 3"
     style="display:none"
     sodipodi:insensitive="true">
    <path
       id="path2065"
       style="fill:#ffffff;fill-rule:evenodd;stroke:none;stroke-width:0.253043px;stroke-linecap:butt;stroke-linejoin:miter;stroke-opacity:1"
       d="m 114.1106,73.522845 -3.62762,2.369317 -0.22141,1.138204 -0.33559,3.555955 c -5.25733,3.134066 -11.531984,6.878418 -15.836474,9.460963 0.13601,0.150566 0.27884,0.312588 0.4186,0.469019 l 0.75024,-0.65287 c 0.76882,1.221869 1.3058,3.958993 1.85978,4.657583 0.99179,0.784226 2.80374,1.849885 2.80374,1.849885 l -1.74561,-2.693529 18.096084,-11.346434 -0.25601,-0.368199 5.08064,-3.148713 -0.53179,-0.696363 c 0,0 -0.84562,0.532306 -1.25879,0.792244 -0.0731,-0.180207 -0.17554,-0.391139 -0.32322,-0.584669 l 1.25187,-0.814485 c -0.0495,-1.31695 -0.57423,-1.64677 -1.34973,-2.26207 0,0 -1.53458,0.91412 -1.83209,1.09125 l -1.51579,-2.62434 z m 4.33881,5.149338 0.2817,0.599495 c -1.31928,0.830021 -2.70703,1.702996 -3.19022,2.007051 l -0.34152,-0.491752 z M 68.95272,103.79603 v 4.9e-4 l -13.897163,8.66933 -3.995081,5.06534 c 0,0 -0.718502,3.83183 0.0262,4.07884 0.744699,0.24699 2.74568,1.83307 2.74568,1.83307 l -0.106754,14.03354 7.102518,-0.96029 1.399647,-0.91579 -1.300307,-3.23619 -0.91827,-3.38248 1.001795,-0.21647 -0.173968,-1.04826 c -0.849447,-0.45583 -1.666243,-2.06696 -0.110213,-3.16451 -1.967923,-0.84012 -1.991711,-1.51342 -2.334722,-2.55961 l 4.322499,-1.99963 -5.164658,1.88498 c -0.690944,-0.45257 -1.132667,-1.04177 -1.385811,-2.25169 1.032202,-0.76206 1.964314,-0.90455 2.945093,-1.34776 l -3.765013,0.91581 c -0.0098,-0.74973 0.05931,-1.4995 0.730466,-2.24923 1.740375,-0.6038 3.405724,-0.91883 5.072239,-1.11102 0,0 -5.257135,0.64764 -5.363338,0.62767 -0.1062,-0.02 0.153444,-0.67113 0.437389,-1.08236 2.519704,-1.83261 5.90709,-1.38657 8.801669,-1.38926 l -0.208071,-0.76111 3.804055,0.21103 4.455447,-2.04609 -1.474771,-0.53821 4.62546,-2.87097 c -0.933288,-0.50774 -2.549516,-0.8002 -3.725475,-1.46685 -1.322006,-0.74946 -2.626703,-2.24982 -3.546535,-2.72231 z"
       sodipodi:nodetypes="ccccccccccccccccccccccccccccccscccccccccccccccccscccccccscc" />
  </g>
  <g
     inkscape:groupmode="layer"
     id="layer4"
     inkscape:label="Layer 4"
     style="display:inline">
    <g
       id="path3933-2"
       style="font-size:22.4605px;line-height:125%;font-family:'Times New Roman';-inkscape-font-specification:'Times New Roman, ';letter-spacing:0px;word-spacing:0px;display:inline;fill:#ffffff;stroke:#4d4d4d;stroke-width:0.320863px;stroke-linecap:butt;stroke-linejoin:miter;stroke-opacity:1"
       transform="matrix(1.764499,0,0,1.5906792,-129.57035,-63.923715)" />
    <path
       style="fill:#ffffff;fill-rule:evenodd;stroke:none;stroke-width:0.127242px;stroke-linecap:butt;stroke-linejoin:miter;stroke-opacity:1"
       d="m 121.18115,117.05674 -3.61495,19.73398 5.26621,6.03985 6.48576,-1.4982 1.69276,-5.37338 -3.47383,-1.20329 -1.06231,2.50681 -2.50002,0.97636 -1.87757,-3.25763 2.66892,-13.90615 3.25478,-0.86412 1.50585,2.56643 -0.59128,2.88383 3.24382,1.13521 1.59302,-5.62731 -4.23628,-5.80488 z"
       id="path918"
       sodipodi:nodetypes="ccccccccccccccccc" />
  </g>
  <g
     inkscape:label="Layer 1"
     inkscape:groupmode="layer"
     id="layer1"
     style="display:inline">
    <path
       style="display:inline;fill:#ffffff;fill-rule:evenodd;stroke:none;stroke-width:0.420034px;stroke-linecap:butt;stroke-linejoin:miter;stroke-opacity:1;filter:url(#filter1793)"
       d="m 126.31768,102.65142 c 0,0 0.7785,2.09632 1.00649,2.1537 4.0025,0.27679 6.51209,3.17978 10.08341,2.89159 -2.0936,-1.0244 -3.76568,-2.4947 -5.64887,-4.52774 2.7435,0.60278 5.53016,1.1345 7.91409,2.32887 -0.21512,-0.45636 -0.46946,-0.8499 -1.68327,-1.8891 -1.21383,-1.03924 -4.05567,-2.05986 -6.41976,-2.90587 z"
       id="path1257"
       sodipodi:nodetypes="ccccczcc" />
    <path
       id="path9406"
       style="display:inline;fill:#ffffff;fill-rule:evenodd;stroke:none;stroke-width:0.40387px;stroke-linecap:butt;stroke-linejoin:miter;stroke-opacity:1;filter:url(#filter1793)"
       d="m 115.36293,100.6516 c -15.21714,7.97165 -22.178053,15.21525 -41.495183,14.28677 -1.941511,0.24639 -3.355615,0.93923 -4.358076,1.94912 0,0 7.851472,-0.84134 7.955334,-0.14502 0.103865,0.69631 -9.094178,-0.52679 -8.427519,3.15882 0,0 7.757437,-1.72899 8.154576,-1.44459 0.298715,0.21391 -4.980852,0.72483 -7.135073,2.40654 -0.709719,0.55408 0.23031,1.20029 0.822634,1.81364 0,0 7.336756,-2.70528 8.133178,-2.36712 0.796405,0.33821 -5.186148,2.41754 -6.291515,3.13365 0.002,1.60384 1.914951,2.23682 2.529731,2.27437 3.387519,-0.98201 6.664022,-4.88338 7.394224,-4.44938 0.730212,0.43403 -5.016726,4.89721 -5.016726,4.89721 3.359124,1.30191 7.184182,-4.54665 7.793721,-4.15828 0.315255,0.20091 1.840371,0.47702 -3.741808,4.70713 1.182856,0.0583 3.041277,-0.10279 3.770343,-0.38518 2.575944,-1.13151 3.220275,-2.66869 5.230694,-4.20149 1.907446,0.3639 -3.249655,3.68499 -3.828407,4.2814 9.087883,-0.30762 12.176465,-8.83933 17.056182,-10.27155 z"
       sodipodi:nodetypes="cccscsscsccscscccccc" />
    <path
       style="display:inline;fill:#1a1a1a;fill-rule:evenodd;stroke:none;stroke-width:0.216979px;stroke-linecap:butt;stroke-linejoin:miter;stroke-opacity:1;filter:url(#filter1793)"
       d="m 102.12151,95.740394 0.2933,0.921084 6.66868,2.788453 10.90123,-1.120409 c 0,0 -0.42656,-1.446009 -0.75204,-1.353541 -0.3255,0.09242 -9.8609,0.905918 -9.8609,0.905918 l -6.70305,-2.539597 z"
       id="path2253" />
    <path
       id="path9466"
       style="display:inline;fill:#ffffff;fill-rule:evenodd;stroke:none;stroke-width:0.124099;stroke-linecap:round;stroke-linejoin:round;stroke-miterlimit:4;stroke-dasharray:none;filter:url(#filter1793)"
       d="m 107.95771,98.461829 -8.587627,17.600181 c 5.946807,-2.66626 3.367787,4.36188 12.755457,-4.69045 3.71951,-1.89416 6.51919,-2.75512 10.41304,-4.40365 5.20846,-0.81304 6.54638,-2.32823 6.22486,-2.93456 0.66419,-0.41225 0.56342,-0.24375 0.23527,-1.38432 1.56884,-1.00153 3.8331,-0.2945 4.24345,-0.76995 -0.24276,-0.6741 -0.40738,-0.60243 -1.10933,-0.79115 -3.26432,-4.348828 -7.98568,-4.372946 -11.10868,-3.52696 -6.38847,0.276457 -9.95977,1.279907 -13.06644,0.900859 z"
       sodipodi:nodetypes="cccccccccc" />
    <path
       id="path9473-2"
       style="display:inline;fill:#ffffff;fill-rule:evenodd;stroke:none;stroke-width:0.443319px;stroke-linecap:butt;stroke-linejoin:miter;stroke-opacity:1;filter:url(#filter1793)"
       d="m 113.37903,108.37497 -10.2877,6.77879 0.67398,4.33038 4.55059,4.79085 1.92092,1.26525 2.16409,2.43578 -0.65653,1.77706 -0.41938,0.37616 c 0.37535,0.096 0.0912,0.0661 0.64855,-0.096 2.15542,-2.84041 1.68368,-2.76937 0.81032,-3.59275 8e-5,-3e-5 -1.45453,-1.20414 -1.45453,-1.20414 l -2.10379,-1.62759 -1.79255,-3.86942 0.49039,-1.31197 z"
       sodipodi:nodetypes="ccccccccccccccc" />
    <path
       id="path9471"
       style="display:inline;fill:#ffffff;fill-rule:evenodd;stroke:none;stroke-width:0.294941px;stroke-linecap:butt;stroke-linejoin:miter;stroke-opacity:1;filter:url(#filter1793)"
       d="m 119.07812,105.45318 -12.50221,2.40596 -11.927615,9.9056 2.210966,1.37914 4.821199,1.78274 4.06306,-0.0142 c 7.54682,-4.67236 8.41961,-7.27072 13.3346,-15.45925 z m -26.026329,1.65767 -0.613368,1.01427 -4.11169,2.55505 2.686146,-0.19771 -2.322386,3.84131 c 0,0 9.573853,-2.13211 10.22678,-3.31371 l 0.53965,-0.97658 c -2.477595,0.18269 -5.324271,-1.41995 -6.405132,-2.92263 z" />
    <path
       id="path2249"
       style="display:inline;fill:#ffffff;fill-rule:evenodd;stroke:none;stroke-width:0.157229px;stroke-linecap:butt;stroke-linejoin:miter;stroke-opacity:1;filter:url(#filter1793)"
       d="m 75.666106,80.295481 c -5.808868,0.07533 -9.423826,2.715628 -15.387454,5.071138 0,0 4.625526,3.14103 6.987157,2.475065 5.036912,-1.420411 13.510267,-1.984529 13.510267,-1.984529 l 2.227961,0.109608 c -5.248087,0.785873 -11.624854,2.326641 -15.988518,4.045789 -0.481661,0.190894 2.282677,3.372292 5.825215,2.570962 0.133305,-0.03017 11.287293,-3.195678 11.084994,-2.686522 -0.388845,0.978657 -8.439459,2.900188 -10.880832,3.923366 -1.280646,0.536708 0.90228,1.171413 2.550874,1.882673 4.322685,-0.242769 12.023136,-2.060795 12.023136,-2.060795 0.08295,0.210128 -9.007407,3.262919 -11.92494,3.054197 0.159476,0.650822 0.292042,1.018947 0.931379,1.577086 0.351655,0.206022 0.959766,0.399484 1.304158,0.549516 0.138968,0.06054 12.145141,-2.928387 12.290238,-2.891341 -0.858948,0.402632 -10.771586,3.483873 -11.342636,3.351767 0,0 0.934792,1.150319 1.486637,1.366509 1.046354,0.4437 11.827285,-3.006432 11.827285,-3.006432 0.279112,-0.134241 -8.753439,3.397252 -10.840696,3.639322 0.427943,0.74344 1.173457,1.27005 1.907765,1.32434 0.375821,0.0279 11.765115,-3.807486 11.736059,-3.867373 0.219577,0.410567 -10.772957,4.501733 -10.944973,4.163603 0.962703,0.9526 1.899971,0.94036 2.374669,0.97612 2.201267,0.16584 11.126172,-3.41179 10.940423,-3.75118 0.780682,0.95261 -8.865798,4.08366 -9.323353,3.98412 -0.511389,-0.11125 -0.413733,0.33626 1.126261,0.97475 0.195811,0.0811 0.414087,0.16217 0.65621,0.24094 0.790237,0.25708 1.834525,0.49064 3.181062,0.63076 2.106293,-0.29837 9.397356,-2.90751 10.162466,-4.47422 -1.59804,2.52647 -6.588218,4.34762 -9.250536,5.30878 2.345884,1.55376 5.504189,2.37354 6.416926,2.11752 0.32819,-0.0921 11.00787,-5.40205 11.00787,-5.40205 l 5.64908,-4.462177 c 0,0 -7.12046,-1.208324 -10.20074,-2.117433 -6.07416,-1.7927 -12.095147,-5.437235 -13.22529,-9.526146 -0.189111,-0.684261 0.96696,-2.819568 0.0055,-3.110987 -2.250551,-1.259755 -10.663321,-3.153378 -14.421711,-3.756502 -1.255027,-0.18005 -2.40599,-0.254211 -3.481709,-0.240246 z"
       sodipodi:nodetypes="scscccsssccccscccccsccscssscccsccssccss" />
    <path
       id="path9473"
       style="display:inline;fill:#ffffff;fill-rule:evenodd;stroke:none;stroke-width:0.443319px;stroke-linecap:butt;stroke-linejoin:miter;stroke-opacity:1;filter:url(#filter1793)"
       d="m 103.56617,116.81669 -5.089504,1.5924 0.588597,4.74519 2.040607,3.84022 4.52074,3.2498 1.65334,3.10886 -0.39777,1.1221 -0.95417,0.57043 c 0.41986,0.2279 0.82462,0.25183 1.05581,0.0714 2.7249,-2.32619 1.5496,-2.56445 0.86412,-3.58251 l -1.13924,-1.445 -4.1164,-4.00019 c 0.86767,-2.93498 1.49657,-7.30197 2.31138,-9.63205 z"
       sodipodi:nodetypes="cccccccccccccc" />
    <path
       style="display:inline;fill:#ffffff;fill-rule:evenodd;stroke:none;stroke-width:0.790373px;stroke-linecap:butt;stroke-linejoin:miter;stroke-opacity:1;filter:url(#filter1793)"
       d="m 113.31841,127.45492 -0.40269,0.88525 0.23332,1.39512 -0.67103,0.16171 -0.41543,0.59363 c 2.53403,0.6446 1.41619,-2.45042 1.25606,-3.03504 z"
       id="path977"
       sodipodi:nodetypes="ccccccc" />
    <path
       style="display:inline;fill:#ffffff;fill-rule:evenodd;stroke:none;stroke-width:0.790373px;stroke-linecap:butt;stroke-linejoin:miter;stroke-opacity:1;filter:url(#filter1793)"
       d="m 110.74384,126.74394 c -0.57075,0.18837 -1.65177,0.51752 -1.65177,0.51752 0,0 0.10321,-0.60224 1.04272,-1.06124 z"
       id="path979"
       sodipodi:nodetypes="cccc" />
    <path
       style="display:inline;fill:#ffffff;fill-rule:evenodd;stroke:none;stroke-width:0.790373px;stroke-linecap:butt;stroke-linejoin:miter;stroke-opacity:1;filter:url(#filter1793)"
       d="m 108.5969,132.95301 -0.75337,0.43685 0.61085,1.29992 -0.80555,0.11803 -0.38568,0.58822 c 2.00865,0.48138 2.27525,-0.61743 1.35149,-2.4511 z"
       id="path977-6"
       sodipodi:nodetypes="ccccccc" />
    <path
       style="display:inline;fill:#ffffff;fill-rule:evenodd;stroke:none;stroke-width:0.790373px;stroke-linecap:butt;stroke-linejoin:miter;stroke-opacity:1;filter:url(#filter1793)"
       d="m 105.67296,131.54322 c -0.55564,0.0175 -1.39634,-0.0146 -1.9787,-0.0603 0.044,-0.44898 0.45834,-0.5687 1.59697,-0.65763 z"
       id="path979-7"
       sodipodi:nodetypes="cccc" />
    <path
       style="display:inline;fill:#1a1a1a;fill-rule:evenodd;stroke:none;stroke-width:0.32741px;stroke-linecap:butt;stroke-linejoin:miter;stroke-opacity:1;filter:url(#filter1793)"
       d="m 115.34175,111.79717 c -1.3345,1.35239 -5.41911,9.5345 -10.22346,12.25064 l -1.35876,-3.15511 c 5.79558,-1.56959 10.16508,-6.5788 11.08136,-9.3709 z"
       id="path1035"
       sodipodi:nodetypes="ccccc" />
    <path
       style="display:inline;fill:#ffffff;fill-rule:evenodd;stroke:none;stroke-width:0.377849px;stroke-linecap:butt;stroke-linejoin:miter;stroke-opacity:1;filter:url(#filter1793)"
       d="m 103.5614,132.27086 -6.756442,3.75145 c 0,0 0.572003,2.19543 0.935146,2.66346 0.363232,0.46799 2.779546,1.48614 2.779546,1.48614 l 6.04656,-6.42762 -0.73439,-1.51345 z"
       id="path1050"
       sodipodi:nodetypes="ccscccc" />
    <path
       style="display:inline;fill:#ffffff;fill-rule:evenodd;stroke:none;stroke-width:0.377849px;stroke-linecap:butt;stroke-linejoin:miter;stroke-opacity:1;filter:url(#filter1793)"
       d="m 106.77733,129.50173 1.49425,1.49809 0.54372,1.09983 2.42346,-2.4012 0.5755,-1.40519 -0.5491,-0.90883 -1.98019,0.14807 z"
       id="path1052"
       sodipodi:nodetypes="cccccccc" />
    <path
       id="path1054"
       style="display:inline;fill:#ffffff;fill-rule:evenodd;stroke:none;stroke-width:0.377849px;stroke-linecap:butt;stroke-linejoin:miter;stroke-opacity:1;filter:url(#filter1793)"
       d="m 115.03718,121.50134 c -0.96783,0.99149 -1.13048,1.21881 -1.13048,1.21881 0,0 0.63736,0.30666 1.58076,1.55349 l 0.41422,1.84206 0.005,0.12174 1.6379,-1.33555 -0.39895,-2.13982 z m 0.87254,4.73872 -1.12928,0.92143 c -0.0201,0.13772 -0.73857,5.07721 -0.97373,5.6776 -0.2384,0.60874 -0.61166,2.47247 -0.61166,2.47247 l 1.21226,-1.25883 0.73495,1.57345 1.02437,-4.81773 z m -1.12928,0.92143 0.0112,-0.0731 c 0,0 -0.2665,-1.90589 -0.36941,-2.09248 -0.10059,-0.18199 -1.50253,-1.19906 -1.50253,-1.19906 l -1.15461,1.15661 2.08476,1.69388 0.20419,1.19089 z"
       sodipodi:nodetypes="ccccccccccsccccccccccccc" />
    <path
       style="display:inline;fill:#1a1a1a;fill-rule:evenodd;stroke:none;stroke-width:0.265494px;stroke-linecap:butt;stroke-linejoin:miter;stroke-opacity:1;filter:url(#filter1793)"
       d="m 97.008678,109.23924 c 0.916421,1.42656 2.855985,0.98226 7.454132,-1.70237 5.11865,-2.98849 9.90664,-7.615741 10.01768,-8.800303 -1.16065,1.422013 -5.38789,5.391763 -10.28708,8.053963 -3.45393,1.87683 -4.396077,1.94703 -7.184732,2.44871 z"
       id="path1801"
       sodipodi:nodetypes="cscsc" />
    <path
       style="display:inline;fill:#ffffff;fill-rule:evenodd;stroke:none;stroke-width:0.233848px;stroke-linecap:butt;stroke-linejoin:miter;stroke-opacity:1;filter:url(#filter1793)"
       d="m 117.65001,96.274543 c 0,0 -7.62841,-4.105258 -7.62841,-6.186561 0,-2.081285 1.96233,-9.276959 1.96233,-9.276959 0.0175,-3.52118 -6.57134,-3.524475 -8.39574,-3.715763 -6.683021,-1.007546 -11.604156,0.437414 -17.576029,3.032657 3.495124,0.965225 7.462167,1.258284 10.103778,3.43922 1.809442,1.474157 -0.51189,3.290396 0.605261,5.469757 4.94505,4.67581 8.98313,6.462613 15.24829,7.32098 1.62291,-0.181388 3.61774,-0.105623 5.68052,-0.08341 z"
       id="path989"
       sodipodi:nodetypes="cscccccccc" />
    <path
       style="display:inline;fill:#ffffff;fill-rule:evenodd;stroke:none;stroke-width:0.243462px;stroke-linecap:butt;stroke-linejoin:miter;stroke-opacity:1;filter:url(#filter1793)"
       d="m 116.82118,108.8959 -2.75731,6.61084 c 0,0 -1.97379,-3.65132 -0.81685,-4.16564 1.15694,-0.51427 3.57416,-2.4452 3.57416,-2.4452 z"
       id="path1006"
       sodipodi:nodetypes="ccsc" />
    <path
       style="display:inline;fill:#ffffff;fill-rule:evenodd;stroke:none;stroke-width:0.243462px;stroke-linecap:butt;stroke-linejoin:miter;stroke-opacity:1;filter:url(#filter1793)"
       d="m 124.1575,106.31051 -5.50432,3.23912 c 0,0 0.12962,-3.03145 0.39871,-3.03145 0.26909,0 5.10561,-0.20767 5.10561,-0.20767 z"
       id="path1002" />
    <path
       style="display:inline;fill:#ffffff;fill-rule:evenodd;stroke:none;stroke-width:0.243462px;stroke-linecap:butt;stroke-linejoin:miter;stroke-opacity:1;filter:url(#filter1793)"
       d="m 120.24514,98.097452 c -0.79227,-0.04721 -8.01752,-0.79709 -8.01752,-0.79709 l 3.49965,2.290333 z"
       id="path1004" />
    <path
       style="display:inline;fill:#ffffff;fill-rule:evenodd;stroke:none;stroke-width:0.243462px;stroke-linecap:butt;stroke-linejoin:miter;stroke-opacity:1;filter:url(#filter1793)"
       d="m 110.9492,115.82695 -2.73704,5.31897 -1.48757,-3.02651 z"
       id="path1008" />
    <path
       style="display:inline;fill:#ffffff;fill-rule:evenodd;stroke:none;stroke-width:0.243462px;stroke-linecap:butt;stroke-linejoin:miter;stroke-opacity:1;filter:url(#filter1793)"
       d="M 83.915759,82.29784 C 84.70328,80.979593 69.177543,78.534271 67.49258,79.055764 l 6.699524,3.535368 z"
       id="path1012"
       sodipodi:nodetypes="cccc" />
    <path
       style="display:inline;fill:#ffffff;fill-rule:evenodd;stroke:none;stroke-width:0.243462px;stroke-linecap:butt;stroke-linejoin:miter;stroke-opacity:1;filter:url(#filter1793)"
       d="m 114.47794,94.607911 -2.71945,-4.835981 -0.16737,3.259383 z"
       id="path1014" />
    <path
       style="display:inline;fill:#ffffff;fill-rule:evenodd;stroke:none;stroke-width:0.243462px;stroke-linecap:butt;stroke-linejoin:miter;stroke-opacity:1;filter:url(#filter1793)"
       d="m 84.88954,114.71942 -5.041783,-0.51385 c 0,0 1.251972,1.44589 1.627858,1.44589 0.375886,0 3.413925,-0.93204 3.413925,-0.93204 z"
       id="path1016" />
    <path
       style="display:inline;fill:#ffffff;fill-rule:evenodd;stroke:none;stroke-width:0.243462px;stroke-linecap:butt;stroke-linejoin:miter;stroke-opacity:1;filter:url(#filter1793)"
       d="M 108.09771,77.786337 C 103.7484,76.852326 99.375493,76.055327 94.994291,75.29119 l 3.321235,2.420193 z"
       id="path1018"
       sodipodi:nodetypes="cccc" />
    <path
       style="display:inline;fill:#ffffff;fill-rule:evenodd;stroke:none;stroke-width:0.1523px;stroke-linecap:butt;stroke-linejoin:miter;stroke-opacity:1"
       d="m 75.710241,121.40187 10.052904,23.21633 2.255638,-0.75856 -0.453784,-11.50114 6.052989,8.77317 2.070529,-0.90924 -2.904541,-24.11106 -3.862445,1.15496 1.424981,11.56875 -5.127372,-10.77885 -2.648154,0.82753 1.669901,14.00055 -5.351402,-12.82583 z"
       id="path916"
       sodipodi:nodetypes="cccccccccccccc" />
    <path
       style="fill:#1a1a1a;fill-rule:evenodd;stroke:none;stroke-width:0.318296px;stroke-linecap:butt;stroke-linejoin:miter;stroke-opacity:1"
       d="m 78.88621,119.5222 c -0.232905,0.14162 -3.64289,1.53428 -3.64289,1.53428 l 2.588391,5.95336 4.455224,0.26336 z"
       id="path1166" />
    <path
       style="fill:#1a1a1a;fill-rule:evenodd;stroke:none;stroke-width:0.300764px;stroke-linecap:butt;stroke-linejoin:miter;stroke-opacity:1"
       d="m 83.189421,127.06033 6.318889,-0.57345 -4.36784,-8.85341 -2.812059,0.98576 z"
       id="path1168" />
    <path
       style="fill:#1a1a1a;fill-rule:evenodd;stroke:none;stroke-width:0.303904px;stroke-linecap:butt;stroke-linejoin:miter;stroke-opacity:1"
       d="m 88.602469,116.87913 1.240013,9.56 4.2144,-1.89678 -1.127951,-9.03872 z"
       id="path1170" />
  </g>
</svg>
