<?xml version="1.0" encoding="UTF-8" standalone="no"?>
<svg
   width="210mm"
   height="297mm"
   viewBox="0 0 210 297"
   version="1.1"
   id="svg962"
   inkscape:version="1.3.2 (091e20ef0f, 2023-11-25)"
   sodipodi:docname="crow-logo.svg"
   xmlns:inkscape="http://www.inkscape.org/namespaces/inkscape"
   xmlns:sodipodi="http://sodipodi.sourceforge.net/DTD/sodipodi-0.dtd"
   xmlns="http://www.w3.org/2000/svg"
   xmlns:svg="http://www.w3.org/2000/svg"
   xmlns:rdf="http://www.w3.org/1999/02/22-rdf-syntax-ns#"
   xmlns:cc="http://creativecommons.org/ns#"
   xmlns:dc="http://purl.org/dc/elements/1.1/">
  <defs
     id="defs956" />
  <sodipodi:namedview
     id="base"
     pagecolor="#ffffff"
     bordercolor="#666666"
     borderopacity="1.0"
     inkscape:pageopacity="0.0"
     inkscape:pageshadow="2"
     inkscape:zoom="0.49497475"
     inkscape:cx="311.12698"
     inkscape:cy="530.33009"
     inkscape:document-units="mm"
     inkscape:current-layer="layer2"
     inkscape:document-rotation="0"
     showgrid="false"
     inkscape:window-width="1366"
     inkscape:window-height="743"
     inkscape:window-x="0"
     inkscape:window-y="25"
     inkscape:window-maximized="1"
     inkscape:snap-global="false"
     inkscape:showpageshadow="0"
     inkscape:pagecheckerboard="0"
     inkscape:deskcolor="#d1d1d1" />
  <metadata
     id="metadata959">
    <rdf:RDF>
      <cc:Work
         rdf:about="">
        <dc:format>image/svg+xml</dc:format>
        <dc:type
           rdf:resource="http://purl.org/dc/dcmitype/StillImage" />
      </cc:Work>
    </rdf:RDF>
  </metadata>
  <g
     inkscape:groupmode="layer"
     id="layer2"
     inkscape:label="Layer 2"
     style="display:inline">
    <circle
       style="display:inline;fill:#1a1a1a;fill-rule:evenodd;stroke:none;stroke-width:3.60033;stroke-linecap:round;stroke-linejoin:round;stroke-miterlimit:4;stroke-dasharray:none"
       id="path7132-3"
       cx="104.80189"
       cy="140.14983"
       r="94.854645" />
    <path
       id="path948"
       style="display:inline;fill:#ffffff;fill-rule:evenodd;stroke:none;stroke-width:0.339656px;stroke-linecap:butt;stroke-linejoin:miter;stroke-opacity:1"
       d="m 149.42866,140.24749 2.4835,4.20605 2.19756,-1.29756 2.31352,8.84099 0.33384,1.65105 1.35427,1.86825 6.71783,-4.00954 -0.0182,-3.04617 -2.03647,-1.02091 -1.13892,-4.755 5.10776,-3.14309 0.0131,-3.76056 5.98377,-3.53314 -1.26286,-2.13877 1.07396,-0.63411 -0.70595,-1.19558 -1.01167,0.59738 -0.55611,-0.93898 z m 15.98662,-3.74841 0.21509,2.41147 -2.96352,1.73952 -0.69526,-0.24198 1.25003,-0.75862 0.0147,-1.29648 0.26676,-0.59587 z" />
    <path
       id="path954"
       style="display:inline;fill:#ffffff;fill-rule:evenodd;stroke:none;stroke-width:0.238977px;stroke-linecap:butt;stroke-linejoin:miter;stroke-opacity:1"
       d="m 66.998872,122.85243 -0.90068,2.88141 10.939719,3.41953 -1.47388,5.95022 -2.766756,-0.86487 -3.155,-3.72425 0.04116,-1.00271 -3.839544,-1.20006 -0.03754,0.90761 -0.732827,3.85273 -0.439874,2.97536 -0.313333,1.00233 -3.317917,-1.0623 0.235716,-0.78268 0.473389,-0.0707 0.14649,-3.55602 -5.166653,-1.61494 -0.460898,-0.20903 -2.514211,4.28243 -1.53102,1.64273 -3.837615,-2.45127 1.457001,-1.43321 2.105429,-3.9997 -0.29943,-0.13555 0.782837,-2.53685 -0.731312,-0.37152 -0.08859,0.28301 -11.885428,-3.71512 0.434208,-1.36303 -6.380201,-1.99432 -0.07277,0.23322 -3.493515,-1.09191 0.702684,-2.2481 3.493528,1.09193 -0.05417,0.17215 1.409547,0.44064 0.863172,-2.76148 2.546688,0.79606 0.690051,3.24696 0.880598,0.27537 0.327993,-1.02925 11.862405,3.70797 -0.06393,0.20412 1.055616,0.16035 -0.207443,0.66373 0.650292,0.20335 2.541237,-2.33873 z m -1.426088,0.42733 -8.063616,-2.52053 -1.692239,1.34341 9.213059,2.9136 z m -27.205414,-8.09335 -1.186686,-0.37086 -0.520809,1.66993 2.149366,0.67188 z m 19.974405,13.5237 0.299808,1.17924 2.379365,0.74367 0.096,-0.43253 -0.845591,-0.26064 -0.173335,-0.66936 z" />
    <path
       style="fill:#ffffff;fill-rule:evenodd;stroke:none;stroke-width:0.43471px;stroke-linecap:butt;stroke-linejoin:miter;stroke-opacity:1"
       d="m 53.311832,200.31381 26.438256,-7.12527 -0.193623,-12.308 7.063748,8.60392 7.010518,-4.44107 5.796339,3.23956 7.85434,-9.54402 h 13.81252 l 12.02651,12.02651 12.32851,-2.69007 12.7273,12.2754 z"
       id="path1184"
       sodipodi:nodetypes="cccccccccccc" />
  </g>
  <g
     inkscape:groupmode="layer"
     id="layer6"
     inkscape:label="Layer 5" />
  <g
     inkscape:groupmode="layer"
     id="layer5"
     inkscape:label="Layer 6"
     sodipodi:insensitive="true"
     style="display:none">
    <path
       style="fill:#ffffff;fill-rule:evenodd;stroke:none;stroke-width:0.264583px;stroke-linecap:butt;stroke-linejoin:miter;stroke-opacity:1"
       d="m 131.56408,134.01723 -22.6612,13.57985 h 26.00379 l 0.15417,-3.23529 h -13.55687 l 11.89947,-6.97526 z"
       id="path917"
       sodipodi:nodetypes="ccccccc" />
    <path
       style="fill:#ffffff;fill-rule:evenodd;stroke:none;stroke-width:0.264583px;stroke-linecap:butt;stroke-linejoin:miter;stroke-opacity:1"
       d="m 102.36441,147.35679 -6.149589,-5.06078 -3.16765,1.29193 -0.0181,-4.42447 -9.67846,4.14727 0.36593,-8.0162 -4.87316,0.0121 0.0426,12.05156 4.35034,0.0149 5.58261,-2.95242 -0.34687,2.96586 z"
       id="path919"
       sodipodi:nodetypes="cccccccccccc" />
  </g>
  <g
     inkscape:groupmode="layer"
     id="layer3"
     inkscape:label="Layer 3"
     style="display:none"
     sodipodi:insensitive="true">
    <path
       id="path2065"
       style="fill:#ffffff;fill-rule:evenodd;stroke:none;stroke-width:0.253043px;stroke-linecap:butt;stroke-linejoin:miter;stroke-opacity:1"
       d="m 114.1106,73.522845 -3.62762,2.369317 -0.22141,1.138204 -0.33559,3.555955 c -5.25733,3.134066 -11.531984,6.878418 -15.836474,9.460963 0.13601,0.150566 0.27884,0.312588 0.4186,0.469019 l 0.75024,-0.65287 c 0.76882,1.221869 1.3058,3.958993 1.85978,4.657583 0.99179,0.784226 2.80374,1.849885 2.80374,1.849885 l -1.74561,-2.693529 18.096084,-11.346434 -0.25601,-0.368199 5.08064,-3.148713 -0.53179,-0.696363 c 0,0 -0.84562,0.532306 -1.25879,0.792244 -0.0731,-0.180207 -0.17554,-0.391139 -0.32322,-0.584669 l 1.25187,-0.814485 c -0.0495,-1.31695 -0.57423,-1.64677 -1.34973,-2.26207 0,0 -1.53458,0.91412 -1.83209,1.09125 l -1.51579,-2.62434 z m 4.33881,5.149338 0.2817,0.599495 c -1.31928,0.830021 -2.70703,1.702996 -3.19022,2.007051 l -0.34152,-0.491752 z M 68.95272,103.79603 v 4.9e-4 l -13.897163,8.66933 -3.995081,5.06534 c 0,0 -0.718502,3.83183 0.0262,4.07884 0.744699,0.24699 2.74568,1.83307 2.74568,1.83307 l -0.106754,14.03354 7.102518,-0.96029 1.399647,-0.91579 -1.300307,-3.23619 -0.91827,-3.38248 1.001795,-0.21647 -0.173968,-1.04826 c -0.849447,-0.45583 -1.666243,-2.06696 -0.110213,-3.16451 -1.967923,-0.84012 -1.991711,-1.51342 -2.334722,-2.55961 l 4.322499,-1.99963 -5.164658,1.88498 c -0.690944,-0.45257 -1.132667,-1.04177 -1.385811,-2.25169 1.032202,-0.76206 1.964314,-0.90455 2.945093,-1.34776 l -3.765013,0.91581 c -0.0098,-0.74973 0.05931,-1.4995 0.730466,-2.24923 1.740375,-0.6038 3.405724,-0.91883 5.072239,-1.11102 0,0 -5.257135,0.64764 -5.363338,0.62767 -0.1062,-0.02 0.153444,-0.67113 0.437389,-1.08236 2.519704,-1.83261 5.90709,-1.38657 8.801669,-1.38926 l -0.208071,-0.76111 3.804055,0.21103 4.455447,-2.04609 -1.474771,-0.53821 4.62546,-2.87097 c -0.933288,-0.50774 -2.549516,-0.8002 -3.725475,-1.46685 -1.322006,-0.74946 -2.626703,-2.24982 -3.546535,-2.72231 z"
       sodipodi:nodetypes="ccccccccccccccccccccccccccccccscccccccccccccccccscccccccscc" />
  </g>
  <g
     inkscape:groupmode="layer"
     id="layer4"
     inkscape:label="Layer 4"
     style="display:inline">
    <g
       id="path3933-2"
       style="font-size:22.4605px;line-height:125%;font-family:'Times New Roman';-inkscape-font-specification:'Times New Roman, ';letter-spacing:0px;word-spacing:0px;display:inline;fill:#ffffff;stroke:#4d4d4d;stroke-width:0.320863px;stroke-linecap:butt;stroke-linejoin:miter;stroke-opacity:1"
       transform="matrix(1.764499,0,0,1.5906792,-129.57035,-63.923715)" />
    <path
       style="fill:#ffffff;fill-rule:evenodd;stroke:none;stroke-width:0.209059px;stroke-linecap:butt;stroke-linejoin:miter;stroke-opacity:1"
       d="m 131.71299,145.14088 -5.93936,32.42289 8.65237,9.92346 10.6561,-2.46153 2.7812,-8.82846 -5.7075,-1.977 -1.74538,4.11869 -4.10752,1.60416 -3.08485,-5.35228 4.38504,-22.84779 5.34759,-1.41974 2.47412,4.21664 -0.97148,4.73812 5.32959,1.86515 2.61732,-9.24566 -6.96019,-9.5374 z"
       id="path918"
       sodipodi:nodetypes="ccccccccccccccccc" />
  </g>
  <g
     inkscape:label="Layer 1"
     inkscape:groupmode="layer"
     id="layer1"
     style="display:inline">
    <path
       style="display:inline;fill:#ffffff;fill-rule:evenodd;stroke:none;stroke-width:0.690115px;stroke-linecap:butt;stroke-linejoin:miter;stroke-opacity:1;filter:url(#filter1793)"
       d="m 140.15229,121.47296 c 0,0 1.27908,3.44426 1.65367,3.53854 6.57609,0.45476 10.69935,5.22437 16.56702,4.75087 -3.43978,-1.68309 -6.18701,-4.09879 -9.28108,-7.43907 4.50757,0.99037 9.08604,1.86398 13.00283,3.82633 -0.35344,-0.7498 -0.77132,-1.39639 -2.76561,-3.10379 -1.99431,-1.70747 -6.66346,-3.38435 -10.54765,-4.77434 z"
       id="path1257"
       sodipodi:nodetypes="ccccczcc" />
    <path
       id="path9406"
       style="display:inline;fill:#ffffff;fill-rule:evenodd;stroke:none;stroke-width:0.663558px;stroke-linecap:butt;stroke-linejoin:miter;stroke-opacity:1;filter:url(#filter1793)"
       d="m 122.15366,118.18726 c -25.001732,13.09742 -36.438499,24.99864 -68.176508,23.47314 -3.189899,0.40483 -5.513269,1.54316 -7.160311,3.2024 0,0 12.899954,-1.38231 13.070599,-0.23826 0.17065,1.14404 -14.941718,-0.86552 -13.846397,5.18993 0,0 12.745454,-2.84072 13.397952,-2.37345 0.490789,0.35144 -8.18353,1.19089 -11.722911,3.95393 -1.166067,0.91036 0.378398,1.97207 1.351586,2.97981 0,0 12.054276,-4.44477 13.362796,-3.88918 1.308492,0.55568 -8.520831,3.97202 -10.336947,5.14859 0.0033,2.6351 3.14626,3.67509 4.156343,3.73678 5.565687,-1.61343 10.948976,-8.02338 12.148696,-7.31032 1.199738,0.71311 -8.242471,8.04611 -8.242471,8.04611 5.519034,2.13904 11.803598,-7.47013 12.805069,-6.83204 0.517963,0.33009 3.023727,0.78374 -6.147784,7.7338 1.943431,0.0958 4.996812,-0.16889 6.194667,-0.63286 4.232272,-1.85907 5.290906,-4.38465 8.59402,-6.90303 3.133931,0.59788 -5.339177,6.05443 -6.290065,7.03433 14.931375,-0.50542 20.005909,-14.52301 28.023276,-16.87614 z"
       sodipodi:nodetypes="cccscsscsccscscccccc" />
    <path
       style="display:inline;fill:#1a1a1a;fill-rule:evenodd;stroke:none;stroke-width:0.356496px;stroke-linecap:butt;stroke-linejoin:miter;stroke-opacity:1;filter:url(#filter1793)"
       d="m 100.39803,110.11817 0.48189,1.51333 10.95663,4.58143 17.91071,-1.84084 c 0,0 -0.70085,-2.37579 -1.23561,-2.22386 -0.5348,0.15184 -16.20144,1.48842 -16.20144,1.48842 l -11.0131,-4.17255 z"
       id="path2253" />
    <path
       id="path9466"
       style="display:inline;fill:#ffffff;fill-rule:evenodd;stroke:none;stroke-width:0.203894;stroke-linecap:round;stroke-linejoin:round;stroke-miterlimit:4;stroke-dasharray:none;filter:url(#filter1793)"
       d="m 109.9869,114.58947 -14.109457,28.91708 c 9.770597,-4.38066 5.533267,7.16655 20.957197,-7.70641 6.11115,-3.1121 10.71101,-4.52666 17.1086,-7.23518 8.55749,-1.33583 10.75569,-3.82529 10.22744,-4.82149 1.09126,-0.67732 0.92569,-0.40048 0.38655,-2.27443 2.57759,-1.64551 6.29776,-0.48386 6.97197,-1.26503 -0.39885,-1.10754 -0.66933,-0.98979 -1.82263,-1.29986 -5.36327,-7.14511 -13.12045,-7.18473 -18.25153,-5.79478 -10.49625,0.45421 -16.36389,2.10288 -21.46814,1.4801 z"
       sodipodi:nodetypes="cccccccccc" />
    <path
       id="path9473-2"
       style="display:inline;fill:#ffffff;fill-rule:evenodd;stroke:none;stroke-width:0.728373px;stroke-linecap:butt;stroke-linejoin:miter;stroke-opacity:1;filter:url(#filter1793)"
       d="m 118.89411,130.87675 -16.90267,11.13754 1.10735,7.11481 7.47662,7.87135 3.15606,2.07881 3.55559,4.00198 -1.07867,2.91971 -0.68904,0.61802 c 0.6167,0.15773 0.14984,0.10861 1.06557,-0.15773 3.54135,-4.66678 2.76628,-4.55006 1.33135,-5.90287 1.3e-4,-5e-5 -2.38979,-1.9784 -2.38979,-1.9784 l -3.45653,-2.67413 -2.94515,-6.35745 0.80571,-2.15557 z"
       sodipodi:nodetypes="ccccccccccccccc" />
    <path
       id="path9471"
       style="display:inline;fill:#ffffff;fill-rule:evenodd;stroke:none;stroke-width:0.484588px;stroke-linecap:butt;stroke-linejoin:miter;stroke-opacity:1;filter:url(#filter1793)"
       d="m 128.25771,126.07625 -20.54111,3.95299 -19.597046,16.27489 3.632613,2.26592 7.921224,2.92904 6.675599,-0.0233 c 12.39941,-7.67668 13.8334,-11.94578 21.90872,-25.39952 z m -42.761209,2.72355 -1.007763,1.66645 -6.755499,4.19794 4.413333,-0.32484 -3.815676,6.31126 c 0,0 15.729823,-3.50305 16.802581,-5.44442 l 0.886644,-1.60451 c -4.070684,0.30016 -8.747768,-2.33298 -10.52362,-4.80188 z" />
    <path
       id="path2249"
       style="display:inline;fill:#ffffff;fill-rule:evenodd;stroke:none;stroke-width:0.258327px;stroke-linecap:butt;stroke-linejoin:miter;stroke-opacity:1;filter:url(#filter1793)"
       d="m 56.931852,84.742199 c -9.543959,0.123767 -15.483328,4.461772 -25.281558,8.33187 0,0 7.599731,5.160709 11.479886,4.066531 8.275637,-2.333736 22.197344,-3.26058 22.197344,-3.26058 l 3.660536,0.180085 c -8.622597,1.291187 -19.099614,3.822663 -26.269106,6.647225 -0.791368,0.31363 3.750434,5.54067 9.570818,4.22408 0.219019,-0.0495 18.545001,-5.250486 18.212624,-4.41395 -0.638872,1.60794 -13.866015,4.76501 -17.877186,6.44609 -2.1041,0.88181 1.482443,1.92463 4.191081,3.09323 7.102163,-0.39888 19.75399,-3.38589 19.75399,-3.38589 0.136287,0.34524 -14.799153,5.36097 -19.592654,5.01804 0.262018,1.0693 0.479824,1.67413 1.530253,2.59115 0.577769,0.3385 1.576895,0.65635 2.142729,0.90285 0.228325,0.0995 19.954445,-4.81133 20.192839,-4.75047 -1.41125,0.66153 -17.697696,5.72401 -18.63593,5.50695 0,0 1.535862,1.88998 2.442542,2.24517 1.719158,0.729 19.432207,-4.93956 19.432207,-4.93956 0.458581,-0.22056 -14.381884,5.58169 -17.811243,5.9794 0.703109,1.22148 1.927988,2.0867 3.134454,2.17589 0.617473,0.0459 19.330062,-6.25569 19.282323,-6.35409 0.360765,0.67456 -17.699948,7.39634 -17.98257,6.84079 1.581719,1.56512 3.121648,1.54501 3.901576,1.60377 3.616679,0.27247 18.28028,-5.60557 17.975095,-6.16319 1.282659,1.56514 -14.56649,6.70946 -15.318251,6.54591 -0.840211,-0.18278 -0.679763,0.55247 1.850444,1.60152 0.321717,0.13324 0.680344,0.26644 1.078152,0.39586 1.298359,0.42238 3.014121,0.80612 5.226479,1.03634 3.460636,-0.49022 15.439834,-4.77703 16.696914,-7.35114 -2.625578,4.15099 -10.824431,7.14313 -15.198615,8.72232 3.854284,2.55282 9.043373,3.89973 10.542998,3.47908 0.539216,-0.15132 18.085917,-8.87557 18.085917,-8.87557 l 9.28142,-7.33134 c 0,0 -11.6989,-1.98528 -16.7598,-3.47894 -9.97983,-2.94541 -19.872301,-8.93337 -21.729123,-15.651439 -0.310709,-1.124239 1.588714,-4.632545 0.009,-5.111346 C 82.649823,89.23907 68.827657,86.127851 62.65263,85.136919 60.590622,84.841098 58.699592,84.719252 56.932188,84.742195 Z"
       sodipodi:nodetypes="scscccsssccccscccccsccscssscccsccssccss" />
    <path
       id="path9473"
       style="display:inline;fill:#ffffff;fill-rule:evenodd;stroke:none;stroke-width:0.728373px;stroke-linecap:butt;stroke-linejoin:miter;stroke-opacity:1;filter:url(#filter1793)"
       d="m 102.77161,144.74648 -8.362049,2.61631 0.967064,7.79634 3.352712,6.30948 7.427563,5.33941 2.71644,5.10785 -0.65354,1.84361 -1.5677,0.93722 c 0.68983,0.37444 1.35485,0.41375 1.7347,0.1173 4.47701,-3.82192 2.54599,-4.21338 1.41975,-5.88605 l -1.87178,-2.37414 -6.76323,-6.5723 c 1.42558,-4.82216 2.45886,-11.99713 3.7976,-15.82544 z"
       sodipodi:nodetypes="cccccccccccccc" />
    <path
       style="display:inline;fill:#ffffff;fill-rule:evenodd;stroke:none;stroke-width:1.29859px;stroke-linecap:butt;stroke-linejoin:miter;stroke-opacity:1;filter:url(#filter1793)"
       d="m 118.79452,162.22508 -0.66162,1.45446 0.38335,2.29217 -1.10251,0.2657 -0.68255,0.97533 c 4.1634,1.05907 2.3268,-4.02603 2.06371,-4.98657 z"
       id="path977"
       sodipodi:nodetypes="ccccccc" />
    <path
       style="display:inline;fill:#ffffff;fill-rule:evenodd;stroke:none;stroke-width:1.29859px;stroke-linecap:butt;stroke-linejoin:miter;stroke-opacity:1;filter:url(#filter1793)"
       d="m 114.5645,161.05693 c -0.93774,0.3095 -2.71385,0.85029 -2.71385,0.85029 0,0 0.16957,-0.98948 1.71319,-1.74362 z"
       id="path979"
       sodipodi:nodetypes="cccc" />
    <path
       style="display:inline;fill:#ffffff;fill-rule:evenodd;stroke:none;stroke-width:1.29859px;stroke-linecap:butt;stroke-linejoin:miter;stroke-opacity:1;filter:url(#filter1793)"
       d="m 111.03709,171.25843 -1.23779,0.71774 1.00362,2.13576 -1.32351,0.19393 -0.63367,0.96644 c 3.30021,0.79091 3.73822,-1.01443 2.22049,-4.02715 z"
       id="path977-6"
       sodipodi:nodetypes="ccccccc" />
    <path
       style="display:inline;fill:#ffffff;fill-rule:evenodd;stroke:none;stroke-width:1.29859px;stroke-linecap:butt;stroke-linejoin:miter;stroke-opacity:1;filter:url(#filter1793)"
       d="m 106.23305,168.94214 c -0.91291,0.0287 -2.29418,-0.024 -3.251,-0.0991 0.0723,-0.73767 0.75306,-0.93437 2.62383,-1.08049 z"
       id="path979-7"
       sodipodi:nodetypes="cccc" />
    <path
       style="display:inline;fill:#1a1a1a;fill-rule:evenodd;stroke:none;stroke-width:0.537934px;stroke-linecap:butt;stroke-linejoin:miter;stroke-opacity:1;filter:url(#filter1793)"
       d="m 122.11886,136.49942 c -2.19258,2.22198 -8.90358,15.66516 -16.79713,20.12778 l -2.23243,-5.18384 c 9.52212,-2.57883 16.70121,-10.80896 18.20665,-15.39637 z"
       id="path1035"
       sodipodi:nodetypes="ccccc" />
    <path
       style="display:inline;fill:#ffffff;fill-rule:evenodd;stroke:none;stroke-width:0.620805px;stroke-linecap:butt;stroke-linejoin:miter;stroke-opacity:1;filter:url(#filter1793)"
       d="m 102.76377,170.13766 -11.100823,6.16362 c 0,0 0.9398,3.60708 1.536443,4.37606 0.59679,0.7689 4.566789,2.44172 4.566789,2.44172 l 9.934481,-10.56056 -1.2066,-2.4866 z"
       id="path1050"
       sodipodi:nodetypes="ccscccc" />
    <path
       style="display:inline;fill:#ffffff;fill-rule:evenodd;stroke:none;stroke-width:0.620805px;stroke-linecap:butt;stroke-linejoin:miter;stroke-opacity:1;filter:url(#filter1793)"
       d="m 108.04754,165.58798 2.45505,2.46135 0.89333,1.80703 3.98174,-3.94517 0.94555,-2.30873 -0.90218,-1.4932 -3.25345,0.24328 z"
       id="path1052"
       sodipodi:nodetypes="cccccccc" />
    <path
       id="path1054"
       style="display:inline;fill:#ffffff;fill-rule:evenodd;stroke:none;stroke-width:0.620805px;stroke-linecap:butt;stroke-linejoin:miter;stroke-opacity:1;filter:url(#filter1793)"
       d="m 121.61845,152.44335 c -1.59014,1.62902 -1.85737,2.0025 -1.85737,2.0025 0,0 1.04718,0.50384 2.59718,2.55238 l 0.68056,3.02651 0.009,0.20002 2.69107,-2.19431 -0.65547,-3.51572 z m 1.43359,7.78571 -1.85541,1.51391 c -0.0331,0.22627 -1.21347,8.34185 -1.59984,9.32829 -0.39169,1.00016 -1.00495,4.06226 -1.00495,4.06226 l 1.99174,-2.06825 1.20752,2.58517 1.68304,-7.91552 z m -1.85541,1.51391 0.0184,-0.1201 c 0,0 -0.43787,-3.13138 -0.60695,-3.43795 -0.16527,-0.29901 -2.46865,-1.97005 -2.46865,-1.97005 l -1.89702,1.90031 3.42526,2.78304 0.33548,1.95663 z"
       sodipodi:nodetypes="ccccccccccsccccccccccccc" />
    <path
       style="display:inline;fill:#1a1a1a;fill-rule:evenodd;stroke:none;stroke-width:0.436206px;stroke-linecap:butt;stroke-linejoin:miter;stroke-opacity:1;filter:url(#filter1793)"
       d="m 91.997658,132.29674 c 1.505679,2.34384 4.692379,1.61386 12.247122,-2.79698 8.40994,-4.9101 16.2766,-12.51265 16.45903,-14.45889 -1.90695,2.33636 -8.85229,8.85866 -16.90165,13.23265 -5.6748,3.08363 -7.222746,3.19897 -11.804502,4.02322 z"
       id="path1801"
       sodipodi:nodetypes="cscsc" />
    <path
       style="display:inline;fill:#ffffff;fill-rule:evenodd;stroke:none;stroke-width:0.384212px;stroke-linecap:butt;stroke-linejoin:miter;stroke-opacity:1;filter:url(#filter1793)"
       d="m 125.91133,110.99576 c 0,0 -12.53347,-6.74492 -12.53347,-10.1645 0,-3.419552 3.22411,-15.242026 3.22411,-15.242026 0.0287,-5.785292 -10.7967,-5.790706 -13.79419,-6.104992 -10.980186,-1.655396 -19.065602,0.71867 -28.877378,4.98265 5.742481,1.585863 12.260327,2.067358 16.600489,5.650632 2.972909,2.422037 -0.841035,5.406114 0.994442,8.986798 8.124708,7.682348 14.759267,10.618058 25.052917,12.028358 2.66643,-0.29802 5.94394,-0.17354 9.33308,-0.13705 z"
       id="path989"
       sodipodi:nodetypes="cscccccccc" />
    <path
       style="display:inline;fill:#ffffff;fill-rule:evenodd;stroke:none;stroke-width:0.400008px;stroke-linecap:butt;stroke-linejoin:miter;stroke-opacity:1;filter:url(#filter1793)"
       d="m 124.54956,131.73264 -4.53025,10.8616 c 0,0 -3.24294,-5.99912 -1.34208,-6.84414 1.90085,-0.84495 5.87233,-4.01746 5.87233,-4.01746 z"
       id="path1006"
       sodipodi:nodetypes="ccsc" />
    <path
       style="display:inline;fill:#ffffff;fill-rule:evenodd;stroke:none;stroke-width:0.400008px;stroke-linecap:butt;stroke-linejoin:miter;stroke-opacity:1;filter:url(#filter1793)"
       d="m 136.60312,127.48485 -9.04358,5.32187 c 0,0 0.21296,-4.98067 0.65508,-4.98067 0.44211,0 8.3885,-0.3412 8.3885,-0.3412 z"
       id="path1002" />
    <path
       style="display:inline;fill:#ffffff;fill-rule:evenodd;stroke:none;stroke-width:0.400008px;stroke-linecap:butt;stroke-linejoin:miter;stroke-opacity:1;filter:url(#filter1793)"
       d="m 130.17512,113.9908 c -1.3017,-0.0776 -13.17277,-1.30961 -13.17277,-1.30961 l 5.74993,3.76301 z"
       id="path1004" />
    <path
       style="display:inline;fill:#ffffff;fill-rule:evenodd;stroke:none;stroke-width:0.400008px;stroke-linecap:butt;stroke-linejoin:miter;stroke-opacity:1;filter:url(#filter1793)"
       d="m 114.90191,143.12034 -4.49695,8.73906 -2.44407,-4.97256 z"
       id="path1008" />
    <path
       style="display:inline;fill:#ffffff;fill-rule:evenodd;stroke:none;stroke-width:0.400008px;stroke-linecap:butt;stroke-linejoin:miter;stroke-opacity:1;filter:url(#filter1793)"
       d="M 70.486017,88.032071 C 71.779913,85.866194 46.271156,81.848535 43.502765,82.705346 l 11.007305,5.808603 z"
       id="path1012"
       sodipodi:nodetypes="cccc" />
    <path
       style="display:inline;fill:#ffffff;fill-rule:evenodd;stroke:none;stroke-width:0.400008px;stroke-linecap:butt;stroke-linejoin:miter;stroke-opacity:1;filter:url(#filter1793)"
       d="m 120.69962,108.25749 -4.46805,-7.9455 -0.27499,5.35516 z"
       id="path1014" />
    <path
       style="display:inline;fill:#ffffff;fill-rule:evenodd;stroke:none;stroke-width:0.400008px;stroke-linecap:butt;stroke-linejoin:miter;stroke-opacity:1;filter:url(#filter1793)"
       d="m 72.085938,141.30067 -8.283641,-0.84425 c 0,0 2.056988,2.37559 2.674568,2.37559 0.61758,0 5.609073,-1.53134 5.609073,-1.53134 z"
       id="path1016" />
    <path
       style="display:inline;fill:#ffffff;fill-rule:evenodd;stroke:none;stroke-width:0.400008px;stroke-linecap:butt;stroke-linejoin:miter;stroke-opacity:1;filter:url(#filter1793)"
       d="m 110.21691,80.61968 c -7.1459,-1.534578 -14.330578,-2.844047 -21.528886,-4.099522 l 5.456784,3.976372 z"
       id="path1018"
       sodipodi:nodetypes="cccc" />
    <path
       style="display:inline;fill:#ffffff;fill-rule:evenodd;stroke:none;stroke-width:0.250229px;stroke-linecap:butt;stroke-linejoin:miter;stroke-opacity:1"
       d="m 57.004366,152.27992 16.516903,38.14439 3.706009,-1.24632 -0.745567,-18.89634 9.945051,14.4143 3.401875,-1.49388 -4.772156,-39.61443 -6.34599,1.8976 2.341241,19.00744 -8.424263,-17.70963 -4.350911,1.35962 2.743644,23.00289 -8.792344,-21.07282 z"
       id="path916"
       sodipodi:nodetypes="cccccccccccccc" />
    <path
       style="fill:#1a1a1a;fill-rule:evenodd;stroke:none;stroke-width:0.52296px;stroke-linecap:butt;stroke-linejoin:miter;stroke-opacity:1"
       d="m 62.222477,149.19163 c -0.382662,0.23268 -5.985261,2.52082 -5.985261,2.52082 l 4.252722,9.78136 7.319924,0.4327 z"
       id="path1166" />
    <path
       style="fill:#1a1a1a;fill-rule:evenodd;stroke:none;stroke-width:0.494154px;stroke-linecap:butt;stroke-linejoin:miter;stroke-opacity:1"
       d="m 69.292645,161.57676 10.381923,-0.94217 -7.176353,-14.54614 -4.620208,1.6196 z"
       id="path1168" />
    <path
       style="fill:#1a1a1a;fill-rule:evenodd;stroke:none;stroke-width:0.499313px;stroke-linecap:butt;stroke-linejoin:miter;stroke-opacity:1"
       d="m 78.186272,144.84907 2.03734,15.70707 6.924252,-3.11641 -1.853222,-14.85061 z"
       id="path1170" />
  </g>
</svg>
