<?xml version="1.0" encoding="UTF-8" standalone="no"?>
<svg
   width="210mm"
   height="297mm"
   viewBox="0 0 210 297"
   version="1.1"
   id="svg8"
   inkscape:version="1.3.2 (091e20ef0f, 2023-11-25)"
   sodipodi:docname="fictional-secret-org.svg"
   xmlns:inkscape="http://www.inkscape.org/namespaces/inkscape"
   xmlns:sodipodi="http://sodipodi.sourceforge.net/DTD/sodipodi-0.dtd"
   xmlns="http://www.w3.org/2000/svg"
   xmlns:svg="http://www.w3.org/2000/svg"
   xmlns:rdf="http://www.w3.org/1999/02/22-rdf-syntax-ns#"
   xmlns:cc="http://creativecommons.org/ns#"
   xmlns:dc="http://purl.org/dc/elements/1.1/">
  <defs
     id="defs2">
    <inkscape:path-effect
       effect="mirror_symmetry"
       start_point="90.733632,58.882833"
       end_point="148.93512,57.276847"
       center_point="119.83438,58.07984"
       id="path-effect997"
       is_visible="true"
       lpeversion="1"
       mode="free"
       discard_orig_path="false"
       fuse_paths="true"
       oposite_fuse="false"
       split_items="false" />
    <inkscape:path-effect
       effect="skeletal"
       id="path-effect955"
       is_visible="true"
       lpeversion="1"
       pattern="m 104.27735,100.67506 a 2.500245,2.500245 0 0 0 -2.18436,1.24954 l -37.343972,64.68132 a 2.500245,2.500245 0 0 0 2.165244,3.75016 h 74.687428 a 2.500245,2.500245 0 0 0 2.16524,-3.75016 L 106.42348,101.9246 a 2.500245,2.500245 0 0 0 -2.14613,-1.24954 z m -0.0191,7.4998 33.01296,57.18101 H 71.244745 Z"
       copytype="single_stretched"
       prop_scale="1"
       scale_y_rel="false"
       spacing="0"
       normal_offset="0"
       tang_offset="0"
       prop_units="false"
       vertical_pattern="false"
       hide_knot="false"
       fuse_tolerance="0" />
    <inkscape:path-effect
       effect="mirror_symmetry"
       start_point="96.365165,55.339077"
       end_point="96.365165,120.02017"
       center_point="96.365165,87.679623"
       id="path-effect853"
       is_visible="true"
       lpeversion="1"
       mode="free"
       discard_orig_path="false"
       fuse_paths="true"
       oposite_fuse="false"
       split_items="false" />
    <inkscape:path-effect
       effect="mirror_symmetry"
       start_point="146.62103,71.038679"
       end_point="146.62103,142.91593"
       center_point="146.62103,106.9773"
       id="path-effect849"
       is_visible="true"
       lpeversion="1"
       mode="free"
       discard_orig_path="false"
       fuse_paths="false"
       oposite_fuse="false"
       split_items="false" />
  </defs>
  <sodipodi:namedview
     id="base"
     pagecolor="#ffffff"
     bordercolor="#666666"
     borderopacity="1.0"
     inkscape:pageopacity="0.0"
     inkscape:pageshadow="2"
     inkscape:zoom="0.35"
     inkscape:cx="218.57143"
     inkscape:cy="524.28572"
     inkscape:document-units="mm"
     inkscape:current-layer="layer1"
     inkscape:document-rotation="0"
     showgrid="false"
     inkscape:snap-bbox="false"
     inkscape:window-width="1366"
     inkscape:window-height="743"
     inkscape:window-x="0"
     inkscape:window-y="25"
     inkscape:window-maximized="1"
     inkscape:showpageshadow="0"
     inkscape:pagecheckerboard="0"
     inkscape:deskcolor="#d1d1d1" />
  <metadata
     id="metadata5">
    <rdf:RDF>
      <cc:Work
         rdf:about="">
        <dc:format>image/svg+xml</dc:format>
        <dc:type
           rdf:resource="http://purl.org/dc/dcmitype/StillImage" />
      </cc:Work>
    </rdf:RDF>
  </metadata>
  <g
     inkscape:label="Layer 1"
     inkscape:groupmode="layer"
     id="layer1">
    <path
       id="rect1"
       style="fill:#1a1a1a;stroke-width:1.93981;stroke-linecap:round;stroke-linejoin:round"
       d="M 16.117038,51.606817 V 229.45266 H 193.96368 V 51.606817 Z M 46.453463,77.539074 H 161.15299 c 1.60029,6.85e-4 2.89644,1.298184 2.89605,2.898476 v 75.31766 c 3.6e-4,1.60031 -1.29576,2.89851 -2.89605,2.89928 -5.45195,0 -8.4487,-0.002 -12.80121,0.0233 l 20.0361,34.70351 a 4.0843166,4.0843166 0 0 1 -3.53721,6.126 H 42.843673 a 4.0843166,4.0843166 0 0 1 -3.537208,-6.126 l 20.042557,-34.71478 c -3.643392,-0.004 -2.824925,0.0151 -12.895559,-0.0121 -1.600448,-4.8e-4 -2.898044,-1.29883 -2.897671,-2.89928 V 80.43755 c -3.66e-4,-1.600449 1.297223,-2.898086 2.897671,-2.898476 z m 2.898476,5.794534 V 152.85915 H 62.702352 L 100.31077,87.720034 a 4.0843166,4.0843166 0 0 1 3.56786,-2.041191 4.0843166,4.0843166 0 0 1 3.50575,2.041191 l 37.60841,65.139116 H 158.2545 V 83.333608 Z M 103.84719,97.930026 72.134096,152.85915 h 5.58969 c 1.543253,-1.15191 3.327128,-2.68382 5.59614,-4.3219 4.344881,-3.13671 10.430569,-7.24973 20.269994,-7.3067 13.83148,-0.0802 22.63022,7.60716 26.61937,11.6286 h 5.35096 z m -0.13389,48.469254 c -9.013521,0.0523 -14.051744,2.66886 -17.969104,5.49693 -3.917367,2.82808 -5.907899,6.04148 -10.423711,6.7857 -1.43904,0.005 -5.423244,-0.01 -6.544557,-0.006 L 49.918085,191.33906 H 157.77628 l -18.80464,-32.57038 c -3.12999,0.0303 -4.51174,0.0351 -9.69141,0.0928 0,0 -7.65262,-12.56562 -25.56693,-12.46167 z m 1.48553,3.43962 c 13.49933,0.3497 22.36198,12.44715 22.36198,12.44715 a 1.4015449,1.4015449 0 0 1 0.24679,0.81132 1.4015449,1.4015449 0 0 1 -0.19517,1.07262 c 0,0 -9.34258,14.32635 -24.43302,13.79559 -7.426293,-0.2612 -12.548968,-3.21004 -16.588415,-6.0752 -4.039444,-2.86512 -7.044807,-5.48145 -10.23822,-5.84856 a 1.4015449,1.4015449 0 0 1 -1.094388,-1.06132 1.4015449,1.4015449 0 0 1 -0.128229,-0.0912 1.4015449,1.4015449 0 0 1 0.07339,-0.104 1.4015449,1.4015449 0 0 1 -0.08549,-0.29839 1.4015449,1.4015449 0 0 1 1.060517,-1.09116 1.4015449,1.4015449 0 0 1 0.09194,-0.12824 c 3.179264,-0.55472 6.046566,-3.31513 9.930952,-6.376 3.88439,-3.06089 8.840329,-6.26516 16.236793,-6.95909 0.93993,-0.0882 1.86062,-0.11681 2.76057,-0.0936 z m -0.2742,2.79847 c -0.72698,-0.0108 -1.46865,0.0161 -2.22426,0.0871 -6.725993,0.63101 -11.031402,3.42766 -14.761751,6.36713 -2.515347,1.98209 -4.768186,4.04261 -7.288131,5.44452 2.591917,1.2676 4.948187,3.21451 7.562332,5.06871 3.878042,2.75066 8.319707,5.32267 15.06337,5.55986 12.13532,0.42683 20.14818,-10.02789 21.4684,-11.86005 -1.33031,-1.64915 -8.91537,-10.50171 -19.81996,-10.66727 z m -1.1815,1.75167 c 4.53659,0 8.2785,3.69589 8.2785,8.22364 0,4.52773 -3.74191,8.22686 -8.2785,8.22686 -4.536522,0 -8.281699,-3.69913 -8.281699,-8.22686 0,-4.52775 3.745177,-8.22364 8.281699,-8.22364 z m 0,4.37998 c -2.19021,0 -3.901715,1.7048 -3.901715,3.84366 0,2.13887 1.711505,3.84609 3.901715,3.84609 2.19024,0 3.89852,-1.70722 3.89852,-3.84609 0,-2.13886 -1.70828,-3.84366 -3.89852,-3.84366 z" />
    <g
       id="path851"
       transform="matrix(0.36113447,0,0,0.36113447,-38.260259,10.373511)"
       style="opacity:1" />
  </g>
</svg>
