<?xml version="1.0" encoding="UTF-8" standalone="no"?>
<!-- Created with Inkscape (http://www.inkscape.org/) -->

<svg
   version="1.1"
   id="svg25"
   width="594mm"
   height="841mm"
   viewBox="0 0 2245.0395 3178.5827"
   sodipodi:docname="owl-investigator.svg"
   inkscape:version="1.3.2 (091e20ef0f, 2023-11-25)"
   inkscape:export-filename="../474c63b9/buggati-athena2.png"
   inkscape:export-xdpi="300"
   inkscape:export-ydpi="300"
   xmlns:inkscape="http://www.inkscape.org/namespaces/inkscape"
   xmlns:sodipodi="http://sodipodi.sourceforge.net/DTD/sodipodi-0.dtd"
   xmlns="http://www.w3.org/2000/svg"
   xmlns:svg="http://www.w3.org/2000/svg">
  <defs
     id="defs29" />
  <sodipodi:namedview
     id="namedview27"
     pagecolor="#505050"
     bordercolor="#ffffff"
     borderopacity="1"
     inkscape:showpageshadow="0"
     inkscape:pageopacity="0"
     inkscape:pagecheckerboard="1"
     inkscape:deskcolor="#505050"
     showgrid="false"
     inkscape:zoom="0.22627417"
     inkscape:cx="930.28736"
     inkscape:cy="1571.1029"
     inkscape:window-width="1366"
     inkscape:window-height="743"
     inkscape:window-x="0"
     inkscape:window-y="25"
     inkscape:window-maximized="1"
     inkscape:current-layer="g31"
     inkscape:document-units="mm" />
  <g
     inkscape:groupmode="layer"
     inkscape:label="Image"
     id="g31">
    <rect
       style="fill:#000000;stroke-width:3.28898;stroke-linecap:round;stroke-linejoin:round"
       id="rect1"
       width="1837.1389"
       height="2175.603"
       x="203.02693"
       y="453.3244" />
    <path
       id="path3945-5-6"
       style="fill:none;stroke:#000000;stroke-width:13.871;stroke-linecap:butt;stroke-linejoin:miter;stroke-dasharray:none;stroke-opacity:1"
       d="m 1063.7785,1302.3682 -8.9975,44.3462 7.0364,35.2772 -50.4297,4.1687 -18.77166,24.6276 -46.45352,23.1556 33.82775,-6.5898 -28.40675,37.2695 -13.77835,143.5811 -58.6641,6.4797 -6.39139,-0.7517 -6.32601,-17.6607 a 77.986355,77.986355 0 0 0 27.4263,-25.9063 77.986355,77.986355 0 0 0 -24.18792,-107.6039 77.986355,77.986355 0 0 0 -107.60392,24.1865 77.986355,77.986355 0 0 0 24.18657,107.6039 77.986355,77.986355 0 0 0 57.48846,10.286 l 4.13493,23.2487 -105.84143,64.335 -5.23983,92.9719 33.68938,-55.3653 86.5766,-50.2939 2.87248,16.1532 -91.24183,69.0985 -15.81509,63.6323 116.2658,-88.045 31.48421,-11.5734 19.38538,-4.7747 19.30487,15.8364 -56.82229,16.1405 -115.51776,98.7525 192.23572,-76.6051 0.13846,109.9007 95.11644,147.0071 221.9146,1.7638 149.1845,-3.4383 -53.9107,-70.0287 0.075,-0.6992 8.1061,-1.5877 -3.9451,-37.4507 11.9205,-111.8356 20.4577,67.3964 -5.2035,76.9431 52.6108,-55.9109 -30.8117,-191.2854 -122.3654,-104.6069 -4.3874,2.0443 -5.6797,-9.7165 28.3225,-49.4894 -13.9482,-6.9446 -16.4387,-108.4648 -42.8654,-16.3732 55.1402,2.484 -142.4045,-35.8165 -18.0413,-6.8916 -23.5579,1.9473 -0.5608,-11.4691 z"
       inkscape:export-filename="../2ffe94f/owl-inspector-high-res.png"
       inkscape:export-xdpi="300"
       inkscape:export-ydpi="300" />
    <path
       id="path2262"
       style="color:#000000;fill:#ffffff;-inkscape-stroke:none"
       d="M 788.94143 685.86526 L 323.0879 825.43753 L 579.5176 2091.9786 L 581.96096 2091.8614 L 579.2051 2092.0723 L 1306.5 2434.2501 L 1591.6563 2455.6895 L 1814.4219 2371.3087 L 1713.9083 2209.3653 L 1384.8965 2030.5333 L 1316.752 2035.7383 L 1051.7461 1397.3809 L 788.94143 685.86526 z M 773.49612 716.81057 L 1028.2715 1406.584 L 1288.2696 2032.8809 L 599.93166 2065.7657 L 352.36134 842.9844 L 773.49612 716.81057 z " />
    <path
       style="fill:#ffffff;stroke:none;stroke-width:0.643666px;stroke-linecap:butt;stroke-linejoin:miter;stroke-opacity:1"
       d="m 852.0687,959.8601 -302.69119,730.5142 87.2521,334.194 394.58329,-7.3576 121.6789,-185.4706 z"
       id="path2450"
       sodipodi:nodetypes="cccccc" />
    <path
       style="fill:#ffffff;stroke:none;stroke-width:6.79059;stroke-linecap:butt;stroke-linejoin:miter;stroke-dasharray:none;stroke-opacity:1"
       d="m 1011.5482,1730.5 -9.7703,-126.0935 -137.70921,15.2092 -125.84599,76.4929 -5.2397,92.9719 33.68927,-55.366 110.07102,-63.9413 95.77907,-15.7838 -5.3032,16.1112 -106.67869,26.127 -95.66042,72.4455 -15.81508,63.6316 123.7399,-93.7061 94.93518,-23.3799 3.61362,18.3453 -92.67078,26.325 -115.51794,98.7523 252.22925,-100.5109 z"
       id="path3945-5"
       sodipodi:nodetypes="ccccccccccccccccccc"
       inkscape:export-filename="../995a496/bug-inspector.png"
       inkscape:export-xdpi="300"
       inkscape:export-ydpi="300" />
    <path
       style="fill:#000000;stroke:#000000;stroke-width:0.82665px;stroke-linecap:butt;stroke-linejoin:miter;stroke-opacity:1"
       d="m 988.63747,1631.6859 -126.607,-14.8791 1.21774,67.6666 151.51709,124.2959 z"
       id="path1039" />
    <path
       style="fill:#000000;stroke:#000000;stroke-width:3.13081px;stroke-linecap:butt;stroke-linejoin:miter;stroke-opacity:1"
       d="m 1090.2732,1542.3967 -43.2037,49.1579 43.7529,-11.6026 24.6793,55.3947 133.7149,7.2784 57.4163,-74.523 -20.0771,-132.4692 -148.1709,-56.5967 -130.8009,10.8112 -59.80382,78.4627 -13.95241,145.3876 175.71803,21.6973 -3.518,-77.9858 z"
       id="path3024" />
    <path
       style="fill:#000000;stroke:none;stroke-width:3.13081px;stroke-linecap:butt;stroke-linejoin:miter;stroke-opacity:1"
       d="m 1284.6268,1593.7018 104.0596,177.9957 -20.843,195.5431 53.911,70.0287 -149.1837,3.439 -221.9152,-1.7639 -95.11619,-147.0074 -0.38911,-308.0818 z"
       id="path3026"
       sodipodi:nodetypes="ccccccccc" />
    <path
       style="fill:#ffffff;stroke:#000000;stroke-width:3.13081px;stroke-linecap:butt;stroke-linejoin:miter;stroke-opacity:1"
       d="m 1078.5825,1548.8602 -45.4247,40.5933 65.5609,10.2834 4.923,-30.5132 z"
       id="path3028"
       sodipodi:nodetypes="ccccc" />
    <path
       style="fill:#ffffff;stroke:#000000;stroke-width:3.13081px;stroke-linecap:butt;stroke-linejoin:miter;stroke-opacity:1"
       d="m 1063.237,1532.2383 2.5222,-43.9293 -19.0933,-23.6504 -45.3618,-4.9104 -33.18733,44.074 33.73573,23.4158 z"
       id="path3030-7"
       sodipodi:nodetypes="ccccccc" />
    <path
       style="fill:#ffffff;stroke:none;stroke-width:12.7323;stroke-linecap:butt;stroke-linejoin:miter;stroke-dasharray:none;stroke-opacity:1"
       d="m 1063.7455,1414.4192 -12.7688,-64.0171 8.9987,-44.3471 54.2916,63.4595 2.2902,46.8174 z"
       id="path3943" />
    <path
       id="path3945"
       style="fill:#ffffff;stroke:none;stroke-width:6.79059;stroke-linecap:butt;stroke-linejoin:miter;stroke-dasharray:none;stroke-opacity:1"
       d="m 1215.3754,1500.4709 1.0303,9.4046 80.0936,45.1567 -27.5652,67.0354 -113.7852,53.0238 -40.9704,17.3505 140.3688,283.1244 13.6252,-151.3851 -69.6354,-119.6955 29.2025,-9.4755 74.707,122.1946 10.2688,160.1491 63.3091,-12.399 -18.3146,-173.8695 -81.882,-116.5992 26.0344,-9.5524 64.2872,91.9282 38.3081,126.2015 -5.2033,76.9437 52.6109,-55.9107 -30.8117,-191.2852 -122.3662,-104.6073 -19.7168,9.1891 37.9724,-66.3502 z"
       sodipodi:nodetypes="ccccccccccccccccccccccccc" />
    <path
       style="fill:#ffffff;stroke:#000000;stroke-width:5.68346px;stroke-linecap:butt;stroke-linejoin:miter;stroke-opacity:1"
       d="m 1069.7288,1666.2172 -19.3913,32.1467 33.6886,32.6727 20.1801,-42.1599 z"
       id="path3971" />
    <path
       style="fill:#ffffff;stroke:none;stroke-width:6.22876;stroke-linecap:butt;stroke-linejoin:miter;stroke-dasharray:none;stroke-opacity:1"
       d="m 1041.0764,1388.4244 2.9991,29.3906 -101.71706,19.8155 z"
       id="path4067" />
    <path
       style="fill:#ffffff;stroke:none;stroke-width:6.22876;stroke-linecap:butt;stroke-linejoin:miter;stroke-dasharray:none;stroke-opacity:1"
       d="m 1135.9045,1380.7656 -7.0073,33.3224 169.9339,7.6553 z"
       id="path4069" />
    <circle
       style="fill:#ffffff;stroke:none;stroke-width:18.989;stroke-linecap:round;stroke-linejoin:round;stroke-dasharray:none"
       id="path4073"
       cx="1162.97"
       cy="1506.2205"
       r="58.375454" />
    <path
       style="fill:#000000;stroke:#ffffff;stroke-width:15.0096;stroke-linecap:butt;stroke-linejoin:miter;stroke-dasharray:none;stroke-opacity:1"
       d="m 841.38507,1600.0241 25.43204,143.0021 44.46487,-16.346 -50.52244,-141.0367 z"
       id="path1015" />
    <circle
       style="fill:#000000;stroke-width:1.93109;stroke-linecap:round;stroke-linejoin:round"
       id="path961"
       cx="1515.9084"
       cy="854.00311"
       r="77.986359"
       transform="rotate(32.331832)" />
    <circle
       style="fill:#ffffff;stroke-width:1.49591;stroke-linecap:round;stroke-linejoin:round"
       id="path961-6"
       cx="1512.4971"
       cy="852.35779"
       r="60.411121"
       transform="rotate(32.331832)" />
    <path
       style="fill:#ffffff;stroke:none;stroke-width:0.960418px;stroke-linecap:butt;stroke-linejoin:miter;stroke-opacity:1"
       d="m 943.65797,1623.8239 10.35098,-6.4056 85.78245,36.875 6.442,34.5434 -27.4729,8.7673 z"
       id="path1596"
       sodipodi:nodetypes="cccccc" />
  </g>
</svg>
