<?xml version="1.0" encoding="UTF-8" standalone="no"?>
<!-- Created with Inkscape (http://www.inkscape.org/) -->

<svg
   version="1.1"
   id="svg25"
   width="594mm"
   height="841mm"
   viewBox="0 0 2245.0395 3178.5827"
   sodipodi:docname="owl-investigator.svg"
   inkscape:version="1.3.2 (091e20ef0f, 2023-11-25)"
   inkscape:export-filename="../474c63b9/buggati-athena2.png"
   inkscape:export-xdpi="300"
   inkscape:export-ydpi="300"
   xmlns:inkscape="http://www.inkscape.org/namespaces/inkscape"
   xmlns:sodipodi="http://sodipodi.sourceforge.net/DTD/sodipodi-0.dtd"
   xmlns="http://www.w3.org/2000/svg"
   xmlns:svg="http://www.w3.org/2000/svg">
  <defs
     id="defs29" />
  <sodipodi:namedview
     id="namedview27"
     pagecolor="#505050"
     bordercolor="#ffffff"
     borderopacity="1"
     inkscape:showpageshadow="0"
     inkscape:pageopacity="0"
     inkscape:pagecheckerboard="1"
     inkscape:deskcolor="#505050"
     showgrid="false"
     inkscape:zoom="0.22627417"
     inkscape:cx="603.25047"
     inkscape:cy="1650.6524"
     inkscape:window-width="1366"
     inkscape:window-height="743"
     inkscape:window-x="0"
     inkscape:window-y="25"
     inkscape:window-maximized="1"
     inkscape:current-layer="g31"
     inkscape:document-units="mm" />
  <g
     inkscape:groupmode="layer"
     inkscape:label="Image"
     id="g31">
    <path
       id="rect1"
       style="fill:#1a1a1a;stroke-width:3.69607;stroke-linecap:round;stroke-linejoin:round"
       d="M 145.37891 272.62696 L 145.37891 2886.7657 L 2076.2462 2886.7657 L 2076.2462 272.62696 L 145.37891 272.62696 z " />
    <path
       id="path2262"
       style="color:#000000;fill:#ffffff;stroke-width:1.13582;-inkscape-stroke:none"
       d="m 953.36891,512.37969 -529.122,158.52785 291.25593,1438.55256 2.77517,-0.1332 -3.13013,0.2395 568.50412,539.8364 313.8115,2.1571 77.3271,-103.785 -399.254,-412.1911 3.1893,-37.9874 96.1735,-48.3034 -636.21004,30.3941 -281.19333,-1388.84962 478.32993,-143.30973 329.12394,811.98795 10.0469,-28.0845 z m 342.20559,875.18961 -30.2298,2.407 247.629,633.0888 30.463,-1.5883 z"
       sodipodi:nodetypes="cccccccccccccccccccccc" />
    <path
       style="fill:#ffffff;stroke:none;stroke-width:0.731083px;stroke-linecap:butt;stroke-linejoin:miter;stroke-opacity:1"
       d="m 1007.9935,840.0666 -380.56308,420.0963 165.76567,772.7318 616.79901,-46.384 z"
       id="path2450"
       sodipodi:nodetypes="ccccc" />
    <g
       id="path4"
       transform="matrix(1.1358119,0,0,1.1358119,-133.87883,-375.84126)"
       style="stroke:none">
      <path
         style="fill:#1a1a1a;fill-opacity:1;stroke:none;stroke-width:3.14549;stroke-linecap:round;stroke-linejoin:round;stroke-dasharray:none;stroke-opacity:1"
         d="m 1203.7442,1794.0535 31.1852,285.3569 147.5468,4.9816 -130.2555,-405.5681 z"
         id="path1" />
      <path
         id="path6"
         style="color:#000000;fill:#1a1a1a;stroke:none;stroke-width:0.884651;stroke-linecap:round;stroke-linejoin:round;-inkscape-stroke:none"
         d="m 1328.2303,1393.1443 -144.1856,4.8088 -24.4337,74.1671 -1.0582,117.0012 11.1671,13.2013 -3.5397,10.851 -68.4101,-8.0396 -7.7131,-21.5323 18.8103,-33.3271 4.318,-36.8633 -22.2408,-51.5294 -43.3041,-15.0076 -31.2338,33.0224 1.5098,52.8227 25.5851,41.995 28.4158,16.6971 4.6591,23.324 -6.3463,16.9242 12.2832,41.722 5.8622,4.6701 78.8379,42.0829 -22.4098,52.0467 122.8496,38.813 53.7961,378.6779 272.9865,-33.5908 -63.2143,-242.5826 18.4378,-172.9874 -91.1848,-155.9733 18.5967,-24.1379 -17.7604,-117.1887 z m -275.5278,75.6857 24.6066,11.527 19.1274,33.1337 -6.1464,32.8877 -16.2588,24.5294 -21.8936,-14.5815 -20.3594,-29.9733 4.8828,-41.1914 z"
         sodipodi:nodetypes="cccccccccccccccccccccccccccccccccccccccc" />
    </g>
    <path
       style="fill:#ffffff;stroke:none;stroke-width:3.14584px;stroke-linecap:butt;stroke-linejoin:miter;stroke-opacity:1"
       d="m 1317.9827,1372.7051 -45.6424,40.788 69.6893,1.4952 1.1326,-21.8221 z"
       id="path3028"
       sodipodi:nodetypes="ccccc" />
    <path
       id="path3030-7"
       style="fill:#ffffff;stroke:none;stroke-width:3.14584px;stroke-linecap:butt;stroke-linejoin:miter;stroke-opacity:1"
       d="m 1224.9439,1303.6032 -6.7191,22.6782 6.6112,19.4857 35.8061,18.8636 35.7587,-9.412 13.9857,-27.4422 -5.0038,-23.4762 -44.5428,9.7178 z"
       sodipodi:nodetypes="ccccccccc" />
    <path
       id="path3945"
       style="fill:#ffffff;stroke:none;stroke-width:6.82317;stroke-linecap:butt;stroke-linejoin:miter;stroke-dasharray:none;stroke-opacity:1"
       d="m 1435.7962,1281.4387 -80.9763,14.7148 -10.7015,33.7059 16.5537,40.8394 42.1033,17.8157 38.9967,-14.9426 17.9194,-34.9697 1.0599,-15.6763 -3.2892,-22.1211 z m -81.9773,235.5054 0.087,-0.1256 -39.6994,-25.0533 -27.9654,21.8995 40.3802,43.9287 27.1511,-40.5769 80.9727,161.4154 -0.526,1.4346 92.6577,339.8147 174.6645,-20.684 -42.2515,-276.4347 -36.1179,-190.7841 -90.7497,-97.2784 z m -147.1792,-63.5928 -5.4865,8.1743 60.4275,51.627 23.8963,0.2001 -12.9104,-25.653 z m 129.4836,113.7438 19.5446,142.9646 67.0935,-28.8097 -64.6034,-125.7783 -22.0347,11.6234 -104.2195,-83.0417 -68.0844,152.5568 191.8485,73.4495 z"
       sodipodi:nodetypes="ccccccccccccccccccccccccccccccccccccccc" />
    <path
       id="path8"
       style="fill:#ffffff;stroke:none;stroke-width:27.5413;stroke-linecap:round;stroke-linejoin:round;stroke-dasharray:none"
       d="m 1361.0665,1010.5083 -21.4678,42.657 16.9344,31.6334 6.2016,-2.8221 -9.7597,-31.8769 10.4778,-27.4571 13.9241,0.7476 17.2325,25.3123 -14.2143,13.3057 2.1372,12.2461 -5.0633,10.3502 12.4185,2.3904 0.027,-2.5691 22.8119,-29.7023 6.0033,21.7208 -13.9651,13.4118 13.7002,2.6355 12.7877,-7.6164 c 0,0 -5.8033,-24.9237 -7.6244,-30.9701 -1.3163,-4.3701 -10.8505,-9.7575 -16.071,-12.4323 -5.609,-9.0024 -12.5541,-20.0554 -15.6192,-24.3214 -4.8194,-6.7064 -30.8722,-6.6431 -30.8722,-6.6431 z m 1.8271,76.983 c 0,0 -75.7094,25.767 -113.5756,38.6161 l -29.7435,38.9593 -12.723,58.1899 72.2866,15.5999 198.742,-14.6245 34.5692,-38.6867 -27.3551,-75.0928 c -40.5356,-8.7678 -122.2006,-22.9612 -122.2006,-22.9612 z m 157.8316,118.9704 -36.1825,39.4893 37.9741,65.412 7.4322,-6.0408 22.9964,-25.9618 z m -321.7137,35.3504 -11.6357,34.5555 75.4659,28.7624 171.1941,-36.7772 40.8397,-21.1871 -202.5,11.6887 z"
       sodipodi:nodetypes="ccccccccccccccccccscccccccccccccccccccccccccc" />
    <path
       style="fill:#ffffff;stroke:none;stroke-width:12.8854;stroke-linecap:round;stroke-linejoin:round"
       d="m 1292.4583,1423.0635 35.1266,24.9063 13.9462,-6.2906 -0.1618,-20.7118 z"
       id="path7" />
    <path
       style="fill:#ffffff;fill-opacity:1;stroke:none;stroke-width:2.52137;stroke-linecap:round;stroke-linejoin:round;stroke-dasharray:none;stroke-opacity:1"
       d="m 1310.9893,1719.9947 7.0824,36.1667 22.5457,3.0659 35.9313,0.5973 56.4748,-14.9482 -8.4008,-36.2514 -56.5112,19.8026 z"
       id="path3"
       sodipodi:nodetypes="cccccccc" />
    <path
       style="fill:#ffffff;fill-opacity:1;stroke:none;stroke-width:4.36234;stroke-linecap:round;stroke-linejoin:round;stroke-dasharray:none;stroke-opacity:1"
       d="m 797.83725,417.57199 41.39143,83.65513 -376.35568,109.992 -20.68754,-86.35478 z"
       id="path5"
       sodipodi:nodetypes="ccccc" />
    <path
       style="fill:#ffffff;stroke-width:3.44765;stroke-linecap:round;stroke-linejoin:round"
       d="m 1364.5927,1297.343 -11.9066,32.8868 13.834,32.6774 37.4789,15.1117 29.5282,-12.9077 15.1422,-29.0606 0.6874,-14.5241 -2.863,-15.5612 -20.8916,-19.7294 z"
       id="path2" />
  </g>
</svg>
