<?xml version="1.0" encoding="UTF-8" standalone="no"?>
<!-- Created with Inkscape (http://www.inkscape.org/) -->

<svg
   version="1.1"
   id="svg25"
   width="594mm"
   height="841mm"
   viewBox="0 0 2245.0395 3178.5827"
   sodipodi:docname="owl-investigator.svg"
   inkscape:version="1.3.2 (091e20ef0f, 2023-11-25)"
   inkscape:export-filename="../474c63b9/buggati-athena2.png"
   inkscape:export-xdpi="300"
   inkscape:export-ydpi="300"
   xmlns:inkscape="http://www.inkscape.org/namespaces/inkscape"
   xmlns:sodipodi="http://sodipodi.sourceforge.net/DTD/sodipodi-0.dtd"
   xmlns="http://www.w3.org/2000/svg"
   xmlns:svg="http://www.w3.org/2000/svg">
  <defs
     id="defs29" />
  <sodipodi:namedview
     id="namedview27"
     pagecolor="#505050"
     bordercolor="#ffffff"
     borderopacity="1"
     inkscape:showpageshadow="0"
     inkscape:pageopacity="0"
     inkscape:pagecheckerboard="1"
     inkscape:deskcolor="#505050"
     showgrid="false"
     inkscape:zoom="0.16"
     inkscape:cx="271.875"
     inkscape:cy="1984.375"
     inkscape:window-width="1366"
     inkscape:window-height="743"
     inkscape:window-x="0"
     inkscape:window-y="25"
     inkscape:window-maximized="1"
     inkscape:current-layer="g31"
     inkscape:document-units="mm" />
  <g
     inkscape:groupmode="layer"
     inkscape:label="Image"
     id="g31">
    <rect
       style="fill:#1a1a1a;stroke-width:3.28898;stroke-linecap:round;stroke-linejoin:round"
       id="rect1"
       width="1837.1389"
       height="2175.603"
       x="146.68233"
       y="491.89444" />
    <path
       id="path2262"
       style="color:#000000;fill:#ffffff;-inkscape-stroke:none"
       d="M 788.94143,685.86526 323.0879,825.43753 579.5176,2091.9786 l 2.44336,-0.1172 -2.75586,0.2109 377.05079,359.4297 850.49811,2.1075 -490.002,-417.8712 -226.5234,-579.332 -26.6153,2.1191 224.6563,574.3555 -688.33794,32.8848 -247.57032,-1222.7813 421.13478,-126.17383 289.76998,714.89633 8.8456,-24.7257 z"
       sodipodi:nodetypes="ccccccccccccccccc" />
    <path
       style="fill:#ffffff;stroke:none;stroke-width:0.643666px;stroke-linecap:butt;stroke-linejoin:miter;stroke-opacity:1"
       d="m 837.03447,974.36971 -272.04541,690.90349 82.93182,359.2951 543.04682,-40.8377 z"
       id="path2450"
       sodipodi:nodetypes="ccccc" />
    <g
       id="path4"
       transform="translate(-164.98676,24.844189)"
       style="stroke:none">
      <path
         style="color:#000000;fill:#1a1a1a;stroke:none;stroke-linecap:round;stroke-linejoin:round;-inkscape-stroke:none"
         d="m 1121.7811,1847.9569 c -1.4148,5.6413 1.2134,11.5183 6.3614,14.2246 l 163.1738,85.7695 c 8.7623,4.603 19.1684,-2.2252 18.4336,-12.0957 l -17.6543,-236.5566 c -0.2242,-2.9972 -1.5119,-5.8158 -3.6309,-7.9473 -134.5204,-174.209 -139.9073,9.0204 -166.6836,156.6055 z m 145.5215,-142.1367 15.6172,209.2383 -46.0978,-212.7787 -49.828,-10.6315 z"
         id="path6"
         sodipodi:nodetypes="cccccccccccc" />
    </g>
    <path
       id="path1039"
       style="fill:#1a1a1a;stroke:none;stroke-width:0.82665px;stroke-linecap:butt;stroke-linejoin:miter;stroke-opacity:1"
       d="m 1246.0495,1377.7674 -130.8008,10.8105 -59.8047,78.4629 -10.882,135.8832 21.2916,18.598 -2.9838,4.9641 -77.33006,-9.0879 -8.7187,-24.3398 c 10.6056,-6.2262 19.5883,-14.8723 26.21476,-25.2324 23.0357,-36.3936 12.2065,-84.5705 -24.18746,-107.6055 -12.6323,-7.9953 -27.2965,-12.1912 -42.2461,-12.0879 -26.539,0.1831 -51.1633,13.8504 -65.3574,36.2754 -23.0357,36.3936 -12.2065,84.5705 24.1875,107.6055 18.3297,11.5358 40.631,14.9298 61.5625,9.3691 l -1.3574,1.0078 25.4316,143.002 44.46486,-16.3457 -0.5254,-1.4668 38.0293,31.1972 0.166,131.8907 95.1172,147.0058 221.9141,1.7657 149.1836,-3.4395 -53.9102,-70.0293 20.8418,-195.543 -103.0742,-176.3105 21.0215,-27.2852 -20.0762,-132.4687 z m -316.65426,89.6816 c 11.581,-0.08 22.9409,3.171 32.7265,9.3652 28.1911,17.8438 36.5796,55.1622 18.7364,83.3536 -17.8439,28.1922 -55.1637,36.5808 -83.3555,18.7363 -28.191,-17.8438 -36.5795,-55.1621 -18.7363,-83.3535 10.9951,-17.372 30.0703,-27.9597 50.6289,-28.1016 z"
       sodipodi:nodetypes="cccccccccssscccccccccccccccccscssss" />
    <path
       style="fill:#ffffff;stroke:none;stroke-width:3.13081px;stroke-linecap:butt;stroke-linejoin:miter;stroke-opacity:1"
       d="m 1186.2472,1547.5904 -45.4247,40.5933 65.5609,10.2834 4.923,-30.5132 z"
       id="path3028"
       sodipodi:nodetypes="ccccc" />
    <path
       id="path3030-7"
       style="fill:#ffffff;stroke:none;stroke-width:3.13081px;stroke-linecap:butt;stroke-linejoin:miter;stroke-opacity:1"
       d="M 1108.9688 1458.4786 L 1097.1289 1474.2012 L 1126.5801 1482.4297 L 1164.9883 1476.5899 L 1154.3301 1463.3887 L 1108.9688 1458.4786 z M 1093.6524 1478.8184 L 1075.7813 1502.5528 L 1109.5176 1525.9688 L 1170.9024 1530.9688 L 1173.4239 1487.0391 L 1169.7774 1482.5215 L 1129.377 1489.1836 L 1093.6524 1478.8184 z " />
    <path
       id="path3945"
       style="fill:#ffffff;stroke:none;stroke-width:6.79059;stroke-linecap:butt;stroke-linejoin:miter;stroke-dasharray:none;stroke-opacity:1"
       d="m 1303.4981,1456.7598 -80.5899,14.6445 c -6.6873,9.4959 -10.6502,21.048 -10.6503,33.545 3e-4,32.24 26.1369,58.3758 58.3769,58.375 29.8,-0.059 54.7719,-22.5537 57.9317,-52.1856 l 75.5976,42.6211 -14.9785,55.0781 -126.3731,64.9825 -40.9004,17.3203 0.084,-0.125 -39.5097,-24.9336 -27.8321,21.7949 40.1875,43.7188 27.0215,-40.3829 15.9102,32.0918 -29.6543,15.875 15.3887,143.7872 77.248,-32.625 61.4551,123.9531 58.168,1.7871 63.3105,3.5078 23.2285,-20.8535 52.6113,-55.9121 -30.8125,-191.2852 -123.4687,-104.2402 10.9297,-57.7617 -87.2363,-47.3985 c -0.9137,-18.9503 -10.8214,-35.3907 -25.4434,-45.3789 z m -241.8242,159.3867 -10.3516,6.4063 45.125,44.3301 -64.3379,68.25 28.5801,23.3789 1.4746,62.123 146.4063,61.6446 -15.0372,-139.0547 -66.3496,-47.0391 -0.074,-0.07 26.7871,-8.5488 -6.4414,-34.543 z"
       sodipodi:nodetypes="ccccccccccccccccccccccccccccccccccccccccc" />
    <path
       id="path8"
       style="fill:#ffffff;stroke:none;stroke-width:27.4098;stroke-linecap:round;stroke-linejoin:round;stroke-dasharray:none"
       d="m 1229.125,1187.1231 -21.3652,42.4531 18.9785,35.4492 -108.8281,37.1446 -36.4824,73.1425 -11.503,35.1798 73.7097,15.3677 205.9056,-9.1041 35.8779,-44.6309 c -3.5821,-13.4832 -12.4077,-47.1451 -20.7207,-86.3164 l -83.7754,-13.9199 18.0547,-10.7539 c 0,0 -5.7754,-24.8048 -7.5879,-30.8223 -1.31,-4.349 -10.7988,-9.7109 -15.9941,-12.373 -5.5824,-8.9592 -12.4942,-19.9596 -15.5449,-24.2051 -4.7964,-6.6745 -30.7247,-6.6113 -30.7247,-6.6113 z m 2.375,12.0762 13.8575,0.7441 17.1504,25.1914 -14.1465,13.2422 2.1269,12.1875 -7.3594,15.043 -10.6308,-1.7657 -11.4258,-37.3164 z m 49.0391,31.9277 5.9746,21.6172 -17.8203,17.1133 -10.9336,-1.8164 0.076,-7.3536 z m -27.25,35.4785 0.125,0.7149 -0.5957,-0.1016 z m 134.3906,114.2188 -35.6679,40.6172 37.7929,65.0996 7.3965,-6.0118 22.8867,-25.8378 -31.7246,-71.2344 c 0,0 -0.6357,-2.4558 -0.6836,-2.6328 z m -319.8359,36.498 -14.7442,45.5957 75.9903,21.9414 163.5102,-29.7001 49.7911,-32.5085 -201.5337,11.6325 z"
       sodipodi:nodetypes="ccccccccccccscscccccccccccccccccccccccccccccccccc" />
  </g>
</svg>
