<?xml version="1.0" encoding="UTF-8" standalone="no"?>
<!-- Created with Inkscape (http://www.inkscape.org/) -->

<svg
   version="1.1"
   id="svg25"
   width="594mm"
   height="841mm"
   viewBox="0 0 2245.0395 3178.5827"
   sodipodi:docname="owl-investigator.svg"
   inkscape:version="1.3.2 (091e20ef0f, 2023-11-25)"
   inkscape:export-filename="../474c63b9/buggati-athena2.png"
   inkscape:export-xdpi="300"
   inkscape:export-ydpi="300"
   xmlns:inkscape="http://www.inkscape.org/namespaces/inkscape"
   xmlns:sodipodi="http://sodipodi.sourceforge.net/DTD/sodipodi-0.dtd"
   xmlns="http://www.w3.org/2000/svg"
   xmlns:svg="http://www.w3.org/2000/svg">
  <defs
     id="defs29" />
  <sodipodi:namedview
     id="namedview27"
     pagecolor="#505050"
     bordercolor="#ffffff"
     borderopacity="1"
     inkscape:showpageshadow="0"
     inkscape:pageopacity="0"
     inkscape:pagecheckerboard="1"
     inkscape:deskcolor="#505050"
     showgrid="false"
     inkscape:zoom="0.16"
     inkscape:cx="1228.125"
     inkscape:cy="1134.375"
     inkscape:window-width="1366"
     inkscape:window-height="743"
     inkscape:window-x="0"
     inkscape:window-y="25"
     inkscape:window-maximized="1"
     inkscape:current-layer="g31"
     inkscape:document-units="mm" />
  <g
     inkscape:groupmode="layer"
     inkscape:label="Image"
     id="g31">
    <rect
       style="fill:#1a1a1a;stroke-width:3.28898;stroke-linecap:round;stroke-linejoin:round"
       id="rect1"
       width="1837.1389"
       height="2175.603"
       x="146.68233"
       y="491.89444" />
    <path
       id="path2262"
       style="color:#000000;fill:#ffffff;-inkscape-stroke:none"
       d="M 788.94143,685.86526 323.0879,825.43753 579.5176,2091.9786 l 2.44336,-0.1172 -2.75586,0.2109 377.05003,359.429 850.49847,2.109 -490.0016,-417.872 z M 773.49612,716.81057 1288.2696,2032.8809 599.93166,2065.7657 352.36134,842.9844 Z"
       sodipodi:nodetypes="cccccccccccccc" />
    <path
       style="fill:#ffffff;stroke:none;stroke-width:0.643666px;stroke-linecap:butt;stroke-linejoin:miter;stroke-opacity:1"
       d="m 837.03447,974.36971 -272.04541,690.90349 82.93182,359.2951 543.04682,-40.8377 z"
       id="path2450"
       sodipodi:nodetypes="ccccc" />
    <g
       id="path4"
       transform="translate(-164.98676,24.844189)"
       style="stroke:none">
      <path
         style="color:#000000;fill:#1a1a1a;stroke:none;stroke-linecap:round;stroke-linejoin:round;-inkscape-stroke:none"
         d="m 1121.7811,1847.9569 c -1.4148,5.6413 1.2134,11.5183 6.3614,14.2246 l 163.1738,85.7695 c 8.7623,4.603 19.1684,-2.2252 18.4336,-12.0957 l -17.6543,-236.5566 c -0.2242,-2.9972 -1.5119,-5.8158 -3.6309,-7.9473 -134.5204,-174.209 -139.9073,9.0204 -166.6836,156.6055 z m 145.5215,-142.1367 15.6172,209.2383 -46.0978,-212.7787 -49.828,-10.6315 z"
         id="path6"
         sodipodi:nodetypes="cccccccccccc" />
    </g>
    <path
       id="path1039"
       style="fill:#1a1a1a;stroke:none;stroke-width:0.82665px;stroke-linecap:butt;stroke-linejoin:miter;stroke-opacity:1"
       d="m 1246.0495,1377.7674 -130.8008,10.8105 -59.8047,78.4629 -10.882,135.8832 21.2916,18.598 -2.9838,4.9641 -77.33006,-9.0879 -8.7187,-24.3398 c 10.6056,-6.2262 19.5883,-14.8723 26.21476,-25.2324 23.0357,-36.3936 12.2065,-84.5705 -24.18746,-107.6055 -12.6323,-7.9953 -27.2965,-12.1912 -42.2461,-12.0879 -26.539,0.1831 -51.1633,13.8504 -65.3574,36.2754 -23.0357,36.3936 -12.2065,84.5705 24.1875,107.6055 18.3297,11.5358 40.631,14.9298 61.5625,9.3691 l -1.3574,1.0078 25.4316,143.002 44.46486,-16.3457 -0.5254,-1.4668 38.0293,31.1972 0.166,131.8907 95.1172,147.0058 221.9141,1.7657 149.1836,-3.4395 -53.9102,-70.0293 20.8418,-195.543 -103.0742,-176.3105 21.0215,-27.2852 -20.0762,-132.4687 z m -316.65426,89.6816 c 11.581,-0.08 22.9409,3.171 32.7265,9.3652 28.1911,17.8438 36.5796,55.1622 18.7364,83.3536 -17.8439,28.1922 -55.1637,36.5808 -83.3555,18.7363 -28.191,-17.8438 -36.5795,-55.1621 -18.7363,-83.3535 10.9951,-17.372 30.0703,-27.9597 50.6289,-28.1016 z"
       sodipodi:nodetypes="cccccccccssscccccccccccccccccscssss" />
    <path
       style="fill:#ffffff;stroke:none;stroke-width:3.13081px;stroke-linecap:butt;stroke-linejoin:miter;stroke-opacity:1"
       d="m 1186.2472,1547.5904 -45.4247,40.5933 65.5609,10.2834 4.923,-30.5132 z"
       id="path3028"
       sodipodi:nodetypes="ccccc" />
    <path
       style="fill:#ffffff;stroke:none;stroke-width:3.13081px;stroke-linecap:butt;stroke-linejoin:miter;stroke-opacity:1"
       d="m 1170.9017,1530.9685 2.5222,-43.9293 -19.0933,-23.6504 -45.3618,-4.9104 -33.1874,44.074 33.7358,23.4158 z"
       id="path3030-7"
       sodipodi:nodetypes="ccccccc" />
    <path
       id="path3945"
       style="fill:#ffffff;stroke:none;stroke-width:6.79059;stroke-linecap:butt;stroke-linejoin:miter;stroke-dasharray:none;stroke-opacity:1"
       d="m 1270.6351,1446.575 c -32.24,-8e-4 -58.3766,26.1348 -58.3769,58.3751 3e-4,32.2401 26.1369,58.3758 58.3769,58.375 29.8,-0.059 54.7719,-22.5537 57.9317,-52.1856 l 75.5976,42.6211 -14.9779,55.0764 -126.3736,64.9841 -40.9004,17.3204 0.084,-0.125 -39.5098,-24.9336 -27.832,21.7949 40.1875,43.7187 27.0214,-40.3828 15.9102,32.0918 -29.6543,15.875 15.3887,143.7871 77.248,-32.625 61.4551,123.9532 58.168,1.7871 63.3105,3.5078 23.2285,-20.8535 52.6114,-55.9121 -30.8125,-191.2852 -123.4698,-104.2412 10.9307,-57.7608 -87.2363,-47.3984 c -1.4999,-31.1104 -27.16,-55.5639 -58.3067,-55.5645 z m -208.9609,169.5723 -10.3516,6.4063 45.125,44.33 -64.3379,68.25 28.5801,23.379 1.4746,62.123 146.4063,61.6445 -15.0371,-139.0547 -66.3496,-47.039 -0.074,-0.072 26.7871,-8.5488 -6.4414,-34.543 z"
       sodipodi:nodetypes="ssccccccccccccccccccccccccsccccccccccccc" />
    <path
       id="path8"
       style="fill:#ffffff;stroke:none;stroke-width:27.4098;stroke-linecap:round;stroke-linejoin:round;stroke-dasharray:none"
       d="m 1229.1242,1187.1224 -21.3644,42.454 18.9786,35.4493 -108.8286,37.1447 -36.77,73.0247 0.5751,0.2352 -28.615,87.4881 75.9899,21.9408 101.514,-17.7654 26.878,-46.8482 92.2901,-2.6641 40.0331,68.959 7.3959,-6.0103 22.8866,-25.8389 -31.7233,-71.2341 c 0,0 -13.4822,-49.6563 -23.6671,-97.6481 l -83.7749,-13.9208 18.0549,-10.7538 c 0,0 -5.7751,-24.8048 -7.5876,-30.8223 -1.31,-4.349 -10.799,-9.7101 -15.9943,-12.3722 -5.5824,-8.9592 -12.4941,-19.961 -15.545,-24.2065 -4.7964,-6.6745 -30.726,-6.6111 -30.726,-6.6111 z m 2.3762,12.0764 13.8563,0.7452 17.1505,25.1917 -14.1449,13.2407 2.1264,12.1883 -7.3591,15.0432 -10.6318,-1.7651 -11.4259,-37.3169 z m 49.0384,31.9284 5.9743,21.6171 -17.8204,17.1134 -10.9321,-1.8163 0.075,-7.354 z m -27.2498,35.4774 0.1259,0.7149 -0.5965,-0.1002 z" />
  </g>
</svg>
