<?xml version="1.0" encoding="UTF-8" standalone="no"?>
<!-- Created with Inkscape (http://www.inkscape.org/) -->

<svg
   version="1.1"
   id="svg25"
   width="594mm"
   height="841mm"
   viewBox="0 0 2245.0395 3178.5827"
   sodipodi:docname="owl-investigator.svg"
   inkscape:version="1.3.2 (091e20ef0f, 2023-11-25)"
   inkscape:export-filename="../474c63b9/buggati-athena2.png"
   inkscape:export-xdpi="300"
   inkscape:export-ydpi="300"
   xmlns:inkscape="http://www.inkscape.org/namespaces/inkscape"
   xmlns:sodipodi="http://sodipodi.sourceforge.net/DTD/sodipodi-0.dtd"
   xmlns="http://www.w3.org/2000/svg"
   xmlns:svg="http://www.w3.org/2000/svg">
  <defs
     id="defs29" />
  <sodipodi:namedview
     id="namedview27"
     pagecolor="#505050"
     bordercolor="#ffffff"
     borderopacity="1"
     inkscape:showpageshadow="0"
     inkscape:pageopacity="0"
     inkscape:pagecheckerboard="1"
     inkscape:deskcolor="#505050"
     showgrid="false"
     inkscape:zoom="0.16"
     inkscape:cx="906.25"
     inkscape:cy="1778.125"
     inkscape:window-width="1366"
     inkscape:window-height="743"
     inkscape:window-x="0"
     inkscape:window-y="25"
     inkscape:window-maximized="1"
     inkscape:current-layer="g31"
     inkscape:document-units="mm" />
  <g
     inkscape:groupmode="layer"
     inkscape:label="Image"
     id="g31">
    <rect
       style="fill:#1a1a1a;stroke-width:3.69607;stroke-linecap:round;stroke-linejoin:round"
       id="rect1"
       width="1930.8669"
       height="2614.1384"
       x="145.37984"
       y="272.62677" />
    <path
       id="path2262"
       style="color:#000000;fill:#ffffff;stroke-width:1.20157;-inkscape-stroke:none"
       d="M 917.0988,505.69621 357.34338,673.402 l 308.11813,1521.8372 2.93586,-0.1409 -3.31136,0.2534 453.05269,431.8799 374.6777,3.4163 -166.4215,-266.6749 148.7016,-26.8876 -112.0629,-205.4966 -673.04319,32.1538 L 392.51746,694.48579 898.54019,542.87916 1246.7185,1401.877 l 10.6287,-29.7107 z m 362.0174,925.85859 -31.98,2.5463 261.9656,669.7413 32.2265,-1.6803 z"
       sodipodi:nodetypes="ccccccccccccccccccccc" />
    <path
       style="fill:#ffffff;stroke:none;stroke-width:0.773409px;stroke-linecap:butt;stroke-linejoin:miter;stroke-opacity:1"
       d="m 974.88593,852.35437 -326.88147,830.16853 99.64835,431.7181 652.50849,-49.0693 z"
       id="path2450"
       sodipodi:nodetypes="ccccc" />
    <g
       id="path4"
       transform="matrix(1.2015695,0,0,1.2015695,-233.09494,-283.25634)"
       style="stroke:none">
      <path
         id="path6"
         style="color:#000000;fill:#1a1a1a;stroke:none;stroke-linecap:round;stroke-linejoin:round;-inkscape-stroke:none"
         d="m 1411.0357,1352.9239 -130.8007,10.8106 -59.8047,78.4629 -1.1962,132.2569 12.6232,14.9226 -4.0013,12.2658 -77.33,-9.0879 -8.7188,-24.3398 39.7741,-37.377 4.881,-41.6699 -25.1407,-58.2482 -67.4616,-17.2601 -64.0693,46.3294 1.7067,59.7102 28.9211,47.4706 60.8838,9.8731 5.2666,26.3652 -7.1738,19.1309 13.8848,47.1621 8.6113,0.3613 1.0957,4.7676 c -8.5475,40.6608 -18.0254,180.2383 -18.0254,180.2383 l 164.2402,73.3008 34.1055,84.4609 221.9141,1.7656 149.1836,-3.4394 -53.9102,-70.0293 20.8418,-195.543 -103.0742,-176.3105 21.0215,-27.2852 -20.0762,-132.4688 z m -311.4536,85.5543 46.3261,13.3256 21.6214,37.454 -6.9478,37.1759 -36.8899,27.4321 -53.5111,-7.4816 -23.0141,-33.8815 5.5195,-46.5623 z"
         sodipodi:nodetypes="ccccccccccccccccccccccccccccccccccccccccc" />
    </g>
    <path
       style="fill:#ffffff;stroke:none;stroke-width:3.76189px;stroke-linecap:butt;stroke-linejoin:miter;stroke-opacity:1"
       d="m 1394.4893,1541.1189 -54.581,48.7756 83.3368,1.7879 1.3545,-26.0954 z"
       id="path3028"
       sodipodi:nodetypes="ccccc" />
    <path
       id="path3030-7"
       style="fill:#ffffff;stroke:none;stroke-width:3.76189px;stroke-linecap:butt;stroke-linejoin:miter;stroke-opacity:1"
       d="m 1283.2302,1458.4846 -8.035,27.1193 7.9059,23.3017 42.8181,22.5576 42.7614,-11.2552 16.7248,-32.8162 -5.9839,-28.0736 -53.2657,11.6208 z"
       sodipodi:nodetypes="ccccccccc" />
    <path
       id="path3945"
       style="fill:#ffffff;stroke:none;stroke-width:8.15937;stroke-linecap:butt;stroke-linejoin:miter;stroke-dasharray:none;stroke-opacity:1"
       d="m 1535.3744,1431.9796 -96.8343,17.5964 -12.7971,40.3067 19.7954,48.8371 50.3485,21.3045 46.6336,-17.8687 21.4286,-41.818 1.2674,-18.7463 -3.9332,-26.4532 z m 47.0403,59.1234 -3.4652,10.5797 57.9359,44.9308 9.9067,36.9966 -8.4582,31.1019 -151.8461,78.081 -49.1447,20.8116 0.1015,-0.1502 -47.4737,-29.9595 -33.4421,26.1881 48.2881,52.5312 32.4681,-48.5228 96.8297,193.0255 -0.629,1.7155 55.0962,138.4974 160.2383,13.0671 53.8124,-100.5071 -43.1908,-228.1457 -108.5215,-116.3287 9.7625,-31.2869 -14.0712,-44.9498 z m -337.6088,132.3908 -12.4382,7.6976 53.8054,52.8574 42.8552,33.8411 26.5894,-8.58 -7.0686,-29.7131 z m 39.6446,66.091 -41.1185,98.618 2.0628,80.9979 175.9173,74.0703 -18.0682,-167.0839 -76.9849,-48.6635 z m 158.0815,70.0924 -21.762,11.6496 18.4906,172.7703 80.5262,-34.0101 z"
       sodipodi:nodetypes="ccccccccccccccccccccccccccccccccccccccccccccccccccc" />
    <path
       id="path8"
       style="fill:#ffffff;stroke:none;stroke-width:32.9348;stroke-linecap:round;stroke-linejoin:round;stroke-dasharray:none"
       d="m 1446.0099,1107.9923 -25.6717,51.0105 20.2506,37.8282 7.416,-3.3747 -11.6707,-38.1193 12.5296,-32.8343 16.6507,0.8942 20.6074,30.2692 -16.998,15.9114 2.5557,14.6441 -6.0548,12.3772 14.8506,2.8584 0.032,-3.0721 27.2793,-35.519 7.179,25.9745 -16.6999,16.0382 16.383,3.1517 15.2919,-9.1079 c 0,0 -6.9395,-29.8047 -9.1174,-37.0351 -1.574,-5.2257 -12.9755,-11.6684 -19.218,-14.8671 -6.7076,-10.7651 -15.0128,-23.9828 -18.6783,-29.0841 -5.7631,-8.0199 -36.9178,-7.944 -36.9178,-7.944 z m 2.185,92.0586 c 0,0 -90.5356,30.8132 -135.8173,46.1784 l -35.5684,46.5889 -15.2144,69.5854 86.4426,18.6548 237.6621,-17.4885 41.3391,-46.2627 -32.7121,-89.7986 c -48.4738,-10.4847 -146.1316,-27.4577 -146.1316,-27.4577 z m 188.7402,142.2687 -43.2681,47.2226 45.4107,78.2218 8.8875,-7.2237 27.4999,-31.0459 z m -384.7157,42.2731 -13.9143,41.3227 90.2445,34.3949 204.7196,-43.9792 48.8374,-25.3363 -242.1562,13.9777 z"
       sodipodi:nodetypes="ccccccccccccccccccscccccccccccccccccccccccccc" />
    <path
       style="fill:#ffffff;stroke:none;stroke-width:15.4088;stroke-linecap:round;stroke-linejoin:round"
       d="m 1363.9661,1601.3391 42.0054,29.7838 16.6775,-7.5225 -0.1936,-24.7679 z"
       id="path7" />
  </g>
</svg>
