<?xml version="1.0" encoding="UTF-8" standalone="no"?>
<!-- Created with Inkscape (http://www.inkscape.org/) -->

<svg
   version="1.1"
   id="svg25"
   width="594mm"
   height="841mm"
   viewBox="0 0 2245.0395 3178.5827"
   sodipodi:docname="owl-investigator.svg"
   inkscape:version="1.3.2 (091e20ef0f, 2023-11-25)"
   inkscape:export-filename="../474c63b9/buggati-athena2.png"
   inkscape:export-xdpi="300"
   inkscape:export-ydpi="300"
   xmlns:inkscape="http://www.inkscape.org/namespaces/inkscape"
   xmlns:sodipodi="http://sodipodi.sourceforge.net/DTD/sodipodi-0.dtd"
   xmlns="http://www.w3.org/2000/svg"
   xmlns:svg="http://www.w3.org/2000/svg">
  <defs
     id="defs29" />
  <sodipodi:namedview
     id="namedview27"
     pagecolor="#505050"
     bordercolor="#ffffff"
     borderopacity="1"
     inkscape:showpageshadow="0"
     inkscape:pageopacity="0"
     inkscape:pagecheckerboard="1"
     inkscape:deskcolor="#505050"
     showgrid="false"
     inkscape:zoom="0.32"
     inkscape:cx="1328.125"
     inkscape:cy="1579.6875"
     inkscape:window-width="1366"
     inkscape:window-height="743"
     inkscape:window-x="0"
     inkscape:window-y="25"
     inkscape:window-maximized="1"
     inkscape:current-layer="g31"
     inkscape:document-units="mm" />
  <g
     inkscape:groupmode="layer"
     inkscape:label="Image"
     id="g31">
    <rect
       style="fill:#1a1a1a;stroke-width:3.28898;stroke-linecap:round;stroke-linejoin:round"
       id="rect1"
       width="1837.1389"
       height="2175.603"
       x="146.68233"
       y="491.89444" />
    <path
       id="path2262"
       style="color:#000000;fill:#ffffff;-inkscape-stroke:none"
       d="M 788.94143,685.86526 323.0879,825.43753 579.5176,2091.9786 l 2.44336,-0.1172 -2.75586,0.2109 377.05079,359.4297 311.82351,2.8433 -138.5034,-221.9388 123.7561,-22.3771 -93.2637,-171.0235 -560.13674,26.7598 -247.57032,-1222.7813 421.13478,-126.17383 289.76958,714.89653 8.8457,-24.7266 z m 301.28717,770.54104 -26.6153,2.1191 218.0196,557.3887 26.8203,-1.3984 z"
       sodipodi:nodetypes="ccccccccccccccccccccc" />
    <path
       style="fill:#ffffff;stroke:none;stroke-width:0.643666px;stroke-linecap:butt;stroke-linejoin:miter;stroke-opacity:1"
       d="m 837.03447,974.36971 -272.04541,690.90349 82.93182,359.2951 543.04682,-40.8377 z"
       id="path2450"
       sodipodi:nodetypes="ccccc" />
    <g
       id="path4"
       transform="translate(-168.30132,29.263607)"
       style="stroke:none">
      <path
         id="path6"
         style="color:#000000;fill:#1a1a1a;stroke:none;stroke-linecap:round;stroke-linejoin:round;-inkscape-stroke:none"
         d="m 1411.0357,1352.9239 -130.8007,10.8106 -59.8047,78.4629 -1.1962,132.2569 12.6232,14.9226 -4.0013,12.2658 -77.33,-9.0879 -8.7188,-24.3398 39.7741,-37.377 4.881,-41.6699 -25.1407,-58.2482 -67.4616,-17.2601 -64.0693,46.3294 1.7067,59.7102 28.9211,47.4706 60.8838,9.8731 5.2666,26.3652 -7.1738,19.1309 13.8848,47.1621 8.6113,0.3613 1.0957,4.7676 c -8.5475,40.6608 -18.0254,180.2383 -18.0254,180.2383 l 164.2402,73.3008 34.1055,84.4609 221.9141,1.7656 149.1836,-3.4394 -53.9102,-70.0293 20.8418,-195.543 -103.0742,-176.3105 21.0215,-27.2852 -20.0762,-132.4688 z m -311.4536,85.5543 46.3261,13.3256 21.6214,37.454 -6.9478,37.1759 -36.8899,27.4321 -53.5111,-7.4816 -23.0141,-33.8815 5.5195,-46.5623 z"
         sodipodi:nodetypes="ccccccccccccccccccccccccccccccccccccccccc" />
    </g>
    <path
       style="fill:#ffffff;stroke:none;stroke-width:3.13081px;stroke-linecap:butt;stroke-linejoin:miter;stroke-opacity:1"
       d="m 1186.2472,1547.5904 -45.4247,40.5933 69.3566,1.4879 1.1273,-21.7177 z"
       id="path3028"
       sodipodi:nodetypes="ccccc" />
    <path
       id="path3030-7"
       style="fill:#ffffff;stroke:none;stroke-width:3.13081px;stroke-linecap:butt;stroke-linejoin:miter;stroke-opacity:1"
       d="m 1093.6524,1478.8184 -6.6871,22.5699 6.5796,19.3927 35.6352,18.7735 35.588,-9.3671 13.9191,-27.3111 -4.9801,-23.3641 -44.3301,9.6714 z"
       sodipodi:nodetypes="ccccccccc" />
    <path
       id="path3945"
       style="fill:#ffffff;stroke:none;stroke-width:6.79059;stroke-linecap:butt;stroke-linejoin:miter;stroke-dasharray:none;stroke-opacity:1"
       d="m 1303.4981,1456.7598 -80.5899,14.6445 -10.6503,33.545 16.4746,40.6445 41.9023,17.7305 38.8106,-14.8711 17.8339,-34.8028 1.0547,-15.6015 -3.2734,-22.0156 z m 39.149,49.2051 -2.8838,8.8049 48.2168,37.3935 8.2448,30.7902 -7.0393,25.8844 -126.3731,64.9825 -40.9004,17.3203 0.084,-0.125 -39.5097,-24.9336 -27.8321,21.7949 40.1875,43.7188 27.0215,-40.3829 80.586,160.6446 -0.5235,1.4277 45.8535,115.2637 133.3575,10.875 44.7851,-83.6465 -35.9453,-189.873 -90.3164,-96.814 8.1247,-26.0384 -11.7107,-37.4092 z m -280.9732,110.1816 -10.3516,6.4063 44.7793,43.9902 35.666,28.1641 22.1289,-7.1406 -5.8828,-24.7286 z m 32.9941,55.0039 -34.2207,82.0743 1.7168,67.4101 146.4063,61.6446 -15.0372,-139.0547 -64.0703,-40.5 z m 131.5625,58.334 -18.1113,9.6953 15.3887,143.7872 67.0175,-28.3047 z"
       sodipodi:nodetypes="ccccccccccccccccccccccccccccccccccccccccccccccccccc" />
    <path
       id="path8"
       style="fill:#ffffff;stroke:none;stroke-width:27.4098;stroke-linecap:round;stroke-linejoin:round;stroke-dasharray:none"
       d="m 1229.125,1187.1231 -21.3652,42.4531 16.8535,31.4824 6.1719,-2.8086 -9.7129,-31.7246 10.4277,-27.3261 13.8575,0.7441 17.1504,25.1914 -14.1465,13.2422 2.1269,12.1875 -5.039,10.3008 12.3593,2.3789 0.027,-2.5567 22.7031,-29.5605 5.9746,21.6172 -13.8984,13.3476 13.6347,2.6231 12.7266,-7.5801 c 0,0 -5.7754,-24.8048 -7.5879,-30.8223 -1.31,-4.349 -10.7988,-9.7109 -15.9941,-12.373 -5.5824,-8.9592 -12.4943,-19.9596 -15.5449,-24.2051 -4.7964,-6.6745 -30.7247,-6.6113 -30.7247,-6.6113 z m 1.8184,76.6152 c 0,0 -75.3478,25.6442 -113.0332,38.4317 l -29.6016,38.7734 -12.6621,57.9121 71.9414,15.5254 197.793,-14.5547 34.4043,-38.5019 -27.2246,-74.7344 c -40.342,-8.7258 -121.6172,-22.8516 -121.6172,-22.8516 z m 157.0781,118.4024 -36.0097,39.3008 37.7929,65.0996 7.3965,-6.0118 22.8867,-25.8378 z m -320.1777,35.1816 -11.5801,34.3906 75.1055,28.625 170.3769,-36.6015 40.6446,-21.086 -201.5332,11.6329 z"
       sodipodi:nodetypes="ccccccccccccccccccscccccccccccccccccccccccccc" />
    <path
       style="fill:#ffffff;stroke:none;stroke-width:12.8239;stroke-linecap:round;stroke-linejoin:round"
       d="m 1160.8445,1597.7084 34.9587,24.7874 13.8798,-6.2606 -0.1612,-20.613 z"
       id="path7" />
  </g>
</svg>
