<?xml version="1.0" encoding="UTF-8" standalone="no"?>
<!-- Created with Inkscape (http://www.inkscape.org/) -->

<svg
   version="1.1"
   id="svg25"
   width="4274.6665"
   height="2624"
   viewBox="0 0 4274.6665 2624"
   sodipodi:docname="owl-investigator.svg"
   inkscape:version="1.3.2 (091e20ef0f, 2023-11-25)"
   inkscape:export-filename="../474c63b9/buggati-athena2.png"
   inkscape:export-xdpi="300"
   inkscape:export-ydpi="300"
   xmlns:inkscape="http://www.inkscape.org/namespaces/inkscape"
   xmlns:sodipodi="http://sodipodi.sourceforge.net/DTD/sodipodi-0.dtd"
   xmlns="http://www.w3.org/2000/svg"
   xmlns:svg="http://www.w3.org/2000/svg">
  <defs
     id="defs29" />
  <sodipodi:namedview
     id="namedview27"
     pagecolor="#505050"
     bordercolor="#ffffff"
     borderopacity="1"
     inkscape:showpageshadow="0"
     inkscape:pageopacity="0"
     inkscape:pagecheckerboard="1"
     inkscape:deskcolor="#505050"
     showgrid="false"
     inkscape:zoom="0.16"
     inkscape:cx="1821.875"
     inkscape:cy="1565.625"
     inkscape:window-width="1366"
     inkscape:window-height="743"
     inkscape:window-x="0"
     inkscape:window-y="25"
     inkscape:window-maximized="1"
     inkscape:current-layer="g31" />
  <g
     inkscape:groupmode="layer"
     inkscape:label="Image"
     id="g31">
    <rect
       style="fill:#000000;stroke-width:3.0414;stroke-linecap:round;stroke-linejoin:round"
       id="rect1"
       width="1698.8473"
       height="2011.8335"
       x="1397.5198"
       y="276.00223" />
    <path
       id="path3945-5-6"
       style="fill:none;stroke:#000000;stroke-width:12.8268;stroke-linecap:butt;stroke-linejoin:miter;stroke-dasharray:none;stroke-opacity:1"
       d="m 2193.4778,1061.1337 -8.3202,41.008 6.5067,32.6217 -46.6335,3.855 -17.3587,22.7737 -42.9566,21.4125 31.2813,-6.0938 -26.2685,34.4641 -12.7411,132.773 -54.2481,5.9919 -5.9103,-0.6952 -5.8498,-16.3311 a 72.115892,72.115892 0 0 0 25.3617,-23.9563 72.115892,72.115892 0 0 0 -22.3671,-99.504 72.115892,72.115892 0 0 0 -99.504,22.3659 72.115892,72.115892 0 0 0 22.3659,99.5039 72.115892,72.115892 0 0 0 53.161,9.5118 l 3.8237,21.4986 -97.8742,59.4921 -4.8454,85.9734 31.1534,-51.1976 80.0595,-46.5079 2.6563,14.9372 -84.3736,63.897 -14.6246,58.8424 107.5138,-81.4174 29.1142,-10.7022 17.9262,-4.4153 17.8516,14.6443 -52.5449,14.9256 -106.8221,91.3187 177.7651,-70.8385 0.128,101.6279 87.9565,135.941 205.2099,1.6311 137.9545,-3.1796 -49.8525,-64.7572 0.069,-0.6465 7.4959,-1.4682 -3.6481,-34.6316 11.0232,-103.4171 18.9177,62.3231 -4.8117,71.1511 48.6504,-51.7022 -28.4923,-176.8862 -113.1543,-96.7325 -4.0571,1.8903 -5.2522,-8.9851 26.1904,-45.764 -12.8982,-6.4218 -15.2012,-100.3002 -39.6386,-15.1407 50.9894,2.2971 -131.6849,-33.1204 -16.6833,-6.3729 -21.7845,1.8008 -0.5186,-10.6058 z"
       inkscape:export-filename="../2ffe94f/owl-inspector-high-res.png"
       inkscape:export-xdpi="300"
       inkscape:export-ydpi="300" />
    <path
       style="fill:#1a1a1a;stroke:#000000;stroke-width:0.595213px;stroke-linecap:butt;stroke-linejoin:miter;stroke-opacity:1"
       d="m 1755.1085,1779.1852 -233.03,-1150.96835 410.11,-122.87033 239.3094,647.90338 246.6978,594.2583 z"
       id="path2262" />
    <path
       style="fill:#ffffff;stroke:none;stroke-width:0.595213px;stroke-linecap:butt;stroke-linejoin:miter;stroke-opacity:1"
       d="m 1997.7046,744.40812 -293.1532,675.52428 79.0661,308.511 379.7461,-6.2772 112.5195,-171.5093 z"
       id="path2450"
       sodipodi:nodetypes="cccccc" />
    <path
       style="fill:#ffffff;stroke:none;stroke-width:6.27943;stroke-linecap:butt;stroke-linejoin:miter;stroke-dasharray:none;stroke-opacity:1"
       d="m 2145.1792,1457.0376 -9.0349,-116.6016 -127.343,14.0642 -116.3729,70.7349 -4.8453,85.9734 31.1533,-51.1983 101.7854,-59.1281 88.5692,-14.5956 -4.904,14.8984 -98.6484,24.1603 -88.4595,66.9921 -14.6246,58.8417 114.4253,-86.6523 87.7889,-21.62 3.3416,16.9644 -85.6949,24.3433 -106.8223,91.3187 233.2426,-92.9449 z"
       id="path3945-5"
       sodipodi:nodetypes="ccccccccccccccccccc"
       inkscape:export-filename="../995a496/bug-inspector.png"
       inkscape:export-xdpi="300"
       inkscape:export-ydpi="300" />
    <path
       style="fill:#000000;stroke:#000000;stroke-width:0.764426px;stroke-linecap:butt;stroke-linejoin:miter;stroke-opacity:1"
       d="m 2123.993,1365.6619 -117.0765,-13.7591 1.126,62.5729 140.1116,114.9395 z"
       id="path1039" />
    <path
       style="fill:#000000;stroke:#000000;stroke-width:2.89513px;stroke-linecap:butt;stroke-linejoin:miter;stroke-opacity:1"
       d="m 2217.9782,1283.094 -39.9517,45.4575 40.4595,-10.7292 22.8215,51.2248 123.6495,6.7305 53.0942,-68.9132 -18.5657,-122.4975 -137.0172,-52.3364 -120.955,9.9975 -55.302,72.5563 -12.9021,134.4434 162.4908,20.0641 -3.2532,-72.1154 z"
       id="path3024" />
    <path
       style="fill:#000000;stroke:none;stroke-width:2.89513px;stroke-linecap:butt;stroke-linejoin:miter;stroke-opacity:1"
       d="m 2397.7016,1330.537 96.2266,164.597 -19.2741,180.8236 49.8528,64.7572 -137.9538,3.1801 -205.2104,-1.6311 -87.9563,-135.9413 -0.3598,-284.8909 z"
       id="path3026"
       sodipodi:nodetypes="ccccccccc" />
    <path
       style="fill:#ffffff;stroke:#000000;stroke-width:2.89513px;stroke-linecap:butt;stroke-linejoin:miter;stroke-opacity:1"
       d="m 2207.1674,1289.071 -42.0053,37.5376 60.6258,9.5093 4.5524,-28.2163 z"
       id="path3028"
       sodipodi:nodetypes="ccccc" />
    <path
       style="fill:#ffffff;stroke:#000000;stroke-width:2.89513px;stroke-linecap:butt;stroke-linejoin:miter;stroke-opacity:1"
       d="m 2192.9771,1273.7002 2.3323,-40.6225 -17.656,-21.8701 -41.9472,-4.5407 -30.6892,40.7562 31.1963,21.6533 z"
       id="path3030-7"
       sodipodi:nodetypes="ccccccc" />
    <path
       style="fill:#ffffff;stroke:none;stroke-width:11.7738;stroke-linecap:butt;stroke-linejoin:miter;stroke-dasharray:none;stroke-opacity:1"
       d="m 2193.4473,1164.7501 -11.8076,-59.1983 8.3212,-41.0087 50.2049,58.6824 2.1178,43.2932 z"
       id="path3943" />
    <path
       id="path3945"
       style="fill:#ffffff;stroke:none;stroke-width:6.27943;stroke-linecap:butt;stroke-linejoin:miter;stroke-dasharray:none;stroke-opacity:1"
       d="m 2333.6632,1244.3242 0.9528,8.6966 74.0645,41.7574 -25.4903,61.9894 -105.2199,49.0324 -37.8863,16.0444 129.8023,261.8121 12.5997,-139.9895 -64.3936,-110.6853 27.0043,-8.7623 69.0833,112.9963 9.4959,148.0939 58.5435,-11.4658 -16.936,-160.7813 -75.7183,-107.8222 24.0746,-8.8332 59.4481,85.0082 35.4244,116.7016 -4.8117,71.1517 48.6506,-51.702 -28.4923,-176.8861 -113.155,-96.733 -18.2327,8.4975 35.1141,-61.3557 z"
       sodipodi:nodetypes="ccccccccccccccccccccccccc" />
    <path
       style="fill:#ffffff;stroke:#000000;stroke-width:5.25563px;stroke-linecap:butt;stroke-linejoin:miter;stroke-opacity:1"
       d="m 2198.9802,1397.5938 -17.9316,29.7268 31.1527,30.2133 18.661,-38.9862 z"
       id="path3971" />
    <path
       style="fill:#ffffff;stroke:none;stroke-width:5.75989;stroke-linecap:butt;stroke-linejoin:miter;stroke-dasharray:none;stroke-opacity:1"
       d="m 2172.4847,1140.712 2.7732,27.1782 -94.0602,18.3239 z"
       id="path4067" />
    <path
       style="fill:#ffffff;stroke:none;stroke-width:5.75989;stroke-linecap:butt;stroke-linejoin:miter;stroke-dasharray:none;stroke-opacity:1"
       d="m 2260.1746,1133.6298 -6.48,30.8139 157.1421,7.0791 z"
       id="path4069" />
    <circle
       style="fill:#ffffff;stroke:none;stroke-width:17.5596;stroke-linecap:round;stroke-linejoin:round;stroke-dasharray:none"
       id="path4073"
       cx="2285.2026"
       cy="1249.6409"
       r="53.981213" />
    <path
       style="fill:#000000;stroke:#ffffff;stroke-width:13.8797;stroke-linecap:butt;stroke-linejoin:miter;stroke-dasharray:none;stroke-opacity:1"
       d="m 1987.8252,1336.3834 23.5176,132.2376 41.1177,-15.1156 -46.7193,-130.42 z"
       id="path1015" />
    <circle
       style="fill:#000000;stroke-width:1.78573;stroke-linecap:round;stroke-linejoin:round"
       id="path961"
       cx="2347.4302"
       cy="21.705816"
       r="72.115891"
       transform="rotate(32.331832)" />
    <circle
       style="fill:#ffffff;stroke-width:1.3833;stroke-linecap:round;stroke-linejoin:round"
       id="path961-6"
       cx="2344.2756"
       cy="20.184368"
       r="55.86364"
       transform="rotate(32.331832)" />
    <path
       style="fill:#ffffff;stroke:none;stroke-width:0.88812px;stroke-linecap:butt;stroke-linejoin:miter;stroke-opacity:1"
       d="m 2082.3994,1358.3917 9.5718,-5.9234 79.3252,34.0992 5.957,31.9431 -25.4048,8.1074 z"
       id="path1596"
       sodipodi:nodetypes="cccccc" />
    <path
       style="fill:#ffffff;stroke:#000000;stroke-width:0.483171px;stroke-linecap:butt;stroke-linejoin:miter;stroke-opacity:1"
       d="m 2501.4536,1720.3738 304.2449,165.3695 92.947,149.7546 -205.9971,78.0286 -263.69,-19.8264 -673.505,-316.1076 z"
       id="path2584"
       sodipodi:nodetypes="ccccccc" />
  </g>
</svg>
