<?xml version="1.0" encoding="UTF-8" standalone="no"?>
<!-- Created with Inkscape (http://www.inkscape.org/) -->

<svg
   width="210mm"
   height="297mm"
   viewBox="0 0 210 297"
   version="1.1"
   id="svg1"
   inkscape:version="1.3.2 (091e20ef0f, 2023-11-25)"
   sodipodi:docname="the-ending-drama.svg"
   xmlns:inkscape="http://www.inkscape.org/namespaces/inkscape"
   xmlns:sodipodi="http://sodipodi.sourceforge.net/DTD/sodipodi-0.dtd"
   xmlns="http://www.w3.org/2000/svg"
   xmlns:svg="http://www.w3.org/2000/svg">
  <sodipodi:namedview
     id="namedview1"
     pagecolor="#505050"
     bordercolor="#eeeeee"
     borderopacity="1"
     inkscape:showpageshadow="0"
     inkscape:pageopacity="0"
     inkscape:pagecheckerboard="0"
     inkscape:deskcolor="#d1d1d1"
     inkscape:document-units="mm"
     inkscape:zoom="0.69166114"
     inkscape:cx="456.14823"
     inkscape:cy="607.95667"
     inkscape:window-width="1366"
     inkscape:window-height="743"
     inkscape:window-x="0"
     inkscape:window-y="25"
     inkscape:window-maximized="1"
     inkscape:current-layer="layer1" />
  <defs
     id="defs1">
    <inkscape:path-effect
       effect="mirror_symmetry"
       start_point="101.16364,83.767404"
       end_point="101.16364,95.479084"
       center_point="101.16364,89.623244"
       id="path-effect6"
       is_visible="true"
       lpeversion="1.2"
       lpesatellites=""
       mode="free"
       discard_orig_path="false"
       fuse_paths="true"
       oposite_fuse="false"
       split_items="false"
       split_open="false"
       link_styles="false" />
    <inkscape:path-effect
       effect="mirror_symmetry"
       start_point="101.71277,153.0954"
       end_point="101.71277,157.055"
       center_point="101.71277,155.0752"
       id="path-effect5"
       is_visible="true"
       lpeversion="1.2"
       lpesatellites=""
       mode="free"
       discard_orig_path="false"
       fuse_paths="true"
       oposite_fuse="false"
       split_items="false"
       split_open="false"
       link_styles="false" />
    <inkscape:path-effect
       effect="mirror_symmetry"
       start_point="109.30237,46.321201"
       end_point="109.30237,227.9003"
       center_point="109.30237,137.11075"
       id="path-effect4"
       is_visible="true"
       lpeversion="1.2"
       lpesatellites=""
       mode="free"
       discard_orig_path="false"
       fuse_paths="true"
       oposite_fuse="false"
       split_items="false"
       split_open="false"
       link_styles="false" />
  </defs>
  <g
     inkscape:label="Layer 1"
     inkscape:groupmode="layer"
     id="layer1">
    <rect
       style="fill:#000000;stroke-width:0.420007;stroke-linecap:round;stroke-linejoin:round"
       id="rect1-9"
       width="174.85509"
       height="166.27812"
       x="21.903748"
       y="53.912849" />
    <rect
       style="fill:#ffffff;stroke-width:0.392999;stroke-linecap:round;stroke-linejoin:round"
       id="rect1"
       width="159.54837"
       height="159.54837"
       x="37.237976"
       y="53.916042" />
    <path
       id="path1"
       style="fill:#000000;stroke-width:0.392999;stroke-linecap:round;stroke-linejoin:round"
       d="m 70.125,46.320312 -19.746671,69.474958 12.554129,39.22201 9.455802,29.54212 -34.632401,10.8488 -15.007812,84.61719 86.554683,0.0215 86.55469,-0.0215 -15.00781,-84.61719 -32.99609,-10.39258 15.59765,-71.76367 -14.97265,-66.931638 -39.17579,4.800782 z m 3.101562,64.283208 9.87534,2.92174 17.937088,6.74151 4.29387,-6.1317 5.22265,0.55664 3.84143,-0.34697 4.55531,5.78359 17.03597,-5.96714 9.38873,-3.55767 -7.22265,34.00195 -9.57032,16.91797 -19.28125,10.26367 -19.281246,-10.26367 -9.572265,-16.91797 z m 25.572266,58.42578 10.503902,6.46875 12.80627,-5.18813 3.86561,26.00844 -16.67188,25.74023 -16.671871,-25.74023 z m 3.748052,-31.83985 6.75585,7.71289 6.75391,-7.71289 -6.75391,3.36914 z"
       sodipodi:nodetypes="ccccccccccccccccccccccccccccccccccccccccc"
       transform="matrix(0.68944972,0,0,0.59289595,9.5337399,53.426476)" />
    <path
       style="fill:#ffffff;stroke-width:0.680377;stroke-linecap:round;stroke-linejoin:round"
       d="m 119.29848,201.33863 3.41693,-1.97303 5.02565,0.67792 -1.26623,1.86462 -4.1373,1.36054 z"
       id="path8-7-0-8" />
    <path
       style="fill:#000000;stroke-width:0.680377;stroke-linecap:round;stroke-linejoin:round"
       d="m 152.84454,204.27489 3.41693,-1.97303 5.02565,0.67792 -1.26623,1.86462 -4.1373,1.36054 z"
       id="path8-7-0-8-4" />
    <path
       style="fill:#ffffff;stroke-width:0.680377;stroke-linecap:round;stroke-linejoin:round"
       d="m 36.294387,190.90105 3.41693,-1.97303 5.02565,0.67792 -1.26623,1.86462 -4.1373,1.36054 z"
       id="path8-7-0-8-2" />
    <path
       style="fill:#1a1a1a;stroke-width:0.420019;stroke-linecap:round;stroke-linejoin:round"
       d="m 82.860614,142.47862 -4.416957,2.55916 5.924077,2.40678 0.63248,-0.0459 0.63249,0.0459 5.92407,-2.40678 -4.41905,-2.55916 -2.13751,0.82243 z"
       id="path4"
       sodipodi:nodetypes="cccccc" />
    <path
       style="fill:#000000;fill-opacity:1;stroke-width:0.392999;stroke-linecap:round;stroke-linejoin:round"
       d="m 101.16406,78.195312 -15.124998,5.572266 -4.240234,8.177734 19.365232,3.533204 19.36524,-3.533204 -4.24024,-8.177734 z"
       id="path5"
       sodipodi:nodetypes="ccccc"
       inkscape:original-d="m 86.038102,83.767405 -4.239972,8.178816 19.36551,3.532865 0.27145,-17.384167 z"
       inkscape:path-effect="#path-effect6"
       transform="matrix(1.2426488,-0.0194968,0.01676638,1.0686224,-42.012897,-4.8357167)" />
    <path
       style="fill:#ffffff;fill-opacity:1;stroke-width:0.420019;stroke-linecap:round;stroke-linejoin:round"
       d="m 78.543762,144.95208 6.420632,-0.20659 6.59662,0.32816 -6.61257,0.0969 z"
       id="path6"
       sodipodi:nodetypes="ccccc" />
    <path
       style="fill:#000000;fill-opacity:1;stroke:#ffffff;stroke-width:1.06875;stroke-linecap:round;stroke-linejoin:round;stroke-dasharray:none"
       d="M 57.033233,158.81515 41.891368,166.474 84.800724,185.44601 72.826748,167.91558 58.390893,163.13114 Z"
       id="path11"
       sodipodi:nodetypes="cccccc" />
    <path
       style="fill:#000000;fill-opacity:1;stroke:#ffffff;stroke-width:1.06875;stroke-linecap:round;stroke-linejoin:round;stroke-dasharray:none"
       d="m 112.55021,158.87335 15.14187,7.65885 -42.909346,18.97201 11.97397,-17.53043 14.435846,-4.78444 z"
       id="path11-3"
       sodipodi:nodetypes="cccccc" />
    <path
       style="fill:#ffffff;fill-opacity:1;stroke:none;stroke-width:1.06875;stroke-linecap:round;stroke-linejoin:round;stroke-dasharray:none"
       d="m 123.85357,164.69123 -36.535066,17.94023 2.0246,-3.0668 32.341296,-15.7826 z"
       id="path13" />
    <path
       style="fill:#ffffff;fill-opacity:1;stroke:none;stroke-width:1.09354;stroke-linecap:round;stroke-linejoin:round;stroke-dasharray:none"
       d="m 45.195803,165.07568 37.728281,18.18796 -2.090729,-3.10915 -33.397533,-16.00053 z"
       id="path13-7" />
    <path
       style="fill:#ffffff;fill-opacity:1;stroke:none;stroke-width:1.06875;stroke-linecap:round;stroke-linejoin:round;stroke-dasharray:none"
       d="m 116.30343,175.68449 -27.657056,17.57012 -9.224698,0.2561 -27.492784,-19.1743 -0.189702,-1.1591 33.444194,14.36926 31.312996,-13.60641 z"
       id="path14"
       sodipodi:nodetypes="cccccccc" />
    <path
       style="fill:#ffffff;fill-opacity:1;stroke:none;stroke-width:1.24338;stroke-linecap:round;stroke-linejoin:round;stroke-dasharray:none"
       d="m 84.169704,194.6177 3.89728,0.86007 0.31757,2.64941 h -8.886628 l -0.135671,-2.92384 z"
       id="path15" />
    <path
       style="fill:#ffffff;fill-opacity:1;stroke:none;stroke-width:1.06875;stroke-linecap:round;stroke-linejoin:round;stroke-dasharray:none"
       d="m 88.457684,199.69489 -3.70252,5.85553 -10.983261,11.37114 2.307862,-9.7783 3.099916,-7.29345 z"
       id="path16"
       sodipodi:nodetypes="cccccc" />
    <path
       style="fill:#ffffff;fill-opacity:1;stroke:none;stroke-width:1.06875;stroke-linecap:round;stroke-linejoin:round;stroke-dasharray:none"
       d="m 88.995074,201.33165 -2.60068,4.38994 6.623,9.71303 0.19695,-6.68123 z"
       id="path17" />
    <path
       style="fill:#ffffff;fill-opacity:1;stroke:none;stroke-width:1.06875;stroke-linecap:round;stroke-linejoin:round;stroke-dasharray:none"
       d="m 133.60836,169.31176 -6.93691,11.62996 7.80421,-9.86042 -0.028,-1.62833 z"
       id="path18" />
    <path
       style="fill:#ffffff;fill-opacity:1;stroke:none;stroke-width:1.06875;stroke-linecap:round;stroke-linejoin:round;stroke-dasharray:none"
       d="m 35.677817,169.26458 8.821741,10.37949 -9.92368,-8.79916 z"
       id="path19" />
    <path
       style="fill:#ffffff;fill-opacity:1;stroke:none;stroke-width:0.918023;stroke-linecap:round;stroke-linejoin:round;stroke-dasharray:none"
       d="m 114.44954,97.035851 -11.31625,-3.331416 -9.031444,2.658781 -4.292202,-3.573143 -4.542306,3.535165 -5.799282,-3.907474 -3.890638,3.41242 -7.826734,-3.134459 -12.532212,4.651996 16.690436,-10.259676 3.939931,3.340529 3.572123,-3.312389 4.817722,3.129579 7.09247,-3.567768 3.09398,4.272535 5.960956,-3.137048 z"
       id="path20"
       sodipodi:nodetypes="ccccccccccccccccc" />
    <path
       style="fill:#ffffff;fill-opacity:1;stroke:none;stroke-width:1.06875;stroke-linecap:round;stroke-linejoin:round;stroke-dasharray:none"
       d="m 110.21896,122.30167 3.47312,0.39053 -0.74057,6.56436 -4.98311,5.85316 -2.00734,0.92741 z"
       id="path21"
       sodipodi:nodetypes="cccccc" />
    <path
       style="fill:#ffffff;fill-opacity:1;stroke:none;stroke-width:0.816649;stroke-linecap:round;stroke-linejoin:round;stroke-dasharray:none"
       d="m 60.855428,124.15633 -1.976175,-0.54753 2.820311,11.26356 2.086762,0.93479 z"
       id="path21-0" />
    <path
       style="fill:#000000;fill-opacity:1;stroke:none;stroke-width:1;stroke-linecap:round;stroke-linejoin:round;stroke-dasharray:none"
       d="m 116.39735,99.847721 19.04803,31.309339 23.05332,5.81335 17.73688,-1.86495 -15.24289,6.12319 22.69202,-3.92292 -2.91492,5.87937 -18.42611,2.90579 21.84254,-0.14907 -6.47427,21.70354 -17.28925,-0.32594 18.95638,2.99079 -22.6801,-0.78533 -26.85299,-4.60203 -19.23209,-9.42904 z"
       id="path22"
       sodipodi:nodetypes="cccccccccccccccc" />
    <path
       style="fill:#000000;fill-opacity:1;stroke:none;stroke-width:1;stroke-linecap:round;stroke-linejoin:round;stroke-dasharray:none"
       d="m 44.343814,122.04442 6.571568,17.09946 25.285488,15.33807 24.93469,15.12528 41.6872,1.39988 24.9246,4.7622 -69.81123,-1.86565 -26.055315,-3.74536 -19.84001,-9.12097 -7.75675,-8.22409 z"
       id="path23"
       sodipodi:nodetypes="ccccccccccc" />
    <path
       style="fill:#ffffff;fill-opacity:1;stroke:#ffffff;stroke-width:1;stroke-linecap:round;stroke-linejoin:round;stroke-dasharray:none"
       d="m 42.472256,121.19657 8.980384,18.0375 50.47939,30.22551 32.83339,0.64163 -0.36829,-1.02098 -33.01279,-0.90428 -49.761219,-29.81988 -7.874014,-18.33443 z"
       id="path24"
       sodipodi:nodetypes="ccccccccc" />
    <path
       style="fill:#ffffff;fill-opacity:1;stroke:none;stroke-width:1;stroke-linecap:round;stroke-linejoin:round;stroke-dasharray:none"
       d="m 140.13925,132.2068 -7.41952,-0.13511 -7.59011,5.8369 5.29996,7.82504 -7.65226,3.94194 14.49023,9.29018 -8.96128,6.55803 15.32694,-1.17595 1.02782,-5.46034 -5.4147,-6.13174 5.81569,-2.56154 -6.18148,-4.30973 -3.98692,-5.47058 12.33601,-0.63716 -0.94743,-7.23368 z"
       id="path26"
       sodipodi:nodetypes="cccccccccccccccc" />
    <path
       style="fill:#000000;fill-opacity:1;stroke:none;stroke-width:1;stroke-linecap:round;stroke-linejoin:round;stroke-dasharray:none"
       d="m 64.173382,135.86879 3.897419,4.11201 4.591393,1.5949 3.947319,0.32559 -3.442382,0.0429 -4.804905,-1.41517 -4.529135,-3.35609 z"
       id="path27" />
    <path
       style="fill:#000000;fill-opacity:1;stroke:none;stroke-width:1;stroke-linecap:round;stroke-linejoin:round;stroke-dasharray:none"
       d="m 63.388459,119.26742 2.257626,1.81954 5.006499,1.61323 6.922841,0.88563 -6.817453,-0.4506 -6.078876,-2.00354 -2.916417,-2.61374 z"
       id="path28" />
    <path
       style="fill:#000000;fill-opacity:1;stroke:none;stroke-width:1;stroke-linecap:round;stroke-linejoin:round;stroke-dasharray:none"
       d="m 61.225497,123.43945 4.575794,3.79849 6.299004,1.51444 -6.778257,-1.09517 -4.543806,-3.68546 -1.219256,-1.50995 z"
       id="path29" />
    <path
       style="fill:#000000;fill-opacity:1;stroke:none;stroke-width:1;stroke-linecap:round;stroke-linejoin:round;stroke-dasharray:none"
       d="m 80.994508,120.57534 6.114534,1.95417 -7.184001,-1.91589 z"
       id="path30" />
    <path
       style="fill:#000000;fill-opacity:1;stroke:none;stroke-width:1;stroke-linecap:round;stroke-linejoin:round;stroke-dasharray:none"
       d="m 96.406008,121.42127 4.706512,1.54187 8.46863,-1.17194 -0.19173,0.28623 -8.43702,1.19282 -5.704121,-1.91896 z"
       id="path31" />
    <path
       style="fill:#000000;fill-opacity:1;stroke:none;stroke-width:1;stroke-linecap:round;stroke-linejoin:round;stroke-dasharray:none"
       d="m 44.261333,143.3736 -1.031057,9.64727 1.985658,3.99365 6.958089,5.65481 -7.206006,-5.33367 -2.408629,-5.02831 2.065234,-12.03872 z"
       id="path33" />
    <path
       style="fill:#000000;fill-opacity:1;stroke:none;stroke-width:1;stroke-linecap:round;stroke-linejoin:round;stroke-dasharray:none"
       d="m 50.594741,102.34657 -5.568754,8.98431 0.199038,8.74697 -1.173554,-8.92449 7.692443,-10.86258 z"
       id="path34" />
    <path
       style="fill:#000000;fill-opacity:1;stroke:none;stroke-width:1;stroke-linecap:round;stroke-linejoin:round;stroke-dasharray:none"
       d="m 130.08121,123.25146 17.19067,2.62392 13.11652,-0.40732 -13.48435,0.92843 -16.70009,-2.42011 z"
       id="path35" />
    <path
       style="fill:#000000;fill-opacity:1;stroke:none;stroke-width:1;stroke-linecap:round;stroke-linejoin:round;stroke-dasharray:none"
       d="m 66.59796,119.57547 3.115059,1.64694 -2.997123,-1.84628 z"
       id="path36" />
    <path
       style="fill:#000000;fill-opacity:1;stroke:none;stroke-width:1;stroke-linecap:round;stroke-linejoin:round;stroke-dasharray:none"
       d="m 70.391636,120.2534 2.186315,1.91903 -1.79406,-1.87919 z"
       id="path37" />
    <path
       style="fill:#000000;fill-opacity:1;stroke:none;stroke-width:1;stroke-linecap:round;stroke-linejoin:round;stroke-dasharray:none"
       d="M 85.236361,76.775391 96.185931,77.4193 86.061417,77.323669 Z"
       id="path38" />
    <path
       style="fill:#000000;fill-opacity:1;stroke:none;stroke-width:1;stroke-linecap:round;stroke-linejoin:round;stroke-dasharray:none"
       d="M 93.137629,79.178326 104.63585,79.11357 93.149324,79.710038 Z"
       id="path39" />
    <circle
       style="fill:#000000;fill-opacity:1;stroke:none;stroke-width:1;stroke-linecap:round;stroke-linejoin:round;stroke-dasharray:none"
       id="path40"
       cx="161.98116"
       cy="82.662956"
       r="23.66638" />
    <path
       id="path2"
       style="fill:#000000;stroke-width:1;stroke-linecap:round;stroke-linejoin:round"
       d="M 168.92044 178.42477 L 169.90436 179.83967 L 166.91694 182.12532 L 163.23603 178.44441 L 164.49642 180.2567 L 161.23874 182.74905 L 157.55782 179.06814 L 158.21205 180.00865 L 154.93938 182.51341 L 152.51731 180.09133 L 152.65838 179.92907 L 152.4863 180.06033 L 151.25847 178.8325 L 152.24239 180.2474 L 149.25497 182.53304 L 145.57458 178.85213 L 146.5032 180.18745 L 143.16439 182.74233 L 139.48348 179.06142 L 140.1377 180.00245 L 136.86451 182.50669 L 134.44296 180.08462 L 134.58403 179.92235 L 134.41195 180.05413 L 133.18412 178.82578 L 134.16804 180.24068 L 131.18062 182.52633 L 127.49971 178.84541 L 130.76049 183.5335 L 128.28519 185.88943 L 127.0801 184.68433 L 128.06453 186.09975 L 127.55242 186.58706 L 128.1312 186.19587 L 130.34088 189.37242 L 127.74362 191.84359 L 127.00207 191.10203 L 127.60771 191.97278 L 127.13229 192.42546 L 127.66973 192.06218 L 130.26285 195.79012 L 127.78807 198.14604 L 126.58245 196.94043 L 127.56689 198.35585 L 127.05478 198.84368 L 127.63407 198.45249 L 129.84324 201.62852 L 127.39687 203.95706 L 126.41657 202.97676 L 127.21704 204.12759 L 126.63465 204.68208 L 127.29301 204.23715 L 129.67736 207.66484 L 127.20205 210.02077 L 125.99696 208.81568 L 126.9814 210.2311 L 126.46928 210.7184 L 127.04806 210.32721 L 129.25774 213.50376 L 138.66647 213.50273 L 135.81807 213.26088 L 138.5595 210.11069 L 138.88816 210.33807 L 138.96516 210.44865 L 138.45253 210.93648 L 139.03182 210.54529 L 141.08906 213.50273 L 144.3023 213.50273 L 142.11794 213.49601 L 144.85989 210.34582 L 144.90847 210.37941 L 144.54363 210.72667 L 144.98185 210.43057 L 145.38182 210.70755 L 147.32589 213.50221 L 156.64729 213.5017 L 153.89242 213.26709 L 156.63437 210.11689 L 156.96096 210.34272 L 157.03951 210.45589 L 156.5274 210.9432 L 157.10617 210.55201 L 159.15773 213.50118 L 160.19229 213.50118 L 162.93372 210.35098 L 163.21588 210.54632 L 164.99406 213.10275 L 162.59834 215.38272 L 161.87384 214.65822 L 162.46554 215.50881 L 161.78547 216.1558 L 162.55442 215.63645 L 164.29075 215.66281 L 162.73219 215.51863 L 165.45967 213.67533 L 168.121 215.51863 L 167.91223 215.71707 L 168.08896 215.72017 L 168.23831 215.61888 L 168.31117 215.72327 L 168.64552 215.72843 L 168.41608 215.49899 L 171.14408 213.65569 L 174.25965 215.81318 L 176.31017 215.84419 L 174.71595 215.73515 L 177.44343 213.89185 L 180.22466 215.81783 L 180.13629 215.90155 L 180.24688 215.90362 L 180.29804 215.86899 L 180.34972 215.90517 L 180.58536 215.90878 L 180.44842 215.76771 L 180.62877 215.64575 L 180.81429 215.91189 L 185.71166 215.98578 L 185.54423 216.14546 L 185.77884 215.98682 L 185.79899 215.98733 L 185.78091 215.98578 L 186.31318 215.62611 L 186.57207 215.9987 L 188.47325 216.02764 L 186.89143 215.9062 L 187.03251 215.74394 L 186.86043 215.8752 L 186.49043 215.50519 L 189.21842 213.66241 L 192.39084 215.85969 L 192.15623 216.08293 L 192.76033 216.09224 L 192.56912 215.89483 L 192.57688 215.88553 L 192.61202 215.86228 L 192.77221 216.09224 L 196.58593 216.15011 L 196.58593 216.00077 L 192.78978 215.74135 L 195.51778 213.89857 L 196.58593 214.63858 L 196.58593 213.77817 L 195.92809 213.10069 L 196.58593 212.34466 L 196.58593 211.4672 L 195.47179 212.31986 L 193.11741 209.96548 L 195.93791 208.05965 L 196.58593 208.50872 L 196.58593 207.50723 L 196.34771 207.26177 L 196.58593 206.98788 L 196.58593 205.95074 L 195.89192 206.48197 L 193.31637 203.90642 L 196.10328 202.02333 L 196.58593 202.35767 L 196.58593 201.29986 L 196.51359 201.22544 L 196.58593 201.14224 L 196.58593 200.04102 L 196.0578 200.44513 L 193.70291 198.09023 L 196.5234 196.18441 L 196.58593 196.22782 L 196.58593 194.52249 L 196.47741 194.60569 L 193.88067 192.00895 L 193.9153 192.03324 L 193.64968 191.75935 L 196.58593 189.77601 L 196.58593 188.16423 L 196.55544 188.18748 L 194.20055 185.8331 L 196.58593 184.2208 L 196.58593 181.95995 L 193.29363 178.66765 L 193.94785 179.60816 L 190.67518 182.11292 L 188.25311 179.69084 L 188.39419 179.52858 L 188.2221 179.65983 L 186.99427 178.432 L 187.97819 179.8469 L 184.99078 182.13255 L 181.31038 178.45164 L 182.23901 179.78696 L 178.90019 182.34184 L 175.21928 178.66093 L 175.8735 179.60196 L 172.60032 182.1062 L 170.17876 179.68412 L 170.31984 179.52186 L 170.14775 179.65363 L 168.92044 178.42477 z M 192.77221 216.09224 L 192.76033 216.09224 L 192.80167 216.13513 L 192.77221 216.09224 z M 192.15623 216.08293 L 188.47325 216.02764 L 191.93557 216.29326 L 192.15623 216.08293 z M 191.93557 216.29326 L 191.84359 216.38059 L 191.96916 216.29584 L 191.93557 216.29326 z M 186.57207 215.9987 L 185.79899 215.98733 L 186.61652 216.06278 L 186.57207 215.9987 z M 180.81429 215.91189 L 180.58536 215.90878 L 180.76209 216.09069 L 180.87733 216.00284 L 180.81429 215.91189 z M 180.34972 215.90517 L 180.24688 215.90362 L 179.96576 216.09379 L 180.69388 216.1434 L 180.34972 215.90517 z M 179.96576 216.09379 L 179.93682 216.09172 L 179.85982 216.1651 L 179.96576 216.09379 z M 179.93682 216.09172 L 180.13629 215.90155 L 176.31017 215.84419 L 179.93682 216.09172 z M 174.25965 215.81318 L 168.64552 215.72843 L 168.78608 215.86899 L 168.95816 215.73722 L 168.81709 215.89948 L 173.86019 216.28757 L 174.31701 215.85297 L 174.25965 215.81318 z M 173.86019 216.28757 L 173.76924 216.37439 L 173.89378 216.29016 L 173.86019 216.28757 z M 168.31117 215.72327 L 168.08896 215.72017 L 167.70656 215.97855 L 168.54217 216.05555 L 168.31117 215.72327 z M 167.70656 215.97855 L 167.64403 215.97235 L 167.46988 216.13823 L 167.70656 215.97855 z M 167.64403 215.97235 L 167.91223 215.71707 L 164.29075 215.66281 L 167.64403 215.97235 z M 159.15773 213.50118 L 156.64729 213.5017 L 159.31586 213.72856 L 159.15773 213.50118 z M 147.32589 213.50221 L 144.3023 213.50273 L 147.33209 213.51152 L 147.32589 213.50221 z M 141.08906 213.50273 L 138.66647 213.50273 L 141.24151 213.72184 L 141.08906 213.50273 z M 175.89366 179.62883 L 178.48058 183.3485 L 176.00476 185.70443 L 174.80018 184.49933 L 175.24822 185.14374 L 173.05765 182.88754 L 175.89366 179.62883 z M 193.96801 179.63606 L 196.55493 183.35573 L 194.07963 185.71166 L 192.87453 184.50657 L 193.32205 185.14942 L 191.132 182.89478 L 193.96801 179.63606 z M 182.24934 179.80091 L 184.57168 183.13973 L 182.09638 185.49565 L 180.89077 184.29004 L 181.81939 185.62536 L 181.80079 185.64035 L 179.35701 183.12371 L 182.24934 179.80091 z M 169.96637 179.92855 L 172.18122 183.11337 L 169.78602 185.39282 L 167.37325 182.9077 L 169.96637 179.92855 z M 188.04072 179.93579 L 190.25557 183.12061 L 187.86088 185.39954 L 185.44811 182.91493 L 188.04072 179.93579 z M 140.15734 180.02984 L 142.74426 183.74951 L 140.26844 186.10544 L 139.06386 184.90034 L 139.5119 185.54475 L 137.32133 183.28855 L 140.15734 180.02984 z M 158.23169 180.03707 L 160.81861 183.75674 L 158.34331 186.11267 L 157.13821 184.90758 L 157.58573 185.55043 L 155.39568 183.29579 L 158.23169 180.03707 z M 146.51302 180.20192 L 148.83536 183.54073 L 146.36006 185.89666 L 145.15445 184.69105 L 146.08307 186.02637 L 146.06447 186.04136 L 143.62069 183.52472 L 146.51302 180.20192 z M 164.51812 180.2877 L 166.49681 183.13249 L 164.02151 185.48842 L 162.81642 184.28333 L 163.80085 185.69874 L 163.80034 185.69926 L 161.69504 183.53092 L 164.51812 180.2877 z M 134.23005 180.32956 L 136.4449 183.51438 L 134.0497 185.79383 L 131.63693 183.30871 L 134.23005 180.32956 z M 152.3044 180.3368 L 154.51925 183.52161 L 152.12456 185.80055 L 149.71179 183.31594 L 152.3044 180.3368 z M 172.64683 183.6844 L 175.32522 185.53958 L 172.18122 187.94512 L 170.14207 185.90597 L 170.57719 186.20776 L 169.91779 185.52873 L 172.64683 183.6844 z M 190.72118 183.69111 L 193.40008 185.54578 L 190.25557 187.95184 L 188.21745 185.9132 L 188.65153 186.21396 L 187.99214 185.53493 L 190.72118 183.69111 z M 166.96294 183.70403 L 169.17727 185.23779 L 169.48423 185.67911 L 166.49733 187.96475 L 164.14244 185.61038 L 166.96294 183.70403 z M 185.03728 183.71127 L 187.25317 185.24606 L 187.55909 185.68634 L 184.57168 187.97199 L 182.21678 185.61709 L 185.03728 183.71127 z M 178.94618 183.92107 L 181.62457 185.77574 L 178.48058 188.1818 L 176.12568 185.8269 L 178.94618 183.92107 z M 136.91051 184.0854 L 139.5889 185.94059 L 136.4449 188.34613 L 134.40575 186.30697 L 134.84087 186.60876 L 134.18147 185.92974 L 136.91051 184.0854 z M 154.98486 184.09212 L 157.66376 185.94679 L 154.51925 188.35284 L 152.48113 186.31421 L 152.91521 186.61497 L 152.25582 185.93594 L 154.98486 184.09212 z M 131.22662 184.10504 L 133.44095 185.6388 L 133.74791 186.08011 L 130.76101 188.36576 L 128.40612 186.01139 L 131.22662 184.10504 z M 149.30096 184.11228 L 151.51685 185.64707 L 151.82277 186.08735 L 148.83536 188.373 L 146.48046 186.0181 L 149.30096 184.11228 z M 143.20986 184.32208 L 145.88825 186.17675 L 142.74426 188.5828 L 140.38936 186.22791 L 143.20986 184.32208 z M 161.28473 184.32777 L 163.57451 185.91423 L 163.28874 186.18605 L 163.63187 185.95402 L 163.9626 186.18295 L 160.81912 188.58849 L 158.46423 186.23411 L 161.28473 184.32777 z M 175.37896 185.5773 L 175.70762 185.80468 L 175.78462 185.91527 L 175.27199 186.40309 L 175.85128 186.0119 L 178.06097 189.18845 L 175.47508 191.64928 L 172.63752 188.7275 L 175.37896 185.5773 z M 193.45382 185.5835 L 193.78042 185.80933 L 193.85845 185.9225 L 193.34634 186.40981 L 193.92511 186.0181 L 196.1348 189.19465 L 193.54891 191.65549 L 190.71187 188.7337 L 193.45382 185.5835 z M 181.82921 185.63983 L 181.8752 185.70598 L 181.869 185.71166 L 181.81474 185.65585 L 181.82921 185.63983 z M 169.55141 185.77626 L 171.76109 188.95229 L 169.36641 191.23174 L 166.95363 188.74714 L 169.5204 185.79693 L 169.55141 185.77626 z M 187.62627 185.78194 L 189.83596 188.95849 L 187.44076 191.23794 L 185.02798 188.75282 L 187.5963 185.8021 L 187.62627 185.78194 z M 181.67883 185.81243 L 181.72741 185.84602 L 181.36309 186.19329 L 181.80131 185.89718 L 182.20128 186.17417 L 184.15155 188.97813 L 181.55481 191.44981 L 180.81325 190.70826 L 181.26956 191.36455 L 178.9374 188.96263 L 181.67883 185.81243 z M 139.64264 185.97831 L 139.9713 186.20569 L 140.0483 186.31628 L 139.53567 186.8041 L 140.11496 186.41291 L 142.32465 189.58946 L 139.73876 192.05029 L 136.9012 189.12851 L 139.64264 185.97831 z M 157.7175 185.98451 L 158.0441 186.21034 L 158.12265 186.32351 L 157.61053 186.81082 L 158.18931 186.41911 L 160.39899 189.59566 L 157.81311 192.05649 L 154.97607 189.13471 L 157.7175 185.98451 z M 146.09289 186.04084 L 146.13888 186.10699 L 146.13268 186.11267 L 146.07842 186.05686 L 146.09289 186.04084 z M 133.81509 186.17727 L 136.02477 189.3533 L 133.63009 191.63275 L 131.21731 189.14814 L 133.78408 186.19794 L 133.81509 186.17727 z M 151.88995 186.18295 L 154.09964 189.3595 L 151.70444 191.63895 L 149.29166 189.15383 L 151.85998 186.2031 L 151.88995 186.18295 z M 145.94251 186.21344 L 145.99109 186.24703 L 145.62677 186.5943 L 146.06499 186.29819 L 146.46496 186.57517 L 148.41523 189.37914 L 145.81849 191.85082 L 145.07693 191.10927 L 145.53324 191.76556 L 143.20108 189.36364 L 145.94251 186.21344 z M 164.01686 186.21912 L 164.2985 186.41394 L 166.0772 188.97141 L 163.47994 191.44258 L 162.73839 190.70102 L 163.16782 191.31855 L 161.27543 189.36984 L 164.01686 186.21912 z M 172.22721 189.5228 L 175.16967 191.56092 L 175.3278 191.78829 L 174.85238 192.24098 L 175.05391 192.10455 L 172.10319 194.36281 L 169.68163 191.94074 L 169.80359 191.8007 L 170.15757 192.04564 L 169.49818 191.36661 L 172.22721 189.5228 z M 190.30156 189.529 L 193.24402 191.56712 L 193.40215 191.79501 L 192.92673 192.2477 L 193.13188 192.1092 L 190.17806 194.36901 L 187.75546 191.94694 L 187.87742 191.8069 L 188.23192 192.05236 L 187.57253 191.37333 L 190.30156 189.529 z M 166.54281 189.54244 L 168.64035 190.99506 L 169.02844 191.55265 L 168.55302 192.00533 L 169.09097 191.64205 L 169.40723 192.09628 L 166.4193 194.38245 L 163.58071 191.54386 L 166.54281 189.54244 z M 184.61715 189.54967 L 186.71522 191.00281 L 187.10279 191.55988 L 186.62737 192.01257 L 187.1648 191.64928 L 187.48106 192.10352 L 184.49365 194.38917 L 181.65558 191.5511 L 184.61715 189.54967 z M 178.52657 189.75896 L 181.3078 191.68546 L 180.94296 192.03221 L 181.38118 191.7361 L 181.66385 191.93195 L 181.74136 192.04409 L 178.40255 194.59897 L 175.80581 192.00223 L 175.84095 192.02652 L 175.57533 191.75264 L 178.52657 189.75896 z M 136.49089 189.92381 L 139.43335 191.96193 L 139.59148 192.1893 L 139.11606 192.64199 L 139.31759 192.50556 L 136.36687 194.76382 L 133.94531 192.34175 L 134.06727 192.2017 L 134.42125 192.44665 L 133.76186 191.76762 L 136.49089 189.92381 z M 154.56524 189.93001 L 157.5077 191.96813 L 157.66583 192.19602 L 157.19041 192.64871 L 157.39556 192.51021 L 154.44174 194.77002 L 152.01914 192.34795 L 152.1411 192.20791 L 152.4956 192.45337 L 151.83621 191.77434 L 154.56524 189.93001 z M 130.80649 189.94344 L 132.90403 191.39607 L 133.29212 191.95366 L 132.8167 192.40634 L 133.35465 192.04306 L 133.67091 192.49729 L 130.68298 194.78346 L 127.84439 191.94487 L 130.80649 189.94344 z M 148.88083 189.95016 L 150.9789 191.4033 L 151.36647 191.96038 L 150.89105 192.41306 L 151.42848 192.04978 L 151.74474 192.50401 L 148.75733 194.78966 L 145.91926 191.95159 L 148.88083 189.95016 z M 142.79025 190.15945 L 145.57148 192.08595 L 145.20664 192.4327 L 145.64486 192.13659 L 145.92753 192.33245 L 146.00556 192.44458 L 142.66674 194.99947 L 140.07 192.40273 L 140.10514 192.42753 L 139.83953 192.15365 L 142.79025 190.15945 z M 160.8646 190.16669 L 163.15438 191.75212 L 162.86861 192.02445 L 163.21226 191.79243 L 163.7621 192.17328 L 163.99878 192.51331 L 160.74109 195.0067 L 158.14435 192.40996 L 158.17949 192.43425 L 157.91388 192.16036 L 160.8646 190.16669 z M 168.95041 191.21003 L 169.20414 191.38573 L 169.16435 191.42397 L 168.95041 191.21003 z M 187.02631 191.2183 L 187.27849 191.39297 L 187.2387 191.43069 L 187.02631 191.2183 z M 169.33592 191.4772 L 169.79842 191.7976 L 169.65063 191.91077 L 169.26512 191.52474 L 169.33592 191.4772 z M 187.40975 191.48392 L 187.87225 191.80431 L 187.72498 191.91697 L 187.33947 191.53146 L 187.40975 191.48392 z M 133.21409 191.61104 L 133.46782 191.78674 L 133.42803 191.82498 L 133.21409 191.61104 z M 151.28999 191.61931 L 151.54217 191.79398 L 151.50238 191.83118 L 151.28999 191.61931 z M 133.5996 191.87769 L 134.0621 192.1986 L 133.91431 192.31178 L 133.5288 191.92575 L 133.5996 191.87769 z M 151.67343 191.88493 L 152.13593 192.20532 L 151.98866 192.31798 L 151.60315 191.93247 L 151.67343 191.88493 z M 175.3955 191.88648 L 177.98293 195.60615 L 175.50763 197.96208 L 174.30254 196.75698 L 174.75057 197.40139 L 172.56001 195.14519 L 175.3955 191.88648 z M 193.47036 191.89371 L 196.05728 195.61287 L 193.5825 197.96879 L 192.37689 196.76318 L 192.82544 197.40811 L 190.63436 195.15191 L 193.47036 191.89371 z M 181.7517 192.05804 L 184.07404 195.39686 L 181.59822 197.75227 L 180.39312 196.54718 L 181.32175 197.8825 L 181.30315 197.89748 L 178.85937 195.38084 L 181.7517 192.05804 z M 169.46873 192.18569 L 171.68358 195.3705 L 169.28837 197.64943 L 166.8756 195.16483 L 169.46873 192.18569 z M 187.54256 192.1924 L 189.75793 195.37722 L 187.36324 197.65615 L 184.95047 195.17155 L 187.54256 192.1924 z M 139.65918 192.28749 L 142.24661 196.00716 L 139.77131 198.36309 L 138.56622 197.15799 L 139.01425 197.8024 L 136.82369 195.5462 L 139.65918 192.28749 z M 157.73404 192.29472 L 160.32096 196.01388 L 157.84618 198.3698 L 156.64057 197.16419 L 157.08912 197.80911 L 154.89804 195.55292 L 157.73404 192.29472 z M 146.01538 192.45905 L 148.33772 195.79787 L 145.8619 198.15328 L 144.6568 196.94819 L 145.58543 198.2835 L 145.56683 198.29849 L 143.12305 195.78185 L 146.01538 192.45905 z M 164.01996 192.5438 L 165.99917 195.38911 L 163.52439 197.74504 L 162.31877 196.53942 L 163.30321 197.95484 L 163.30269 197.95536 L 161.1974 195.78753 L 164.01996 192.5438 z M 133.73241 192.58669 L 135.94726 195.77151 L 133.55205 198.05044 L 131.13928 195.56584 L 133.73241 192.58669 z M 151.80624 192.59341 L 154.02161 195.77823 L 151.62692 198.05716 L 149.21415 195.57256 L 151.80624 192.59341 z M 172.14918 195.94101 L 174.82757 197.7962 L 171.68358 200.20173 L 169.64443 198.16258 L 170.07954 198.46385 L 169.42015 197.78483 L 172.14918 195.94101 z M 190.22353 195.94825 L 192.90244 197.80343 L 189.75793 200.20897 L 187.71981 198.17033 L 188.15389 198.47109 L 187.4945 197.79206 L 190.22353 195.94825 z M 166.46529 195.96117 L 168.68014 197.49492 L 168.98658 197.93624 L 165.99969 200.22189 L 163.64479 197.86699 L 166.46529 195.96117 z M 184.53964 195.96788 L 186.75553 197.50267 L 187.06145 197.94296 L 184.07404 200.22861 L 181.71914 197.87371 L 184.53964 195.96788 z M 178.44854 196.17717 L 181.12693 198.03236 L 177.98293 200.43789 L 175.62804 198.083 L 178.44854 196.17717 z M 136.41286 196.34202 L 139.09125 198.1972 L 135.94726 200.60274 L 133.90811 198.56359 L 134.34322 198.86486 L 133.68383 198.18584 L 136.41286 196.34202 z M 154.48721 196.34926 L 157.16612 198.20444 L 154.02161 200.60998 L 151.98349 198.57134 L 152.41757 198.8721 L 151.75818 198.19307 L 154.48721 196.34926 z M 130.72897 196.36217 L 132.94382 197.89593 L 133.25026 198.33725 L 130.26337 200.6229 L 127.90847 198.268 L 130.72897 196.36217 z M 148.80332 196.36889 L 151.01921 197.90368 L 151.32513 198.34397 L 148.33772 200.62961 L 145.98282 198.27472 L 148.80332 196.36889 z M 142.71222 196.57818 L 145.39061 198.43337 L 142.24661 200.8389 L 139.89172 198.48401 L 142.71222 196.57818 z M 160.78708 196.58542 L 163.07635 198.17085 L 162.7911 198.44267 L 163.13423 198.21116 L 163.46547 198.4406 L 160.32148 200.84614 L 157.96659 198.49124 L 160.78708 196.58542 z M 174.88183 197.83444 L 175.20843 198.06078 L 175.28646 198.17292 L 174.77383 198.66074 L 175.35312 198.26903 L 177.56281 201.4461 L 175.11644 203.77413 L 174.13614 202.79434 L 174.74127 203.66405 L 172.13936 200.98463 L 174.88183 197.83444 z M 192.95618 197.84115 L 193.28381 198.06801 L 193.36132 198.17963 L 192.84921 198.66694 L 193.42799 198.27575 L 195.63767 201.4523 L 193.19131 203.78084 L 192.21101 202.80054 L 192.81614 203.67026 L 190.21475 200.99135 L 192.95618 197.84115 z M 181.33157 197.89748 L 181.37756 197.96363 L 181.37136 197.96983 L 181.3171 197.91402 L 181.33157 197.89748 z M 169.05428 198.03339 L 171.26345 201.20994 L 168.86876 203.48939 L 166.45599 201.00427 L 169.02327 198.05458 L 169.05428 198.03339 z M 187.12863 198.04062 L 189.33831 201.21718 L 186.94311 203.49662 L 184.53034 201.0115 L 187.09866 198.06078 L 187.12863 198.04062 z M 181.18119 198.07111 L 181.22976 198.1047 L 180.86545 198.45145 L 181.30315 198.15535 L 181.70312 198.43233 L 183.65391 201.23681 L 181.20754 203.56535 L 180.22724 202.58505 L 181.02771 203.73588 L 180.95175 203.80823 L 178.43975 201.22131 L 181.18119 198.07111 z M 139.14551 198.23545 L 139.47211 198.46179 L 139.55066 198.57393 L 139.03802 199.06175 L 139.61732 198.67004 L 141.827 201.84711 L 139.38064 204.17513 L 138.40034 203.19535 L 139.00547 204.06506 L 136.40356 201.38564 L 139.14551 198.23545 z M 157.21986 198.24216 L 157.54749 198.46902 L 157.625 198.58064 L 157.11289 199.06795 L 157.69167 198.67676 L 159.90135 201.85331 L 157.45499 204.18185 L 156.47469 203.20155 L 157.07982 204.07126 L 154.47843 201.39236 L 157.21986 198.24216 z M 145.59525 198.29849 L 145.64124 198.36464 L 145.63504 198.37084 L 145.58078 198.31503 L 145.59525 198.29849 z M 133.31796 198.4344 L 135.52713 201.61095 L 133.13244 203.8904 L 130.71967 201.40528 L 133.28695 198.45559 L 133.31796 198.4344 z M 151.39231 198.44163 L 153.60199 201.61818 L 151.20679 203.89763 L 148.79402 201.41251 L 151.36234 198.46179 L 151.39231 198.44163 z M 145.44487 198.47212 L 145.49344 198.50571 L 145.12913 198.85246 L 145.56683 198.55636 L 145.9668 198.83334 L 147.91759 201.63782 L 145.47122 203.96636 L 144.49092 202.98606 L 145.29139 204.13689 L 145.21543 204.20924 L 142.70343 201.62232 L 145.44487 198.47212 z M 163.51922 198.47574 L 163.80137 198.67108 L 165.57956 201.22751 L 163.13319 203.55605 L 162.15289 202.57575 L 162.95336 203.72658 L 162.88256 203.79376 L 160.77778 201.62594 L 163.51922 198.47574 z M 171.72957 201.78097 L 174.67668 203.8227 L 171.5177 206.23961 L 169.4093 204.13069 L 169.65993 204.30433 L 169.13903 203.76792 L 169.23722 203.65527 L 169.11836 203.74622 L 169.00054 203.6253 L 171.72957 201.78097 z M 189.80392 201.78768 L 192.75154 203.8289 L 189.59256 206.24633 L 187.48365 204.13741 L 187.73428 204.31104 L 187.21338 203.77464 L 187.31156 203.66199 L 187.19271 203.75294 L 187.07489 203.63201 L 189.80392 201.78768 z M 166.04516 201.80112 L 168.48584 203.49094 L 168.63777 203.70953 L 168.05538 204.26402 L 168.71373 203.81908 L 168.82122 203.9736 L 165.83381 206.25924 L 163.25877 203.68421 L 166.04516 201.80112 z M 184.11951 201.80732 L 186.56019 203.49766 L 186.71212 203.71625 L 186.12972 204.27074 L 186.78808 203.8258 L 186.89557 203.98031 L 183.90815 206.26596 L 181.3326 203.69041 L 184.11951 201.80732 z M 178.02893 202.01713 L 180.81015 203.94311 L 180.44532 204.29037 L 180.88353 203.99427 L 180.97603 204.05835 L 177.81757 206.47525 L 175.24202 203.90022 L 178.02893 202.01713 z M 135.99325 202.18197 L 138.94036 204.22371 L 135.78138 206.64062 L 133.67298 204.5317 L 133.92361 204.70533 L 133.40271 204.16893 L 133.5009 204.05628 L 133.38204 204.14723 L 133.26422 204.02631 L 135.99325 202.18197 z M 154.0676 202.18869 L 157.01522 204.22991 L 153.85624 206.64733 L 151.74733 204.53842 L 151.99796 204.71205 L 151.47706 204.17565 L 151.57524 204.063 L 151.45639 204.15395 L 151.33857 204.03302 L 154.0676 202.18869 z M 130.30884 202.20213 L 132.74952 203.89195 L 132.90145 204.11054 L 132.31906 204.66503 L 132.97741 204.22009 L 133.0849 204.37461 L 130.09749 206.66025 L 127.52245 204.08522 L 130.30884 202.20213 z M 148.38319 202.20833 L 150.82387 203.89867 L 150.9758 204.11726 L 150.3934 204.67174 L 151.05176 204.22681 L 151.15925 204.38132 L 148.17183 206.66697 L 145.59628 204.09142 L 148.38319 202.20833 z M 142.29261 202.41814 L 145.07383 204.34412 L 144.709 204.69138 L 145.14721 204.39528 L 145.23971 204.45935 L 142.08125 206.87626 L 139.5057 204.30122 L 142.29261 202.41814 z M 160.36696 202.42382 L 162.65622 204.00925 L 162.37097 204.28107 L 162.71358 204.04956 L 163.31458 204.46556 L 160.1556 206.88246 L 157.58005 204.30691 L 160.36696 202.42382 z M 163.02933 203.83614 L 163.29701 204.22113 L 162.96525 203.87955 L 163.02933 203.83614 z M 181.10367 203.84544 L 181.15638 203.92089 L 181.10109 203.96223 L 181.03339 203.89246 L 181.10367 203.84544 z M 174.72784 203.85784 L 174.90199 203.97876 L 174.35473 204.49966 L 175.01257 204.05524 L 175.01412 204.05576 L 177.39744 207.48294 L 174.92214 209.83835 L 173.71705 208.63274 L 174.16611 209.27922 L 171.97452 207.02147 L 174.72784 203.85784 z M 192.80219 203.86353 L 192.97685 203.98445 L 192.42908 204.50586 L 193.08692 204.06093 L 193.08847 204.06196 L 195.47179 207.48863 L 192.99649 209.84456 L 191.79139 208.63946 L 192.2384 209.28232 L 190.04886 207.02767 L 192.80219 203.86353 z M 181.16569 203.93432 L 181.39616 204.26557 L 181.12279 203.98341 L 181.16569 203.93432 z M 168.88271 204.06196 L 171.09808 207.24626 L 168.70288 209.52571 L 166.29011 207.04059 L 168.88271 204.06196 z M 186.95706 204.0692 L 189.17243 207.2535 L 186.77723 209.53295 L 184.36497 207.04783 L 186.95706 204.0692 z M 181.02719 204.094 L 181.50778 204.4268 L 183.48802 207.27314 L 181.01272 209.62906 L 179.80763 208.42397 L 180.73625 209.75929 L 180.71765 209.77376 L 178.27387 207.25763 L 181.02719 204.094 z M 145.36735 204.24593 L 145.42006 204.3219 L 145.36529 204.36324 L 145.29759 204.29296 L 145.36735 204.24593 z M 138.99152 204.25833 L 139.16567 204.37926 L 138.61841 204.90015 L 139.27625 204.45574 L 139.27832 204.45677 L 141.66164 207.88344 L 139.18634 210.23885 L 137.98124 209.03375 L 138.43031 209.67971 L 136.23871 207.42196 L 138.99152 204.25833 z M 157.06587 204.26453 L 157.24053 204.38546 L 156.69276 204.90687 L 157.3506 204.46194 L 157.35267 204.46297 L 159.73599 207.88964 L 157.26069 210.24556 L 156.05559 209.04047 L 156.50259 209.68333 L 154.31306 207.42868 L 157.06587 204.26453 z M 145.42937 204.33533 L 145.65984 204.66658 L 145.38647 204.38442 L 145.42937 204.33533 z M 133.14639 204.46297 L 135.36176 207.64727 L 132.96656 209.92672 L 130.55379 207.4416 L 133.14639 204.46297 z M 151.22074 204.47021 L 153.43611 207.65451 L 151.04091 209.93396 L 148.62865 207.44884 L 151.22074 204.47021 z M 145.29087 204.49501 L 145.77146 204.82781 L 147.7517 207.67415 L 145.2764 210.03007 L 144.07131 208.82498 L 144.99993 210.1603 L 144.98133 210.17477 L 142.53755 207.65864 L 145.29087 204.49501 z M 163.36522 204.49863 L 163.60655 204.66554 L 165.41368 207.26383 L 162.93837 209.61976 L 161.73328 208.41467 L 162.71772 209.83009 L 162.7172 209.8306 L 160.6119 207.66226 L 163.36522 204.49863 z M 171.56369 207.81781 L 174.24208 209.67247 L 171.09808 212.07801 L 169.05945 210.03989 L 169.49405 210.34065 L 168.83466 209.66162 L 171.56369 207.81781 z M 189.63804 207.82349 L 192.31694 209.67816 L 189.17243 212.08421 L 187.1338 210.04558 L 187.5684 210.34685 L 186.909 209.66782 L 189.63804 207.82349 z M 165.8798 207.83693 L 168.09413 209.37068 L 168.40109 209.81148 L 165.41368 212.09765 L 163.0593 209.74275 L 165.8798 207.83693 z M 183.95415 207.84313 L 186.169 209.37688 L 186.47544 209.81872 L 183.48854 212.10385 L 181.13365 209.74947 L 183.95415 207.84313 z M 177.86305 208.05293 L 180.54195 209.9076 L 177.39744 212.31366 L 175.04255 209.95876 L 177.86305 208.05293 z M 135.82737 208.21882 L 138.50576 210.07348 L 135.36176 212.47902 L 133.32313 210.4409 L 133.75773 210.74166 L 133.09834 210.06263 L 135.82737 208.21882 z M 153.90172 208.2245 L 156.58062 210.07917 L 153.43611 212.48522 L 151.39748 210.44659 L 151.83208 210.74786 L 151.17268 210.06883 L 153.90172 208.2245 z M 130.14348 208.23794 L 132.35781 209.77169 L 132.66477 210.21249 L 129.67736 212.49866 L 127.32298 210.14376 L 130.14348 208.23794 z M 148.21783 208.24414 L 150.43268 209.77789 L 150.73912 210.21973 L 147.75222 212.50486 L 145.39733 210.15048 L 148.21783 208.24414 z M 142.12673 208.45394 L 144.80563 210.30861 L 141.66112 212.71466 L 139.30623 210.35977 L 142.12673 208.45394 z M 160.20159 208.46066 L 162.49086 210.04609 L 162.2056 210.3174 L 162.54822 210.08588 L 162.87946 210.31533 L 159.73547 212.72087 L 157.38109 210.36649 L 160.20159 208.46066 z M 174.29582 209.70968 L 174.62448 209.93706 L 174.70148 210.04764 L 174.18885 210.53547 L 174.76814 210.14428 L 176.97783 213.32083 L 174.58211 215.60079 L 173.8576 214.87629 L 174.4493 215.7274 L 174.39142 215.78166 L 171.55387 212.85988 L 174.29582 209.70968 z M 192.37069 209.71588 L 192.69728 209.94171 L 192.77583 210.05488 L 192.26372 210.54219 L 192.84249 210.151 L 195.05218 213.32755 L 192.65646 215.60751 L 191.93195 214.88301 L 192.52365 215.7336 L 192.46629 215.78838 L 189.62874 212.86608 L 192.37069 209.71588 z M 180.74607 209.77273 L 180.79207 209.83887 L 180.78586 209.84352 L 180.7316 209.78823 L 180.74607 209.77273 z M 168.46879 209.90863 L 170.67795 213.08518 L 168.28327 215.36412 L 165.8705 212.87951 L 168.43675 209.93034 L 168.46879 209.90863 z M 186.54314 209.91484 L 188.7523 213.09139 L 186.35762 215.37032 L 183.94484 212.88571 L 186.51316 209.93447 L 186.54314 209.91484 z M 180.59621 209.94532 L 180.64479 209.97891 L 180.27995 210.32618 L 180.71817 210.03007 L 181.11814 210.30706 L 183.06841 213.11102 L 180.67269 215.39099 L 179.94871 214.667 L 180.53988 215.51708 L 180.36625 215.68244 L 177.85426 213.09552 L 180.59621 209.94532 z M 145.00975 210.17373 L 145.05575 210.23988 L 145.04954 210.24453 L 144.99528 210.18872 L 145.00975 210.17373 z M 132.73247 210.30964 L 134.94163 213.48619 L 130.13418 213.28052 L 132.70043 210.33135 L 132.73247 210.30964 z M 150.80682 210.31533 L 153.01598 213.49188 L 148.20852 213.28672 L 150.77684 210.33548 L 150.80682 210.31533 z M 183.53402 213.68256 L 186.19535 215.52535 L 185.71838 215.97958 L 180.80653 215.52586 L 183.53402 213.68256 z M 174.53818 215.85504 L 174.49994 215.88088 L 174.49426 215.8876 L 174.72887 216.12944 L 174.53818 215.85504 z M 174.4462 215.94392 L 174.74231 216.14856 L 174.4462 215.94392 z M 180.79413 216.12428 L 180.74607 216.17957 L 181.05768 216.39558 L 180.79413 216.12428 z " />
    <path
       id="path3"
       style="fill:#000000;stroke-width:1;stroke-linecap:round;stroke-linejoin:round"
       d="M 132.86579 178.02634 L 131.91133 179.67896 L 196.89237 179.67896 L 196.89237 178.02634 L 132.86579 178.02634 z " />
    <path
       style="fill:#000000;stroke-width:0.615749;stroke-linecap:round;stroke-linejoin:round"
       d="m 72.313742,68.171929 1.256883,-1.873899 3.71819,-0.0742 5.59192,0.787367 -5.113306,1.433776 z"
       id="path7" />
    <path
       style="fill:#000000;stroke-width:0.615749;stroke-linecap:round;stroke-linejoin:round"
       d="m 111.20818,74.763799 1.25688,-1.873899 3.71819,-0.0742 5.59192,0.787367 -5.1133,1.433776 z"
       id="path7-3" />
    <path
       style="fill:#ffffff;stroke-width:0.553339;stroke-linecap:round;stroke-linejoin:round"
       d="m 26.852087,135.74337 1.12949,-1.68397 3.341331,-0.0667 5.025146,0.70757 -4.595043,1.28845 z"
       id="path7-9" />
    <path
       style="fill:#ffffff;stroke-width:0.553339;stroke-linecap:round;stroke-linejoin:round"
       d="m 100.47839,153.65348 1.12949,-1.68397 3.34133,-0.0667 5.02515,0.70757 -4.59504,1.28845 z"
       id="path7-9-4" />
    <path
       style="fill:#000000;stroke-width:0.599897;stroke-linecap:round;stroke-linejoin:round"
       d="m 42.647072,78.302406 3.012757,-1.739648 4.431175,0.597737 -1.116452,1.644057 -3.647911,1.199613 z"
       id="path8" />
    <path
       style="fill:#ffffff;stroke-width:0.599897;stroke-linecap:round;stroke-linejoin:round"
       d="m 90.090128,116.11358 3.012757,-1.73965 4.431175,0.59774 -1.116452,1.64405 -3.647911,1.19962 z"
       id="path8-6" />
    <path
       style="fill:#ffffff;stroke-width:0.604622;stroke-linecap:round;stroke-linejoin:round"
       d="m 57.68383,104.31331 3.036487,-1.75335 4.466079,0.60244 -1.125245,1.65701 -3.676646,1.20906 z"
       id="path8-7" />
    <path
       style="fill:#ffffff;stroke-width:0.604622;stroke-linecap:round;stroke-linejoin:round"
       d="m 112.83291,108.98091 3.03648,-1.75335 4.46608,0.60244 -1.12524,1.65701 -3.67665,1.20906 z"
       id="path8-7-0" />
    <path
       style="fill:#000000;stroke-width:0.475371;stroke-linecap:round;stroke-linejoin:round"
       d="m 130.11749,99.84728 2.92203,1.09674 3.32129,2.86289 -1.92963,0.0668 -3.54703,-0.60681 -1.4654,-2.78951 z"
       id="path9" />
    <path
       style="fill:#ffffff;stroke-width:0.475371;stroke-linecap:round;stroke-linejoin:round"
       d="m 153.18401,150.59935 2.92203,1.09674 3.32129,2.86289 -1.92963,0.0668 -3.54703,-0.60681 -1.4654,-2.7895 z"
       id="path9-7" />
    <path
       style="fill:#000000;stroke-width:0.554443;stroke-linecap:round;stroke-linejoin:round"
       d="m 186.66006,126.91803 5.15398,1.69082 -2.23006,1.05818 h -4.49172 l -2.64463,-2.17641 z"
       id="path10" />
    <path
       style="fill:#000000;stroke-width:0.576393;stroke-linecap:round;stroke-linejoin:round"
       d="m 169.69446,187.24949 5.35803,1.75776 -2.31835,1.10007 h -4.66954 l -2.74934,-2.26257 z"
       id="path10-2" />
    <path
       style="fill:#000000;stroke-width:0.610848;stroke-linecap:round;stroke-linejoin:round"
       d="m 187.02788,171.7485 5.67831,1.86283 -2.45693,1.16583 h -4.94868 l -2.91368,-2.39782 z"
       id="path10-4" />
    <path
       style="fill:#000000;stroke-width:0.406068;stroke-linecap:round;stroke-linejoin:round"
       d="m 158.28252,114.43605 3.67657,0.52396 -2.32727,1.22523 -4.36216,0.10984 -1.93443,-1.20943 z"
       id="path12" />
    <path
       style="fill:#000000;stroke-width:0.680377;stroke-linecap:round;stroke-linejoin:round"
       d="m 172.50833,210.72928 3.41693,-1.97303 5.02565,0.67792 -1.26623,1.86462 -4.1373,1.36054 z"
       id="path8-7-0-8-1" />
    <path
       style="fill:#ffffff;stroke-width:0.680377;stroke-linecap:round;stroke-linejoin:round"
       d="m 127.55482,210.83148 3.41693,-1.97303 5.02565,0.67792 -1.26623,1.86462 -4.1373,1.36054 z"
       id="path8-7-0-8-1-7" />
  </g>
</svg>
