<?xml version="1.0" encoding="UTF-8" standalone="no"?>
<!-- Created with Inkscape (http://www.inkscape.org/) -->

<svg
   width="210mm"
   height="297mm"
   viewBox="0 0 210 297"
   version="1.1"
   id="svg1"
   inkscape:version="1.3.2 (091e20ef0f, 2023-11-25)"
   sodipodi:docname="the-ending-drama.svg"
   xmlns:inkscape="http://www.inkscape.org/namespaces/inkscape"
   xmlns:sodipodi="http://sodipodi.sourceforge.net/DTD/sodipodi-0.dtd"
   xmlns="http://www.w3.org/2000/svg"
   xmlns:svg="http://www.w3.org/2000/svg">
  <sodipodi:namedview
     id="namedview1"
     pagecolor="#505050"
     bordercolor="#eeeeee"
     borderopacity="1"
     inkscape:showpageshadow="0"
     inkscape:pageopacity="0"
     inkscape:pagecheckerboard="0"
     inkscape:deskcolor="#d1d1d1"
     inkscape:document-units="mm"
     inkscape:zoom="0.48907828"
     inkscape:cx="456.98206"
     inkscape:cy="405.8655"
     inkscape:window-width="1366"
     inkscape:window-height="743"
     inkscape:window-x="0"
     inkscape:window-y="25"
     inkscape:window-maximized="1"
     inkscape:current-layer="layer1" />
  <defs
     id="defs1">
    <inkscape:path-effect
       effect="mirror_symmetry"
       start_point="101.16364,83.767404"
       end_point="101.16364,95.479084"
       center_point="101.16364,89.623244"
       id="path-effect6"
       is_visible="true"
       lpeversion="1.2"
       lpesatellites=""
       mode="free"
       discard_orig_path="false"
       fuse_paths="true"
       oposite_fuse="false"
       split_items="false"
       split_open="false"
       link_styles="false" />
    <inkscape:path-effect
       effect="mirror_symmetry"
       start_point="101.71277,153.0954"
       end_point="101.71277,157.055"
       center_point="101.71277,155.0752"
       id="path-effect5"
       is_visible="true"
       lpeversion="1.2"
       lpesatellites=""
       mode="free"
       discard_orig_path="false"
       fuse_paths="true"
       oposite_fuse="false"
       split_items="false"
       split_open="false"
       link_styles="false" />
    <inkscape:path-effect
       effect="mirror_symmetry"
       start_point="109.30237,46.321201"
       end_point="109.30237,227.9003"
       center_point="109.30237,137.11075"
       id="path-effect4"
       is_visible="true"
       lpeversion="1.2"
       lpesatellites=""
       mode="free"
       discard_orig_path="false"
       fuse_paths="true"
       oposite_fuse="false"
       split_items="false"
       split_open="false"
       link_styles="false" />
  </defs>
  <g
     inkscape:label="Layer 1"
     inkscape:groupmode="layer"
     id="layer1">
    <rect
       style="fill:#000000;stroke-width:0.463753;stroke-linecap:round;stroke-linejoin:round"
       id="rect1-9"
       width="193.06715"
       height="183.59685"
       x="7.0530643"
       y="45.253487" />
    <rect
       style="fill:#ffffff;stroke-width:0.433932;stroke-linecap:round;stroke-linejoin:round"
       id="rect1"
       width="176.16615"
       height="176.16615"
       x="23.98443"
       y="45.257011" />
    <path
       id="path1"
       style="fill:#000000;stroke-width:0.277436;stroke-linecap:round;stroke-linejoin:round"
       d="m 42.400399,83.679972 -13.71813,41.060858 12.620316,21.45755 7.19832,19.33973 -26.364244,7.10216 -11.424838,55.39457 65.890572,0.014 65.890585,-0.014 -11.42484,-55.39457 -25.11858,-6.8035 11.87385,-46.98002 -5.7938,-31.960632 -34.41554,-17.345899 z m 6.738671,37.545438 7.517696,1.9127 13.654778,4.41333 3.26875,-4.01411 3.975791,0.36441 2.924325,-0.22715 3.467773,3.78623 12.968793,-3.9064 7.147274,-2.32901 -5.498325,18.15689 -7.285496,11.07533 -14.678034,6.71911 -14.678032,-6.71911 -7.286978,-11.07533 z m 19.467129,34.14592 7.996196,4.23477 9.748894,-3.3964 2.942733,17.0264 -12.691627,16.85081 -12.69162,-16.85081 z m 3.598794,-20.84392 4.397402,5.04924 3.974012,-4.72784 -3.974012,1.8842 z"
       sodipodi:nodetypes="ccccccccccccccccccccccccccccccccccccccccc" />
    <path
       style="fill:#ffffff;stroke-width:0.543135;stroke-linecap:round;stroke-linejoin:round"
       d="m 115.88314,208.02785 2.72768,-1.57504 4.0119,0.54117 -1.01081,1.4885 -3.30275,1.0861 z"
       id="path8-7-0-8" />
    <path
       style="fill:#000000;stroke-width:0.751242;stroke-linecap:round;stroke-linejoin:round"
       d="m 151.63203,211.27651 3.77282,-2.17853 5.54909,0.74853 -1.39811,2.05883 -4.56822,1.50225 z"
       id="path8-7-0-8-4" />
    <path
       style="fill:#ffffff;stroke-width:0.566107;stroke-linecap:round;stroke-linejoin:round"
       d="m 24.091203,196.50387 2.843052,-1.64165 4.181585,0.56405 -1.053565,1.55146 -3.442435,1.13203 z"
       id="path8-7-0-8-2" />
    <path
       style="fill:#000000;fill-opacity:1;stroke-width:0.463766;stroke-linecap:round;stroke-linejoin:round"
       d="m 74.358903,143.04384 -4.877006,2.82571 6.5411,3.0365 0.698356,-0.0507 0.698367,0.0507 6.541093,-3.0365 -4.879317,-2.82571 -2.360143,0.90809 z"
       id="path4"
       sodipodi:nodetypes="ccccccccc" />
    <path
       style="fill:#ffffff;fill-opacity:1;stroke-width:0.463766;stroke-linecap:round;stroke-linejoin:round"
       d="m 69.592428,145.77492 7.089374,-0.2281 7.283693,0.36234 -7.284704,0.47277 z"
       id="path6"
       sodipodi:nodetypes="ccccc" />
    <path
       style="fill:#000000;fill-opacity:1;stroke:#ffffff;stroke-width:1.18007;stroke-linecap:round;stroke-linejoin:round;stroke-dasharray:none"
       d="m 45.841467,161.0819 -16.718969,8.45656 47.378587,20.94805 -13.221127,-19.35632 -15.939424,-5.28276 z"
       id="path11"
       sodipodi:nodetypes="cccccc" />
    <path
       style="fill:#000000;fill-opacity:1;stroke:#ffffff;stroke-width:1.18007;stroke-linecap:round;stroke-linejoin:round;stroke-dasharray:none"
       d="m 107.14083,161.14617 16.71898,8.45655 -47.378588,20.94805 13.221121,-19.35632 15.939427,-5.28276 z"
       id="path11-3"
       sodipodi:nodetypes="cccccc" />
    <path
       style="fill:#ffffff;fill-opacity:1;stroke:none;stroke-width:1.18007;stroke-linecap:round;stroke-linejoin:round;stroke-dasharray:none"
       d="m 119.6215,167.57001 -40.340395,19.8088 2.235473,-3.38623 35.709822,-17.42644 z"
       id="path13" />
    <path
       style="fill:#ffffff;fill-opacity:1;stroke:none;stroke-width:1.20744;stroke-linecap:round;stroke-linejoin:round;stroke-dasharray:none"
       d="m 32.771107,167.9945 41.657877,20.08233 -2.30849,-3.43298 -36.876058,-17.66707 z"
       id="path13-7" />
    <path
       style="fill:#ffffff;fill-opacity:1;stroke:none;stroke-width:1.18007;stroke-linecap:round;stroke-linejoin:round;stroke-dasharray:none"
       d="m 111.28497,179.70827 -30.53769,19.40014 -10.185498,0.28278 -30.3563,-21.17141 -0.20946,-1.27982 36.927579,15.86589 34.574419,-15.02359 z"
       id="path14"
       sodipodi:nodetypes="cccccccc" />
    <path
       style="fill:#ffffff;fill-opacity:1;stroke:none;stroke-width:1.37288;stroke-linecap:round;stroke-linejoin:round;stroke-dasharray:none"
       d="m 75.804341,200.61347 4.303202,0.94966 0.350647,2.92536 h -9.812216 l -0.149802,-3.22838 z"
       id="path15" />
    <path
       style="fill:#ffffff;fill-opacity:1;stroke:none;stroke-width:1.18007;stroke-linecap:round;stroke-linejoin:round;stroke-dasharray:none"
       d="m 80.538937,206.21948 -4.088157,6.46541 -12.127224,12.55551 2.548237,-10.79676 3.422789,-8.0531 z"
       id="path16"
       sodipodi:nodetypes="cccccc" />
    <path
       style="fill:#ffffff;fill-opacity:1;stroke:none;stroke-width:1.18007;stroke-linecap:round;stroke-linejoin:round;stroke-dasharray:none"
       d="m 81.132299,208.02672 -2.871555,4.84717 7.31282,10.72469 0.217463,-7.37711 z"
       id="path17" />
    <path
       style="fill:#ffffff;fill-opacity:1;stroke:none;stroke-width:1.18007;stroke-linecap:round;stroke-linejoin:round;stroke-dasharray:none"
       d="m 130.3923,172.67179 -7.65943,12.84128 8.61706,-10.88743 -0.0309,-1.79793 z"
       id="path18" />
    <path
       style="fill:#ffffff;fill-opacity:1;stroke:none;stroke-width:1.18007;stroke-linecap:round;stroke-linejoin:round;stroke-dasharray:none"
       d="m 22.261773,172.6197 9.740571,11.46056 -10.957282,-9.71563 z"
       id="path19" />
    <path
       style="fill:#ffffff;fill-opacity:1;stroke:none;stroke-width:0.635056;stroke-linecap:round;stroke-linejoin:round;stroke-dasharray:none"
       d="m 97.323471,83.772798 -7.828173,-2.304555 -6.247635,1.83925 -2.969193,-2.471774 -3.142206,2.445502 -4.011738,-2.703052 -2.691406,2.360591 -5.414258,-2.168308 -8.669341,3.218087 11.545854,-7.097281 2.725504,2.31086 2.471069,-2.291394 3.332729,2.164933 4.90632,-2.468057 2.140305,2.955589 4.12358,-2.170099 z"
       id="path20"
       sodipodi:nodetypes="ccccccccccccccccc" />
    <path
       style="fill:#ffffff;fill-opacity:1;stroke:none;stroke-width:1.18007;stroke-linecap:round;stroke-linejoin:round;stroke-dasharray:none"
       d="m 105.43033,121.43893 2.9713,-0.24237 -0.8177,7.24807 -4.60114,6.4628 -2.45217,1.04911 z"
       id="path21"
       sodipodi:nodetypes="cccccc" />
    <path
       style="fill:#000000;fill-opacity:1;stroke:none;stroke-width:1.10416;stroke-linecap:round;stroke-linejoin:round;stroke-dasharray:none"
       d="m 28.739802,124.6632 10.346608,14.69857 27.919102,16.93561 30.484035,12.33339 43.076883,5.91295 27.52062,5.25821 -85.074471,4.17176 -20.777078,-10.36719 -21.90645,-10.07096 -8.564655,-9.08068 z"
       id="path23"
       sodipodi:nodetypes="ccccccccccc" />
    <path
       style="fill:#000000;fill-opacity:1;stroke:none;stroke-width:1.10416;stroke-linecap:round;stroke-linejoin:round;stroke-dasharray:none"
       d="m 53.725299,135.74556 4.303355,4.5403 5.069611,1.76102 4.358452,0.3595 -3.800924,0.0474 -5.30536,-1.56257 -5.000868,-3.70565 z"
       id="path27" />
    <path
       style="fill:#000000;fill-opacity:1;stroke:none;stroke-width:1.10416;stroke-linecap:round;stroke-linejoin:round;stroke-dasharray:none"
       d="m 50.470377,122.02164 5.052386,4.19412 6.955078,1.67218 -7.484248,-1.20924 -5.017066,-4.06932 -1.346248,-1.66722 z"
       id="path29" />
    <path
       style="fill:#000000;fill-opacity:1;stroke:none;stroke-width:1.10416;stroke-linecap:round;stroke-linejoin:round;stroke-dasharray:none"
       d="m 31.739307,144.03204 -1.138447,10.65208 2.192475,4.40961 7.68281,6.24379 -7.956549,-5.8892 -2.6595,-5.55204 2.280339,-13.29261 z"
       id="path33" />
    <path
       style="fill:#000000;fill-opacity:1;stroke:none;stroke-width:1.10416;stroke-linecap:round;stroke-linejoin:round;stroke-dasharray:none"
       d="m 38.732372,98.731829 -6.148768,9.920071 0.219769,9.65801 -1.295786,-9.85402 8.493651,-11.993972 z"
       id="path34" />
    <path
       style="fill:#000000;fill-opacity:1;stroke:none;stroke-width:1.10416;stroke-linecap:round;stroke-linejoin:round;stroke-dasharray:none"
       d="m 126.49778,121.81407 18.98116,2.89722 14.48268,-0.44975 -14.88882,1.02513 -18.43949,-2.67217 z"
       id="path35" />
    <path
       style="fill:#000000;fill-opacity:1;stroke:none;stroke-width:1.10416;stroke-linecap:round;stroke-linejoin:round;stroke-dasharray:none"
       d="m 56.402409,117.75521 3.439509,1.81848 -3.309289,-2.03858 z"
       id="path36" />
    <path
       style="fill:#000000;fill-opacity:1;stroke:none;stroke-width:1.10416;stroke-linecap:round;stroke-linejoin:round;stroke-dasharray:none"
       d="m 60.591216,118.50375 2.414031,2.11891 -1.98092,-2.07492 z"
       id="path37" />
    <path
       style="fill:#000000;fill-opacity:1;stroke:none;stroke-width:1.10416;stroke-linecap:round;stroke-linejoin:round;stroke-dasharray:none"
       d="M 76.982096,70.49728 89.072121,71.208255 77.893086,71.102664 Z"
       id="path38" />
    <path
       style="fill:#000000;fill-opacity:1;stroke:none;stroke-width:1.10416;stroke-linecap:round;stroke-linejoin:round;stroke-dasharray:none"
       d="m 85.706322,73.150493 12.69582,-0.0715 -12.682907,0.658593 z"
       id="path39" />
    <path
       id="path2"
       style="fill:#000000;stroke-width:1.10416;stroke-linecap:round;stroke-linejoin:round"
       d="m 169.38231,182.73397 1.0864,1.56227 -3.29857,2.52371 -4.0643,-4.0643 1.39167,2.00105 -3.59698,2.75194 -4.06431,-4.06429 0.72237,1.03847 -3.61354,2.76564 -2.67434,-2.67435 0.15577,-0.17916 -0.19001,0.14493 -1.35571,-1.35572 1.0864,1.56227 -3.29858,2.5237 -4.06372,-4.06429 1.02534,1.4744 -3.68656,2.82098 -4.0643,-4.06429 0.72236,1.03904 -3.61411,2.76507 -2.67376,-2.67434 0.15576,-0.17917 -0.19,0.1455 -1.35572,-1.35629 1.0864,1.56227 -3.29857,2.52372 -4.0643,-4.06431 3.60041,5.17638 -2.73312,2.60131 -1.3306,-1.33062 1.08696,1.56285 -0.56545,0.53806 0.63906,-0.43193 2.43983,3.5074 -2.86777,2.72856 -0.81879,-0.8188 0.66872,0.96144 -0.52494,0.49983 0.59342,-0.40112 2.86321,4.11623 -2.73255,2.6013 -1.33119,-1.33118 1.08698,1.56284 -0.56545,0.53864 0.63962,-0.43193 2.43927,3.50683 -2.70117,2.57107 -1.0824,-1.08241 0.88384,1.2707 -0.64305,0.61224 0.72693,-0.49127 2.63269,3.7847 -2.73312,2.60131 -1.33061,-1.3306 1.08698,1.56284 -0.56546,0.53806 0.63906,-0.43194 2.43983,3.50741 10.3887,-0.001 -3.14508,-0.26704 3.02696,-3.4783 0.3629,0.25107 0.085,0.12209 -0.56603,0.53864 0.63963,-0.43193 2.27151,3.26547 h 3.54792 l -2.41188,-0.008 3.02754,-3.4783 0.0537,0.0371 -0.40284,0.38343 0.48386,-0.32694 0.44163,0.30583 2.14655,3.08574 10.29227,-5.6e-4 -3.0418,-0.25905 3.02754,-3.47831 0.3606,0.24935 0.0868,0.12496 -0.56545,0.53807 0.63905,-0.43194 2.26524,3.25634 h 1.14232 l 3.02696,-3.47831 0.31155,0.21569 1.96339,2.82269 -2.64525,2.51744 -0.79996,-0.79996 0.65333,0.93919 -0.7509,0.71437 0.84904,-0.57344 1.91717,0.0292 -1.72089,-0.1592 3.01156,-2.03529 2.93853,2.03529 -0.23052,0.21911 0.19514,0.003 0.1649,-0.11183 0.0805,0.11526 0.36917,0.006 -0.25334,-0.25334 3.01214,-2.03529 3.44007,2.38221 2.26409,0.0342 -1.76026,-0.12039 3.01156,-2.03529 3.07091,2.12658 -0.0976,0.0924 0.12211,0.002 0.0565,-0.0382 0.0571,0.04 0.26018,0.004 -0.1512,-0.15576 0.19913,-0.13467 0.20484,0.29386 5.40746,0.0816 -0.18487,0.17631 0.25905,-0.17516 0.0223,5.6e-4 -0.02,-0.002 0.58771,-0.39713 0.28585,0.4114 2.0992,0.0319 -1.74658,-0.13409 0.15578,-0.17916 -0.19001,0.14493 -0.40853,-0.40855 3.01212,-2.03471 3.50285,2.42614 -0.25905,0.24649 0.66702,0.01 -0.21113,-0.21797 0.009,-0.01 0.0387,-0.0256 0.17688,0.25391 4.21094,0.0639 v -0.16489 l -4.19154,-0.28644 3.01213,-2.03472 1.17941,0.81709 v -0.95003 l -0.72636,-0.74804 0.72636,-0.83478 v -0.96885 l -1.23019,0.94147 -2.5996,-2.5996 3.11427,-2.10433 0.71552,0.49584 v -1.1058 l -0.26304,-0.27103 0.26304,-0.30241 v -1.14517 l -0.7663,0.58656 -2.84381,-2.8438 3.07719,-2.07923 0.53292,0.36917 v -1.16799 l -0.0798,-0.0821 0.0798,-0.0919 v -1.21592 l -0.58314,0.4462 -2.60017,-2.60018 3.11426,-2.10432 0.069,0.0479 v -1.88295 l -0.11982,0.0919 -2.8672,-2.8672 0.0382,0.0268 -0.29329,-0.30242 3.24208,-2.18992 v -1.77965 l -0.0337,0.0256 -2.60016,-2.59961 2.63383,-1.78022 v -2.49633 l -3.63521,-3.63521 0.72236,1.03847 -3.61354,2.76564 -2.67434,-2.67435 0.15578,-0.17916 -0.19002,0.14492 -1.35571,-1.35572 1.0864,1.56227 -3.29857,2.52371 -4.06373,-4.06429 1.02535,1.4744 -3.68657,2.82098 -4.0643,-4.06429 0.72236,1.03904 -3.6141,2.76507 -2.67377,-2.67435 0.15577,-0.17916 -0.19001,0.14549 z m 26.33606,41.59073 h -0.0131 l 0.0456,0.0474 z m -0.68014,-0.01 -4.06658,-0.0611 3.82294,0.29329 z m -0.24364,0.23224 -0.10158,0.0964 0.13865,-0.0936 z m -5.92214,-0.32524 -0.8536,-0.0126 0.90268,0.0834 z m -6.35748,-0.0958 -0.25277,-0.003 0.19513,0.20085 0.12725,-0.0971 z m -0.51296,-0.008 -0.11355,-0.002 -0.3104,0.20998 0.80396,0.0548 z m -0.42395,0.20826 -0.0319,-0.002 -0.085,0.081 z m -0.0319,-0.002 0.22025,-0.20998 -4.22463,-0.0634 z m -6.26848,-0.30755 -6.19887,-0.0935 0.1552,0.1552 0.19001,-0.14549 -0.15577,0.17916 5.56837,0.42851 0.5044,-0.47987 z m -0.44106,0.5238 -0.10048,0.0958 0.13751,-0.093 z m -6.12698,-0.62308 -0.24535,-0.003 -0.42223,0.28529 0.92264,0.085 z m -0.66758,0.28187 -0.069,-0.007 -0.19229,0.18316 z m -0.069,-0.007 0.29613,-0.28186 -3.99868,-0.06 z m -9.3702,-2.72855 -2.77191,5.7e-4 2.94651,0.25049 z m -13.06418,0.001 -3.33852,5.8e-4 3.34536,0.01 z m -6.88643,5.8e-4 h -2.67492 l 2.84325,0.24193 z m 38.42968,-37.40204 2.85636,4.10709 -2.73369,2.60131 -1.33004,-1.33062 0.4947,0.71153 -2.41873,-2.49119 z m 19.95689,0.008 2.85636,4.1071 -2.73312,2.60131 -1.33062,-1.33061 0.49414,0.70981 -2.41816,-2.48947 z m -12.93923,0.18202 2.56422,3.68658 -2.73312,2.6013 -1.33118,-1.33118 1.02534,1.4744 -0.0205,0.0166 -2.69832,-2.77876 z m -13.56231,0.14094 2.44554,3.51653 -2.64467,2.51687 -2.66408,-2.74396 z m 19.95689,0.008 2.44554,3.51653 -2.64411,2.5163 -2.66408,-2.7434 z m -52.87068,0.1039 2.85636,4.10709 -2.73369,2.60131 -1.33005,-1.33061 0.49471,0.71153 -2.41873,-2.4912 z m 19.95688,0.008 2.85636,4.10709 -2.73311,2.60131 -1.33062,-1.3306 0.49413,0.7098 -2.41815,-2.48947 z m -12.93923,0.18202 2.56423,3.68656 -2.73312,2.60131 -1.33118,-1.33118 1.02534,1.4744 -0.0205,0.0166 -2.69831,-2.77876 z m 19.88043,0.0947 2.18478,3.14109 -2.73312,2.60132 -1.3306,-1.33061 1.08696,1.56283 -5.6e-4,5.8e-4 -2.32458,-2.39419 z m -33.44273,0.0463 2.44554,3.51653 -2.64468,2.51687 -2.66407,-2.74396 z m 19.95688,0.008 2.44554,3.51652 -2.64411,2.51631 -2.66407,-2.7434 z m 22.4612,3.69627 2.95736,2.0484 -3.47146,2.65609 -2.25154,-2.25153 0.48044,0.33322 -0.72808,-0.74976 z m 19.95689,0.008 2.95792,2.04784 -3.47202,2.65666 -2.25041,-2.25097 0.4793,0.33208 -0.72807,-0.74975 z m -26.23278,0.0142 2.44496,1.69351 0.33893,0.48729 -3.298,2.5237 -2.60016,-2.59959 z m 19.95687,0.008 2.44669,1.69465 0.33778,0.48613 -3.29856,2.52372 -2.60018,-2.60018 z m -6.72552,0.23165 2.95736,2.04784 -3.47145,2.65667 -2.60018,-2.60018 z m -46.4139,0.18145 2.95736,2.04841 -3.47146,2.65609 -2.25154,-2.25154 0.48044,0.33322 -0.72808,-0.74975 z m 19.95689,0.008 2.95792,2.04784 -3.47203,2.65665 -2.2504,-2.25096 0.47929,0.33208 -0.72807,-0.74975 z m -26.23279,0.0142 2.44497,1.69351 0.33893,0.48727 -3.298,2.52372 -2.60016,-2.59959 z m 19.95688,0.008 2.44669,1.69465 0.33778,0.48613 -3.29856,2.52371 -2.60018,-2.60017 z m -6.72552,0.23165 2.95736,2.04784 -3.47145,2.65666 -2.60018,-2.60017 z m 19.95746,0.007 2.52827,1.75169 -0.31553,0.30014 0.37887,-0.2562 0.36518,0.25277 -3.47089,2.65609 -2.60017,-2.5996 z m 15.56222,1.37967 0.36289,0.25106 0.085,0.12211 -0.56602,0.53863 0.63962,-0.43193 2.43984,3.5074 -2.85522,2.71714 -3.13311,-3.2261 z m 19.95745,0.007 0.36062,0.24935 0.0861,0.12495 -0.56545,0.53807 0.63905,-0.43251 2.43984,3.50741 -2.85522,2.71714 -3.13253,-3.2261 z m -12.83537,0.0622 0.0508,0.0731 -0.007,0.007 -0.0599,-0.0616 z m -13.5566,0.15064 2.43983,3.50683 -2.6441,2.51687 -2.66408,-2.74339 2.83411,-3.25749 z m 19.95745,0.007 2.43984,3.50741 -2.64467,2.51686 -2.66409,-2.74395 2.83583,-3.25806 z m -6.5669,0.0337 0.0537,0.0371 -0.40227,0.38344 0.48386,-0.32695 0.44163,0.30584 2.1534,3.09601 -2.8672,2.72911 -0.8188,-0.81878 0.50384,0.72464 -2.57507,-2.65209 z m -46.41447,0.18316 0.36289,0.25106 0.085,0.12211 -0.56602,0.53863 0.63962,-0.43194 2.43984,3.50741 -2.85522,2.71714 -3.13311,-3.2261 z m 19.95745,0.007 0.36061,0.24935 0.0867,0.12496 -0.56546,0.53807 0.63906,-0.43251 2.43983,3.5074 -2.85521,2.71714 -3.13253,-3.2261 z m -12.83538,0.0622 0.0508,0.073 -0.007,0.007 -0.06,-0.0616 z m -13.55659,0.15064 2.43983,3.50683 -2.6441,2.51686 -2.66408,-2.74339 2.83411,-3.25748 z m 19.95745,0.007 2.43984,3.50741 -2.64467,2.51686 -2.66409,-2.74396 2.83583,-3.25806 z m -6.5669,0.0337 0.0537,0.0371 -0.40226,0.38344 0.48386,-0.32695 0.44163,0.30583 2.1534,3.09601 -2.8672,2.72912 -0.8188,-0.81878 0.50384,0.72464 -2.57507,-2.65209 z m 19.95689,0.007 0.31097,0.21512 1.96396,2.82384 -2.86778,2.72855 -0.81878,-0.81879 0.47416,0.68185 -2.0895,-2.15168 z m 9.0655,3.64778 3.24893,2.2504 0.1746,0.25105 -0.52494,0.49984 0.22252,-0.15064 -3.25805,2.49347 -2.67378,-2.67434 0.13467,-0.15463 0.39084,0.27046 -0.72806,-0.74976 z m 19.95689,0.007 3.24893,2.2504 0.1746,0.25163 -0.52494,0.49984 0.22652,-0.15292 -3.26148,2.49518 -2.67492,-2.67435 0.13466,-0.15462 0.39142,0.27102 -0.72807,-0.74975 z m -26.23335,0.0148 2.31601,1.60392 0.42851,0.61566 -0.52494,0.49983 0.59398,-0.40112 0.3492,0.50155 -3.29914,2.52428 -3.13424,-3.13424 z m 19.95687,0.008 2.3166,1.60449 0.42794,0.61509 -0.52494,0.49984 0.59341,-0.40113 0.3492,0.50156 -3.29857,2.52371 -3.13367,-3.13367 z m -6.72494,0.23109 3.07091,2.12715 -0.40284,0.38287 0.48386,-0.32695 0.31211,0.21625 0.0856,0.12382 -3.68657,2.82098 -2.8672,-2.8672 0.0388,0.0268 -0.29328,-0.30241 z m -46.41391,0.18202 3.24893,2.2504 0.1746,0.25105 -0.52494,0.49984 0.22252,-0.15064 -3.25805,2.49347 -2.67378,-2.67434 0.13466,-0.15464 0.39085,0.27046 -0.72807,-0.74975 z m 19.95688,0.007 3.24894,2.2504 0.1746,0.25163 -0.52494,0.49984 0.22652,-0.15293 -3.26148,2.49518 -2.67493,-2.67434 0.13467,-0.15462 0.39142,0.27102 -0.72807,-0.74975 z m -26.23334,0.0148 2.31601,1.60393 0.42851,0.61566 -0.52494,0.49983 0.59398,-0.40112 0.3492,0.50154 -3.29914,2.52429 -3.13424,-3.13424 z m 19.95687,0.008 2.3166,1.60449 0.42793,0.6151 -0.52493,0.49983 0.5934,-0.40112 0.3492,0.50154 -3.29856,2.52372 -3.13367,-3.13367 z m -6.72494,0.23109 3.07091,2.12715 -0.40284,0.38287 0.48386,-0.32696 0.31211,0.21626 0.0861,0.12381 -3.68657,2.821 -2.8672,-2.86721 0.0387,0.0274 -0.29327,-0.30241 z m 19.95688,0.008 2.52828,1.75057 -0.31554,0.30069 0.37944,-0.25619 0.60711,0.42052 0.26133,0.37545 -3.59699,2.75309 -2.8672,-2.86721 0.0388,0.0268 -0.29327,-0.30241 z m 8.92799,1.15201 0.28016,0.194 -0.0439,0.0422 z m 19.9586,0.009 0.27845,0.19286 -0.0439,0.0416 z m -19.53293,0.28586 0.51067,0.35377 -0.16319,0.12496 -0.42566,-0.42624 z m 19.95631,0.008 0.51067,0.35376 -0.16261,0.1244 -0.42566,-0.42567 z m -59.84042,0.14036 0.28016,0.194 -0.0439,0.0422 z m 19.9586,0.009 0.27844,0.19286 -0.0439,0.0411 z m -19.53294,0.28529 0.51067,0.35433 -0.16318,0.12497 -0.42566,-0.42624 z m 19.95632,0.008 0.51067,0.35376 -0.16261,0.12439 -0.42566,-0.42566 z m 26.19284,0.002 2.85693,4.1071 -2.73312,2.60131 -1.33061,-1.33062 0.4947,0.71153 -2.41872,-2.49119 z m 19.95745,0.008 2.85636,4.10653 -2.73254,2.6013 -1.33118,-1.33118 0.49527,0.71211 -2.41929,-2.4912 z m -12.93922,0.18145 2.56423,3.68657 -2.73369,2.60074 -1.33062,-1.3306 1.02535,1.4744 -0.0205,0.0166 -2.69831,-2.77876 z m -13.5623,0.14094 2.44554,3.51653 -2.64469,2.51629 -2.66407,-2.74338 z m 19.95631,0.008 2.44611,3.51654 -2.64411,2.51629 -2.66407,-2.74338 z m -52.87068,0.10501 2.85692,4.10709 -2.73311,2.60131 -1.33061,-1.33061 0.4947,0.71153 -2.41872,-2.4912 z m 19.95745,0.008 2.85636,4.10653 -2.73254,2.6013 -1.33118,-1.33118 0.49527,0.71209 -2.41929,-2.49118 z m -12.93922,0.18144 2.56422,3.68658 -2.73369,2.60074 -1.33061,-1.33061 1.02535,1.47439 -0.0205,0.0166 -2.69831,-2.77876 z m 19.87985,0.0936 2.18536,3.14166 -2.73255,2.60131 -1.33119,-1.33119 1.08698,1.56284 -5.8e-4,5.8e-4 -2.32456,-2.39362 z m -33.44215,0.0474 2.44553,3.51654 -2.64468,2.51629 -2.66407,-2.74338 z m 19.95631,0.008 2.44611,3.51654 -2.64411,2.51629 -2.66407,-2.74338 z m 22.46176,3.69627 2.95736,2.04842 -3.47145,2.65608 -2.25154,-2.25154 0.48043,0.33265 -0.72807,-0.74974 z m 19.95689,0.008 2.95793,2.04841 -3.47203,2.65609 -2.2504,-2.25098 0.47929,0.33209 -0.72806,-0.74976 z m -26.23279,0.0143 2.44554,1.69349 0.33836,0.48729 -3.29799,2.52371 -2.60018,-2.60017 z m 19.95689,0.008 2.44669,1.69464 0.33778,0.48615 -3.29856,2.52371 -2.60018,-2.60017 z m -6.72552,0.23108 2.95736,2.04842 -3.47146,2.65608 -2.60017,-2.60016 z m -46.41391,0.18202 2.95736,2.04841 -3.47146,2.65609 -2.25153,-2.25154 0.48042,0.33265 -0.72806,-0.74974 z m 19.95689,0.008 2.95793,2.04841 -3.47203,2.65609 -2.2504,-2.25098 0.47929,0.33209 -0.72807,-0.74975 z m -26.23279,0.0142 2.44554,1.69351 0.33836,0.48728 -3.29799,2.52371 -2.60018,-2.60017 z m 19.95689,0.008 2.44669,1.69464 0.33778,0.48615 -3.29857,2.5237 -2.60017,-2.60016 z m -6.72552,0.23108 2.95736,2.04842 -3.47147,2.65608 -2.60016,-2.60016 z m 19.95745,0.008 2.52771,1.75056 -0.31496,0.30014 0.37887,-0.25563 0.36574,0.25334 -3.47146,2.65609 -2.60016,-2.60018 z m 15.56279,1.37912 0.36062,0.24991 0.0861,0.12382 -0.56602,0.53863 0.63962,-0.43251 2.43985,3.50798 -2.70118,2.5705 -1.0824,-1.08184 0.66816,0.9603 -2.87291,-2.9585 z m 19.95689,0.008 0.36175,0.25049 0.0856,0.12325 -0.56544,0.53806 0.63906,-0.43193 2.43983,3.5074 -2.70116,2.57107 -1.08241,-1.0824 0.66816,0.96031 -2.87234,-2.95794 z m -12.83538,0.0622 0.0508,0.073 -0.007,0.007 -0.06,-0.0616 z m -13.55603,0.15006 2.43927,3.50741 -2.64411,2.51686 -2.66407,-2.74395 2.83467,-3.25692 z m 19.95689,0.008 2.43983,3.50742 -2.64467,2.51685 -2.66408,-2.74395 2.83583,-3.25806 z m -6.5669,0.0337 0.0537,0.0371 -0.40225,0.38287 0.48329,-0.32695 0.44163,0.30583 2.15397,3.09658 -2.70117,2.57107 -1.0824,-1.0824 0.88384,1.2707 -0.0839,0.0799 -2.77363,-2.85636 z m -46.41391,0.18146 0.36062,0.24991 0.0867,0.12382 -0.56603,0.53863 0.63963,-0.43251 2.43983,3.50798 -2.70116,2.5705 -1.0824,-1.08183 0.66816,0.96029 -2.87292,-2.95849 z m 19.95689,0.008 0.36175,0.25048 0.0856,0.12325 -0.56545,0.53807 0.63907,-0.43194 2.43983,3.50741 -2.70117,2.57107 -1.0824,-1.08241 0.66816,0.9603 -2.87234,-2.95792 z m -12.83538,0.0622 0.0508,0.0731 -0.007,0.007 -0.06,-0.0616 z m -13.55603,0.15007 2.43927,3.5074 -2.64411,2.51687 -2.66408,-2.74396 2.83468,-3.25692 z m 19.95689,0.008 2.43983,3.50741 -2.64468,2.51687 -2.66407,-2.74396 2.83582,-3.25806 z m -6.5669,0.0337 0.0537,0.0371 -0.40225,0.38287 0.48328,-0.32694 0.44163,0.30583 2.15398,3.09658 -2.70117,2.57107 -1.08241,-1.08241 0.88385,1.2707 -0.0839,0.0799 -2.77364,-2.85636 z m 19.95689,0.004 0.31153,0.21568 1.9634,2.8227 -2.70117,2.57107 -1.0824,-1.0824 0.88384,1.27069 -0.0782,0.0742 -2.324,-2.39361 z m 9.0655,3.64948 3.25406,2.25439 -3.488,2.66865 -2.328,-2.32858 0.27673,0.19173 -0.57515,-0.59228 0.10843,-0.12439 -0.13124,0.10037 -0.13009,-0.13351 z m 19.95688,0.008 3.25463,2.25383 -3.488,2.66922 -2.32856,-2.32858 0.27673,0.19171 -0.57515,-0.59226 0.10842,-0.12439 -0.13123,0.10037 -0.13009,-0.13352 z m -26.23335,0.0148 2.69489,1.86582 0.16775,0.24136 -0.64305,0.61224 0.72692,-0.49128 0.11869,0.17061 -3.29857,2.52371 -2.84324,-2.84324 z m 19.95688,0.007 2.69489,1.8664 0.16776,0.24136 -0.64306,0.61224 0.72693,-0.49128 0.11868,0.1706 -3.29857,2.52371 -2.84381,-2.8438 z m -6.72494,0.23167 3.0709,2.12658 -0.40283,0.38343 0.48385,-0.32694 0.10213,0.0708 -3.48743,2.66864 -2.8438,-2.84324 z m -46.41392,0.18201 3.25407,2.25439 -3.488,2.66865 -2.328,-2.32858 0.27673,0.19172 -0.57515,-0.59227 0.10842,-0.12438 -0.13124,0.10047 -0.13009,-0.13351 z m 19.95689,0.008 3.25463,2.25382 -3.488,2.66921 -2.32857,-2.32857 0.27674,0.19172 -0.57516,-0.59227 0.10843,-0.12439 -0.13123,0.10048 -0.13009,-0.13352 z m -26.23336,0.0148 2.69489,1.86582 0.16776,0.24136 -0.64305,0.61224 0.72692,-0.49128 0.11868,0.17062 -3.29856,2.5237 -2.84324,-2.84324 z m 19.95689,0.007 2.69489,1.86639 0.16775,0.24136 -0.64306,0.61223 0.72694,-0.49127 0.11868,0.1706 -3.29857,2.52372 -2.84381,-2.84381 z m -6.72495,0.23166 3.0709,2.12658 -0.40283,0.38343 0.48386,-0.32694 0.10213,0.0708 -3.48743,2.66865 -2.84381,-2.84325 z m 19.95689,0.007 2.5277,1.75056 -0.31496,0.30014 0.37829,-0.25563 0.6636,0.45933 -3.488,2.66863 -2.84381,-2.8438 z m 2.93967,1.55942 0.29556,0.42509 -0.36631,-0.37715 z m 19.95688,0.01 0.0582,0.0834 -0.0611,0.0456 -0.0747,-0.0771 z m -7.03991,0.0137 0.19229,0.13352 -0.60426,0.57515 0.72636,-0.49071 0.002,5.8e-4 2.63155,3.78414 -2.73311,2.60073 -1.33061,-1.33118 0.49583,0.71382 -2.41985,-2.49291 z m 19.95689,0.007 0.19285,0.13351 -0.60482,0.57572 0.72636,-0.49127 0.002,0.001 2.63156,3.78358 -2.73312,2.60131 -1.33061,-1.33062 0.49356,0.70982 -2.41759,-2.48948 z m -12.8485,0.0782 0.25447,0.36575 -0.30184,-0.31154 z m -13.56232,0.14094 2.44611,3.51596 -2.64467,2.51686 -2.66407,-2.74395 z m 19.95689,0.008 2.44611,3.51596 -2.64467,2.51686 -2.66351,-2.74395 z m -6.5475,0.0274 0.53065,0.36746 2.18649,3.1428 -2.73312,2.6013 -1.3306,-1.3306 1.02534,1.4744 -0.0205,0.016 -2.69831,-2.7782 z m -39.374,0.16775 0.0582,0.0839 -0.0605,0.0456 -0.0748,-0.0776 z m -7.0399,0.0137 0.19229,0.13353 -0.60426,0.57514 0.72636,-0.49069 0.002,10e-4 2.63156,3.78358 -2.73312,2.60073 -1.33061,-1.33061 0.49584,0.71324 -2.41987,-2.49291 z m 19.95689,0.007 0.19285,0.13352 -0.60482,0.57572 0.72635,-0.49127 0.002,0.001 2.63156,3.78358 -2.73312,2.6013 -1.33062,-1.3306 0.49356,0.70981 -2.41758,-2.48948 z m -12.84851,0.0782 0.25448,0.36575 -0.30184,-0.31154 z m -13.56231,0.14094 2.44611,3.51596 -2.64467,2.51687 -2.66407,-2.74396 z m 19.95689,0.008 2.44611,3.51596 -2.64467,2.51686 -2.66351,-2.74395 z m -6.5475,0.0274 0.53065,0.36746 2.18649,3.1428 -2.73312,2.60131 -1.3306,-1.33061 1.02534,1.4744 -0.0205,0.016 -2.69831,-2.7782 z m 19.95689,0.004 0.26646,0.18429 1.99535,2.86892 -2.73312,2.60131 -1.33061,-1.33061 1.08698,1.56285 -5.8e-4,5.6e-4 -2.32458,-2.39418 z m 9.05238,3.66489 2.95736,2.04783 -3.47147,2.65609 -2.25096,-2.2504 0.47987,0.33208 -0.72807,-0.74975 z m 19.95689,0.007 2.95792,2.04784 -3.47203,2.65666 -2.25096,-2.25097 0.47986,0.33265 -0.72808,-0.74975 z m -26.23279,0.0148 2.44497,1.6935 0.33893,0.48671 -3.29857,2.52428 -2.5996,-2.60017 z m 19.95689,0.007 2.44554,1.6935 0.33836,0.48786 -3.29801,2.52314 -2.60016,-2.5996 z m -6.72552,0.23165 2.95792,2.04785 -3.47203,2.65666 -2.60016,-2.60017 z m -46.41391,0.18317 2.95735,2.04783 -3.47146,2.65609 -2.25096,-2.2504 0.47986,0.33209 -0.72807,-0.74976 z m 19.95688,0.007 2.95793,2.04784 -3.47203,2.65665 -2.25097,-2.25096 0.47987,0.33265 -0.72808,-0.74976 z m -26.23278,0.0148 2.44496,1.6935 0.33894,0.48671 -3.29857,2.52429 -2.5996,-2.60018 z m 19.95689,0.007 2.44554,1.6935 0.33835,0.48786 -3.298,2.52313 -2.60016,-2.5996 z m -6.72552,0.23165 2.95792,2.04784 -3.47203,2.65666 -2.60016,-2.60017 z m 19.95745,0.008 2.52771,1.75056 -0.31497,0.29957 0.3783,-0.25564 0.36574,0.25335 -3.47145,2.65609 -2.5996,-2.5996 z m 15.56221,1.37911 0.3629,0.25106 0.085,0.1221 -0.56603,0.53864 0.63963,-0.43193 2.43984,3.5074 -2.64525,2.51743 -0.79997,-0.79996 0.65333,0.93976 -0.0639,0.0599 -3.1331,-3.2261 z m 19.95747,0.007 0.3606,0.24935 0.0868,0.12495 -0.56545,0.53807 0.63905,-0.43193 2.43984,3.5074 -2.64524,2.51743 -0.79998,-0.79996 0.65333,0.93918 -0.0634,0.0605 -3.13309,-3.22667 z m -12.83539,0.0627 0.0508,0.073 -0.007,0.006 -0.06,-0.0611 z m -13.55602,0.15006 2.43925,3.5074 -2.64409,2.5163 -2.66408,-2.74339 2.83354,-3.25634 z m 19.95689,0.007 2.43925,3.5074 -2.6441,2.5163 -2.66408,-2.7434 2.83582,-3.25862 z m -6.56634,0.0337 0.0537,0.0371 -0.40284,0.38344 0.48387,-0.32695 0.44163,0.30584 2.1534,3.096 -2.64525,2.51744 -0.79939,-0.79939 0.65275,0.93862 -0.19172,0.18258 -2.77362,-2.85636 z m -39.29297,0.2522 0.0508,0.073 -0.007,0.006 -0.06,-0.0616 z m -13.55602,0.15006 2.43925,3.50741 -5.30817,-0.22709 2.83354,-3.25635 z m 19.95688,0.007 2.43926,3.5074 -5.30818,-0.22653 2.83582,-3.25862 z m 36.13591,3.71794 2.93852,2.03473 -0.52665,0.50154 -5.42344,-0.50098 z m -9.9328,2.39876 -0.0422,0.0285 -0.007,0.008 0.25905,0.26703 z m -0.10158,0.0982 0.32695,0.22595 z m 7.0091,0.19914 -0.0531,0.0611 0.34406,0.23851 z" />
    <path
       id="path3"
       style="fill:#000000;stroke-width:1.10416;stroke-linecap:round;stroke-linejoin:round"
       d="m 129.57239,182.29404 -1.05388,1.82475 h 71.74916 v -1.82475 z" />
    <path
       style="fill:#000000;stroke-width:0.679882;stroke-linecap:round;stroke-linejoin:round"
       d="m 62.71352,60.997723 1.387793,-2.069076 4.105459,-0.08193 6.174348,0.869375 -5.645884,1.583112 z"
       id="path7" />
    <path
       style="fill:#000000;stroke-width:0.679882;stroke-linecap:round;stroke-linejoin:round"
       d="m 105.65902,68.27617 1.38779,-2.069075 4.10546,-0.08193 6.17435,0.869376 -5.64588,1.583111 z"
       id="path7-3" />
    <path
       style="fill:#ffffff;stroke-width:0.610972;stroke-linecap:round;stroke-linejoin:round"
       d="m 12.516798,135.60708 1.247132,-1.85937 3.689348,-0.0736 5.548541,0.78126 -5.07364,1.42265 z"
       id="path7-9" />
    <path
       style="fill:#ffffff;stroke-width:0.503816;stroke-linecap:round;stroke-linejoin:round"
       d="m 94.731122,155.23687 1.028404,-1.53325 3.042288,-0.0607 4.575416,0.64424 -4.183799,1.17313 z"
       id="path7-9-4" />
    <path
       style="fill:#000000;stroke-width:0.662379;stroke-linecap:round;stroke-linejoin:round"
       d="m 29.956912,72.183341 3.326552,-1.920841 4.892704,0.659994 -1.232736,1.815294 -4.02786,1.324559 z"
       id="path8" />
    <path
       style="fill:#ffffff;stroke-width:0.662379;stroke-linecap:round;stroke-linejoin:round"
       d="m 89.897427,132.14809 3.326551,-1.92084 4.892707,0.66 -1.232734,1.81528 -4.027864,1.32457 z"
       id="path8-6" />
    <path
       style="fill:#ffffff;stroke-width:0.513525;stroke-linecap:round;stroke-linejoin:round"
       d="m 47.515745,100.89855 2.578982,-1.489175 3.793179,0.511671 -0.955705,1.407354 -3.12269,1.02689 z"
       id="path8-7" />
    <path
       style="fill:#000000;stroke-width:0.584661;stroke-linecap:round;stroke-linejoin:round"
       d="m 126.18922,95.71906 3.59382,1.348886 4.08487,3.521084 -2.37326,0.0822 -4.36251,-0.746326 -1.8023,-3.430834 z"
       id="path9" />
    <path
       style="fill:#ffffff;stroke-width:0.524883;stroke-linecap:round;stroke-linejoin:round"
       d="m 152.00685,152.01039 3.22638,1.21097 3.66722,3.16107 -2.13061,0.0738 -3.91648,-0.67001 -1.61802,-3.08004 z"
       id="path9-7" />
    <path
       style="fill:#000000;stroke-width:0.612191;stroke-linecap:round;stroke-linejoin:round"
       d="m 188.96961,125.86253 5.69079,1.86693 -2.46233,1.1684 h -4.95956 l -2.92008,-2.4031 z"
       id="path10" />
    <path
       style="fill:#000000;stroke-width:0.470162;stroke-linecap:round;stroke-linejoin:round"
       d="m 170.37813,192.89001 4.37053,1.4338 -1.89107,0.89733 h -3.80894 l -2.24262,-1.84558 z"
       id="path10-2" />
    <path
       style="fill:#000000;stroke-width:0.494403;stroke-linecap:round;stroke-linejoin:round"
       d="m 189.52863,175.80873 4.59586,1.50772 -1.98857,0.94359 h -4.00531 l -2.35825,-1.94073 z"
       id="path10-4" />
    <path
       style="fill:#000000;stroke-width:0.448362;stroke-linecap:round;stroke-linejoin:round"
       d="m 157.6364,112.08049 4.0595,0.57853 -2.56966,1.35285 -4.81651,0.12128 -2.13591,-1.3354 z"
       id="path12" />
    <path
       style="fill:#000000;stroke-width:0.751242;stroke-linecap:round;stroke-linejoin:round"
       d="m 173.3439,218.40316 3.77282,-2.17853 5.5491,0.74853 -1.39811,2.05883 -4.56823,1.50224 z"
       id="path8-7-0-8-1" />
    <path
       style="fill:#ffffff;stroke-width:0.751242;stroke-linecap:round;stroke-linejoin:round"
       d="m 123.70825,218.516 3.77282,-2.17853 5.5491,0.74853 -1.39812,2.05883 -4.56822,1.50225 z"
       id="path8-7-0-8-1-7" />
    <path
       style="fill:#000000;fill-opacity:1;stroke:none;stroke-width:1.10416;stroke-linecap:round;stroke-linejoin:round;stroke-dasharray:none"
       d="m 111.38867,95.972712 21.03198,34.570368 25.45445,6.41884 17.95449,1.66551 -9.83784,2.47236 19.30493,-0.83008 6.54613,3.74931 -21.68313,1.99881 16.07842,0.84992 6.64935,13.69456 -15.4311,5.00591 1.04924,8.58431 -18.5061,-3.68059 19.43321,7.75297 -22.84005,-2.36496 -32.13505,-2.97784 -21.10358,-8.7917 z"
       id="path22"
       sodipodi:nodetypes="cccccccccccccccccc" />
    <path
       style="fill:#000000;stroke-width:0.442659;stroke-linecap:round;stroke-linejoin:round"
       d="m 91.86018,139.64669 2.223087,-1.28367 3.26973,0.44107 -0.823818,1.21313 -2.691769,0.88519 z"
       id="path8-6-6" />
    <path
       style="fill:#ffffff;stroke-width:0.662379;stroke-linecap:round;stroke-linejoin:round"
       d="m 125.01429,150.31668 3.32655,-1.92085 4.89271,0.66 -1.23273,1.81529 -4.02787,1.32457 z"
       id="path8-6-6-6" />
    <path
       style="fill:#ffffff;stroke-width:0.667597;stroke-linecap:round;stroke-linejoin:round"
       d="m 107.45298,106.05717 3.35274,-1.93597 4.93125,0.66519 -1.24244,1.82959 -4.05959,1.33499 z"
       id="path8-7-0" />
    <path
       style="fill:#000000;stroke-width:1.10416;stroke-linecap:round;stroke-linejoin:round"
       d="m 119.94207,110.0991 16.79268,15.8158 36.2932,6.04734 -35.52594,0.0552 L 118.8146,121.381 Z"
       id="path5" />
    <path
       style="fill:#000000;stroke-width:1.10416;stroke-linecap:round;stroke-linejoin:round"
       d="m 179.12507,140.65111 9.53254,-0.57368 -9.66732,1.61777 v -0.13265 z"
       id="path32" />
    <path
       style="fill:#ffffff;stroke-width:1.10416;stroke-linecap:round;stroke-linejoin:round"
       d="m 100.46962,82.535441 8.24058,5.835951 2.66035,16.608578 4.95949,6.08652 17.59698,17.75931 18.69812,1.16952 -17.67075,-3.27846 -17.41479,-17.14409 -4.15924,-7.83305 -3.04928,-14.060374 z"
       id="path43"
       sodipodi:nodetypes="ccccccccccc" />
    <path
       id="path44"
       style="fill:#ffffff;stroke-width:1.10416;stroke-linecap:round;stroke-linejoin:round"
       d="m 44.910243,125.9382 0.58403,3.82989 13.805059,26.34219 39.134665,17.93787 30.194633,2.19783 -29.94834,-5.01167 -37.463783,-16.78786 z"
       sodipodi:nodetypes="cccccccc" />
    <path
       style="fill:#ffffff;stroke-width:1.10416;stroke-linecap:round;stroke-linejoin:round"
       d="m 137.56366,133.29195 -0.21119,1.68035 20.08786,4.20193 5.74417,-0.36249 -5.29304,-0.70252 z"
       id="path46"
       sodipodi:nodetypes="cccccc" />
    <path
       style="fill:#000000;fill-opacity:1;stroke:none;stroke-width:0.911115;stroke-linecap:round;stroke-linejoin:round"
       d="m 104.2339,118.60181 -0.0458,4.93777 0.2238,2.73095 -0.9126,5.84916 1.40947,-5.85089 -0.0392,-3.42237 z"
       id="path53"
       sodipodi:nodetypes="ccccccc" />
    <path
       style="fill:#000000;fill-opacity:1;stroke:none;stroke-width:0.911115;stroke-linecap:round;stroke-linejoin:round"
       d="m 104.25495,116.39542 0.90217,4.85487 0.74348,2.63732 0.22628,5.91559 0.26103,-6.0126 -0.69493,-3.3513 z"
       id="path53-1"
       sodipodi:nodetypes="ccccccc" />
    <path
       style="fill:#000000;fill-opacity:1;stroke:none;stroke-width:0.993671;stroke-linecap:round;stroke-linejoin:round"
       d="m 144.90683,58.803806 -6.36819,13.838219 0.7407,10.496748 3.11671,9.193324 10.84309,7.648722 18.65978,1.294351 13.46084,-7.838713 3.66852,-11.17707 -0.5847,-11.879559 -4.97219,-10.557644 -12.31744,-8.21318 -13.58208,0.113911 z"
       id="path54"
       sodipodi:nodetypes="ccccccccccccc" />
  </g>
</svg>
