<?xml version="1.0" encoding="UTF-8" standalone="no"?>
<!-- Created with Inkscape (http://www.inkscape.org/) -->

<svg
   width="210mm"
   height="297mm"
   viewBox="0 0 210 297"
   version="1.1"
   id="svg1"
   inkscape:version="1.3.2 (091e20ef0f, 2023-11-25)"
   sodipodi:docname="the-ending-drama.svg"
   xmlns:inkscape="http://www.inkscape.org/namespaces/inkscape"
   xmlns:sodipodi="http://sodipodi.sourceforge.net/DTD/sodipodi-0.dtd"
   xmlns="http://www.w3.org/2000/svg"
   xmlns:svg="http://www.w3.org/2000/svg">
  <sodipodi:namedview
     id="namedview1"
     pagecolor="#505050"
     bordercolor="#eeeeee"
     borderopacity="1"
     inkscape:showpageshadow="0"
     inkscape:pageopacity="0"
     inkscape:pagecheckerboard="0"
     inkscape:deskcolor="#d1d1d1"
     inkscape:document-units="mm"
     inkscape:zoom="0.48907828"
     inkscape:cx="262.73913"
     inkscape:cy="559.21518"
     inkscape:window-width="1366"
     inkscape:window-height="743"
     inkscape:window-x="0"
     inkscape:window-y="25"
     inkscape:window-maximized="1"
     inkscape:current-layer="layer1" />
  <defs
     id="defs1">
    <inkscape:path-effect
       effect="mirror_symmetry"
       start_point="101.16364,83.767404"
       end_point="101.16364,95.479084"
       center_point="101.16364,89.623244"
       id="path-effect6"
       is_visible="true"
       lpeversion="1.2"
       lpesatellites=""
       mode="free"
       discard_orig_path="false"
       fuse_paths="true"
       oposite_fuse="false"
       split_items="false"
       split_open="false"
       link_styles="false" />
    <inkscape:path-effect
       effect="mirror_symmetry"
       start_point="101.71277,153.0954"
       end_point="101.71277,157.055"
       center_point="101.71277,155.0752"
       id="path-effect5"
       is_visible="true"
       lpeversion="1.2"
       lpesatellites=""
       mode="free"
       discard_orig_path="false"
       fuse_paths="true"
       oposite_fuse="false"
       split_items="false"
       split_open="false"
       link_styles="false" />
    <inkscape:path-effect
       effect="mirror_symmetry"
       start_point="109.30237,46.321201"
       end_point="109.30237,227.9003"
       center_point="109.30237,137.11075"
       id="path-effect4"
       is_visible="true"
       lpeversion="1.2"
       lpesatellites=""
       mode="free"
       discard_orig_path="false"
       fuse_paths="true"
       oposite_fuse="false"
       split_items="false"
       split_open="false"
       link_styles="false" />
  </defs>
  <g
     inkscape:label="Layer 1"
     inkscape:groupmode="layer"
     id="layer1">
    <rect
       style="fill:#000000;stroke-width:0.420726;stroke-linecap:round;stroke-linejoin:round"
       id="rect1-9"
       width="174.85509"
       height="166.84804"
       x="21.903748"
       y="53.342926" />
    <rect
       style="fill:#ffffff;stroke-width:0.392999;stroke-linecap:round;stroke-linejoin:round"
       id="rect1"
       width="159.54837"
       height="159.54837"
       x="37.237976"
       y="53.916042" />
    <path
       id="path1"
       style="fill:#000000;stroke-width:0.392999;stroke-linecap:round;stroke-linejoin:round"
       d="m 70.125,46.320312 -19.746671,69.474958 12.554129,39.22201 9.455802,29.54212 -34.632401,10.8488 -15.007812,84.61719 86.554683,0.0215 86.55469,-0.0215 -15.00781,-84.61719 -32.99609,-10.39258 15.59765,-71.76367 -14.97265,-66.931638 -39.17579,4.800782 z m 3.101562,64.283208 9.87534,2.92174 17.937088,6.74151 4.29387,-6.1317 5.22265,0.55664 3.84143,-0.34697 4.55531,5.78359 17.03597,-5.96714 9.38873,-3.55767 -7.22265,34.00195 -9.57032,16.91797 -19.28125,10.26367 -19.281246,-10.26367 -9.572265,-16.91797 z m 25.572266,58.42578 10.503902,6.46875 12.80627,-5.18813 3.86561,26.00844 -16.67188,25.74023 -16.671871,-25.74023 z m 3.748052,-31.83985 6.75585,7.71289 6.75391,-7.71289 -6.75391,3.36914 z"
       sodipodi:nodetypes="ccccccccccccccccccccccccccccccccccccccccc"
       transform="matrix(0.68944972,0,0,0.59289595,9.5337399,53.426476)" />
    <path
       style="fill:#ffffff;stroke-width:0.680377;stroke-linecap:round;stroke-linejoin:round"
       d="m 119.29848,201.33863 3.41693,-1.97303 5.02565,0.67792 -1.26623,1.86462 -4.1373,1.36054 z"
       id="path8-7-0-8" />
    <path
       style="fill:#000000;stroke-width:0.680377;stroke-linecap:round;stroke-linejoin:round"
       d="m 152.84454,204.27489 3.41693,-1.97303 5.02565,0.67792 -1.26623,1.86462 -4.1373,1.36054 z"
       id="path8-7-0-8-4" />
    <path
       style="fill:#ffffff;stroke-width:0.680377;stroke-linecap:round;stroke-linejoin:round"
       d="m 36.294387,190.90105 3.41693,-1.97303 5.02565,0.67792 -1.26623,1.86462 -4.1373,1.36054 z"
       id="path8-7-0-8-2" />
    <path
       style="fill:#1a1a1a;stroke-width:0.420019;stroke-linecap:round;stroke-linejoin:round"
       d="m 82.860614,142.47862 -4.416957,2.55916 5.924077,2.40678 0.63248,-0.0459 0.63249,0.0459 5.92407,-2.40678 -4.41905,-2.55916 -2.13751,0.82243 z"
       id="path4"
       sodipodi:nodetypes="cccccc" />
    <path
       style="fill:#000000;fill-opacity:1;stroke-width:0.392999;stroke-linecap:round;stroke-linejoin:round"
       d="m 101.16406,78.195312 -15.124998,5.572266 -4.240234,8.177734 19.365232,3.533204 19.36524,-3.533204 -4.24024,-8.177734 z"
       id="path5"
       sodipodi:nodetypes="ccccc"
       inkscape:original-d="m 86.038102,83.767405 -4.239972,8.178816 19.36551,3.532865 0.27145,-17.384167 z"
       inkscape:path-effect="#path-effect6"
       transform="matrix(1.2426488,-0.0194968,0.01676638,1.0686224,-42.012897,-4.8357167)" />
    <path
       style="fill:#ffffff;fill-opacity:1;stroke-width:0.420019;stroke-linecap:round;stroke-linejoin:round"
       d="m 78.543762,144.95208 6.420632,-0.20659 6.59662,0.32816 -6.61257,0.0969 z"
       id="path6"
       sodipodi:nodetypes="ccccc" />
    <path
       style="fill:#000000;fill-opacity:1;stroke:#ffffff;stroke-width:1.06875;stroke-linecap:round;stroke-linejoin:round;stroke-dasharray:none"
       d="M 57.033233,158.81515 41.891368,166.474 84.800724,185.44601 72.826748,167.91558 58.390893,163.13114 Z"
       id="path11"
       sodipodi:nodetypes="cccccc" />
    <path
       style="fill:#000000;fill-opacity:1;stroke:#ffffff;stroke-width:1.06875;stroke-linecap:round;stroke-linejoin:round;stroke-dasharray:none"
       d="m 112.55021,158.87335 15.14187,7.65885 -42.909346,18.97201 11.97397,-17.53043 14.435846,-4.78444 z"
       id="path11-3"
       sodipodi:nodetypes="cccccc" />
    <path
       style="fill:#ffffff;fill-opacity:1;stroke:none;stroke-width:1.06875;stroke-linecap:round;stroke-linejoin:round;stroke-dasharray:none"
       d="m 123.85357,164.69123 -36.535066,17.94023 2.0246,-3.0668 32.341296,-15.7826 z"
       id="path13" />
    <path
       style="fill:#ffffff;fill-opacity:1;stroke:none;stroke-width:1.09354;stroke-linecap:round;stroke-linejoin:round;stroke-dasharray:none"
       d="m 45.195803,165.07568 37.728281,18.18796 -2.090729,-3.10915 -33.397533,-16.00053 z"
       id="path13-7" />
    <path
       style="fill:#ffffff;fill-opacity:1;stroke:none;stroke-width:1.06875;stroke-linecap:round;stroke-linejoin:round;stroke-dasharray:none"
       d="m 116.30343,175.68449 -27.657056,17.57012 -9.224698,0.2561 -27.492784,-19.1743 -0.189702,-1.1591 33.444194,14.36926 31.312996,-13.60641 z"
       id="path14"
       sodipodi:nodetypes="cccccccc" />
    <path
       style="fill:#ffffff;fill-opacity:1;stroke:none;stroke-width:1.24338;stroke-linecap:round;stroke-linejoin:round;stroke-dasharray:none"
       d="m 84.169704,194.6177 3.89728,0.86007 0.31757,2.64941 h -8.886628 l -0.135671,-2.92384 z"
       id="path15" />
    <path
       style="fill:#ffffff;fill-opacity:1;stroke:none;stroke-width:1.06875;stroke-linecap:round;stroke-linejoin:round;stroke-dasharray:none"
       d="m 88.457684,199.69489 -3.70252,5.85553 -10.983261,11.37114 2.307862,-9.7783 3.099916,-7.29345 z"
       id="path16"
       sodipodi:nodetypes="cccccc" />
    <path
       style="fill:#ffffff;fill-opacity:1;stroke:none;stroke-width:1.06875;stroke-linecap:round;stroke-linejoin:round;stroke-dasharray:none"
       d="m 88.995074,201.33165 -2.60068,4.38994 6.623,9.71303 0.19695,-6.68123 z"
       id="path17" />
    <path
       style="fill:#ffffff;fill-opacity:1;stroke:none;stroke-width:1.06875;stroke-linecap:round;stroke-linejoin:round;stroke-dasharray:none"
       d="m 133.60836,169.31176 -6.93691,11.62996 7.80421,-9.86042 -0.028,-1.62833 z"
       id="path18" />
    <path
       style="fill:#ffffff;fill-opacity:1;stroke:none;stroke-width:1.06875;stroke-linecap:round;stroke-linejoin:round;stroke-dasharray:none"
       d="m 35.677817,169.26458 8.821741,10.37949 -9.92368,-8.79916 z"
       id="path19" />
    <path
       style="fill:#ffffff;fill-opacity:1;stroke:none;stroke-width:0.918023;stroke-linecap:round;stroke-linejoin:round;stroke-dasharray:none"
       d="m 114.44954,97.035851 -11.31625,-3.331416 -9.031444,2.658781 -4.292202,-3.573143 -4.542306,3.535165 -5.799282,-3.907474 -3.890638,3.41242 -7.826734,-3.134459 -12.532212,4.651996 16.690436,-10.259676 3.939931,3.340529 3.572123,-3.312389 4.817722,3.129579 7.09247,-3.567768 3.09398,4.272535 5.960956,-3.137048 z"
       id="path20"
       sodipodi:nodetypes="ccccccccccccccccc" />
    <path
       style="fill:#ffffff;fill-opacity:1;stroke:none;stroke-width:1.06875;stroke-linecap:round;stroke-linejoin:round;stroke-dasharray:none"
       d="m 110.21896,122.30167 3.47312,0.39053 -0.74057,6.56436 -4.98311,5.85316 -2.00734,0.92741 z"
       id="path21"
       sodipodi:nodetypes="cccccc" />
    <path
       style="fill:#ffffff;fill-opacity:1;stroke:none;stroke-width:0.816649;stroke-linecap:round;stroke-linejoin:round;stroke-dasharray:none"
       d="m 60.855428,124.15633 -1.976175,-0.54753 2.820311,11.26356 2.086762,0.93479 z"
       id="path21-0" />
    <path
       style="fill:#000000;fill-opacity:1;stroke:none;stroke-width:1;stroke-linecap:round;stroke-linejoin:round;stroke-dasharray:none"
       d="m 116.39735,99.847721 19.04803,31.309339 23.05332,5.81335 17.73688,-1.86495 -15.24289,6.12319 22.69202,-3.92292 -2.91492,5.87937 -18.42611,2.90579 21.84254,-0.14907 -6.47427,21.70354 -17.28925,-0.32594 18.95638,2.99079 -22.6801,-0.78533 -26.85299,-4.60203 -19.23209,-9.42904 z"
       id="path22"
       sodipodi:nodetypes="cccccccccccccccc" />
    <path
       style="fill:#000000;fill-opacity:1;stroke:none;stroke-width:1;stroke-linecap:round;stroke-linejoin:round;stroke-dasharray:none"
       d="m 44.343814,122.04442 6.571568,17.09946 25.285488,15.33807 24.93469,15.12528 41.6872,1.39988 24.9246,4.7622 -69.81123,-1.86565 -26.055315,-3.74536 -19.84001,-9.12097 -7.75675,-8.22409 z"
       id="path23"
       sodipodi:nodetypes="ccccccccccc" />
    <path
       style="fill:#ffffff;fill-opacity:1;stroke:#ffffff;stroke-width:1;stroke-linecap:round;stroke-linejoin:round;stroke-dasharray:none"
       d="m 42.472256,121.19657 8.980384,18.0375 50.47939,30.22551 32.83339,0.64163 -0.36829,-1.02098 -33.01279,-0.90428 -49.761219,-29.81988 -7.874014,-18.33443 z"
       id="path24"
       sodipodi:nodetypes="ccccccccc" />
    <path
       style="fill:#ffffff;fill-opacity:1;stroke:none;stroke-width:1;stroke-linecap:round;stroke-linejoin:round;stroke-dasharray:none"
       d="m 140.13925,132.2068 -7.41952,-0.13511 -7.59011,5.8369 5.29996,7.82504 -7.65226,3.94194 14.49023,9.29018 -8.96128,6.55803 15.32694,-1.17595 1.02782,-5.46034 -5.4147,-6.13174 5.81569,-2.56154 -6.18148,-4.30973 -3.98692,-5.47058 12.33601,-0.63716 -0.94743,-7.23368 z"
       id="path26"
       sodipodi:nodetypes="cccccccccccccccc" />
    <path
       style="fill:#000000;fill-opacity:1;stroke:none;stroke-width:1;stroke-linecap:round;stroke-linejoin:round;stroke-dasharray:none"
       d="m 64.173382,135.86879 3.897419,4.11201 4.591393,1.5949 3.947319,0.32559 -3.442382,0.0429 -4.804905,-1.41517 -4.529135,-3.35609 z"
       id="path27" />
    <path
       style="fill:#000000;fill-opacity:1;stroke:none;stroke-width:1;stroke-linecap:round;stroke-linejoin:round;stroke-dasharray:none"
       d="m 63.388459,119.26742 2.257626,1.81954 5.006499,1.61323 6.922841,0.88563 -6.817453,-0.4506 -6.078876,-2.00354 -2.916417,-2.61374 z"
       id="path28" />
    <path
       style="fill:#000000;fill-opacity:1;stroke:none;stroke-width:1;stroke-linecap:round;stroke-linejoin:round;stroke-dasharray:none"
       d="m 61.225497,123.43945 4.575794,3.79849 6.299004,1.51444 -6.778257,-1.09517 -4.543806,-3.68546 -1.219256,-1.50995 z"
       id="path29" />
    <path
       style="fill:#000000;fill-opacity:1;stroke:none;stroke-width:1;stroke-linecap:round;stroke-linejoin:round;stroke-dasharray:none"
       d="m 80.994508,120.57534 6.114534,1.95417 -7.184001,-1.91589 z"
       id="path30" />
    <path
       style="fill:#000000;fill-opacity:1;stroke:none;stroke-width:1;stroke-linecap:round;stroke-linejoin:round;stroke-dasharray:none"
       d="m 96.406008,121.42127 4.706512,1.54187 8.46863,-1.17194 -0.19173,0.28623 -8.43702,1.19282 -5.704121,-1.91896 z"
       id="path31" />
    <path
       style="fill:#000000;fill-opacity:1;stroke:none;stroke-width:1;stroke-linecap:round;stroke-linejoin:round;stroke-dasharray:none"
       d="m 44.261333,143.3736 -1.031057,9.64727 1.985658,3.99365 6.958089,5.65481 -7.206006,-5.33367 -2.408629,-5.02831 2.065234,-12.03872 z"
       id="path33" />
    <path
       style="fill:#000000;fill-opacity:1;stroke:none;stroke-width:1;stroke-linecap:round;stroke-linejoin:round;stroke-dasharray:none"
       d="m 50.594741,102.34657 -5.568754,8.98431 0.199038,8.74697 -1.173554,-8.92449 7.692443,-10.86258 z"
       id="path34" />
    <path
       style="fill:#000000;fill-opacity:1;stroke:none;stroke-width:1;stroke-linecap:round;stroke-linejoin:round;stroke-dasharray:none"
       d="m 130.08121,123.25146 17.19067,2.62392 13.11652,-0.40732 -13.48435,0.92843 -16.70009,-2.42011 z"
       id="path35" />
    <path
       style="fill:#000000;fill-opacity:1;stroke:none;stroke-width:1;stroke-linecap:round;stroke-linejoin:round;stroke-dasharray:none"
       d="m 66.59796,119.57547 3.115059,1.64694 -2.997123,-1.84628 z"
       id="path36" />
    <path
       style="fill:#000000;fill-opacity:1;stroke:none;stroke-width:1;stroke-linecap:round;stroke-linejoin:round;stroke-dasharray:none"
       d="m 70.391636,120.2534 2.186315,1.91903 -1.79406,-1.87919 z"
       id="path37" />
    <path
       style="fill:#000000;fill-opacity:1;stroke:none;stroke-width:1;stroke-linecap:round;stroke-linejoin:round;stroke-dasharray:none"
       d="M 85.236361,76.775391 96.185931,77.4193 86.061417,77.323669 Z"
       id="path38" />
    <path
       style="fill:#000000;fill-opacity:1;stroke:none;stroke-width:1;stroke-linecap:round;stroke-linejoin:round;stroke-dasharray:none"
       d="M 93.137629,79.178326 104.63585,79.11357 93.149324,79.710038 Z"
       id="path39" />
    <circle
       style="fill:#000000;fill-opacity:1;stroke:none;stroke-width:1;stroke-linecap:round;stroke-linejoin:round;stroke-dasharray:none"
       id="path40"
       cx="161.98116"
       cy="82.662956"
       r="23.66638" />
    <path
       id="path2"
       style="fill:#000000;stroke-width:1;stroke-linecap:round;stroke-linejoin:round"
       d="m 168.9202,178.42501 0.98392,1.41491 -2.98742,2.28564 -3.68091,-3.68091 3.26078,4.68809 -2.4753,2.35593 -1.20509,-1.2051 0.98443,1.41542 -0.51211,0.48731 0.57878,-0.39119 2.20968,3.17655 -2.59726,2.47116 -0.74155,-0.74155 0.60564,0.87075 -0.47542,0.45268 0.53744,-0.36328 2.59312,3.72793 -2.47479,2.35593 -1.20561,-1.20561 0.98444,1.41542 -0.51211,0.48782 0.57929,-0.39119 2.20917,3.17604 -2.44637,2.32854 -0.9803,-0.9803 0.80047,1.15083 -0.58239,0.55449 0.65835,-0.44494 2.38435,3.4277 -2.4753,2.35593 -1.20509,-1.20509 0.98444,1.41541 -0.51212,0.48731 0.57878,-0.39119 2.20968,3.17655 -2.39572,2.27997 -0.7245,-0.72451 0.59169,0.8506 -0.68006,0.64699 0.76895,-0.51935 36.26544,0.54676 0.31213,0.21601 -0.26355,-0.2713 0.14779,-0.17002 -0.17931,0.13746 -2.90835,-2.99516 2.74143,-3.1502 0.88212,0.61082 -0.74569,-0.76791 0.0687,-0.0791 -0.0837,0.0641 -2.44326,-2.51664 2.75332,-3.16363 0.61598,0.42684 -0.52038,-0.53588 0.0982,-0.11317 -0.11937,0.0915 -2.66186,-2.74195 2.74144,-3.15019 0.88211,0.61081 -0.74569,-0.76791 0.0687,-0.0786 -0.0832,0.0636 -2.44378,-2.51613 2.92747,-3.36414 0.3545,0.24547 -3.20393,-3.29903 2.74143,-3.15071 0.88212,0.61133 -0.74569,-0.76791 0.0687,-0.0791 -0.0837,0.0641 -2.44326,-2.51665 2.94711,-3.38584 -3.40341,2.60398 -3.68092,-3.68091 0.65423,0.94051 -3.27267,2.50476 -2.42208,-2.42208 0.14108,-0.16226 -0.17208,0.13125 -1.22783,-1.22783 0.98392,1.4149 -2.98742,2.28565 -3.68039,-3.68091 0.92862,1.33532 -3.33881,2.55488 -3.68092,-3.68091 0.65423,0.94103 -3.27319,2.50424 -2.42155,-2.42208 0.14107,-0.16226 -0.17208,0.13177 z m 6.97322,1.20407 2.58692,3.71967 -2.47582,2.35592 -1.20458,-1.20509 0.44804,0.6444 -2.19057,-2.25619 z m 18.07434,0.007 2.58693,3.71967 -2.4753,2.35593 -1.2051,-1.20509 0.44752,0.64285 -2.19005,-2.25464 z m -11.71866,0.16485 2.32234,3.33882 -2.4753,2.35592 -1.20561,-1.20561 0.92862,1.33532 -0.0186,0.015 -2.44378,-2.51664 z m -12.28297,0.12764 2.21485,3.18482 -2.3952,2.27945 -2.41277,-2.48512 z m 18.07435,0.007 2.21485,3.18482 -2.39469,2.27893 -2.41277,-2.4846 z m -15.39389,3.74861 2.67838,1.85518 -3.14399,2.40554 -2.03915,-2.03915 0.43511,0.30179 -0.65939,-0.67903 z m 18.07434,0.007 2.67891,1.85466 -3.14451,2.40606 -2.03812,-2.03864 0.43408,0.30076 -0.65939,-0.67903 z m -23.75824,0.0129 2.21434,1.53375 0.30696,0.44132 -2.9869,2.28565 -2.3549,-2.35438 z m 18.07435,0.007 2.21589,1.53479 0.30592,0.44029 -2.98741,2.28565 -2.3549,-2.3549 z m -6.0911,0.20981 2.67839,1.85467 -3.14399,2.40605 -2.3549,-2.35489 z m 18.07487,0.006 2.67787,1.85518 -3.14348,2.40554 -2.35489,-2.35438 z m -21.64209,1.65055 0.32866,0.22737 0.077,0.11059 -0.51263,0.48783 0.57929,-0.39119 2.20968,3.17655 -2.58588,2.46083 -2.83756,-2.92179 z m 18.07486,0.006 0.3266,0.22582 0.0785,0.11317 -0.51212,0.48731 0.57878,-0.3917 2.20968,3.17655 -2.58588,2.46083 -2.83704,-2.92179 z m -11.62461,0.0563 0.046,0.0661 -0.006,0.006 -0.0543,-0.0558 z m -12.2778,0.13643 2.20968,3.17603 -2.39468,2.27945 -2.41278,-2.4846 2.56677,-2.95021 z m 18.07486,0.006 2.20969,3.17655 -2.39521,2.27945 -2.41277,-2.48512 2.56832,-2.95072 z m -5.94744,0.0305 0.0486,0.0336 -0.36432,0.34727 0.43822,-0.29611 0.39997,0.27699 1.95027,2.80396 -2.59674,2.47168 -0.74156,-0.74155 0.4563,0.65629 -2.33215,-2.40192 z m -9.45162,3.71037 2.94246,2.03812 0.15813,0.22737 -0.47542,0.45269 0.20153,-0.13643 -2.95072,2.25826 -2.42156,-2.42207 0.12196,-0.14004 0.35398,0.24494 -0.65939,-0.67903 z m 18.07435,0.006 2.94246,2.03812 0.15813,0.22789 -0.47543,0.45269 0.20516,-0.1385 -2.95383,2.25981 -2.42259,-2.42207 0.12196,-0.14004 0.3545,0.24546 -0.65939,-0.67903 z m -23.75876,0.0134 2.09755,1.45262 0.38809,0.55759 -0.47542,0.45268 0.53795,-0.36328 0.31626,0.45423 -2.98793,2.28617 -2.83859,-2.83859 z m 18.07435,0.007 2.09807,1.45314 0.38757,0.55708 -0.47542,0.45268 0.53743,-0.36328 0.31626,0.45423 -2.98741,2.28565 -2.83807,-2.83807 z m -6.09058,0.20929 2.78123,1.9265 -0.36484,0.34675 0.43822,-0.29611 0.28267,0.19586 0.078,0.11214 -3.33882,2.55488 -2.59674,-2.59674 0.0351,0.0243 -0.26561,-0.27389 z m 18.07435,0.007 3.2551,2.25413 -3.37861,2.58589 -2.59674,-2.59674 0.0351,0.0243 -0.26562,-0.27388 z m -27.65051,1.44436 0.25373,0.1757 -0.0398,0.0382 z m 18.0759,0.008 0.25218,0.17466 -0.0398,0.0377 z m -17.69039,0.25889 0.4625,0.3204 -0.14779,0.11317 -0.38551,-0.38602 z m 18.07383,0.007 0.4625,0.3204 -0.14728,0.11265 -0.3855,-0.38551 z m -12.01426,0.40256 2.58744,3.71967 -2.4753,2.35593 -1.20509,-1.20509 0.44803,0.6444 -2.19056,-2.25619 z m 18.07487,0.007 2.58692,3.71915 -2.47478,2.35593 -1.20561,-1.20561 0.44855,0.64492 -2.19108,-2.25619 z m -11.71866,0.16433 2.32233,3.33881 -2.47581,2.35541 -1.2051,-1.20509 0.92863,1.33532 -0.0186,0.015 -2.44377,-2.51664 z m -12.28298,0.12764 2.21486,3.18482 -2.39521,2.27893 -2.41277,-2.48461 z m 18.07384,0.007 2.21537,3.18481 -2.39469,2.27894 -2.41277,-2.48461 z m -15.39338,3.7486 2.67839,1.85519 -3.14399,2.40554 -2.03916,-2.03916 0.43512,0.30128 -0.65939,-0.67903 z m 18.07435,0.007 2.67891,1.85519 -3.14451,2.40553 -2.03812,-2.03863 0.43408,0.30076 -0.65939,-0.67903 z m -23.75824,0.0129 2.21485,1.53376 0.30644,0.44132 -2.98689,2.28564 -2.3549,-2.35489 z m 18.07435,0.007 2.21588,1.53479 0.30593,0.44028 -2.98742,2.28565 -2.35489,-2.35489 z m -6.0911,0.20929 2.67839,1.85518 -3.144,2.40554 -2.35489,-2.35489 z m 18.07486,0.007 2.67839,1.85518 -3.14399,2.40554 -2.3549,-2.3549 z m -21.64157,1.65003 0.3266,0.22634 0.0785,0.11214 -0.51263,0.48782 0.5793,-0.39171 2.20968,3.17707 -2.44636,2.32802 -0.9803,-0.97978 0.60513,0.86971 -2.60191,-2.67942 z m 18.07435,0.007 0.32763,0.22686 0.0775,0.11162 -0.51211,0.48731 0.57878,-0.39119 2.20968,3.17655 -2.44636,2.32854 -0.9803,-0.9803 0.60513,0.86972 -2.60139,-2.67891 z m -11.62461,0.0563 0.046,0.0661 -0.006,0.006 -0.0543,-0.0558 z m -12.27729,0.13591 2.20917,3.17655 -2.39469,2.27945 -2.41277,-2.48512 2.56728,-2.94969 z m 18.07435,0.007 2.20968,3.17655 -2.3952,2.27945 -2.41277,-2.48512 2.56832,-2.95073 z m -5.94744,0.0305 0.0486,0.0336 -0.36432,0.34675 0.4377,-0.29611 0.39998,0.27699 1.95079,2.80448 -2.44637,2.32854 -0.9803,-0.98031 0.80047,1.15084 -0.076,0.0723 -2.51199,-2.58692 z m -9.45162,3.70985 2.94711,2.04173 -3.15898,2.41691 -2.1084,-2.10891 0.25063,0.17363 -0.5209,-0.5364 0.0982,-0.11266 -0.11885,0.0909 -0.11782,-0.12092 z m 18.07435,0.007 2.94762,2.04122 -3.15898,2.41742 -2.10891,-2.10892 0.25063,0.17364 -0.5209,-0.53641 0.0982,-0.11265 -0.11885,0.0909 -0.11783,-0.12092 z m -23.75876,0.0134 2.44068,1.68982 0.15193,0.21859 -0.5824,0.55449 0.65836,-0.44493 0.10749,0.15451 -2.98742,2.28565 -2.57503,-2.57504 z m 18.07435,0.006 2.44068,1.69034 0.15193,0.21859 -0.5824,0.55449 0.65836,-0.44494 0.10749,0.15452 -2.98742,2.28565 -2.57555,-2.57556 z m -6.09058,0.20981 2.78122,1.92598 -0.36483,0.34727 0.43821,-0.29611 0.0925,0.0641 -3.15846,2.41691 -2.57555,-2.57504 z m 18.07434,0.006 2.94763,2.04174 -3.15898,2.4169 -2.57556,-2.57555 z m -14.9996,1.82211 0.0527,0.0755 -0.0548,0.0413 -0.0677,-0.0698 z m -6.37583,0.0124 0.17414,0.12093 -0.54725,0.5209 0.65784,-0.44442 0.002,10e-4 2.38332,3.42667 -2.4753,2.35541 -1.2051,-1.2051 0.44907,0.64596 -2.1916,-2.25774 z m 18.07434,0.006 0.17467,0.12092 -0.54777,0.52141 0.65784,-0.44493 0.002,10e-4 2.38332,3.42667 -2.4753,2.35593 -1.2051,-1.2051 0.447,0.64286 -2.18953,-2.25465 z m -11.6365,0.0708 0.23048,0.33125 -0.27337,-0.28216 z m -12.28297,0.12764 2.21537,3.1843 -2.3952,2.27945 -2.41277,-2.48512 z m 18.07435,0.007 2.21537,3.1843 -2.3952,2.27945 -2.41226,-2.48512 z m -5.92987,0.0248 0.48059,0.33279 1.98024,2.84634 -2.4753,2.35593 -1.20509,-1.2051 0.92862,1.33532 -0.0186,0.0145 -2.44378,-2.51612 z m -9.4635,3.7238 2.67839,1.85467 -3.144,2.40553 -2.03863,-2.03811 0.4346,0.30075 -0.6594,-0.67903 z m 18.07435,0.006 2.6789,1.85467 -3.14451,2.40605 -2.03863,-2.03863 0.43459,0.30127 -0.65939,-0.67903 z m -23.75824,0.0134 2.21433,1.53375 0.30696,0.4408 -2.98742,2.28617 -2.35437,-2.3549 z m 18.07435,0.006 2.21485,1.53375 0.30644,0.44184 -2.9869,2.28513 -2.35489,-2.35438 z m -6.09111,0.2098 2.67891,1.85467 -3.14451,2.40606 -2.3549,-2.3549 z m 18.07487,0.007 2.67787,1.85467 -3.14399,2.40554 -2.35438,-2.35438 z m -21.64209,1.65003 0.32866,0.22738 0.077,0.11058 -0.51263,0.48783 0.57929,-0.39119 2.20969,3.17655 -2.39572,2.27996 -0.72451,-0.7245 0.5917,0.85111 -0.0574,0.0543 -2.83755,-2.92178 z m 18.07487,0.006 0.32659,0.22583 0.0786,0.11317 -0.51211,0.48731 0.57877,-0.39119 2.20969,3.17655 -2.39572,2.27996 -0.72451,-0.7245 0.5917,0.85059 -0.0574,0.0548 -2.83756,-2.9223 z m -11.62462,0.0568 0.046,0.0661 -0.006,0.005 -0.0543,-0.0558 z m -12.27728,0.1359 2.20916,3.17655 -2.39468,2.27894 -2.41278,-2.48461 2.56626,-2.94917 z m 18.07434,0.006 2.20917,3.17655 -2.39468,2.27944 -2.41278,-2.4846 2.56832,-2.95124 z m -5.94692,0.0305 0.0486,0.0336 -0.36484,0.34727 0.43822,-0.29611 0.39997,0.27699 1.95027,2.80396 -2.39572,2.27997 -0.72399,-0.72399 0.59118,0.85008 -0.17363,0.16536 -2.51199,-2.58692 z m -9.45214,3.71037 3.17294,2.19728 -0.54777,0.52142 0.12454,-0.0842 -5.0767,-0.39068 0.14108,-0.16226 -0.17208,0.13177 -0.37,-0.37 z m 18.07435,0.007 3.17242,2.19728 -0.54725,0.5209 0.12557,-0.0848 -5.07773,-0.38964 0.14108,-0.16226 -0.17208,0.13125 -0.37001,-0.37 z m -23.75875,0.0129 2.66133,1.8433 -0.65112,0.6196 0.76843,-0.51935 0.30386,0.43667 -5.80999,-0.53692 z m 18.07435,0.007 2.66133,1.84278 -0.65112,0.62012 0.76894,-0.51935 0.30335,0.43666 -5.80999,-0.53691 z m -6.09059,0.20929 2.78123,1.92598 -0.36484,0.34726 0.43822,-0.2961 0.39584,0.2744 -5.97793,-0.40824 z m 18.07435,0.007 3.25096,2.25155 -5.97896,-0.40876 z m -14.88901,1.74718 0.24856,0.35709 -0.11524,0.0879 -0.31367,-0.32298 z m -6.09059,0.20929 0.19069,0.27441 -0.23461,-0.24185 0.006,-0.007 z m 18.07383,0.007 0.18966,0.27285 -0.23255,-0.24029 0.008,-0.009 z m -18.16581,0.0816 0.2961,0.20464 z m 18.07486,0.007 0.29456,0.20412 z m -11.63391,0.0672 -0.14108,0.16176 0.31161,0.216 -0.26355,-0.2713 z"
       sodipodi:nodetypes="cccccccccccccccccccccccccccccccccccccccccccccccccccccccccccccccccccccccccccccccccccccccccccccccccccccccccccccccccccccccccccccccccccccccccccccccccccccccccccccccccccccccccccccccccccccccccccccccccccccccccccccccccccccccccccccccccccccccccccccccccccccccccccccccccccccccccccccccccccccccccccccccccccccccccccccccccccccccccccccccccccccccccccccccccccccccccccccccccccccccccccccccccccccccccccccccccccccccccccccccccccccccccccccccccccccccccccccccccccccccccccccccccccccccccccccccccccccccccccccccccccccccccccccccccccccccccccccccccccccccccccccccccccccccccccccccccccccccccccccccccccccccccccccccccccccccccccccccccccccccccccccccccccccccccccccccccccccccccccccccccccccccccccccccccccccccccc" />
    <path
       id="path2-5"
       style="fill:#000000;stroke-width:1;stroke-linecap:round;stroke-linejoin:round"
       d="m 133.18405,178.82598 0.98392,1.41491 -2.98742,2.28564 -3.68091,-3.68091 3.26078,4.68809 -2.4753,2.35593 -1.20509,-1.2051 0.98443,1.41542 -0.51211,0.48731 0.57878,-0.39119 2.20968,3.17655 -2.59726,2.47116 -0.74155,-0.74155 0.60564,0.87075 -0.47542,0.45268 0.53744,-0.36328 2.59312,3.72793 -2.47479,2.35593 -1.20561,-1.20561 0.98444,1.41542 -0.51211,0.48782 0.57929,-0.39119 2.20917,3.17604 -2.44637,2.32854 -0.9803,-0.9803 0.80047,1.15083 -0.58239,0.55449 0.65835,-0.44494 2.38435,3.4277 -2.4753,2.35593 -1.20509,-1.20509 0.98444,1.41541 -0.51212,0.48731 0.57878,-0.39119 2.20968,3.17655 30.93451,-0.003 2.74143,-3.1502 0.88212,0.61082 -0.74569,-0.76791 0.0687,-0.0791 -0.0837,0.0641 -2.44326,-2.51664 2.75332,-3.16363 0.61598,0.42684 -0.52038,-0.53588 0.0982,-0.11317 -0.11937,0.0915 -2.66186,-2.74195 2.74144,-3.15019 0.88211,0.61081 -0.74569,-0.76791 0.0687,-0.0786 -0.0832,0.0636 -2.44378,-2.51613 2.92747,-3.36414 0.3545,0.24547 -3.20393,-3.29903 2.74143,-3.15071 0.88212,0.61133 -0.74569,-0.76791 0.0687,-0.0791 -0.0837,0.0641 -2.44326,-2.51665 2.94711,-3.38584 -3.40341,2.60398 -3.68092,-3.68091 0.65423,0.94051 -3.27267,2.50476 -2.42208,-2.42208 0.14108,-0.16226 -0.17208,0.13125 -1.22783,-1.22783 0.98392,1.4149 -2.98742,2.28565 -3.68039,-3.68091 0.92862,1.33532 -3.33881,2.55488 -3.68092,-3.68091 0.65423,0.94103 -3.27319,2.50424 -2.42155,-2.42208 0.14107,-0.16226 -0.17208,0.13177 z m 6.97322,1.20407 2.58692,3.71967 -2.47582,2.35592 -1.20458,-1.20509 0.44804,0.6444 -2.19057,-2.25619 z m 18.07434,0.007 2.58693,3.71967 -2.4753,2.35593 -1.2051,-1.20509 0.44752,0.64285 -2.19005,-2.25464 z m -11.71866,0.16485 2.32234,3.33882 -2.4753,2.35592 -1.20561,-1.20561 0.92862,1.33532 -0.0186,0.015 -2.44378,-2.51664 z m -12.28297,0.12764 2.21485,3.18482 -2.3952,2.27945 -2.41277,-2.48512 z m 18.07435,0.007 2.21485,3.18482 -2.39469,2.27893 -2.41277,-2.4846 z m -15.39389,3.74861 2.67838,1.85518 -3.14399,2.40554 -2.03915,-2.03915 0.43511,0.30179 -0.65939,-0.67903 z m 18.07434,0.007 2.67891,1.85466 -3.14451,2.40606 -2.03812,-2.03864 0.43408,0.30076 -0.65939,-0.67903 z m -23.75824,0.0129 2.21434,1.53375 0.30696,0.44132 -2.9869,2.28565 -2.3549,-2.35438 z m 18.07435,0.007 2.21589,1.53479 0.30592,0.44029 -2.98741,2.28565 -2.3549,-2.3549 z m -6.0911,0.20981 2.67839,1.85467 -3.14399,2.40605 -2.3549,-2.35489 z m 18.07487,0.006 2.67787,1.85518 -3.14348,2.40554 -2.35489,-2.35438 z m -21.64209,1.65055 0.32866,0.22737 0.077,0.11059 -0.51263,0.48783 0.57929,-0.39119 2.20968,3.17655 -2.58588,2.46083 -2.83756,-2.92179 z m 18.07486,0.006 0.3266,0.22582 0.0785,0.11317 -0.51212,0.48731 0.57878,-0.3917 2.20968,3.17655 -2.58588,2.46083 -2.83704,-2.92179 z m -11.62461,0.0563 0.046,0.0661 -0.006,0.006 -0.0543,-0.0558 z m -12.2778,0.13643 2.20968,3.17603 -2.39468,2.27945 -2.41278,-2.4846 2.56677,-2.95021 z m 18.07486,0.006 2.20969,3.17655 -2.39521,2.27945 -2.41277,-2.48512 2.56832,-2.95072 z m -5.94744,0.0305 0.0486,0.0336 -0.36432,0.34727 0.43822,-0.29611 0.39997,0.27699 1.95027,2.80396 -2.59674,2.47168 -0.74156,-0.74155 0.4563,0.65629 -2.33215,-2.40192 z m -9.45162,3.71037 2.94246,2.03812 0.15813,0.22737 -0.47542,0.45269 0.20153,-0.13643 -2.95072,2.25826 -2.42156,-2.42207 0.12196,-0.14004 0.35398,0.24494 -0.65939,-0.67903 z m 18.07435,0.006 2.94246,2.03812 0.15813,0.22789 -0.47543,0.45269 0.20516,-0.1385 -2.95383,2.25981 -2.42259,-2.42207 0.12196,-0.14004 0.3545,0.24546 -0.65939,-0.67903 z m -23.75876,0.0134 2.09755,1.45262 0.38809,0.55759 -0.47542,0.45268 0.53795,-0.36328 0.31626,0.45423 -2.98793,2.28617 -2.83859,-2.83859 z m 18.07435,0.007 2.09807,1.45314 0.38757,0.55708 -0.47542,0.45268 0.53743,-0.36328 0.31626,0.45423 -2.98741,2.28565 -2.83807,-2.83807 z m -6.09058,0.20929 2.78123,1.9265 -0.36484,0.34675 0.43822,-0.29611 0.28267,0.19586 0.078,0.11214 -3.33882,2.55488 -2.59674,-2.59674 0.0351,0.0243 -0.26561,-0.27389 z m 18.07435,0.007 3.2551,2.25413 -3.37861,2.58589 -2.59674,-2.59674 0.0351,0.0243 -0.26562,-0.27388 z m -27.65051,1.44436 0.25373,0.1757 -0.0398,0.0382 z m 18.0759,0.008 0.25218,0.17466 -0.0398,0.0377 z m -17.69039,0.25889 0.4625,0.3204 -0.14779,0.11317 -0.38551,-0.38602 z m 18.07383,0.007 0.4625,0.3204 -0.14728,0.11265 -0.3855,-0.38551 z m -12.01426,0.40256 2.58744,3.71967 -2.4753,2.35593 -1.20509,-1.20509 0.44803,0.6444 -2.19056,-2.25619 z m 18.07487,0.007 2.58692,3.71915 -2.47478,2.35593 -1.20561,-1.20561 0.44855,0.64492 -2.19108,-2.25619 z m -11.71866,0.16433 2.32233,3.33881 -2.47581,2.35541 -1.2051,-1.20509 0.92863,1.33532 -0.0186,0.015 -2.44377,-2.51664 z m -12.28298,0.12764 2.21486,3.18482 -2.39521,2.27893 -2.41277,-2.48461 z m 18.07384,0.007 2.21537,3.18481 -2.39469,2.27894 -2.41277,-2.48461 z m -15.39338,3.7486 2.67839,1.85519 -3.14399,2.40554 -2.03916,-2.03916 0.43512,0.30128 -0.65939,-0.67903 z m 18.07435,0.007 2.67891,1.85519 -3.14451,2.40553 -2.03812,-2.03863 0.43408,0.30076 -0.65939,-0.67903 z m -23.75824,0.0129 2.21485,1.53376 0.30644,0.44132 -2.98689,2.28564 -2.3549,-2.35489 z m 18.07435,0.007 2.21588,1.53479 0.30593,0.44028 -2.98742,2.28565 -2.35489,-2.35489 z m -6.0911,0.20929 2.67839,1.85518 -3.144,2.40554 -2.35489,-2.35489 z m 18.07486,0.007 2.67839,1.85518 -3.14399,2.40554 -2.3549,-2.3549 z m -21.64157,1.65003 0.3266,0.22634 0.0785,0.11214 -0.51263,0.48782 0.5793,-0.39171 2.20968,3.17707 -2.44636,2.32802 -0.9803,-0.97978 0.60513,0.86971 -2.60191,-2.67942 z m 18.07435,0.007 0.32763,0.22686 0.0775,0.11162 -0.51211,0.48731 0.57878,-0.39119 2.20968,3.17655 -2.44636,2.32854 -0.9803,-0.9803 0.60513,0.86972 -2.60139,-2.67891 z m -11.62461,0.0563 0.046,0.0661 -0.006,0.006 -0.0543,-0.0558 z m -12.27729,0.13591 2.20917,3.17655 -2.39469,2.27945 -2.41277,-2.48512 2.56728,-2.94969 z m 18.07435,0.007 2.20968,3.17655 -2.3952,2.27945 -2.41277,-2.48512 2.56832,-2.95073 z m -5.94744,0.0305 0.0486,0.0336 -0.36432,0.34675 0.4377,-0.29611 0.39998,0.27699 1.95079,2.80448 -2.44637,2.32854 -0.9803,-0.98031 0.80047,1.15084 -0.076,0.0723 -2.51199,-2.58692 z m -9.45162,3.70985 2.94711,2.04173 -3.15898,2.41691 -2.1084,-2.10891 0.25063,0.17363 -0.5209,-0.5364 0.0982,-0.11266 -0.11885,0.0909 -0.11782,-0.12092 z m 18.07435,0.007 2.94762,2.04122 -3.15898,2.41742 -2.10891,-2.10892 0.25063,0.17364 -0.5209,-0.53641 0.0982,-0.11265 -0.11885,0.0909 -0.11783,-0.12092 z m -23.75876,0.0134 2.44068,1.68982 0.15193,0.21859 -0.5824,0.55449 0.65836,-0.44493 0.10749,0.15451 -2.98742,2.28565 -2.57503,-2.57504 z m 18.07435,0.006 2.44068,1.69034 0.15193,0.21859 -0.5824,0.55449 0.65836,-0.44494 0.10749,0.15452 -2.98742,2.28565 -2.57555,-2.57556 z m -6.09058,0.20981 2.78122,1.92598 -0.36483,0.34727 0.43821,-0.29611 0.0925,0.0641 -3.15846,2.41691 -2.57555,-2.57504 z m 18.07434,0.006 2.94763,2.04174 -3.15898,2.4169 -2.57556,-2.57555 z m -14.9996,1.82211 0.0527,0.0755 -0.0548,0.0413 -0.0677,-0.0698 z m -6.37583,0.0124 0.17414,0.12093 -0.54725,0.5209 0.65784,-0.44442 0.002,10e-4 2.38332,3.42667 -2.4753,2.35541 -1.2051,-1.2051 0.44907,0.64596 -2.1916,-2.25774 z m 18.07434,0.006 0.17467,0.12092 -0.54777,0.52141 0.65784,-0.44493 0.002,10e-4 2.38332,3.42667 -2.4753,2.35593 -1.2051,-1.2051 0.447,0.64286 -2.18953,-2.25465 z m -11.6365,0.0708 0.23048,0.33125 -0.27337,-0.28216 z m -12.28297,0.12764 2.21537,3.1843 -2.3952,2.27945 -2.41277,-2.48512 z m 18.07435,0.007 2.21537,3.1843 -2.3952,2.27945 -2.41226,-2.48512 z m -5.92987,0.0248 0.48059,0.33279 1.98024,2.84634 -2.4753,2.35593 -1.20509,-1.2051 0.92862,1.33532 -0.0186,0.0145 -2.44378,-2.51612 z m -9.4635,3.7238 2.67839,1.85467 -3.144,2.40553 -2.03863,-2.03811 0.4346,0.30075 -0.6594,-0.67903 z m 18.07435,0.006 2.6789,1.85467 -3.14451,2.40605 -2.03863,-2.03863 0.43459,0.30127 -0.65939,-0.67903 z m -23.75824,0.0134 2.21433,1.53375 0.30696,0.4408 -2.98742,2.28617 -2.35437,-2.3549 z m 18.07435,0.006 2.21485,1.53375 0.30644,0.44184 -2.9869,2.28513 -2.35489,-2.35438 z m -6.09111,0.2098 2.67891,1.85467 -3.14451,2.40606 -2.3549,-2.3549 z m 18.07487,0.007 2.67787,1.85467 -3.14399,2.40554 -2.35438,-2.35438 z m -21.64209,1.65003 0.32866,0.22738 0.077,0.11058 -0.51263,0.48783 0.57929,-0.39119 2.20969,3.17655 -5.42348,-0.46091 z m 18.07487,0.006 0.32659,0.22583 0.0786,0.11317 -0.51211,0.48731 0.57877,-0.39119 2.20969,3.17655 -5.42349,-0.46145 z m -11.62462,0.0568 0.046,0.0661 -0.006,0.005 -0.0543,-0.0558 z m -12.27728,0.1359 2.20916,3.17655 -4.80746,-0.20567 2.56626,-2.94917 z m 18.07434,0.006 2.20917,3.17655 -4.80746,-0.20516 2.56832,-2.95124 z m -5.94692,0.0305 0.0486,0.0336 -0.36484,0.34727 0.43822,-0.29611 0.39997,0.27699 1.95027,2.80396 -5.21415,-0.0155 z"
       sodipodi:nodetypes="ccccccccccccccccccccccccccccccccccccccccccccccccccccccccccccccccccccccccccccccccccccccccccccccccccccccccccccccccccccccccccccccccccccccccccccccccccccccccccccccccccccccccccccccccccccccccccccccccccccccccccccccccccccccccccccccccccccccccccccccccccccccccccccccccccccccccccccccccccccccccccccccccccccccccccccccccccccccccccccccccccccccccccccccccccccccccccccccccccccccccccccccccccccccccccccccccccccccccccccccccccccccccccccccccccccccccccccccccccccccccccccccccccccccccccccccccccccccccccccccccccccccccccccccccccccccccccccccccccccccccccccccccccccccccccccccccccccccccccccccccccccccccccccccccccccc" />
    <path
       style="fill:#000000;stroke-width:1;stroke-linecap:round;stroke-linejoin:round"
       d="M 198.77179,179.67895 H 131.9115 l 0.95405,-1.65246 h 65.71565 z"
       id="path3" />
    <path
       style="fill:#000000;stroke-width:0.615749;stroke-linecap:round;stroke-linejoin:round"
       d="m 72.313742,68.171929 1.256883,-1.873899 3.71819,-0.0742 5.59192,0.787367 -5.113306,1.433776 z"
       id="path7" />
    <path
       style="fill:#000000;stroke-width:0.615749;stroke-linecap:round;stroke-linejoin:round"
       d="m 111.20818,74.763799 1.25688,-1.873899 3.71819,-0.0742 5.59192,0.787367 -5.1133,1.433776 z"
       id="path7-3" />
    <path
       style="fill:#ffffff;stroke-width:0.553339;stroke-linecap:round;stroke-linejoin:round"
       d="m 26.852087,135.74337 1.12949,-1.68397 3.341331,-0.0667 5.025146,0.70757 -4.595043,1.28845 z"
       id="path7-9" />
    <path
       style="fill:#ffffff;stroke-width:0.553339;stroke-linecap:round;stroke-linejoin:round"
       d="m 100.47839,153.65348 1.12949,-1.68397 3.34133,-0.0667 5.02515,0.70757 -4.59504,1.28845 z"
       id="path7-9-4" />
    <path
       style="fill:#000000;stroke-width:0.599897;stroke-linecap:round;stroke-linejoin:round"
       d="m 42.647072,78.302406 3.012757,-1.739648 4.431175,0.597737 -1.116452,1.644057 -3.647911,1.199613 z"
       id="path8" />
    <path
       style="fill:#ffffff;stroke-width:0.599897;stroke-linecap:round;stroke-linejoin:round"
       d="m 90.090128,116.11358 3.012757,-1.73965 4.431175,0.59774 -1.116452,1.64405 -3.647911,1.19962 z"
       id="path8-6" />
    <path
       style="fill:#ffffff;stroke-width:0.604622;stroke-linecap:round;stroke-linejoin:round"
       d="m 57.68383,104.31331 3.036487,-1.75335 4.466079,0.60244 -1.125245,1.65701 -3.676646,1.20906 z"
       id="path8-7" />
    <path
       style="fill:#ffffff;stroke-width:0.604622;stroke-linecap:round;stroke-linejoin:round"
       d="m 112.83291,108.98091 3.03648,-1.75335 4.46608,0.60244 -1.12524,1.65701 -3.67665,1.20906 z"
       id="path8-7-0" />
    <path
       style="fill:#000000;stroke-width:0.475371;stroke-linecap:round;stroke-linejoin:round"
       d="m 130.11749,99.84728 2.92203,1.09674 3.32129,2.86289 -1.92963,0.0668 -3.54703,-0.60681 -1.4654,-2.78951 z"
       id="path9" />
    <path
       style="fill:#ffffff;stroke-width:0.475371;stroke-linecap:round;stroke-linejoin:round"
       d="m 153.18401,150.59935 2.92203,1.09674 3.32129,2.86289 -1.92963,0.0668 -3.54703,-0.60681 -1.4654,-2.7895 z"
       id="path9-7" />
    <path
       style="fill:#000000;stroke-width:0.554443;stroke-linecap:round;stroke-linejoin:round"
       d="m 186.66006,126.91803 5.15398,1.69082 -2.23006,1.05818 h -4.49172 l -2.64463,-2.17641 z"
       id="path10" />
    <path
       style="fill:#000000;stroke-width:0.576393;stroke-linecap:round;stroke-linejoin:round"
       d="m 169.69446,187.24949 5.35803,1.75776 -2.31835,1.10007 h -4.66954 l -2.74934,-2.26257 z"
       id="path10-2" />
    <path
       style="fill:#000000;stroke-width:0.610848;stroke-linecap:round;stroke-linejoin:round"
       d="m 187.02788,171.7485 5.67831,1.86283 -2.45693,1.16583 h -4.94868 l -2.91368,-2.39782 z"
       id="path10-4" />
    <path
       style="fill:#000000;stroke-width:0.406068;stroke-linecap:round;stroke-linejoin:round"
       d="m 158.28252,114.43605 3.67657,0.52396 -2.32727,1.22523 -4.36216,0.10984 -1.93443,-1.20943 z"
       id="path12" />
    <path
       style="fill:#000000;stroke-width:0.680377;stroke-linecap:round;stroke-linejoin:round"
       d="m 172.50833,210.72928 3.41693,-1.97303 5.02565,0.67792 -1.26623,1.86462 -4.1373,1.36054 z"
       id="path8-7-0-8-1" />
    <path
       style="fill:#ffffff;stroke-width:0.680377;stroke-linecap:round;stroke-linejoin:round"
       d="m 127.55482,210.83148 3.41693,-1.97303 5.02565,0.67792 -1.26623,1.86462 -4.1373,1.36054 z"
       id="path8-7-0-8-1-7" />
  </g>
</svg>
